%TF.GenerationSoftware,KiCad,Pcbnew,8.99.0-2608-ga0707285a1*%
%TF.CreationDate,2024-10-22T09:17:45-04:00*%
%TF.ProjectId,shinobi,7368696e-6f62-4692-9e6b-696361645f70,rev?*%
%TF.SameCoordinates,Original*%
%TF.FileFunction,Paste,Top*%
%TF.FilePolarity,Positive*%
%FSLAX46Y46*%
G04 Gerber Fmt 4.6, Leading zero omitted, Abs format (unit mm)*
G04 Created by KiCad (PCBNEW 8.99.0-2608-ga0707285a1) date 2024-10-22 09:17:45*
%MOMM*%
%LPD*%
G01*
G04 APERTURE LIST*
G04 Aperture macros list*
%AMRoundRect*
0 Rectangle with rounded corners*
0 $1 Rounding radius*
0 $2 $3 $4 $5 $6 $7 $8 $9 X,Y pos of 4 corners*
0 Add a 4 corners polygon primitive as box body*
4,1,4,$2,$3,$4,$5,$6,$7,$8,$9,$2,$3,0*
0 Add four circle primitives for the rounded corners*
1,1,$1+$1,$2,$3*
1,1,$1+$1,$4,$5*
1,1,$1+$1,$6,$7*
1,1,$1+$1,$8,$9*
0 Add four rect primitives between the rounded corners*
20,1,$1+$1,$2,$3,$4,$5,0*
20,1,$1+$1,$4,$5,$6,$7,0*
20,1,$1+$1,$6,$7,$8,$9,0*
20,1,$1+$1,$8,$9,$2,$3,0*%
G04 Aperture macros list end*
%ADD10RoundRect,0.140000X-0.170000X0.140000X-0.170000X-0.140000X0.170000X-0.140000X0.170000X0.140000X0*%
%ADD11RoundRect,0.140000X0.170000X-0.140000X0.170000X0.140000X-0.170000X0.140000X-0.170000X-0.140000X0*%
%ADD12RoundRect,0.225000X0.225000X0.250000X-0.225000X0.250000X-0.225000X-0.250000X0.225000X-0.250000X0*%
%ADD13RoundRect,0.135000X-0.135000X-0.185000X0.135000X-0.185000X0.135000X0.185000X-0.135000X0.185000X0*%
%ADD14RoundRect,0.140000X0.140000X0.170000X-0.140000X0.170000X-0.140000X-0.170000X0.140000X-0.170000X0*%
%ADD15RoundRect,0.147500X0.147500X0.172500X-0.147500X0.172500X-0.147500X-0.172500X0.147500X-0.172500X0*%
%ADD16RoundRect,0.150000X0.350000X-0.425000X0.350000X0.425000X-0.350000X0.425000X-0.350000X-0.425000X0*%
%ADD17RoundRect,0.150000X-0.350000X0.425000X-0.350000X-0.425000X0.350000X-0.425000X0.350000X0.425000X0*%
%ADD18RoundRect,0.168750X0.168750X0.206250X-0.168750X0.206250X-0.168750X-0.206250X0.168750X-0.206250X0*%
%ADD19RoundRect,0.100000X0.100000X0.162500X-0.100000X0.162500X-0.100000X-0.162500X0.100000X-0.162500X0*%
%ADD20RoundRect,0.375000X0.375000X0.625000X-0.375000X0.625000X-0.375000X-0.625000X0.375000X-0.625000X0*%
%ADD21RoundRect,0.250000X0.250000X0.750000X-0.250000X0.750000X-0.250000X-0.750000X0.250000X-0.750000X0*%
%ADD22RoundRect,0.135000X-0.185000X0.135000X-0.185000X-0.135000X0.185000X-0.135000X0.185000X0.135000X0*%
%ADD23RoundRect,0.076200X-0.923800X-0.148800X0.923800X-0.148800X0.923800X0.148800X-0.923800X0.148800X0*%
%ADD24RoundRect,0.076200X-0.148800X-0.923800X0.148800X-0.923800X0.148800X0.923800X-0.148800X0.923800X0*%
%ADD25RoundRect,0.250000X-0.850000X0.375000X-0.850000X-0.375000X0.850000X-0.375000X0.850000X0.375000X0*%
%ADD26RoundRect,0.100000X-0.225000X-0.100000X0.225000X-0.100000X0.225000X0.100000X-0.225000X0.100000X0*%
%ADD27RoundRect,0.225000X-0.250000X0.225000X-0.250000X-0.225000X0.250000X-0.225000X0.250000X0.225000X0*%
%ADD28RoundRect,0.172500X-0.243952X0.000000X0.000000X-0.243952X0.243952X0.000000X0.000000X0.243952X0*%
%ADD29RoundRect,0.062500X-0.291682X0.203293X0.203293X-0.291682X0.291682X-0.203293X-0.203293X0.291682X0*%
%ADD30RoundRect,0.062500X-0.291682X-0.203293X-0.203293X-0.291682X0.291682X0.203293X0.203293X0.291682X0*%
%ADD31RoundRect,0.100000X0.150000X0.100000X-0.150000X0.100000X-0.150000X-0.100000X0.150000X-0.100000X0*%
%ADD32RoundRect,0.075000X0.175000X0.075000X-0.175000X0.075000X-0.175000X-0.075000X0.175000X-0.075000X0*%
%ADD33RoundRect,0.135000X0.185000X-0.135000X0.185000X0.135000X-0.185000X0.135000X-0.185000X-0.135000X0*%
%ADD34RoundRect,0.140000X-0.140000X-0.170000X0.140000X-0.170000X0.140000X0.170000X-0.140000X0.170000X0*%
%ADD35RoundRect,0.062500X0.237500X-0.062500X0.237500X0.062500X-0.237500X0.062500X-0.237500X-0.062500X0*%
%ADD36RoundRect,0.075000X0.475000X-0.075000X0.475000X0.075000X-0.475000X0.075000X-0.475000X-0.075000X0*%
%ADD37RoundRect,0.150000X-0.425000X-0.350000X0.425000X-0.350000X0.425000X0.350000X-0.425000X0.350000X0*%
%ADD38RoundRect,0.250000X-0.475000X0.250000X-0.475000X-0.250000X0.475000X-0.250000X0.475000X0.250000X0*%
%ADD39RoundRect,0.140000X0.167393X0.143107X-0.108353X0.191728X-0.167393X-0.143107X0.108353X-0.191728X0*%
%ADD40RoundRect,0.112500X0.112500X0.387500X-0.112500X0.387500X-0.112500X-0.387500X0.112500X-0.387500X0*%
%ADD41RoundRect,0.140000X0.207631X-0.073414X0.111865X0.189700X-0.207631X0.073414X-0.111865X-0.189700X0*%
%ADD42RoundRect,0.168750X-0.206250X0.168750X-0.206250X-0.168750X0.206250X-0.168750X0.206250X0.168750X0*%
%ADD43RoundRect,0.100000X-0.162500X0.100000X-0.162500X-0.100000X0.162500X-0.100000X0.162500X0.100000X0*%
%ADD44RoundRect,0.500000X-0.300000X-0.000010X0.300000X-0.000010X0.300000X0.000010X-0.300000X0.000010X0*%
%ADD45RoundRect,0.500000X-0.550000X-0.000010X0.550000X-0.000010X0.550000X0.000010X-0.550000X0.000010X0*%
%ADD46RoundRect,0.091440X-0.480060X0.213360X-0.480060X-0.213360X0.480060X-0.213360X0.480060X0.213360X0*%
%ADD47RoundRect,0.076200X-0.495300X0.076200X-0.495300X-0.076200X0.495300X-0.076200X0.495300X0.076200X0*%
%ADD48RoundRect,0.087500X-0.725000X-0.087500X0.725000X-0.087500X0.725000X0.087500X-0.725000X0.087500X0*%
%ADD49RoundRect,0.135000X0.135000X0.185000X-0.135000X0.185000X-0.135000X-0.185000X0.135000X-0.185000X0*%
%ADD50RoundRect,0.100000X-0.150000X-0.100000X0.150000X-0.100000X0.150000X0.100000X-0.150000X0.100000X0*%
%ADD51RoundRect,0.075000X-0.175000X-0.075000X0.175000X-0.075000X0.175000X0.075000X-0.175000X0.075000X0*%
%ADD52RoundRect,0.140000X0.219203X0.021213X0.021213X0.219203X-0.219203X-0.021213X-0.021213X-0.219203X0*%
%ADD53RoundRect,0.140000X0.021213X-0.219203X0.219203X-0.021213X-0.021213X0.219203X-0.219203X0.021213X0*%
%ADD54RoundRect,0.232500X-0.232500X0.232500X-0.232500X-0.232500X0.232500X-0.232500X0.232500X0.232500X0*%
%ADD55RoundRect,0.062500X-0.062500X0.375000X-0.062500X-0.375000X0.062500X-0.375000X0.062500X0.375000X0*%
%ADD56RoundRect,0.062500X-0.375000X0.062500X-0.375000X-0.062500X0.375000X-0.062500X0.375000X0.062500X0*%
%ADD57RoundRect,0.225000X-0.225000X-0.250000X0.225000X-0.250000X0.225000X0.250000X-0.225000X0.250000X0*%
G04 APERTURE END LIST*
D10*
%TO.C,C52*%
X163591900Y-87497400D03*
X163591900Y-88457400D03*
%TD*%
D11*
%TO.C,C42*%
X154518100Y-125459600D03*
X154518100Y-124499600D03*
%TD*%
D12*
%TO.C,C10*%
X135349900Y-114965000D03*
X133799900Y-114965000D03*
%TD*%
D13*
%TO.C,R16*%
X152384100Y-126757600D03*
X153404100Y-126757600D03*
%TD*%
D11*
%TO.C,C47*%
X174801100Y-112883600D03*
X174801100Y-111923600D03*
%TD*%
D14*
%TO.C,C31*%
X153008100Y-124398200D03*
X152048100Y-124398200D03*
%TD*%
D11*
%TO.C,C17*%
X139914900Y-92207400D03*
X139914900Y-91247400D03*
%TD*%
D15*
%TO.C,FB3*%
X149603100Y-87592600D03*
X148633100Y-87592600D03*
%TD*%
D11*
%TO.C,C57*%
X174801100Y-119283600D03*
X174801100Y-118323600D03*
%TD*%
D13*
%TO.C,R19*%
X159470700Y-126878000D03*
X160490700Y-126878000D03*
%TD*%
D16*
%TO.C,Y2*%
X135418100Y-122792600D03*
X135418100Y-121192600D03*
X134218100Y-121192600D03*
X134218100Y-122792600D03*
%TD*%
D17*
%TO.C,Y1*%
X137314900Y-90927400D03*
X137314900Y-92527400D03*
X138514900Y-92527400D03*
X138514900Y-90927400D03*
%TD*%
D11*
%TO.C,C46*%
X158101100Y-125586600D03*
X158101100Y-124626600D03*
%TD*%
D10*
%TO.C,C24*%
X159204900Y-86747400D03*
X159204900Y-87707400D03*
%TD*%
D18*
%TO.C,C37*%
X146656100Y-89492600D03*
D19*
X145818100Y-88979600D03*
D18*
X144981100Y-89492600D03*
D19*
X145818100Y-90005600D03*
%TD*%
D20*
%TO.C,AE1*%
X131774900Y-83127400D03*
D21*
X139024900Y-83127400D03*
%TD*%
D10*
%TO.C,C43*%
X157085100Y-124626600D03*
X157085100Y-125586600D03*
%TD*%
D22*
%TO.C,R20*%
X159548900Y-124971000D03*
X159548900Y-125991000D03*
%TD*%
D11*
%TO.C,C21*%
X142124900Y-85857400D03*
X142124900Y-84897400D03*
%TD*%
D23*
%TO.C,U7*%
X142318100Y-94492600D03*
X142318100Y-95142600D03*
X142318100Y-95792600D03*
X142318100Y-96442600D03*
X142318100Y-97092600D03*
X142318100Y-97742600D03*
X142318100Y-98392600D03*
X142318100Y-99042600D03*
X142318100Y-99692600D03*
X142318100Y-100342600D03*
X142318100Y-100992600D03*
X142318100Y-101642600D03*
X142318100Y-102292600D03*
X142318100Y-102942600D03*
X142318100Y-103592600D03*
X142318100Y-104242600D03*
X142318100Y-104892600D03*
X142318100Y-105542600D03*
X142318100Y-106192600D03*
X142318100Y-106842600D03*
X142318100Y-107492600D03*
X142318100Y-108142600D03*
X142318100Y-108792600D03*
X142318100Y-109442600D03*
X142318100Y-110092600D03*
X142318100Y-110742600D03*
X142318100Y-111392600D03*
X142318100Y-112042600D03*
X142318100Y-112692600D03*
X142318100Y-113342600D03*
X142318100Y-113992600D03*
X142318100Y-114642600D03*
X142318100Y-115292600D03*
X142318100Y-115942600D03*
X142318100Y-116592600D03*
X142318100Y-117242600D03*
X142318100Y-117892600D03*
X142318100Y-118542600D03*
X142318100Y-119192600D03*
X142318100Y-119842600D03*
D24*
X144918100Y-122442600D03*
X145568100Y-122442600D03*
X146218100Y-122442600D03*
X146868100Y-122442600D03*
X147518100Y-122442600D03*
X148168100Y-122442600D03*
X148818100Y-122442600D03*
X149468100Y-122442600D03*
X150118100Y-122442600D03*
X150768100Y-122442600D03*
X151418100Y-122442600D03*
X152068100Y-122442600D03*
X152718100Y-122442600D03*
X153368100Y-122442600D03*
X154018100Y-122442600D03*
X154668100Y-122442600D03*
X155318100Y-122442600D03*
X155968100Y-122442600D03*
X156618100Y-122442600D03*
X157268100Y-122442600D03*
X157918100Y-122442600D03*
X158568100Y-122442600D03*
X159218100Y-122442600D03*
X159868100Y-122442600D03*
X160518100Y-122442600D03*
X161168100Y-122442600D03*
X161818100Y-122442600D03*
X162468100Y-122442600D03*
X163118100Y-122442600D03*
X163768100Y-122442600D03*
X164418100Y-122442600D03*
X165068100Y-122442600D03*
X165718100Y-122442600D03*
X166368100Y-122442600D03*
X167018100Y-122442600D03*
X167668100Y-122442600D03*
X168318100Y-122442600D03*
X168968100Y-122442600D03*
X169618100Y-122442600D03*
X170268100Y-122442600D03*
D23*
X172868100Y-119842600D03*
X172868100Y-119192600D03*
X172868100Y-118542600D03*
X172868100Y-117892600D03*
X172868100Y-117242600D03*
X172868100Y-116592600D03*
X172868100Y-115942600D03*
X172868100Y-115292600D03*
X172868100Y-114642600D03*
X172868100Y-113992600D03*
X172868100Y-113342600D03*
X172868100Y-112692600D03*
X172868100Y-112042600D03*
X172868100Y-111392600D03*
X172868100Y-110742600D03*
X172868100Y-110092600D03*
X172868100Y-109442600D03*
X172868100Y-108792600D03*
X172868100Y-108142600D03*
X172868100Y-107492600D03*
X172868100Y-106842600D03*
X172868100Y-106192600D03*
X172868100Y-105542600D03*
X172868100Y-104892600D03*
X172868100Y-104242600D03*
X172868100Y-103592600D03*
X172868100Y-102942600D03*
X172868100Y-102292600D03*
X172868100Y-101642600D03*
X172868100Y-100992600D03*
X172868100Y-100342600D03*
X172868100Y-99692600D03*
X172868100Y-99042600D03*
X172868100Y-98392600D03*
X172868100Y-97742600D03*
X172868100Y-97092600D03*
X172868100Y-96442600D03*
X172868100Y-95792600D03*
X172868100Y-95142600D03*
X172868100Y-94492600D03*
D24*
X170268100Y-91892600D03*
X169618100Y-91892600D03*
X168968100Y-91892600D03*
X168318100Y-91892600D03*
X167668100Y-91892600D03*
X167018100Y-91892600D03*
X166368100Y-91892600D03*
X165718100Y-91892600D03*
X165068100Y-91892600D03*
X164418100Y-91892600D03*
X163768100Y-91892600D03*
X163118100Y-91892600D03*
X162468100Y-91892600D03*
X161818100Y-91892600D03*
X161168100Y-91892600D03*
X160518100Y-91892600D03*
X159868100Y-91892600D03*
X159218100Y-91892600D03*
X158568100Y-91892600D03*
X157918100Y-91892600D03*
X157268100Y-91892600D03*
X156618100Y-91892600D03*
X155968100Y-91892600D03*
X155318100Y-91892600D03*
X154668100Y-91892600D03*
X154018100Y-91892600D03*
X153368100Y-91892600D03*
X152718100Y-91892600D03*
X152068100Y-91892600D03*
X151418100Y-91892600D03*
X150768100Y-91892600D03*
X150118100Y-91892600D03*
X149468100Y-91892600D03*
X148818100Y-91892600D03*
X148168100Y-91892600D03*
X147518100Y-91892600D03*
X146868100Y-91892600D03*
X146218100Y-91892600D03*
X145568100Y-91892600D03*
X144918100Y-91892600D03*
%TD*%
D13*
%TO.C,R22*%
X165608100Y-89892600D03*
X166628100Y-89892600D03*
%TD*%
D25*
%TO.C,L2*%
X132564900Y-116852400D03*
X132564900Y-119002400D03*
%TD*%
D11*
%TO.C,C39*%
X150354100Y-125840600D03*
X150354100Y-124880600D03*
%TD*%
D10*
%TO.C,C44*%
X174801100Y-106123600D03*
X174801100Y-107083600D03*
%TD*%
D13*
%TO.C,R6*%
X127254900Y-118327400D03*
X128274900Y-118327400D03*
%TD*%
D26*
%TO.C,Q1*%
X129974900Y-94777400D03*
X129974900Y-95427400D03*
X129974900Y-96077400D03*
X131874900Y-96077400D03*
X131874900Y-95427400D03*
X131874900Y-94777400D03*
%TD*%
D27*
%TO.C,C3*%
X134024900Y-105452400D03*
X134024900Y-107002400D03*
%TD*%
D11*
%TO.C,C7*%
X126864900Y-120207400D03*
X126864900Y-119247400D03*
%TD*%
D10*
%TO.C,C26*%
X150614900Y-86747400D03*
X150614900Y-87707400D03*
%TD*%
D11*
%TO.C,C36*%
X147052100Y-125840600D03*
X147052100Y-124880600D03*
%TD*%
D13*
%TO.C,R11*%
X149114900Y-88627400D03*
X150134900Y-88627400D03*
%TD*%
%TO.C,R4*%
X132064900Y-112227400D03*
X133084900Y-112227400D03*
%TD*%
D10*
%TO.C,C38*%
X149084100Y-124880600D03*
X149084100Y-125840600D03*
%TD*%
D13*
%TO.C,R18*%
X156016300Y-127341800D03*
X157036300Y-127341800D03*
%TD*%
D28*
%TO.C,U3*%
X136724900Y-96426359D03*
X136123859Y-97027400D03*
X137325941Y-97027400D03*
X136724900Y-97628441D03*
D29*
X136221086Y-95462926D03*
X135867533Y-95816480D03*
X135513980Y-96170033D03*
X135160426Y-96523586D03*
D30*
X135160426Y-97531214D03*
X135513980Y-97884767D03*
X135867533Y-98238320D03*
X136221086Y-98591874D03*
D29*
X137228714Y-98591874D03*
X137582267Y-98238320D03*
X137935820Y-97884767D03*
X138289374Y-97531214D03*
D30*
X138289374Y-96523586D03*
X137935820Y-96170033D03*
X137582267Y-95816480D03*
X137228714Y-95462926D03*
%TD*%
D31*
%TO.C,RN2*%
X127924900Y-88977400D03*
D32*
X127924900Y-88477400D03*
X127924900Y-87977400D03*
D31*
X127924900Y-87477400D03*
X126924900Y-87477400D03*
D32*
X126924900Y-87977400D03*
X126924900Y-88477400D03*
D31*
X126924900Y-88977400D03*
%TD*%
D10*
%TO.C,C51*%
X140401100Y-109323600D03*
X140401100Y-110283600D03*
%TD*%
D33*
%TO.C,R2*%
X128318100Y-97002600D03*
X128318100Y-95982600D03*
%TD*%
D34*
%TO.C,C19*%
X144718100Y-86592600D03*
X145678100Y-86592600D03*
%TD*%
D13*
%TO.C,R9*%
X157704900Y-88627400D03*
X158724900Y-88627400D03*
%TD*%
D14*
%TO.C,C56*%
X153516100Y-90003600D03*
X152556100Y-90003600D03*
%TD*%
D35*
%TO.C,U2*%
X127414900Y-116327400D03*
X127414900Y-116827400D03*
X127414900Y-117327400D03*
D36*
X128514900Y-117327400D03*
X128514900Y-116827400D03*
X128514900Y-116327400D03*
%TD*%
D37*
%TO.C,Y3*%
X165018100Y-88577400D03*
X166618100Y-88577400D03*
X166618100Y-87377400D03*
X165018100Y-87377400D03*
%TD*%
D33*
%TO.C,R1*%
X127218100Y-97002600D03*
X127218100Y-95982600D03*
%TD*%
%TO.C,R17*%
X158101100Y-127394600D03*
X158101100Y-126374600D03*
%TD*%
D10*
%TO.C,C55*%
X140401100Y-95923600D03*
X140401100Y-96883600D03*
%TD*%
D38*
%TO.C,C1*%
X135074900Y-109777400D03*
X135074900Y-111677400D03*
%TD*%
D33*
%TO.C,R15*%
X154518100Y-127267600D03*
X154518100Y-126247600D03*
%TD*%
D38*
%TO.C,C2*%
X130264900Y-115877400D03*
X130264900Y-117777400D03*
%TD*%
D39*
%TO.C,C8*%
X134947608Y-112810751D03*
X134002192Y-112644049D03*
%TD*%
D10*
%TO.C,C45*%
X140401100Y-115923600D03*
X140401100Y-116883600D03*
%TD*%
D11*
%TO.C,C48*%
X174801100Y-99883600D03*
X174801100Y-98923600D03*
%TD*%
D10*
%TO.C,C40*%
X140401100Y-104123600D03*
X140401100Y-105083600D03*
%TD*%
D11*
%TO.C,C22*%
X143324900Y-122807400D03*
X143324900Y-121847400D03*
%TD*%
D34*
%TO.C,C16*%
X137934900Y-89527400D03*
X138894900Y-89527400D03*
%TD*%
%TO.C,C50*%
X169038100Y-90003600D03*
X169998100Y-90003600D03*
%TD*%
D22*
%TO.C,R14*%
X156069100Y-124596600D03*
X156069100Y-125616600D03*
%TD*%
D11*
%TO.C,C6*%
X131674900Y-114107400D03*
X131674900Y-113147400D03*
%TD*%
D10*
%TO.C,C53*%
X140401100Y-101523600D03*
X140401100Y-102483600D03*
%TD*%
D34*
%TO.C,C18*%
X144744900Y-84327400D03*
X145704900Y-84327400D03*
%TD*%
D33*
%TO.C,R3*%
X132574900Y-114137400D03*
X132574900Y-113117400D03*
%TD*%
D12*
%TO.C,C14*%
X130539900Y-121065000D03*
X128989900Y-121065000D03*
%TD*%
D33*
%TO.C,R5*%
X127764900Y-120237400D03*
X127764900Y-119217400D03*
%TD*%
D40*
%TO.C,U5*%
X141474900Y-88927400D03*
X142124900Y-88927400D03*
X142774900Y-88927400D03*
X142774900Y-87027400D03*
X142124900Y-87027400D03*
X141474900Y-87027400D03*
%TD*%
D12*
%TO.C,C11*%
X130539900Y-119927400D03*
X128989900Y-119927400D03*
%TD*%
D41*
%TO.C,C23*%
X133579070Y-86078452D03*
X133250730Y-85176348D03*
%TD*%
D34*
%TO.C,C15*%
X137094900Y-88339900D03*
X138054900Y-88339900D03*
%TD*%
%TO.C,C30*%
X139043100Y-119971600D03*
X140003100Y-119971600D03*
%TD*%
D33*
%TO.C,R13*%
X148068100Y-125870600D03*
X148068100Y-124850600D03*
%TD*%
D14*
%TO.C,C41*%
X156818100Y-90003600D03*
X155858100Y-90003600D03*
%TD*%
D34*
%TO.C,C49*%
X161405700Y-126903400D03*
X162365700Y-126903400D03*
%TD*%
D42*
%TO.C,C20*%
X137624900Y-115289400D03*
D43*
X137111900Y-116127400D03*
D42*
X137624900Y-116964400D03*
D43*
X138137900Y-116127400D03*
%TD*%
D15*
%TO.C,FB1*%
X158203100Y-87592600D03*
X157233100Y-87592600D03*
%TD*%
D10*
%TO.C,C25*%
X154804900Y-86747400D03*
X154804900Y-87707400D03*
%TD*%
D44*
%TO.C,J2*%
X127806450Y-98707400D03*
X127806450Y-107347400D03*
D45*
X131806450Y-98707400D03*
X131806450Y-107347400D03*
D46*
X132381450Y-99827400D03*
X132381450Y-100627400D03*
D47*
X132381450Y-101777400D03*
X132381450Y-102777400D03*
X132381450Y-103277400D03*
X132381450Y-104277400D03*
D46*
X132381450Y-106227400D03*
X132381450Y-105427400D03*
D47*
X132381450Y-104777459D03*
X132381450Y-103777459D03*
X132381450Y-102277460D03*
X132381450Y-101277460D03*
%TD*%
D12*
%TO.C,C13*%
X135349900Y-113827400D03*
X133799900Y-113827400D03*
%TD*%
D48*
%TO.C,U6*%
X137410600Y-121257600D03*
X137410600Y-121757600D03*
X137410600Y-122257600D03*
X137410600Y-122757600D03*
X137410600Y-123257600D03*
X141635600Y-123257600D03*
X141635600Y-122757600D03*
X141635600Y-122257600D03*
X141635600Y-121757600D03*
X141635600Y-121257600D03*
%TD*%
D35*
%TO.C,U1*%
X132224900Y-110227400D03*
X132224900Y-110727400D03*
X132224900Y-111227400D03*
D36*
X133324900Y-111227400D03*
X133324900Y-110727400D03*
X133324900Y-110227400D03*
%TD*%
D39*
%TO.C,C9*%
X130137608Y-118910751D03*
X129192192Y-118744049D03*
%TD*%
D49*
%TO.C,R21*%
X173292300Y-122356800D03*
X172272300Y-122356800D03*
%TD*%
D13*
%TO.C,R10*%
X153304900Y-88627400D03*
X154324900Y-88627400D03*
%TD*%
D25*
%TO.C,L1*%
X137374900Y-110752400D03*
X137374900Y-112902400D03*
%TD*%
D50*
%TO.C,RN1*%
X126924900Y-90577400D03*
D51*
X126924900Y-91077400D03*
X126924900Y-91577400D03*
D50*
X126924900Y-92077400D03*
X127924900Y-92077400D03*
D51*
X127924900Y-91577400D03*
X127924900Y-91077400D03*
D50*
X127924900Y-90577400D03*
%TD*%
D13*
%TO.C,R12*%
X148923100Y-90003600D03*
X149943100Y-90003600D03*
%TD*%
D52*
%TO.C,C5*%
X134454311Y-98866811D03*
X133775489Y-98187989D03*
%TD*%
D11*
%TO.C,C54*%
X168091900Y-88470600D03*
X168091900Y-87510600D03*
%TD*%
D13*
%TO.C,R7*%
X144714900Y-85327400D03*
X145734900Y-85327400D03*
%TD*%
%TO.C,R8*%
X144688100Y-87592600D03*
X145708100Y-87592600D03*
%TD*%
D15*
%TO.C,FB2*%
X153803100Y-87592600D03*
X152833100Y-87592600D03*
%TD*%
D14*
%TO.C,C32*%
X162279100Y-124169600D03*
X161319100Y-124169600D03*
%TD*%
D53*
%TO.C,C4*%
X134510489Y-95391811D03*
X135189311Y-94712989D03*
%TD*%
D14*
%TO.C,C27*%
X158184900Y-86627400D03*
X157224900Y-86627400D03*
%TD*%
D54*
%TO.C,U4*%
X133874900Y-88927400D03*
X132724900Y-88927400D03*
X131574900Y-88927400D03*
X133874900Y-90077400D03*
X132724900Y-90077400D03*
X131574900Y-90077400D03*
X133874900Y-91227400D03*
X132724900Y-91227400D03*
X131574900Y-91227400D03*
D55*
X134474900Y-87639900D03*
X133974900Y-87639900D03*
X133474900Y-87639900D03*
X132974900Y-87639900D03*
X132474900Y-87639900D03*
X131974900Y-87639900D03*
X131474900Y-87639900D03*
X130974900Y-87639900D03*
D56*
X130287400Y-88327400D03*
X130287400Y-88827400D03*
X130287400Y-89327400D03*
X130287400Y-89827400D03*
X130287400Y-90327400D03*
X130287400Y-90827400D03*
X130287400Y-91327400D03*
X130287400Y-91827400D03*
D55*
X130974900Y-92514900D03*
X131474900Y-92514900D03*
X131974900Y-92514900D03*
X132474900Y-92514900D03*
X132974900Y-92514900D03*
X133474900Y-92514900D03*
X133974900Y-92514900D03*
X134474900Y-92514900D03*
D56*
X135162400Y-91827400D03*
X135162400Y-91327400D03*
X135162400Y-90827400D03*
X135162400Y-90327400D03*
X135162400Y-89827400D03*
X135162400Y-89327400D03*
X135162400Y-88827400D03*
X135162400Y-88327400D03*
%TD*%
D14*
%TO.C,C28*%
X153784900Y-86627400D03*
X152824900Y-86627400D03*
%TD*%
D57*
%TO.C,C12*%
X137199900Y-87239900D03*
X138749900Y-87239900D03*
%TD*%
D14*
%TO.C,C29*%
X149594900Y-86627400D03*
X148634900Y-86627400D03*
%TD*%
M02*
