M48
; DRILL file {KiCad 8.99.0-2608-ga0707285a1} date 2024-10-22T01:26:18-0400
; FORMAT={-:-/ absolute / inch / decimal}
; #@! TF.CreationDate,2024-10-22T01:26:18-04:00
; #@! TF.GenerationSoftware,Kicad,Pcbnew,8.99.0-2608-ga0707285a1
; #@! TF.FileFunction,Plated,1,4,PTH
FMAT,2
INCH
; #@! TA.AperFunction,Plated,PTH,ViaDrill
T1C0.0079
; #@! TA.AperFunction,Plated,PTH,ComponentDrill
T2C0.0236
; #@! TA.AperFunction,Plated,PTH,ComponentDrill
T3C0.0433
%
G90
G05
T1
X4.9771Y-3.5192
X4.9967Y-3.4234
X4.9968Y-3.6887
X4.9969Y-3.5449
X5.0007Y-4.921
X5.0061Y-4.7759
X5.0085Y-4.5523
X5.014Y-4.8224
X5.0275Y-4.7872
X5.0297Y-3.7517
X5.0301Y-4.757
X5.0321Y-4.5523
X5.0361Y-3.9643
X5.0361Y-4.0509
X5.0361Y-4.1375
X5.037Y-3.5349
X5.0456Y-4.6362
X5.0494Y-4.7875
X5.0557Y-4.5523
X5.0598Y-3.4834
X5.0611Y-4.6811
X5.0637Y-3.5857
X5.0653Y-4.6367
X5.0702Y-4.6573
X5.0737Y-4.6935
X5.0781Y-4.7974
X5.0793Y-4.5523
X5.0833Y-3.4538
X5.0834Y-3.3698
X5.0842Y-4.6437
X5.0879Y-3.7106
X5.0913Y-3.6153
X5.0914Y-3.5112
X5.0951Y-3.4853
X5.099Y-3.6389
X5.1306Y-4.854
X5.1344Y-3.6423
X5.1368Y-3.2496
X5.1368Y-3.2693
X5.1368Y-3.289
X5.1407Y-3.2299
X5.1407Y-3.3087
X5.1503Y-3.7123
X5.1503Y-3.7399
X5.1503Y-3.7674
X5.1503Y-3.795
X5.1505Y-3.9252
X5.1526Y-3.3244
X5.1722Y-3.3323
X5.1738Y-4.7216
X5.1799Y-4.0659
X5.1801Y-4.0267
X5.1896Y-4.5311
X5.1919Y-3.3402
X5.1935Y-4.2845
X5.1935Y-4.3082
X5.2077Y-3.352
X5.2094Y-3.4189
X5.2111Y-4.5421
X5.2171Y-4.2845
X5.2171Y-4.3082
X5.2191Y-4.5149
X5.2195Y-3.3716
X5.221Y-3.8039
X5.2212Y-4.8186
X5.2254Y-3.5464
X5.2274Y-3.3913
X5.2291Y-3.4185
X5.2341Y-4.3955
X5.2362Y-4.5404
X5.2407Y-4.2845
X5.2407Y-4.3082
X5.2413Y-4.2156
X5.2429Y-3.9055
X5.247Y-4.2423
X5.2508Y-4.4394
X5.252Y-4.3958
X5.2524Y-3.9297
X5.2565Y-3.9617
X5.2566Y-3.984
X5.2604Y-4.4163
X5.2628Y-4.4534
X5.2704Y-4.3997
X5.2729Y-4.2423
X5.2769Y-3.7881
X5.2785Y-3.348
X5.2864Y-3.3323
X5.2864Y-3.3677
X5.288Y-4.6704
X5.288Y-4.6901
X5.2943Y-3.3874
X5.2967Y-4.2411
X5.2982Y-3.4071
X5.3061Y-3.3283
X5.3077Y-4.6704
X5.3077Y-4.6901
X5.3117Y-4.1507
X5.3119Y-4.1955
X5.3119Y-4.2168
X5.3215Y-3.4589
X5.3258Y-3.3283
X5.3327Y-4.1507
X5.3392Y-3.6664
X5.3393Y-4.0863
X5.3393Y-4.5824
X5.3393Y-4.6139
X5.3455Y-3.3283
X5.3522Y-3.4971
X5.359Y-4.6651
X5.3652Y-3.3283
X5.3707Y-3.6861
X5.373Y-3.4504
X5.373Y-3.4701
X5.3745Y-4.5774
X5.3747Y-4.1572
X5.3768Y-3.8257
X5.3782Y-3.961
X5.3787Y-4.7241
X5.3825Y-4.4893
X5.3825Y-4.509
X5.3848Y-3.3283
X5.3864Y-3.8977
X5.3964Y-3.7249
X5.3982Y-4.6271
X5.4022Y-4.4893
X5.4022Y-4.509
X5.4045Y-3.3283
X5.4179Y-4.6349
X5.4218Y-4.4893
X5.4218Y-4.509
X5.4242Y-3.3283
X5.4244Y-4.2913
X5.4376Y-4.6271
X5.4415Y-4.4893
X5.4415Y-4.509
X5.4432Y-4.7232
X5.4439Y-3.3283
X5.4535Y-3.8777
X5.4613Y-4.5767
X5.4613Y-4.0273
X5.4636Y-3.3283
X5.4643Y-3.4712
X5.4692Y-3.8934
X5.4833Y-3.3283
X5.4922Y-3.9962
X5.4922Y-4.0986
X5.4941Y-3.5261
X5.4956Y-3.4335
X5.4968Y-4.2005
X5.5029Y-3.222
X5.5029Y-3.3244
X5.5046Y-4.4682
X5.5068Y-3.5639
X5.5108Y-3.2417
X5.5108Y-3.2654
X5.5108Y-3.285
X5.5108Y-3.3047
X5.524Y-4.7879
X5.5276Y-3.7403
X5.5276Y-4.2718
X5.5276Y-4.5316
X5.5279Y-3.8394
X5.5283Y-4.3698
X5.5365Y-4.7223
X5.5439Y-3.9696
X5.5717Y-3.6892
X5.5952Y-3.5353
X5.5955Y-3.4617
X5.6269Y-3.3499
X5.6309Y-3.6898
X5.6429Y-4.7715
X5.6543Y-3.5548
X5.6582Y-3.8225
X5.6582Y-4.1296
X5.6582Y-4.3344
X5.6582Y-4.5903
X5.6661Y-3.6218
X5.6779Y-3.5233
X5.6858Y-3.9603
X5.6936Y-3.795
X5.6976Y-3.6818
X5.7023Y-3.7097
X5.7055Y-4.7602
X5.7216Y-3.5564
X5.7247Y-3.4834
X5.7288Y-4.9098
X5.731Y-3.7074
X5.7315Y-4.7602
X5.7323Y-3.736
X5.7366Y-5.0446
X5.7413Y-3.5228
X5.7567Y-3.4815
X5.7579Y-4.8727
X5.76Y-3.7087
X5.7601Y-4.764
X5.7617Y-3.449
X5.7628Y-3.3598
X5.7645Y-3.6808
X5.789Y-4.8906
X5.7912Y-3.4717
X5.7921Y-4.4682
X5.7955Y-4.2586
X5.796Y-4.0391
X5.7969Y-3.7084
X5.7971Y-3.6877
X5.7999Y-3.8344
X5.8063Y-3.4163
X5.8075Y-3.6688
X5.8086Y-3.564
X5.819Y-3.6877
X5.8195Y-3.4499
X5.8203Y-3.7084
X5.8278Y-3.5075
X5.8393Y-4.6611
X5.8618Y-4.8819
X5.8816Y-3.6703
X5.8846Y-4.7517
X5.8875Y-4.0689
X5.8875Y-4.3695
X5.8875Y-4.5789
X5.8877Y-3.849
X5.9102Y-3.6832
X5.918Y-4.4367
X5.9184Y-4.0039
X5.9289Y-3.8157
X5.93Y-4.4747
X5.9318Y-4.7662
X5.9338Y-4.5155
X5.9347Y-3.9138
X5.9378Y-3.9629
X5.9438Y-3.4818
X5.9529Y-3.5513
X5.9571Y-3.7602
X5.9613Y-4.7517
X5.9623Y-3.7113
X5.9662Y-4.9225
X5.9747Y-3.4185
X5.9844Y-3.4499
X6.0032Y-3.5046
X6.0119Y-4.9293
X6.0121Y-4.7683
X6.0273Y-3.855
X6.0273Y-3.8846
X6.0273Y-3.9141
X6.0273Y-3.9436
X6.0273Y-3.9731
X6.0273Y-4.0027
X6.0273Y-4.042
X6.0273Y-4.1011
X6.0273Y-4.1405
X6.0273Y-4.1798
X6.0273Y-4.2192
X6.0273Y-4.2783
X6.0273Y-4.3176
X6.0273Y-4.3964
X6.0273Y-4.4259
X6.0273Y-4.4554
X6.0273Y-4.4849
X6.0273Y-4.5145
X6.0273Y-4.5538
X6.0273Y-4.5834
X6.0273Y-4.6129
X6.0361Y-4.3659
X6.0385Y-4.9592
X6.047Y-4.1208
X6.047Y-4.1601
X6.047Y-4.1995
X6.047Y-4.2979
X6.048Y-3.8029
X6.049Y-4.9281
X6.0493Y-4.5337
X6.0609Y-4.8776
X6.0621Y-4.0221
X6.0625Y-3.7468
X6.0741Y-3.5436
X6.0895Y-4.7669
X6.1003Y-3.8891
X6.1051Y-3.4826
X6.1058Y-3.5296
X6.107Y-4.0706
X6.107Y-4.2477
X6.1109Y-4.6572
X6.115Y-3.7892
X6.116Y-4.9626
X6.1385Y-4.9862
X6.1397Y-4.7673
X6.1403Y-4.8749
X6.1527Y-3.4177
X6.1577Y-3.4499
X6.1804Y-3.5091
X6.1845Y-4.9732
X6.1917Y-4.7517
X6.1936Y-4.534
X6.2011Y-4.1403
X6.2011Y-4.1781
X6.204Y-3.5436
X6.2176Y-3.8412
X6.233Y-4.3659
X6.2566Y-3.9721
X6.2687Y-3.8731
X6.2688Y-4.7669
X6.2755Y-4.4678
X6.2796Y-4.3978
X6.2842Y-3.484
X6.2891Y-3.9554
X6.293Y-4.1798
X6.297Y-4.0184
X6.3065Y-4.1405
X6.3157Y-4.9367
X6.3196Y-3.5629
X6.3196Y-4.5497
X6.3206Y-4.4279
X6.3209Y-3.6732
X6.3265Y-4.1012
X6.3288Y-4.9018
X6.3354Y-5.0351
X6.3361Y-4.4698
X6.3405Y-4.0652
X6.345Y-3.563
X6.3455Y-4.7665
X6.3481Y-3.7422
X6.3495Y-4.4305
X6.3523Y-4.2796
X6.3539Y-4.6796
X6.3579Y-4.6116
X6.3629Y-3.4879
X6.378Y-4.3373
X6.3784Y-4.2797
X6.3825Y-4.6792
X6.3859Y-4.5513
X6.3905Y-4.9249
X6.4417Y-3.417
X6.4456Y-3.543
X6.4466Y-4.7658
X6.4692Y-4.358
X6.4762Y-3.9285
X6.4771Y-5.0351
X6.4878Y-4.6126
X6.4885Y-4.4892
X6.4885Y-4.5312
X6.4925Y-4.1512
X6.499Y-4.7662
X6.5045Y-4.1772
X6.5165Y-4.2012
X6.5197Y-3.8899
X6.5355Y-4.3584
X6.5488Y-4.7651
X6.5519Y-4.8737
X6.5764Y-3.6709
X6.5765Y-4.7652
X6.5795Y-3.8265
X6.6091Y-4.6159
X6.6149Y-3.5155
X6.6228Y-3.7477
X6.6545Y-3.514
X6.6705Y-4.6632
X6.6768Y-3.6712
X6.6976Y-3.3777
X6.704Y-3.6716
X6.7175Y-3.5432
X6.7291Y-5.0391
X6.7439Y-4.4345
X6.7441Y-4.1655
X6.7499Y-4.2062
X6.751Y-4.6676
X6.7517Y-3.9021
X6.7525Y-4.1054
X6.7545Y-4.8172
X6.7802Y-3.6493
X6.7881Y-3.5194
X6.7881Y-4.7556
X6.8078Y-5.0391
X6.8536Y-4.8172
X6.855Y-4.8855
X6.8568Y-4.1018
X6.8812Y-4.3833
X6.8815Y-3.8691
X6.8815Y-4.6332
X6.8825Y-4.4735
X6.8829Y-3.9597
X6.8829Y-4.1527
X6.8837Y-4.2409
X6.8865Y-3.3619
X6.8905Y-3.7281
X6.8982Y-4.7255
T3
X5.0443Y-4.3369
X5.0443Y-4.4369
X5.0595Y-4.9892
X5.1595Y-4.9892
X5.2595Y-4.9892
X5.3595Y-4.9892
X5.4595Y-4.9892
X5.5595Y-4.9892
X5.6595Y-4.9892
X5.8201Y-3.2792
X5.9201Y-3.2792
X6.0201Y-3.2792
X6.1201Y-3.2792
X6.2201Y-3.2792
X6.3201Y-3.2792
X6.4201Y-3.2792
X6.5201Y-3.2792
X6.6201Y-3.2792
X6.7201Y-3.2792
T2
G00X5.0199Y-3.8861
M15
G01X5.0436Y-3.8861
M16
G05
G00X5.0199Y-4.2263
M15
G01X5.0436Y-4.2263
M16
G05
G00X5.1676Y-3.8861
M15
G01X5.2109Y-3.8861
M16
G05
G00X5.1676Y-4.2263
M15
G01X5.2109Y-4.2263
M16
G05
M30
