  0
SECTION
  2
HEADER
  9
$ACADVER
  1
AC1009
  9
$FILLMODE
 70
0
  9
$EXTMIN
 10
-0.7414
 20
-0.4220
 30
0.0000
  9
$EXTMAX
 10
57.0762
 20
47.5615
 30
0.0000
  0
ENDSEC
  0
SECTION
  2
TABLES
  0
TABLE
  2
LTYPE
 70
1
  0
LTYPE
  2
CONTINUOUS
 70
64
  3
Solid line
 72
65
 73
0
 40
0
  0
ENDTAB
  0
TABLE
  2
LAYER
 70
255
  0
LAYER
  2
17
 70
64
 62
7
  6
CONTINUOUS
  0
LAYER
  2
20
 70
64
 62
31
  6
CONTINUOUS
  0
LAYER
  2
46
 70
64
 62
131
  6
CONTINUOUS
  0
ENDTAB
  0
ENDSEC
  0
SECTION
  2
BLOCKS
  0
BLOCK
  8
0
  2
RECT
 70
64
 10
0.0000
 20
0.0000
 30
0.0000
  3
RECT
  0
SOLID
  8
0
 10
-0.5000
 20
-0.5000
 30
0.0000
 11
0.5000
 21
-0.5000
 31
0.0000
 12
-0.5000
 22
0.5000
 32
0.0000
 13
0.5000
 23
0.5000
 33
0.0000
  0
ENDBLK
  8
0
  0
BLOCK
  8
0
  2
PIE
 70
64
 10
0.0000
 20
0.0000
 30
0.0000
  3
PIE
  0
CIRCLE
  8
0
 10
0.0000
 20
0.0000
 30
0.0000
 40
0.5000
  0
ENDBLK
  8
0
  0
BLOCK
  8
0
  2
OCTAGONP
 70
64
 10
0.0000
 20
0.0000
 30
0.0000
  3
OCTAGONP
  0
POLYLINE
  8
0
 66
1
 10
0.0000
 20
0.0000
 30
0.0000
 40
0.0000
 41
0.0000
 70
1
  0
VERTEX
  8
0
 10
-0.5000
 20
-0.2071
 30
0.0000
  0
VERTEX
  8
0
 10
-0.5000
 20
0.2071
 30
0.0000
  0
VERTEX
  8
0
 10
-0.2071
 20
0.5000
 30
0.0000
  0
VERTEX
  8
0
 10
0.2071
 20
0.5000
 30
0.0000
  0
VERTEX
  8
0
 10
0.5000
 20
0.2071
 30
0.0000
  0
VERTEX
  8
0
 10
0.5000
 20
-0.2071
 30
0.0000
  0
VERTEX
  8
0
 10
0.2071
 20
-0.5000
 30
0.0000
  0
VERTEX
  8
0
 10
-0.2071
 20
-0.5000
 30
0.0000
  0
SEQEND
  8
0
  0
ENDBLK
  8
0
  0
BLOCK
  8
0
  2
SQUAREP
 70
64
 10
0.0000
 20
0.0000
 30
0.0000
  3
SQUAREP
  0
SOLID
  8
0
 10
-0.5000
 20
-0.5000
 30
0.0000
 11
0.5000
 21
-0.5000
 31
0.0000
 12
-0.5000
 22
0.5000
 32
0.0000
 13
0.5000
 23
0.5000
 33
0.0000
  0
ENDBLK
  8
0
  0
BLOCK
  8
0
  2
ROUNDP
 70
64
 10
0.0000
 20
0.0000
 30
0.0000
  3
ROUNDP
  0
CIRCLE
  8
0
 10
0.0000
 20
0.0000
 30
0.0000
 40
0.5000
  0
ENDBLK
  8
0
  0
BLOCK
  8
0
  2
ANNULUSP
 70
64
 10
0.0000
 20
0.0000
 30
0.0000
  3
ANNULUSP
  0
CIRCLE
  8
0
 10
0.0000
 20
0.0000
 30
0.0000
 40
0.5000
  0
ENDBLK
  8
0
  0
BLOCK
  8
0
  2
THERMALP
 70
64
 10
0.0000
 20
0.0000
 30
0.0000
  3
THERMALP
  0
POLYLINE
  8
0
 66
1
 10
0.0000
 20
0.0000
 30
0.0000
 40
0.0000
 41
0.0000
 70
1
  0
VERTEX
  8
0
 10
-0.2379
 20
0.4000
 30
0.0000
  0
VERTEX
  8
0
 10
0.2379
 20
0.4000
 30
0.0000
 42
1.0000
  0
VERTEX
  8
0
 10
0.2379
 20
0.5000
 30
0.0000
  0
VERTEX
  8
0
 10
-0.2379
 20
0.5000
 30
0.0000
 42
1.0000
  0
SEQEND
  8
0
  0
POLYLINE
  8
0
 66
1
 10
0.0000
 20
0.0000
 30
0.0000
 40
0.0000
 41
0.0000
 70
1
  0
VERTEX
  8
0
 10
0.4000
 20
0.2379
 30
0.0000
  0
VERTEX
  8
0
 10
0.4000
 20
-0.2379
 30
0.0000
 42
1.0000
  0
VERTEX
  8
0
 10
0.5000
 20
-0.2379
 30
0.0000
  0
VERTEX
  8
0
 10
0.5000
 20
0.2379
 30
0.0000
 42
1.0000
  0
SEQEND
  8
0
  0
POLYLINE
  8
0
 66
1
 10
0.0000
 20
0.0000
 30
0.0000
 40
0.0000
 41
0.0000
 70
1
  0
VERTEX
  8
0
 10
0.2379
 20
-0.4000
 30
0.0000
  0
VERTEX
  8
0
 10
-0.2379
 20
-0.4000
 30
0.0000
 42
1.0000
  0
VERTEX
  8
0
 10
-0.2379
 20
-0.5000
 30
0.0000
  0
VERTEX
  8
0
 10
0.2379
 20
-0.5000
 30
0.0000
 42
1.0000
  0
SEQEND
  8
0
  0
POLYLINE
  8
0
 66
1
 10
0.0000
 20
0.0000
 30
0.0000
 40
0.0000
 41
0.0000
 70
1
  0
VERTEX
  8
0
 10
-0.4000
 20
-0.2379
 30
0.0000
  0
VERTEX
  8
0
 10
-0.4000
 20
0.2379
 30
0.0000
 42
1.0000
  0
VERTEX
  8
0
 10
-0.5000
 20
0.2379
 30
0.0000
  0
VERTEX
  8
0
 10
-0.5000
 20
-0.2379
 30
0.0000
 42
1.0000
  0
SEQEND
  8
0
  0
ENDBLK
  8
0
  0
BLOCK
  8
0
  2
OCTAGONV
 70
64
 10
0.0000
 20
0.0000
 30
0.0000
  3
OCTAGONV
  0
POLYLINE
  8
0
 66
1
 10
0.0000
 20
0.0000
 30
0.0000
 40
0.0000
 41
0.0000
 70
1
  0
VERTEX
  8
0
 10
-0.5000
 20
-0.2071
 30
0.0000
  0
VERTEX
  8
0
 10
-0.5000
 20
0.2071
 30
0.0000
  0
VERTEX
  8
0
 10
-0.2071
 20
0.5000
 30
0.0000
  0
VERTEX
  8
0
 10
0.2071
 20
0.5000
 30
0.0000
  0
VERTEX
  8
0
 10
0.5000
 20
0.2071
 30
0.0000
  0
VERTEX
  8
0
 10
0.5000
 20
-0.2071
 30
0.0000
  0
VERTEX
  8
0
 10
0.2071
 20
-0.5000
 30
0.0000
  0
VERTEX
  8
0
 10
-0.2071
 20
-0.5000
 30
0.0000
  0
SEQEND
  8
0
  0
ENDBLK
  8
0
  0
BLOCK
  8
0
  2
SQUAREV
 70
64
 10
0.0000
 20
0.0000
 30
0.0000
  3
SQUAREV
  0
SOLID
  8
0
 10
-0.5000
 20
-0.5000
 30
0.0000
 11
0.5000
 21
-0.5000
 31
0.0000
 12
-0.5000
 22
0.5000
 32
0.0000
 13
0.5000
 23
0.5000
 33
0.0000
  0
ENDBLK
  8
0
  0
BLOCK
  8
0
  2
ROUNDV
 70
64
 10
0.0000
 20
0.0000
 30
0.0000
  3
ROUNDV
  0
CIRCLE
  8
0
 10
0.0000
 20
0.0000
 30
0.0000
 40
0.5000
  0
ENDBLK
  8
0
  0
BLOCK
  8
0
  2
ANNULUSV
 70
64
 10
0.0000
 20
0.0000
 30
0.0000
  3
ANNULUSV
  0
CIRCLE
  8
0
 10
0.0000
 20
0.0000
 30
0.0000
 40
0.5000
  0
ENDBLK
  8
0
  0
BLOCK
  8
0
  2
THERMALV
 70
64
 10
0.0000
 20
0.0000
 30
0.0000
  3
THERMALV
  0
POLYLINE
  8
0
 66
1
 10
0.0000
 20
0.0000
 30
0.0000
 40
0.0000
 41
0.0000
 70
1
  0
VERTEX
  8
0
 10
-0.2379
 20
0.4000
 30
0.0000
  0
VERTEX
  8
0
 10
0.2379
 20
0.4000
 30
0.0000
 42
1.0000
  0
VERTEX
  8
0
 10
0.2379
 20
0.5000
 30
0.0000
  0
VERTEX
  8
0
 10
-0.2379
 20
0.5000
 30
0.0000
 42
1.0000
  0
SEQEND
  8
0
  0
POLYLINE
  8
0
 66
1
 10
0.0000
 20
0.0000
 30
0.0000
 40
0.0000
 41
0.0000
 70
1
  0
VERTEX
  8
0
 10
0.4000
 20
0.2379
 30
0.0000
  0
VERTEX
  8
0
 10
0.4000
 20
-0.2379
 30
0.0000
 42
1.0000
  0
VERTEX
  8
0
 10
0.5000
 20
-0.2379
 30
0.0000
  0
VERTEX
  8
0
 10
0.5000
 20
0.2379
 30
0.0000
 42
1.0000
  0
SEQEND
  8
0
  0
POLYLINE
  8
0
 66
1
 10
0.0000
 20
0.0000
 30
0.0000
 40
0.0000
 41
0.0000
 70
1
  0
VERTEX
  8
0
 10
0.2379
 20
-0.4000
 30
0.0000
  0
VERTEX
  8
0
 10
-0.2379
 20
-0.4000
 30
0.0000
 42
1.0000
  0
VERTEX
  8
0
 10
-0.2379
 20
-0.5000
 30
0.0000
  0
VERTEX
  8
0
 10
0.2379
 20
-0.5000
 30
0.0000
 42
1.0000
  0
SEQEND
  8
0
  0
POLYLINE
  8
0
 66
1
 10
0.0000
 20
0.0000
 30
0.0000
 40
0.0000
 41
0.0000
 70
1
  0
VERTEX
  8
0
 10
-0.4000
 20
-0.2379
 30
0.0000
  0
VERTEX
  8
0
 10
-0.4000
 20
0.2379
 30
0.0000
 42
1.0000
  0
VERTEX
  8
0
 10
-0.5000
 20
0.2379
 30
0.0000
  0
VERTEX
  8
0
 10
-0.5000
 20
-0.2379
 30
0.0000
 42
1.0000
  0
SEQEND
  8
0
  0
ENDBLK
  8
0
  0
ENDSEC
  0
SECTION
  2
ENTITIES
  0
LINE
  8
20
 10
0.0000
 20
45.0000
 30
0.0000
 11
0.0000
 21
2.0000
 31
0.0000
  0
ARC
  8
20
 10
2.0000
 20
2.0000
 30
0.0000
 40
2.0000
 50
180.0000
 51
270.0000
  0
LINE
  8
20
 10
2.0000
 20
0.0000
 30
0.0000
 11
55.0000
 21
0.0000
 31
0.0000
  0
ARC
  8
20
 10
55.0000
 20
2.0000
 30
0.0000
 40
2.0000
 50
270.0000
 51
0.0000
  0
LINE
  8
20
 10
57.0000
 20
2.0000
 30
0.0000
 11
57.0000
 21
45.0000
 31
0.0000
  0
ARC
  8
20
 10
55.0000
 20
45.0000
 30
0.0000
 40
2.0000
 50
0.0000
 51
90.0000
  0
LINE
  8
20
 10
55.0000
 20
47.0000
 30
0.0000
 11
2.0000
 21
47.0000
 31
0.0000
  0
ARC
  8
20
 10
2.0000
 20
45.0000
 30
0.0000
 40
2.0000
 50
90.0000
 51
180.0000
  0
CIRCLE
  8
20
 10
2.0000
 20
2.0000
 30
0.0000
 40
0.8750
  0
CIRCLE
  8
20
 10
55.0000
 20
2.0000
 30
0.0000
 40
0.8750
  0
CIRCLE
  8
20
 10
55.0000
 20
45.0000
 30
0.0000
 40
0.8750
  0
POLYLINE
  8
46
 66
1
 10
0.0000
 20
0.0000
 30
0.0000
 40
0.0000
 41
0.0000
 70
1
  0
VERTEX
  8
46
 10
5.1768
 20
13.3732
 30
0.0000
  0
VERTEX
  8
46
 10
5.9642
 20
13.3732
 30
0.0000
 42
1.0000
  0
VERTEX
  8
46
 10
5.9642
 20
13.9828
 30
0.0000
  0
VERTEX
  8
46
 10
5.1768
 20
13.9828
 30
0.0000
 42
1.0000
  0
SEQEND
  8
0
  0
POLYLINE
  8
46
 66
1
 10
0.0000
 20
0.0000
 30
0.0000
 40
0.0000
 41
0.0000
 70
1
  0
VERTEX
  8
46
 10
5.1768
 20
4.7372
 30
0.0000
  0
VERTEX
  8
46
 10
5.9642
 20
4.7372
 30
0.0000
 42
1.0000
  0
VERTEX
  8
46
 10
5.9642
 20
5.3468
 30
0.0000
  0
VERTEX
  8
46
 10
5.1768
 20
5.3468
 30
0.0000
 42
1.0000
  0
SEQEND
  8
0
  0
POLYLINE
  8
46
 66
1
 10
0.0000
 20
0.0000
 30
0.0000
 40
0.0000
 41
0.0000
 70
1
  0
VERTEX
  8
46
 10
0.9604
 20
13.3732
 30
0.0000
  0
VERTEX
  8
46
 10
2.1542
 20
13.3732
 30
0.0000
 42
1.0000
  0
VERTEX
  8
46
 10
2.1542
 20
13.9828
 30
0.0000
  0
VERTEX
  8
46
 10
0.9604
 20
13.9828
 30
0.0000
 42
1.0000
  0
SEQEND
  8
0
  0
POLYLINE
  8
46
 66
1
 10
0.0000
 20
0.0000
 30
0.0000
 40
0.0000
 41
0.0000
 70
1
  0
VERTEX
  8
46
 10
0.9604
 20
4.7372
 30
0.0000
  0
VERTEX
  8
46
 10
2.1542
 20
4.7372
 30
0.0000
 42
1.0000
  0
VERTEX
  8
46
 10
2.1542
 20
5.3468
 30
0.0000
  0
VERTEX
  8
46
 10
0.9604
 20
5.3468
 30
0.0000
 42
1.0000
  0
SEQEND
  8
0
  0
INSERT
  8
17
  2
ROUNDP
 10
2.1542
 20
13.6780
 30
0.0000
 41
0.8778
 42
0.8778
 43
1.0000
 50
270.0000
  0
INSERT
  8
17
  2
ROUNDP
 10
2.1542
 20
13.6780
 30
0.0000
 41
0.8778
 42
0.8778
 43
1.0000
 50
270.0000
  0
INSERT
  8
17
  2
ROUNDP
 10
0.9604
 20
13.6780
 30
0.0000
 41
0.8778
 42
0.8778
 43
1.0000
 50
270.0000
  0
INSERT
  8
17
  2
ROUNDP
 10
0.9604
 20
13.6780
 30
0.0000
 41
0.8778
 42
0.8778
 43
1.0000
 50
270.0000
  0
INSERT
  8
17
  2
ROUNDP
 10
2.1542
 20
5.0420
 30
0.0000
 41
0.8778
 42
0.8778
 43
1.0000
 50
270.0000
  0
INSERT
  8
17
  2
ROUNDP
 10
2.1542
 20
5.0420
 30
0.0000
 41
0.8778
 42
0.8778
 43
1.0000
 50
270.0000
  0
INSERT
  8
17
  2
ROUNDP
 10
0.9604
 20
5.0420
 30
0.0000
 41
0.8778
 42
0.8778
 43
1.0000
 50
270.0000
  0
INSERT
  8
17
  2
ROUNDP
 10
0.9604
 20
5.0420
 30
0.0000
 41
0.8778
 42
0.8778
 43
1.0000
 50
270.0000
  0
INSERT
  8
17
  2
ROUNDP
 10
5.9642
 20
13.6780
 30
0.0000
 41
0.8778
 42
0.8778
 43
1.0000
 50
270.0000
  0
INSERT
  8
17
  2
ROUNDP
 10
5.9642
 20
13.6780
 30
0.0000
 41
0.8778
 42
0.8778
 43
1.0000
 50
270.0000
  0
INSERT
  8
17
  2
ROUNDP
 10
5.1768
 20
13.6780
 30
0.0000
 41
0.8778
 42
0.8778
 43
1.0000
 50
270.0000
  0
INSERT
  8
17
  2
ROUNDP
 10
5.1768
 20
13.6780
 30
0.0000
 41
0.8778
 42
0.8778
 43
1.0000
 50
270.0000
  0
INSERT
  8
17
  2
ROUNDP
 10
5.9642
 20
5.0420
 30
0.0000
 41
0.8778
 42
0.8778
 43
1.0000
 50
270.0000
  0
INSERT
  8
17
  2
ROUNDP
 10
5.9642
 20
5.0420
 30
0.0000
 41
0.8778
 42
0.8778
 43
1.0000
 50
270.0000
  0
INSERT
  8
17
  2
ROUNDP
 10
5.1768
 20
5.0420
 30
0.0000
 41
0.8778
 42
0.8778
 43
1.0000
 50
270.0000
  0
INSERT
  8
17
  2
ROUNDP
 10
5.1768
 20
5.0420
 30
0.0000
 41
0.8778
 42
0.8778
 43
1.0000
 50
270.0000
  0
INSERT
  8
17
  2
SQUAREP
 10
8.5090
 20
1.7780
 30
0.0000
 41
1.5840
 42
1.5840
 43
1.0000
 50
0.0000
  0
INSERT
  8
17
  2
SQUAREP
 10
8.5090
 20
1.7780
 30
0.0000
 41
1.5840
 42
1.5840
 43
1.0000
 50
0.0000
  0
INSERT
  8
17
  2
ROUNDP
 10
11.0490
 20
1.7780
 30
0.0000
 41
1.5840
 42
1.5840
 43
1.0000
 50
0.0000
  0
INSERT
  8
17
  2
ROUNDP
 10
11.0490
 20
1.7780
 30
0.0000
 41
1.5840
 42
1.5840
 43
1.0000
 50
0.0000
  0
INSERT
  8
17
  2
ROUNDP
 10
13.5890
 20
1.7780
 30
0.0000
 41
1.5840
 42
1.5840
 43
1.0000
 50
0.0000
  0
INSERT
  8
17
  2
ROUNDP
 10
13.5890
 20
1.7780
 30
0.0000
 41
1.5840
 42
1.5840
 43
1.0000
 50
0.0000
  0
INSERT
  8
17
  2
ROUNDP
 10
16.1290
 20
1.7780
 30
0.0000
 41
1.5840
 42
1.5840
 43
1.0000
 50
0.0000
  0
INSERT
  8
17
  2
ROUNDP
 10
16.1290
 20
1.7780
 30
0.0000
 41
1.5840
 42
1.5840
 43
1.0000
 50
0.0000
  0
INSERT
  8
17
  2
ROUNDP
 10
18.6690
 20
1.7780
 30
0.0000
 41
1.5840
 42
1.5840
 43
1.0000
 50
0.0000
  0
INSERT
  8
17
  2
ROUNDP
 10
18.6690
 20
1.7780
 30
0.0000
 41
1.5840
 42
1.5840
 43
1.0000
 50
0.0000
  0
INSERT
  8
17
  2
ROUNDP
 10
21.2090
 20
1.7780
 30
0.0000
 41
1.5840
 42
1.5840
 43
1.0000
 50
0.0000
  0
INSERT
  8
17
  2
ROUNDP
 10
21.2090
 20
1.7780
 30
0.0000
 41
1.5840
 42
1.5840
 43
1.0000
 50
0.0000
  0
INSERT
  8
17
  2
ROUNDP
 10
23.7490
 20
1.7780
 30
0.0000
 41
1.5840
 42
1.5840
 43
1.0000
 50
0.0000
  0
INSERT
  8
17
  2
ROUNDP
 10
23.7490
 20
1.7780
 30
0.0000
 41
1.5840
 42
1.5840
 43
1.0000
 50
0.0000
  0
INSERT
  8
17
  2
SQUAREP
 10
28.7274
 20
45.2120
 30
0.0000
 41
1.5840
 42
1.5840
 43
1.0000
 50
0.0000
  0
INSERT
  8
17
  2
SQUAREP
 10
28.7274
 20
45.2120
 30
0.0000
 41
1.5840
 42
1.5840
 43
1.0000
 50
0.0000
  0
INSERT
  8
17
  2
ROUNDP
 10
31.2674
 20
45.2120
 30
0.0000
 41
1.5840
 42
1.5840
 43
1.0000
 50
0.0000
  0
INSERT
  8
17
  2
ROUNDP
 10
31.2674
 20
45.2120
 30
0.0000
 41
1.5840
 42
1.5840
 43
1.0000
 50
0.0000
  0
INSERT
  8
17
  2
ROUNDP
 10
33.8074
 20
45.2120
 30
0.0000
 41
1.5840
 42
1.5840
 43
1.0000
 50
0.0000
  0
INSERT
  8
17
  2
ROUNDP
 10
33.8074
 20
45.2120
 30
0.0000
 41
1.5840
 42
1.5840
 43
1.0000
 50
0.0000
  0
INSERT
  8
17
  2
ROUNDP
 10
36.3474
 20
45.2120
 30
0.0000
 41
1.5840
 42
1.5840
 43
1.0000
 50
0.0000
  0
INSERT
  8
17
  2
ROUNDP
 10
36.3474
 20
45.2120
 30
0.0000
 41
1.5840
 42
1.5840
 43
1.0000
 50
0.0000
  0
INSERT
  8
17
  2
ROUNDP
 10
38.8874
 20
45.2120
 30
0.0000
 41
1.5840
 42
1.5840
 43
1.0000
 50
0.0000
  0
INSERT
  8
17
  2
ROUNDP
 10
38.8874
 20
45.2120
 30
0.0000
 41
1.5840
 42
1.5840
 43
1.0000
 50
0.0000
  0
INSERT
  8
17
  2
ROUNDP
 10
41.4274
 20
45.2120
 30
0.0000
 41
1.5840
 42
1.5840
 43
1.0000
 50
0.0000
  0
INSERT
  8
17
  2
ROUNDP
 10
41.4274
 20
45.2120
 30
0.0000
 41
1.5840
 42
1.5840
 43
1.0000
 50
0.0000
  0
INSERT
  8
17
  2
ROUNDP
 10
43.9674
 20
45.2120
 30
0.0000
 41
1.5840
 42
1.5840
 43
1.0000
 50
0.0000
  0
INSERT
  8
17
  2
ROUNDP
 10
43.9674
 20
45.2120
 30
0.0000
 41
1.5840
 42
1.5840
 43
1.0000
 50
0.0000
  0
INSERT
  8
17
  2
ROUNDP
 10
46.5074
 20
45.2120
 30
0.0000
 41
1.5840
 42
1.5840
 43
1.0000
 50
0.0000
  0
INSERT
  8
17
  2
ROUNDP
 10
46.5074
 20
45.2120
 30
0.0000
 41
1.5840
 42
1.5840
 43
1.0000
 50
0.0000
  0
INSERT
  8
17
  2
ROUNDP
 10
49.0474
 20
45.2120
 30
0.0000
 41
1.5840
 42
1.5840
 43
1.0000
 50
0.0000
  0
INSERT
  8
17
  2
ROUNDP
 10
49.0474
 20
45.2120
 30
0.0000
 41
1.5840
 42
1.5840
 43
1.0000
 50
0.0000
  0
INSERT
  8
17
  2
ROUNDP
 10
51.5874
 20
45.2120
 30
0.0000
 41
1.5840
 42
1.5840
 43
1.0000
 50
0.0000
  0
INSERT
  8
17
  2
ROUNDP
 10
51.5874
 20
45.2120
 30
0.0000
 41
1.5840
 42
1.5840
 43
1.0000
 50
0.0000
  0
INSERT
  8
17
  2
SQUAREP
 10
2.1590
 20
15.8750
 30
0.0000
 41
1.5840
 42
1.5840
 43
1.0000
 50
0.0000
  0
INSERT
  8
17
  2
SQUAREP
 10
2.1590
 20
15.8750
 30
0.0000
 41
1.5840
 42
1.5840
 43
1.0000
 50
0.0000
  0
INSERT
  8
17
  2
ROUNDP
 10
4.6990
 20
15.8750
 30
0.0000
 41
1.5840
 42
1.5840
 43
1.0000
 50
0.0000
  0
INSERT
  8
17
  2
ROUNDP
 10
4.6990
 20
15.8750
 30
0.0000
 41
1.5840
 42
1.5840
 43
1.0000
 50
0.0000
  0
INSERT
  8
17
  2
SQUAREP
 10
15.4686
 20
21.7678
 30
0.0000
 41
1.5840
 42
1.5840
 43
1.0000
 50
90.0000
  0
INSERT
  8
17
  2
SQUAREP
 10
15.4686
 20
21.7678
 30
0.0000
 41
1.5840
 42
1.5840
 43
1.0000
 50
90.0000
  0
INSERT
  8
17
  2
ROUNDP
 10
15.4686
 20
24.3078
 30
0.0000
 41
1.5840
 42
1.5840
 43
1.0000
 50
90.0000
  0
INSERT
  8
17
  2
ROUNDP
 10
15.4686
 20
24.3078
 30
0.0000
 41
1.5840
 42
1.5840
 43
1.0000
 50
90.0000
  0
ENDSEC
  0
EOF
