%TF.GenerationSoftware,KiCad,Pcbnew,8.99.0-2608-ga0707285a1*%
%TF.CreationDate,2024-10-22T09:16:20-04:00*%
%TF.ProjectId,shinobi,7368696e-6f62-4692-9e6b-696361645f70,rev?*%
%TF.SameCoordinates,Original*%
%TF.FileFunction,Legend,Top*%
%TF.FilePolarity,Positive*%
%FSLAX46Y46*%
G04 Gerber Fmt 4.6, Leading zero omitted, Abs format (unit mm)*
G04 Created by KiCad (PCBNEW 8.99.0-2608-ga0707285a1) date 2024-10-22 09:16:20*
%MOMM*%
%LPD*%
G01*
G04 APERTURE LIST*
%ADD10C,0.137159*%
%ADD11C,0.000000*%
%ADD12C,0.100000*%
%ADD13C,0.152400*%
%ADD14C,0.120000*%
%ADD15C,0.254000*%
%ADD16C,0.127000*%
%ADD17C,0.200000*%
G04 APERTURE END LIST*
D10*
X144182900Y-82552800D02*
X144313900Y-82552800D01*
X146021825Y-126675957D02*
X145977825Y-126638957D01*
X139040300Y-124823400D02*
X139040300Y-124934400D01*
X158268700Y-85157400D02*
X158224700Y-85231400D01*
X143529900Y-82293800D02*
X143529900Y-82922800D01*
X143660900Y-83070800D02*
X143747900Y-83070800D01*
X148242825Y-127452957D02*
X148329825Y-127415957D01*
X138822300Y-125082400D02*
X138430300Y-125082400D01*
X128223300Y-124305400D02*
X128615300Y-124305400D01*
X153108500Y-85046400D02*
X153021500Y-84972400D01*
X143978700Y-124786400D02*
X144022700Y-124860400D01*
X143412700Y-124416400D02*
X143412700Y-124490400D01*
X147632825Y-127045957D02*
X147676825Y-127156957D01*
X144008900Y-82959800D02*
X144008900Y-83329800D01*
X152499500Y-85231400D02*
X152499500Y-85416400D01*
X145706900Y-82922800D02*
X145750900Y-83033800D01*
X152760500Y-84935400D02*
X152673500Y-84972400D01*
X162698700Y-85305400D02*
X163308700Y-85305400D01*
X133358100Y-124416400D02*
X133314100Y-124490400D01*
X142136900Y-83070800D02*
X142223900Y-83033800D01*
X142920900Y-83070800D02*
X143007900Y-83033800D01*
X133358100Y-124971400D02*
X133445100Y-125045400D01*
X146326825Y-127082957D02*
X146326825Y-127452957D01*
X147545825Y-126971957D02*
X147632825Y-127045957D01*
D11*
G36*
X136977567Y-102274612D02*
G01*
X136980306Y-102275040D01*
X136984294Y-102275868D01*
X136989705Y-102277143D01*
X136996713Y-102278913D01*
X137016210Y-102284128D01*
X137044175Y-102291890D01*
X137081993Y-102302580D01*
X137131052Y-102316577D01*
X137192741Y-102334260D01*
X137483994Y-102417352D01*
X137528614Y-102429963D01*
X137578821Y-102444451D01*
X137629028Y-102458937D01*
X137673648Y-102471544D01*
X137718267Y-102484145D01*
X137768474Y-102498615D01*
X137822164Y-102514093D01*
X137875154Y-102529114D01*
X138188421Y-102618244D01*
X138470361Y-102698515D01*
X138491528Y-102704351D01*
X138490878Y-102733538D01*
X138487955Y-102899885D01*
X138487956Y-102899885D01*
X138485219Y-103071531D01*
X138485041Y-103082389D01*
X138484784Y-103090737D01*
X138484601Y-103094082D01*
X138484368Y-103096935D01*
X138484077Y-103099340D01*
X138483715Y-103101345D01*
X138483274Y-103102992D01*
X138482745Y-103104328D01*
X138482115Y-103105398D01*
X138481377Y-103106246D01*
X138480520Y-103106919D01*
X138479534Y-103107461D01*
X138478408Y-103107918D01*
X138477135Y-103108334D01*
X138473298Y-103109640D01*
X138468237Y-103111605D01*
X138461852Y-103114272D01*
X138454045Y-103117685D01*
X138444717Y-103121889D01*
X138433769Y-103126927D01*
X138421102Y-103132843D01*
X138406618Y-103139682D01*
X138380988Y-103151717D01*
X138359448Y-103161649D01*
X138336344Y-103172281D01*
X138306954Y-103185999D01*
X138225674Y-103224096D01*
X138178910Y-103246088D01*
X138133056Y-103267815D01*
X138100812Y-103283026D01*
X138090755Y-103287653D01*
X138086766Y-103289352D01*
X138086234Y-103289521D01*
X138084982Y-103290040D01*
X138080153Y-103292212D01*
X138060008Y-103301646D01*
X138023622Y-103318935D01*
X137968288Y-103345358D01*
X137943872Y-103356902D01*
X137936057Y-103360498D01*
X137932728Y-103361918D01*
X137932476Y-103361993D01*
X137932076Y-103362141D01*
X137930868Y-103362638D01*
X137929171Y-103363376D01*
X137927055Y-103364326D01*
X137921845Y-103366730D01*
X137915794Y-103369599D01*
X137897321Y-103378317D01*
X137874308Y-103389011D01*
X137822018Y-103413315D01*
X137761701Y-103441768D01*
X137699048Y-103471332D01*
X137646554Y-103495943D01*
X137595754Y-103519660D01*
X137570058Y-103531688D01*
X137541568Y-103545153D01*
X137514569Y-103557829D01*
X137502098Y-103563587D01*
X137492461Y-103567960D01*
X137455590Y-103584994D01*
X137393099Y-103614265D01*
X137361629Y-103628892D01*
X137335627Y-103640639D01*
X137317791Y-103648310D01*
X137312780Y-103650243D01*
X137311398Y-103650668D01*
X137310822Y-103650708D01*
X137310551Y-103649991D01*
X137310063Y-103648195D01*
X137308487Y-103641592D01*
X137303267Y-103617912D01*
X137295937Y-103583259D01*
X137287268Y-103541226D01*
X137239719Y-103309302D01*
X137239577Y-103308498D01*
X137239543Y-103308097D01*
X137239544Y-103307692D01*
X137239589Y-103307279D01*
X137239685Y-103306852D01*
X137239840Y-103306409D01*
X137240062Y-103305944D01*
X137240359Y-103305455D01*
X137240738Y-103304935D01*
X137241207Y-103304382D01*
X137241775Y-103303792D01*
X137242449Y-103303159D01*
X137243238Y-103302481D01*
X137244148Y-103301752D01*
X137245188Y-103300969D01*
X137246365Y-103300127D01*
X137247689Y-103299223D01*
X137249165Y-103298251D01*
X137250803Y-103297209D01*
X137252610Y-103296092D01*
X137254594Y-103294895D01*
X137259125Y-103292248D01*
X137264458Y-103289233D01*
X137270656Y-103285818D01*
X137277783Y-103281969D01*
X137285901Y-103277653D01*
X137295073Y-103272838D01*
X137305363Y-103267489D01*
X137316832Y-103261574D01*
X137329545Y-103255059D01*
X137343563Y-103247911D01*
X137358951Y-103240097D01*
X137394084Y-103222337D01*
X137435449Y-103201514D01*
X137483548Y-103177361D01*
X137601964Y-103118002D01*
X137965512Y-102934967D01*
X137947888Y-102931018D01*
X137900231Y-102921028D01*
X137739688Y-102888090D01*
X137550034Y-102849174D01*
X137426421Y-102823746D01*
X137294341Y-102796651D01*
X137124644Y-102761904D01*
X137063321Y-102749476D01*
X137050489Y-102681594D01*
X137033208Y-102590006D01*
X137015222Y-102496873D01*
X136995746Y-102396061D01*
X136982954Y-102327541D01*
X136976277Y-102288160D01*
X136975053Y-102278412D01*
X136975145Y-102274766D01*
X136975423Y-102274616D01*
X136975905Y-102274536D01*
X136976613Y-102274533D01*
X136977567Y-102274612D01*
G37*
D10*
X147974700Y-85268400D02*
X147843700Y-85305400D01*
X138430300Y-124305400D02*
X138822300Y-124305400D01*
X153152500Y-85120400D02*
X153108500Y-85046400D01*
X143847700Y-124712400D02*
X143934700Y-124749400D01*
X152934500Y-84935400D02*
X152760500Y-84935400D01*
X157658700Y-85305400D02*
X158050700Y-85305400D01*
X141788900Y-82774800D02*
X141788900Y-82848800D01*
X152542500Y-85527400D02*
X152586500Y-85601400D01*
X144400900Y-82589800D02*
X144487900Y-82663800D01*
X148017700Y-85231400D02*
X147974700Y-85268400D01*
X141831900Y-82959800D02*
X141918900Y-83033800D01*
X145097900Y-83070800D02*
X145184900Y-83033800D01*
X142223900Y-83033800D02*
X142310900Y-82959800D01*
X143137900Y-82552800D02*
X143137900Y-83070800D01*
X147240825Y-127415957D02*
X147153825Y-127341957D01*
X144966900Y-83070800D02*
X145097900Y-83070800D01*
X148061700Y-85083400D02*
X148061700Y-85157400D01*
X128833300Y-124453400D02*
X128833300Y-124527400D01*
X158181700Y-85675400D02*
X158050700Y-85712400D01*
X153108500Y-85601400D02*
X153152500Y-85527400D01*
X142658900Y-82552800D02*
X142658900Y-82922800D01*
X147153825Y-126934957D02*
X147153825Y-127045957D01*
X144531900Y-82774800D02*
X144531900Y-82848800D01*
X145576900Y-82552800D02*
X145881900Y-82552800D01*
X143804700Y-125082400D02*
X143630700Y-125082400D01*
X145977825Y-126712957D02*
X146021825Y-126675957D01*
X133445100Y-124342400D02*
X133358100Y-124416400D01*
X152586500Y-85046400D02*
X152542500Y-85120400D01*
X139040300Y-124453400D02*
X139040300Y-124527400D01*
X145750900Y-83033800D02*
X145837900Y-83070800D01*
X142354900Y-82848800D02*
X142354900Y-82774800D01*
X148024825Y-127415957D02*
X148111825Y-127452957D01*
X148851825Y-126675957D02*
X148851825Y-127304957D01*
X158268700Y-85453400D02*
X158268700Y-85564400D01*
X147545825Y-127415957D02*
X147458825Y-127452957D01*
X133924100Y-124897400D02*
X133924100Y-124786400D01*
X141918900Y-83033800D02*
X142005900Y-83070800D01*
D11*
G36*
X137915155Y-99787388D02*
G01*
X138124225Y-99821925D01*
X138228880Y-99838595D01*
X138237959Y-99839630D01*
X138247524Y-99840440D01*
X138267837Y-99841400D01*
X138289276Y-99841504D01*
X138311298Y-99840778D01*
X138333361Y-99839252D01*
X138354922Y-99836952D01*
X138375436Y-99833906D01*
X138385132Y-99832113D01*
X138394363Y-99830143D01*
X138407061Y-99827306D01*
X138417593Y-99825117D01*
X138426030Y-99823567D01*
X138432441Y-99822650D01*
X138434910Y-99822426D01*
X138436899Y-99822356D01*
X138438417Y-99822441D01*
X138439473Y-99822679D01*
X138440076Y-99823069D01*
X138440210Y-99823321D01*
X138440234Y-99823610D01*
X138439957Y-99824301D01*
X138439253Y-99825141D01*
X138438558Y-99829588D01*
X138437304Y-99841606D01*
X138433400Y-99885044D01*
X138428107Y-99948845D01*
X138421992Y-100026408D01*
X138410927Y-100167375D01*
X138405899Y-100226329D01*
X138405026Y-100226622D01*
X138402809Y-100227247D01*
X138394937Y-100229339D01*
X138383473Y-100232294D01*
X138369608Y-100235802D01*
X138360059Y-100238083D01*
X138350934Y-100240014D01*
X138342048Y-100241618D01*
X138333218Y-100242919D01*
X138324260Y-100243942D01*
X138314990Y-100244710D01*
X138305224Y-100245248D01*
X138294779Y-100245579D01*
X138255510Y-100246432D01*
X138274959Y-100272023D01*
X138283375Y-100283304D01*
X138291514Y-100294629D01*
X138299364Y-100305979D01*
X138306918Y-100317338D01*
X138314165Y-100328688D01*
X138321095Y-100340011D01*
X138327700Y-100351290D01*
X138333969Y-100362508D01*
X138339894Y-100373647D01*
X138345464Y-100384690D01*
X138350670Y-100395618D01*
X138355503Y-100406415D01*
X138359952Y-100417063D01*
X138364009Y-100427545D01*
X138367664Y-100437843D01*
X138370907Y-100447939D01*
X138375798Y-100464894D01*
X138380224Y-100482016D01*
X138384183Y-100499300D01*
X138387675Y-100516744D01*
X138390701Y-100534345D01*
X138393260Y-100552100D01*
X138395352Y-100570006D01*
X138396977Y-100588061D01*
X138398134Y-100606262D01*
X138398823Y-100624605D01*
X138399044Y-100643088D01*
X138398797Y-100661708D01*
X138398081Y-100680462D01*
X138396897Y-100699347D01*
X138395244Y-100718360D01*
X138393122Y-100737499D01*
X138389868Y-100760682D01*
X138385911Y-100782936D01*
X138381245Y-100804272D01*
X138375864Y-100824700D01*
X138369763Y-100844230D01*
X138362937Y-100862873D01*
X138355380Y-100880639D01*
X138347087Y-100897539D01*
X138338052Y-100913582D01*
X138328269Y-100928779D01*
X138317735Y-100943140D01*
X138306442Y-100956676D01*
X138294385Y-100969397D01*
X138281560Y-100981313D01*
X138267961Y-100992435D01*
X138253582Y-101002772D01*
X138239794Y-101011914D01*
X138233661Y-101015834D01*
X138227908Y-101019377D01*
X138222444Y-101022587D01*
X138217174Y-101025505D01*
X138212005Y-101028176D01*
X138206842Y-101030641D01*
X138201593Y-101032944D01*
X138196164Y-101035128D01*
X138190460Y-101037236D01*
X138184389Y-101039310D01*
X138177857Y-101041394D01*
X138170769Y-101043529D01*
X138154555Y-101048129D01*
X138146354Y-101050266D01*
X138142444Y-101051167D01*
X138138573Y-101051965D01*
X138134676Y-101052666D01*
X138130690Y-101053275D01*
X138126548Y-101053798D01*
X138122187Y-101054241D01*
X138117540Y-101054611D01*
X138112544Y-101054912D01*
X138107132Y-101055151D01*
X138101241Y-101055333D01*
X138087760Y-101055552D01*
X138071581Y-101055615D01*
X138054995Y-101055551D01*
X138041133Y-101055314D01*
X138029339Y-101054842D01*
X138022073Y-101054304D01*
X138018959Y-101054074D01*
X138009335Y-101052946D01*
X137999813Y-101051397D01*
X137989736Y-101049365D01*
X137978448Y-101046787D01*
X137955818Y-101040884D01*
X137934025Y-101034105D01*
X137913077Y-101026458D01*
X137892987Y-101017952D01*
X137873763Y-101008592D01*
X137855415Y-100998389D01*
X137837955Y-100987349D01*
X137821393Y-100975479D01*
X137805738Y-100962789D01*
X137791001Y-100949286D01*
X137777193Y-100934977D01*
X137764323Y-100919871D01*
X137752401Y-100903974D01*
X137741439Y-100887296D01*
X137731445Y-100869844D01*
X137722431Y-100851625D01*
X137716849Y-100839130D01*
X137711641Y-100826790D01*
X137706772Y-100814458D01*
X137702206Y-100801989D01*
X137697909Y-100789239D01*
X137693844Y-100776062D01*
X137689976Y-100762314D01*
X137686269Y-100747849D01*
X137682689Y-100732522D01*
X137679198Y-100716188D01*
X137675763Y-100698702D01*
X137672348Y-100679919D01*
X137665434Y-100637882D01*
X137658172Y-100588914D01*
X137636492Y-100442779D01*
X137627244Y-100386558D01*
X137618474Y-100338566D01*
X137609745Y-100296554D01*
X137600618Y-100258269D01*
X137590656Y-100221462D01*
X137580145Y-100186303D01*
X137825357Y-100186303D01*
X137825459Y-100187740D01*
X137825678Y-100189619D01*
X137826447Y-100194600D01*
X137827622Y-100201033D01*
X137829163Y-100208703D01*
X137831028Y-100217397D01*
X137833176Y-100226901D01*
X137835566Y-100237001D01*
X137840965Y-100260184D01*
X137846715Y-100286291D01*
X137852128Y-100312125D01*
X137856518Y-100334486D01*
X137865577Y-100381670D01*
X137873930Y-100422112D01*
X137881745Y-100456413D01*
X137889189Y-100485171D01*
X137896430Y-100508986D01*
X137903634Y-100528458D01*
X137907275Y-100536753D01*
X137910970Y-100544187D01*
X137914739Y-100550834D01*
X137918604Y-100556771D01*
X137921961Y-100561370D01*
X137925517Y-100565861D01*
X137929254Y-100570229D01*
X137933153Y-100574460D01*
X137937195Y-100578538D01*
X137941361Y-100582448D01*
X137945631Y-100586176D01*
X137949986Y-100589707D01*
X137954408Y-100593026D01*
X137958877Y-100596118D01*
X137963375Y-100598968D01*
X137967882Y-100601561D01*
X137972379Y-100603882D01*
X137976846Y-100605917D01*
X137981266Y-100607650D01*
X137985619Y-100609067D01*
X137990174Y-100610244D01*
X137995038Y-100611230D01*
X138000155Y-100612027D01*
X138005472Y-100612635D01*
X138010933Y-100613059D01*
X138016485Y-100613299D01*
X138022073Y-100613357D01*
X138027641Y-100613236D01*
X138033137Y-100612938D01*
X138038504Y-100612465D01*
X138043689Y-100611819D01*
X138048637Y-100611002D01*
X138053294Y-100610016D01*
X138057604Y-100608863D01*
X138061514Y-100607545D01*
X138064969Y-100606064D01*
X138067708Y-100604667D01*
X138070402Y-100603162D01*
X138073051Y-100601552D01*
X138075653Y-100599838D01*
X138078207Y-100598022D01*
X138080713Y-100596107D01*
X138083168Y-100594094D01*
X138085571Y-100591984D01*
X138087921Y-100589780D01*
X138090217Y-100587484D01*
X138094641Y-100582623D01*
X138098834Y-100577415D01*
X138102784Y-100571875D01*
X138106482Y-100566019D01*
X138109918Y-100559861D01*
X138113081Y-100553417D01*
X138115962Y-100546701D01*
X138118550Y-100539729D01*
X138120836Y-100532516D01*
X138122808Y-100525077D01*
X138124458Y-100517426D01*
X138125613Y-100510573D01*
X138126543Y-100503293D01*
X138127251Y-100495648D01*
X138127742Y-100487696D01*
X138128017Y-100479500D01*
X138128080Y-100471118D01*
X138127935Y-100462612D01*
X138127584Y-100454040D01*
X138127031Y-100445465D01*
X138126278Y-100436944D01*
X138125329Y-100428540D01*
X138124188Y-100420312D01*
X138122857Y-100412321D01*
X138121339Y-100404625D01*
X138119638Y-100397287D01*
X138117757Y-100390366D01*
X138114684Y-100380340D01*
X138111487Y-100370707D01*
X138108189Y-100361523D01*
X138104813Y-100352845D01*
X138101383Y-100344729D01*
X138097920Y-100337233D01*
X138094448Y-100330413D01*
X138090991Y-100324326D01*
X138081990Y-100309843D01*
X138073548Y-100297104D01*
X138069568Y-100291425D01*
X138065765Y-100286227D01*
X138062151Y-100281524D01*
X138058739Y-100277331D01*
X138055542Y-100273663D01*
X138052571Y-100270534D01*
X138049840Y-100267959D01*
X138047360Y-100265954D01*
X138045144Y-100264533D01*
X138043205Y-100263710D01*
X138042343Y-100263527D01*
X138041555Y-100263500D01*
X138040842Y-100263630D01*
X138040206Y-100263919D01*
X138040017Y-100264033D01*
X138039839Y-100264134D01*
X138039669Y-100264225D01*
X138039509Y-100264304D01*
X138039359Y-100264371D01*
X138039218Y-100264427D01*
X138039086Y-100264472D01*
X138038965Y-100264506D01*
X138038853Y-100264529D01*
X138038751Y-100264541D01*
X138038658Y-100264543D01*
X138038576Y-100264533D01*
X138038503Y-100264513D01*
X138038441Y-100264482D01*
X138038388Y-100264440D01*
X138038346Y-100264388D01*
X138038313Y-100264326D01*
X138038291Y-100264254D01*
X138038279Y-100264171D01*
X138038278Y-100264078D01*
X138038287Y-100263975D01*
X138038306Y-100263862D01*
X138038335Y-100263739D01*
X138038375Y-100263606D01*
X138038426Y-100263464D01*
X138038487Y-100263312D01*
X138038559Y-100263150D01*
X138038642Y-100262979D01*
X138038735Y-100262799D01*
X138038839Y-100262609D01*
X138039081Y-100262202D01*
X138039430Y-100261317D01*
X138039469Y-100260314D01*
X138039208Y-100259200D01*
X138038659Y-100257980D01*
X138037831Y-100256661D01*
X138036738Y-100255251D01*
X138035388Y-100253756D01*
X138033794Y-100252183D01*
X138029915Y-100248828D01*
X138025189Y-100245241D01*
X138019704Y-100241474D01*
X138013548Y-100237581D01*
X138006809Y-100233617D01*
X137999575Y-100229634D01*
X137991934Y-100225686D01*
X137983974Y-100221827D01*
X137975782Y-100218110D01*
X137967448Y-100214589D01*
X137959058Y-100211317D01*
X137950701Y-100208349D01*
X137938464Y-100204863D01*
X137921310Y-100200795D01*
X137901211Y-100196514D01*
X137880137Y-100192391D01*
X137860060Y-100188794D01*
X137842951Y-100186095D01*
X137830782Y-100184662D01*
X137827166Y-100184537D01*
X137825524Y-100184866D01*
X137825434Y-100185038D01*
X137825377Y-100185337D01*
X137825357Y-100186303D01*
X137580145Y-100186303D01*
X137579421Y-100183881D01*
X137576840Y-100175678D01*
X137575731Y-100172329D01*
X137574705Y-100169430D01*
X137573732Y-100166943D01*
X137572783Y-100164829D01*
X137571830Y-100163049D01*
X137570844Y-100161565D01*
X137570329Y-100160921D01*
X137569795Y-100160338D01*
X137569237Y-100159808D01*
X137568654Y-100159329D01*
X137568040Y-100158894D01*
X137567392Y-100158500D01*
X137565982Y-100157812D01*
X137564392Y-100157227D01*
X137562595Y-100156706D01*
X137558262Y-100155700D01*
X137556731Y-100155413D01*
X137554898Y-100155146D01*
X137550423Y-100154676D01*
X137545031Y-100154297D01*
X137538915Y-100154017D01*
X137532270Y-100153842D01*
X137525288Y-100153780D01*
X137518163Y-100153836D01*
X137511088Y-100154018D01*
X137503982Y-100154357D01*
X137497278Y-100154861D01*
X137490961Y-100155535D01*
X137485011Y-100156387D01*
X137479414Y-100157422D01*
X137474153Y-100158648D01*
X137469209Y-100160070D01*
X137464567Y-100161696D01*
X137460210Y-100163531D01*
X137456121Y-100165582D01*
X137452284Y-100167855D01*
X137448680Y-100170358D01*
X137445295Y-100173096D01*
X137442110Y-100176076D01*
X137439109Y-100179304D01*
X137436275Y-100182787D01*
X137433174Y-100187132D01*
X137430223Y-100191827D01*
X137424779Y-100202198D01*
X137419952Y-100213760D01*
X137415754Y-100226374D01*
X137412196Y-100239901D01*
X137409290Y-100254200D01*
X137407045Y-100269133D01*
X137405474Y-100284559D01*
X137404587Y-100300339D01*
X137404394Y-100316334D01*
X137404908Y-100332404D01*
X137406139Y-100348408D01*
X137408098Y-100364209D01*
X137410796Y-100379665D01*
X137414244Y-100394639D01*
X137418453Y-100408989D01*
X137421177Y-100416611D01*
X137424272Y-100423995D01*
X137427750Y-100431156D01*
X137431623Y-100438105D01*
X137435905Y-100444857D01*
X137440608Y-100451424D01*
X137445743Y-100457820D01*
X137451325Y-100464057D01*
X137457364Y-100470150D01*
X137463874Y-100476111D01*
X137470866Y-100481953D01*
X137478354Y-100487691D01*
X137486350Y-100493336D01*
X137494866Y-100498902D01*
X137503915Y-100504403D01*
X137513509Y-100509851D01*
X137515505Y-100510975D01*
X137517445Y-100512118D01*
X137519319Y-100513272D01*
X137521116Y-100514431D01*
X137522828Y-100515584D01*
X137524443Y-100516725D01*
X137525953Y-100517846D01*
X137527346Y-100518937D01*
X137528613Y-100519992D01*
X137529743Y-100521001D01*
X137530727Y-100521958D01*
X137531555Y-100522853D01*
X137532216Y-100523678D01*
X137532701Y-100524426D01*
X137532999Y-100525089D01*
X137533075Y-100525386D01*
X137533101Y-100525658D01*
X137529983Y-100543188D01*
X137521494Y-100587196D01*
X137493589Y-100728077D01*
X137476346Y-100812902D01*
X137463193Y-100874754D01*
X137454354Y-100912613D01*
X137451622Y-100922226D01*
X137450691Y-100924648D01*
X137450054Y-100925459D01*
X137448064Y-100925057D01*
X137444540Y-100923906D01*
X137433651Y-100919702D01*
X137418918Y-100913528D01*
X137401868Y-100906064D01*
X137384034Y-100897994D01*
X137366943Y-100889997D01*
X137352128Y-100882755D01*
X137341117Y-100876949D01*
X137323480Y-100866657D01*
X137315283Y-100861609D01*
X137307458Y-100856594D01*
X137299973Y-100851585D01*
X137292797Y-100846558D01*
X137285899Y-100841489D01*
X137279246Y-100836353D01*
X137272809Y-100831124D01*
X137266555Y-100825778D01*
X137260453Y-100820289D01*
X137254471Y-100814634D01*
X137248578Y-100808786D01*
X137242743Y-100802721D01*
X137236934Y-100796415D01*
X137231119Y-100789842D01*
X137220975Y-100777817D01*
X137211371Y-100765738D01*
X137202297Y-100753579D01*
X137193740Y-100741314D01*
X137185687Y-100728918D01*
X137178125Y-100716366D01*
X137171043Y-100703631D01*
X137164428Y-100690689D01*
X137158267Y-100677515D01*
X137152548Y-100664082D01*
X137147258Y-100650365D01*
X137142386Y-100636339D01*
X137137918Y-100621978D01*
X137133842Y-100607257D01*
X137130146Y-100592151D01*
X137126817Y-100576633D01*
X137123475Y-100557695D01*
X137120322Y-100535539D01*
X137117437Y-100511052D01*
X137114899Y-100485122D01*
X137112786Y-100458635D01*
X137111176Y-100432478D01*
X137110150Y-100407540D01*
X137109785Y-100384706D01*
X137110572Y-100345036D01*
X137112855Y-100301115D01*
X137116477Y-100254376D01*
X137121279Y-100206249D01*
X137127104Y-100158164D01*
X137133793Y-100111553D01*
X137141189Y-100067847D01*
X137149133Y-100028476D01*
X137156340Y-99999109D01*
X137164540Y-99971418D01*
X137173754Y-99945380D01*
X137184000Y-99920973D01*
X137195301Y-99898174D01*
X137207674Y-99876960D01*
X137221140Y-99857307D01*
X137235720Y-99839193D01*
X137251433Y-99822595D01*
X137268299Y-99807490D01*
X137286338Y-99793856D01*
X137305570Y-99781669D01*
X137326016Y-99770906D01*
X137347694Y-99761544D01*
X137370626Y-99753562D01*
X137394831Y-99746934D01*
X137399425Y-99745870D01*
X137403913Y-99744922D01*
X137408422Y-99744083D01*
X137413080Y-99743347D01*
X137418017Y-99742708D01*
X137423360Y-99742158D01*
X137429238Y-99741691D01*
X137435779Y-99741301D01*
X137443111Y-99740981D01*
X137451363Y-99740725D01*
X137471141Y-99740375D01*
X137496138Y-99740201D01*
X137527381Y-99740150D01*
X137631728Y-99740128D01*
X137915155Y-99787388D01*
G37*
D10*
X147451700Y-85305400D02*
X147451700Y-85712400D01*
X146543825Y-126934957D02*
X146674825Y-126934957D01*
X138953300Y-124342400D02*
X138996300Y-124379400D01*
D11*
G36*
X136974223Y-103516537D02*
G01*
X136976608Y-103516794D01*
X136978759Y-103517172D01*
X136980695Y-103517679D01*
X136982436Y-103518323D01*
X136984002Y-103519114D01*
X136985412Y-103520059D01*
X136986686Y-103521168D01*
X136987845Y-103522449D01*
X136988906Y-103523911D01*
X136989892Y-103525562D01*
X136991712Y-103529465D01*
X136993462Y-103534228D01*
X136995301Y-103539918D01*
X136999877Y-103554358D01*
X137004922Y-103569419D01*
X137009352Y-103582261D01*
X137012689Y-103591524D01*
X137013798Y-103594387D01*
X137014455Y-103595845D01*
X137014661Y-103596207D01*
X137014867Y-103596594D01*
X137015275Y-103597427D01*
X137015669Y-103598315D01*
X137016037Y-103599231D01*
X137016370Y-103600148D01*
X137016657Y-103601036D01*
X137016780Y-103601461D01*
X137016887Y-103601869D01*
X137016977Y-103602256D01*
X137017049Y-103602619D01*
X137017290Y-103603691D01*
X137017752Y-103605373D01*
X137019547Y-103611166D01*
X137022841Y-103621200D01*
X137028039Y-103636676D01*
X137045772Y-103688761D01*
X137075995Y-103777032D01*
X137157131Y-104014098D01*
X137202116Y-104145526D01*
X137208094Y-104162549D01*
X137209453Y-104165623D01*
X137214820Y-104164963D01*
X137229003Y-104162640D01*
X137275471Y-104154495D01*
X137332165Y-104144177D01*
X137382394Y-104134672D01*
X137436846Y-104124449D01*
X137529714Y-104107310D01*
X137671295Y-104081269D01*
X137748154Y-104066841D01*
X137829434Y-104051579D01*
X138129154Y-103995715D01*
X138317387Y-103960835D01*
X138401377Y-103945717D01*
X138402834Y-103945578D01*
X138404150Y-103945495D01*
X138405334Y-103945471D01*
X138406394Y-103945512D01*
X138406880Y-103945560D01*
X138407338Y-103945625D01*
X138407770Y-103945710D01*
X138408176Y-103945815D01*
X138408557Y-103945940D01*
X138408914Y-103946086D01*
X138409249Y-103946255D01*
X138409561Y-103946446D01*
X138409854Y-103946660D01*
X138410126Y-103946898D01*
X138410380Y-103947161D01*
X138410617Y-103947450D01*
X138410837Y-103947764D01*
X138411041Y-103948105D01*
X138411231Y-103948473D01*
X138411408Y-103948870D01*
X138411572Y-103949296D01*
X138411725Y-103949751D01*
X138412000Y-103950752D01*
X138412243Y-103951879D01*
X138412460Y-103953139D01*
X138427234Y-104039295D01*
X138460910Y-104231982D01*
X138480140Y-104343268D01*
X138485988Y-104378411D01*
X138488134Y-104392848D01*
X138488125Y-104393193D01*
X138488097Y-104393528D01*
X138488050Y-104393854D01*
X138487985Y-104394171D01*
X138487902Y-104394478D01*
X138487800Y-104394776D01*
X138487680Y-104395064D01*
X138487542Y-104395344D01*
X138487386Y-104395613D01*
X138487211Y-104395873D01*
X138487018Y-104396124D01*
X138486807Y-104396365D01*
X138486578Y-104396596D01*
X138486331Y-104396818D01*
X138486066Y-104397031D01*
X138485782Y-104397234D01*
X138485481Y-104397427D01*
X138485162Y-104397611D01*
X138484825Y-104397785D01*
X138484470Y-104397949D01*
X138484097Y-104398103D01*
X138483706Y-104398248D01*
X138483297Y-104398383D01*
X138482870Y-104398509D01*
X138482426Y-104398624D01*
X138481964Y-104398730D01*
X138481484Y-104398826D01*
X138480987Y-104398912D01*
X138480472Y-104398989D01*
X138479939Y-104399055D01*
X138478821Y-104399158D01*
X138472294Y-104399924D01*
X138459430Y-104401753D01*
X138413618Y-104408767D01*
X138339237Y-104420533D01*
X138234141Y-104437389D01*
X138064808Y-104464429D01*
X137883621Y-104493326D01*
X137670261Y-104527322D01*
X137337317Y-104580744D01*
X137284263Y-104590391D01*
X137274773Y-104592860D01*
X137272328Y-104594485D01*
X137273646Y-104601269D01*
X137277752Y-104619411D01*
X137295228Y-104693566D01*
X137373567Y-105019938D01*
X137417697Y-105204148D01*
X137425654Y-105238804D01*
X137427331Y-105248438D01*
X137426284Y-105248750D01*
X137423637Y-105249416D01*
X137414253Y-105251643D01*
X137400597Y-105254789D01*
X137384088Y-105258522D01*
X137327329Y-105271533D01*
X137250315Y-105289481D01*
X137113154Y-105321628D01*
X137012562Y-105345458D01*
X136973377Y-105354743D01*
X136961121Y-105357567D01*
X136956220Y-105358605D01*
X136956142Y-105358584D01*
X136956058Y-105358521D01*
X136955970Y-105358419D01*
X136955878Y-105358277D01*
X136955680Y-105357878D01*
X136955468Y-105357336D01*
X136955242Y-105356656D01*
X136955005Y-105355848D01*
X136954758Y-105354920D01*
X136954505Y-105353879D01*
X136954246Y-105352736D01*
X136953984Y-105351496D01*
X136953720Y-105350170D01*
X136953456Y-105348764D01*
X136953195Y-105347288D01*
X136952938Y-105345750D01*
X136952688Y-105344157D01*
X136952445Y-105342518D01*
X136940915Y-105270970D01*
X136916431Y-105121538D01*
X136876036Y-104876005D01*
X136838800Y-104649098D01*
X136796436Y-104391711D01*
X136688015Y-103733005D01*
X136666082Y-103599231D01*
X136662485Y-103576763D01*
X136659753Y-103558149D01*
X136658155Y-103545323D01*
X136657864Y-103541687D01*
X136657860Y-103540668D01*
X136657957Y-103540224D01*
X136658660Y-103540037D01*
X136660438Y-103539776D01*
X136666995Y-103539052D01*
X136690546Y-103536920D01*
X136725036Y-103534133D01*
X136766891Y-103530993D01*
X136920114Y-103519741D01*
X136944326Y-103517795D01*
X136961941Y-103516544D01*
X136968669Y-103516351D01*
X136974223Y-103516537D01*
G37*
D10*
X142310900Y-82959800D02*
X142354900Y-82848800D01*
X148982825Y-127452957D02*
X149069825Y-127452957D01*
X144022700Y-124971400D02*
X143934700Y-125045400D01*
X143804700Y-124305400D02*
X143630700Y-124305400D01*
X143529900Y-82922800D02*
X143573900Y-83033800D01*
X146805825Y-127082957D02*
X146805825Y-127452957D01*
X146326825Y-127082957D02*
X146456825Y-126971957D01*
X158224700Y-85231400D02*
X158181700Y-85268400D01*
X152934500Y-85712400D02*
X153021500Y-85675400D01*
X128223300Y-124675400D02*
X128223300Y-125082400D01*
X128615300Y-124675400D02*
X128528300Y-124675400D01*
X138953300Y-125045400D02*
X138822300Y-125082400D01*
D11*
G36*
X136438619Y-101316029D02*
G01*
X136446365Y-101316313D01*
X136453685Y-101316747D01*
X136460463Y-101317335D01*
X136466584Y-101318081D01*
X136480136Y-101320354D01*
X136493650Y-101323257D01*
X136507086Y-101326768D01*
X136520401Y-101330866D01*
X136533554Y-101335528D01*
X136546502Y-101340732D01*
X136559204Y-101346457D01*
X136571618Y-101352680D01*
X136583702Y-101359379D01*
X136595415Y-101366532D01*
X136606715Y-101374117D01*
X136617559Y-101382112D01*
X136627907Y-101390496D01*
X136637716Y-101399245D01*
X136646945Y-101408339D01*
X136655552Y-101417754D01*
X136666990Y-101431717D01*
X136677553Y-101446147D01*
X136687232Y-101461011D01*
X136696016Y-101476277D01*
X136703898Y-101491912D01*
X136710868Y-101507882D01*
X136716917Y-101524155D01*
X136722035Y-101540698D01*
X136726213Y-101557478D01*
X136729443Y-101574462D01*
X136731714Y-101591618D01*
X136733019Y-101608911D01*
X136733347Y-101626310D01*
X136732690Y-101643781D01*
X136731038Y-101661292D01*
X136728382Y-101678809D01*
X136726540Y-101688393D01*
X136724528Y-101697630D01*
X136722332Y-101706555D01*
X136719934Y-101715206D01*
X136717318Y-101723621D01*
X136714467Y-101731837D01*
X136711364Y-101739889D01*
X136707995Y-101747817D01*
X136704340Y-101755655D01*
X136700385Y-101763443D01*
X136696113Y-101771216D01*
X136691507Y-101779013D01*
X136686550Y-101786869D01*
X136681227Y-101794822D01*
X136675520Y-101802909D01*
X136669414Y-101811168D01*
X136658613Y-101824734D01*
X136647308Y-101837505D01*
X136635509Y-101849476D01*
X136623223Y-101860643D01*
X136610459Y-101871002D01*
X136597225Y-101880547D01*
X136583530Y-101889276D01*
X136569381Y-101897183D01*
X136554789Y-101904264D01*
X136539760Y-101910515D01*
X136524303Y-101915930D01*
X136508428Y-101920507D01*
X136492141Y-101924240D01*
X136475452Y-101927125D01*
X136458370Y-101929157D01*
X136440901Y-101930333D01*
X136416783Y-101930546D01*
X136393186Y-101929143D01*
X136370162Y-101926156D01*
X136347761Y-101921615D01*
X136326035Y-101915550D01*
X136305035Y-101907990D01*
X136284813Y-101898968D01*
X136265420Y-101888512D01*
X136246907Y-101876652D01*
X136229326Y-101863420D01*
X136212727Y-101848845D01*
X136197163Y-101832958D01*
X136182684Y-101815788D01*
X136169342Y-101797365D01*
X136157188Y-101777721D01*
X136146273Y-101756886D01*
X136142493Y-101748859D01*
X136139074Y-101741264D01*
X136135999Y-101734012D01*
X136133248Y-101727017D01*
X136130801Y-101720192D01*
X136128640Y-101713451D01*
X136126745Y-101706708D01*
X136125097Y-101699874D01*
X136123677Y-101692865D01*
X136122466Y-101685592D01*
X136121443Y-101677970D01*
X136120591Y-101669911D01*
X136119890Y-101661329D01*
X136119321Y-101652138D01*
X136118501Y-101631579D01*
X136118098Y-101615919D01*
X136117944Y-101603168D01*
X136118100Y-101592600D01*
X136118313Y-101587908D01*
X136118627Y-101583489D01*
X136119049Y-101579253D01*
X136119588Y-101575109D01*
X136120250Y-101570967D01*
X136121043Y-101566735D01*
X136123056Y-101557639D01*
X136125687Y-101547097D01*
X136128763Y-101536004D01*
X136132250Y-101525024D01*
X136136137Y-101514175D01*
X136140413Y-101503477D01*
X136145066Y-101492946D01*
X136150084Y-101482604D01*
X136155457Y-101472467D01*
X136161174Y-101462556D01*
X136167223Y-101452888D01*
X136173593Y-101443483D01*
X136180273Y-101434358D01*
X136187251Y-101425533D01*
X136194516Y-101417027D01*
X136202057Y-101408858D01*
X136209863Y-101401046D01*
X136217922Y-101393607D01*
X136223348Y-101388972D01*
X136229182Y-101384302D01*
X136235373Y-101379628D01*
X136241868Y-101374979D01*
X136248617Y-101370385D01*
X136255567Y-101365876D01*
X136262668Y-101361481D01*
X136269868Y-101357230D01*
X136277116Y-101353152D01*
X136284360Y-101349278D01*
X136291548Y-101345636D01*
X136298629Y-101342258D01*
X136305552Y-101339171D01*
X136312265Y-101336407D01*
X136318717Y-101333994D01*
X136324856Y-101331963D01*
X136343726Y-101326093D01*
X136350627Y-101323890D01*
X136354541Y-101322584D01*
X136358376Y-101321438D01*
X136363173Y-101320385D01*
X136368817Y-101319430D01*
X136375192Y-101318578D01*
X136389672Y-101317202D01*
X136405686Y-101316293D01*
X136422311Y-101315890D01*
X136438619Y-101316029D01*
G37*
D10*
X148721825Y-126934957D02*
X149025825Y-126934957D01*
X128746300Y-124342400D02*
X128789300Y-124379400D01*
X144008900Y-82663800D02*
X144095900Y-82589800D01*
X146674825Y-126934957D02*
X146761825Y-126971957D01*
X147980825Y-126934957D02*
X147980825Y-127304957D01*
X133793100Y-124342400D02*
X133706100Y-124305400D01*
X146326825Y-126934957D02*
X146326825Y-127082957D01*
X148111825Y-127452957D02*
X148242825Y-127452957D01*
X157658700Y-85305400D02*
X157658700Y-85712400D01*
X138996300Y-124749400D02*
X139040300Y-124823400D01*
X152673500Y-84972400D02*
X152586500Y-85046400D01*
X158268700Y-85083400D02*
X158268700Y-85157400D01*
X142658900Y-82922800D02*
X142702900Y-83033800D01*
X144313900Y-82552800D02*
X144400900Y-82589800D01*
X143934700Y-125045400D02*
X143804700Y-125082400D01*
X133314100Y-124490400D02*
X133271100Y-124601400D01*
X143499700Y-124601400D02*
X143586700Y-124638400D01*
X158224700Y-85638400D02*
X158181700Y-85675400D01*
X144008900Y-82552800D02*
X144008900Y-82663800D01*
X158050700Y-85305400D02*
X158181700Y-85342400D01*
X133314100Y-124897400D02*
X133358100Y-124971400D01*
X142223900Y-82589800D02*
X142136900Y-82552800D01*
X153021500Y-85675400D02*
X153108500Y-85601400D01*
X143412700Y-124490400D02*
X143456700Y-124564400D01*
X138953300Y-124712400D02*
X138996300Y-124749400D01*
X147632825Y-127341957D02*
X147545825Y-127415957D01*
X147458825Y-126934957D02*
X147545825Y-126971957D01*
X139040300Y-124527400D02*
X138996300Y-124601400D01*
X128528300Y-124675400D02*
X128223300Y-124675400D01*
X145977825Y-126934957D02*
X145977825Y-127452957D01*
X158224700Y-85009400D02*
X158268700Y-85083400D01*
X147843700Y-85305400D02*
X147756700Y-85305400D01*
X152760500Y-85712400D02*
X152934500Y-85712400D01*
X163308700Y-85305400D02*
X163308700Y-85712400D01*
X143630700Y-125082400D02*
X143499700Y-125045400D01*
X147458825Y-127452957D02*
X147327825Y-127452957D01*
X145977825Y-126638957D02*
X145934825Y-126675957D01*
X145706900Y-82293800D02*
X145706900Y-82922800D01*
X147980825Y-127304957D02*
X148024825Y-127415957D01*
X144022700Y-124860400D02*
X144022700Y-124971400D01*
X146456825Y-126971957D02*
X146543825Y-126934957D01*
X141788900Y-82848800D02*
X141831900Y-82959800D01*
X143934700Y-124342400D02*
X143804700Y-124305400D01*
X138996300Y-125008400D02*
X138953300Y-125045400D01*
X142354900Y-82774800D02*
X142310900Y-82663800D01*
X142789900Y-83070800D02*
X142920900Y-83070800D01*
X138822300Y-124305400D02*
X138953300Y-124342400D01*
X147327825Y-127452957D02*
X147240825Y-127415957D01*
X144836900Y-82922800D02*
X144879900Y-83033800D01*
X143573900Y-83033800D02*
X143660900Y-83070800D01*
X158181700Y-85268400D02*
X158050700Y-85305400D01*
X157658700Y-84935400D02*
X157658700Y-85305400D01*
X147756700Y-85305400D02*
X147451700Y-85305400D01*
X147756700Y-85305400D02*
X148061700Y-85712400D01*
X133271100Y-124601400D02*
X133271100Y-124786400D01*
X144095900Y-83033800D02*
X144008900Y-82959800D01*
X152542500Y-85120400D02*
X152499500Y-85231400D01*
X143499700Y-125045400D02*
X143412700Y-124971400D01*
X147974700Y-84972400D02*
X148017700Y-85009400D01*
X145315900Y-82552800D02*
X145315900Y-83070800D01*
X144022700Y-124416400D02*
X143934700Y-124342400D01*
X162698700Y-85305400D02*
X162698700Y-85712400D01*
X143934700Y-124749400D02*
X143978700Y-124786400D01*
X138822300Y-124675400D02*
X138953300Y-124712400D01*
X147153825Y-127045957D02*
X147240825Y-126971957D01*
X158181700Y-85342400D02*
X158224700Y-85379400D01*
X158268700Y-85564400D02*
X158224700Y-85638400D01*
X138996300Y-124601400D02*
X138953300Y-124638400D01*
X128789300Y-124379400D02*
X128833300Y-124453400D01*
X133532100Y-125082400D02*
X133706100Y-125082400D01*
X153152500Y-85527400D02*
X153152500Y-85416400D01*
X158224700Y-85379400D02*
X158268700Y-85453400D01*
X148459825Y-126934957D02*
X148459825Y-127452957D01*
X142310900Y-82663800D02*
X142223900Y-82589800D01*
X143456700Y-124564400D02*
X143499700Y-124601400D01*
X152934500Y-85416400D02*
X153152500Y-85416400D01*
X145934825Y-126675957D02*
X145977825Y-126712957D01*
X147451700Y-84935400D02*
X147451700Y-85305400D01*
X148061700Y-85157400D02*
X148017700Y-85231400D01*
X148329825Y-127415957D02*
X148459825Y-127304957D01*
X147843700Y-84935400D02*
X147974700Y-84972400D01*
X152673500Y-85675400D02*
X152760500Y-85712400D01*
X158181700Y-84972400D02*
X158224700Y-85009400D01*
X158050700Y-84935400D02*
X158181700Y-84972400D01*
X133532100Y-124305400D02*
X133445100Y-124342400D01*
X157658700Y-84935400D02*
X158050700Y-84935400D01*
X133271100Y-124786400D02*
X133314100Y-124897400D01*
X128223300Y-124305400D02*
X128223300Y-124675400D01*
X144400900Y-83033800D02*
X144313900Y-83070800D01*
X142005900Y-82552800D02*
X141918900Y-82589800D01*
X133706100Y-124786400D02*
X133924100Y-124786400D01*
X144836900Y-82552800D02*
X144836900Y-82922800D01*
X139040300Y-124934400D02*
X138996300Y-125008400D01*
X133706100Y-125082400D02*
X133793100Y-125045400D01*
X162698700Y-84935400D02*
X162698700Y-85305400D01*
X147153825Y-127045957D02*
X147153825Y-127341957D01*
X133793100Y-125045400D02*
X133880100Y-124971400D01*
X147327825Y-126934957D02*
X147458825Y-126934957D01*
X147676825Y-127230957D02*
X147632825Y-127341957D01*
X128528300Y-124675400D02*
X128833300Y-125082400D01*
X138430300Y-124675400D02*
X138822300Y-124675400D01*
X142702900Y-83033800D02*
X142789900Y-83070800D01*
X148895825Y-127415957D02*
X148982825Y-127452957D01*
X147153825Y-127341957D02*
X147153825Y-127711957D01*
X144313900Y-83070800D02*
X144182900Y-83070800D01*
X146761825Y-126971957D02*
X146805825Y-127082957D01*
X153021500Y-84972400D02*
X152934500Y-84935400D01*
X144487900Y-82663800D02*
X144531900Y-82774800D01*
X143007900Y-83033800D02*
X143137900Y-82922800D01*
X147451700Y-84935400D02*
X147843700Y-84935400D01*
X143399900Y-82552800D02*
X143704900Y-82552800D01*
X145184900Y-83033800D02*
X145315900Y-82922800D01*
X133880100Y-124416400D02*
X133793100Y-124342400D01*
X143586700Y-124638400D02*
X143847700Y-124712400D01*
X138996300Y-124379400D02*
X139040300Y-124453400D01*
X147676825Y-127156957D02*
X147676825Y-127230957D01*
X128615300Y-124305400D02*
X128746300Y-124342400D01*
X138430300Y-124675400D02*
X138430300Y-125082400D01*
X141918900Y-82589800D02*
X141831900Y-82663800D01*
X144531900Y-82848800D02*
X144487900Y-82959800D01*
D11*
G36*
X136977678Y-101448839D02*
G01*
X137029820Y-101450841D01*
X137106538Y-101454257D01*
X137199894Y-101458755D01*
X138277321Y-101511904D01*
X138334944Y-101514502D01*
X138343972Y-101515252D01*
X138351177Y-101516238D01*
X138356724Y-101517555D01*
X138358926Y-101518369D01*
X138360776Y-101519303D01*
X138362292Y-101520369D01*
X138363497Y-101521578D01*
X138364409Y-101522944D01*
X138365051Y-101524478D01*
X138365442Y-101526193D01*
X138365603Y-101528101D01*
X138365316Y-101532543D01*
X138364355Y-101537903D01*
X138362883Y-101544277D01*
X138359065Y-101560459D01*
X138355698Y-101576302D01*
X138351448Y-101596908D01*
X138342474Y-101641739D01*
X138320716Y-101750892D01*
X138315953Y-101774868D01*
X138311719Y-101797014D01*
X138308475Y-101814865D01*
X138306682Y-101825959D01*
X138304464Y-101842673D01*
X138273536Y-101844760D01*
X138192500Y-101849177D01*
X138041101Y-101856867D01*
X137636394Y-101877124D01*
X137072928Y-101904947D01*
X137064844Y-101905230D01*
X137058707Y-101905328D01*
X137056281Y-101905282D01*
X137054234Y-101905159D01*
X137052533Y-101904948D01*
X137051141Y-101904640D01*
X137050023Y-101904224D01*
X137049556Y-101903972D01*
X137049144Y-101903690D01*
X137048782Y-101903375D01*
X137048467Y-101903028D01*
X137048194Y-101902645D01*
X137047958Y-101902227D01*
X137047581Y-101901277D01*
X137047300Y-101900168D01*
X137047081Y-101898890D01*
X137046886Y-101897432D01*
X137046492Y-101894868D01*
X137045773Y-101890805D01*
X137043524Y-101879018D01*
X137040465Y-101863738D01*
X137036923Y-101846633D01*
X136966868Y-101503716D01*
X136962893Y-101482859D01*
X136959905Y-101465512D01*
X136958871Y-101458720D01*
X136958193Y-101453484D01*
X136957905Y-101450031D01*
X136957920Y-101449043D01*
X136958046Y-101448585D01*
X136963302Y-101448473D01*
X136977678Y-101448839D01*
G37*
D10*
X128746300Y-124638400D02*
X128615300Y-124675400D01*
X152499500Y-85416400D02*
X152542500Y-85527400D01*
X144879900Y-83033800D02*
X144966900Y-83070800D01*
X133924100Y-124490400D02*
X133880100Y-124416400D01*
X143630700Y-124305400D02*
X143499700Y-124342400D01*
X144487900Y-82959800D02*
X144400900Y-83033800D01*
X133706100Y-124305400D02*
X133532100Y-124305400D01*
X168424900Y-84935400D02*
X168076900Y-85712400D01*
X147240825Y-126971957D02*
X147327825Y-126934957D01*
X144095900Y-82589800D02*
X144182900Y-82552800D01*
X148851825Y-127304957D02*
X148895825Y-127415957D01*
X144182900Y-83070800D02*
X144095900Y-83033800D01*
X148017700Y-85009400D02*
X148061700Y-85083400D01*
X138953300Y-124638400D02*
X138822300Y-124675400D01*
X142005900Y-83070800D02*
X142136900Y-83070800D01*
X163308700Y-84935400D02*
X163308700Y-85305400D01*
X158050700Y-85712400D02*
X157658700Y-85712400D01*
X144008900Y-82663800D02*
X144008900Y-82959800D01*
X141831900Y-82663800D02*
X141788900Y-82774800D01*
X133880100Y-124971400D02*
X133924100Y-124897400D01*
X152586500Y-85601400D02*
X152673500Y-85675400D01*
X143499700Y-124342400D02*
X143412700Y-124416400D01*
X133445100Y-125045400D02*
X133532100Y-125082400D01*
X145837900Y-83070800D02*
X145924900Y-83070800D01*
D11*
G36*
X138066518Y-105352577D02*
G01*
X138083273Y-105353444D01*
X138100090Y-105355028D01*
X138116962Y-105357330D01*
X138150839Y-105364081D01*
X138184846Y-105373686D01*
X138218921Y-105386137D01*
X138253005Y-105401424D01*
X138287038Y-105419537D01*
X138320961Y-105440467D01*
X138354713Y-105464205D01*
X138388235Y-105490741D01*
X138401442Y-105502088D01*
X138415726Y-105514887D01*
X138430569Y-105528634D01*
X138445452Y-105542829D01*
X138459855Y-105556969D01*
X138473261Y-105570552D01*
X138485149Y-105583076D01*
X138495001Y-105594039D01*
X138520345Y-105623487D01*
X138538216Y-105644692D01*
X138545400Y-105653474D01*
X138551978Y-105661722D01*
X138564998Y-105678645D01*
X138579020Y-105697832D01*
X138596104Y-105722148D01*
X138633380Y-105777042D01*
X138650531Y-105803054D01*
X138664664Y-105825068D01*
X138674259Y-105840802D01*
X138676879Y-105845600D01*
X138677795Y-105847972D01*
X138677845Y-105848200D01*
X138677992Y-105848589D01*
X138678232Y-105849129D01*
X138678558Y-105849812D01*
X138679453Y-105851568D01*
X138680638Y-105853784D01*
X138682071Y-105856387D01*
X138683715Y-105859304D01*
X138685528Y-105862461D01*
X138687473Y-105865787D01*
X138694283Y-105877422D01*
X138700575Y-105888386D01*
X138706701Y-105899333D01*
X138713012Y-105910915D01*
X138719860Y-105923787D01*
X138727597Y-105938602D01*
X138747141Y-105976672D01*
X138759832Y-106001811D01*
X138771396Y-106025196D01*
X138780556Y-106044216D01*
X138786035Y-106056258D01*
X138789827Y-106065168D01*
X138794392Y-106075656D01*
X138799156Y-106086415D01*
X138803544Y-106096137D01*
X138807317Y-106104496D01*
X138810407Y-106111548D01*
X138812495Y-106116551D01*
X138813063Y-106118051D01*
X138813261Y-106118760D01*
X138813313Y-106119011D01*
X138813463Y-106119473D01*
X138814042Y-106120982D01*
X138814956Y-106123194D01*
X138816166Y-106126016D01*
X138817631Y-106129355D01*
X138819310Y-106133117D01*
X138821163Y-106137208D01*
X138823149Y-106141535D01*
X138827650Y-106151583D01*
X138832596Y-106163118D01*
X138837386Y-106174715D01*
X138841422Y-106184952D01*
X138848595Y-106203483D01*
X138851751Y-106211443D01*
X138854068Y-106217125D01*
X138855790Y-106221337D01*
X138857328Y-106225295D01*
X138857976Y-106227040D01*
X138858515Y-106228555D01*
X138858924Y-106229784D01*
X138859182Y-106230672D01*
X138859712Y-106232319D01*
X138860899Y-106235728D01*
X138864940Y-106246991D01*
X138870702Y-106262794D01*
X138877582Y-106281471D01*
X138902922Y-106353596D01*
X138927679Y-106431149D01*
X138951486Y-106512695D01*
X138973976Y-106596796D01*
X138994780Y-106682015D01*
X139013533Y-106766917D01*
X139029866Y-106850063D01*
X139043412Y-106930018D01*
X139049389Y-106968277D01*
X139053842Y-106996058D01*
X139058991Y-107032899D01*
X139066061Y-107090329D01*
X139073447Y-107154810D01*
X139079545Y-107212805D01*
X139081105Y-107231015D01*
X139082383Y-107251651D01*
X139083408Y-107276221D01*
X139084215Y-107306231D01*
X139084834Y-107343190D01*
X139085298Y-107388605D01*
X139085889Y-107510831D01*
X139086014Y-107685626D01*
X139085321Y-107768218D01*
X139085320Y-107768218D01*
X139078232Y-107847553D01*
X139069064Y-107925502D01*
X139057880Y-108001735D01*
X139044743Y-108075924D01*
X139029717Y-108147739D01*
X139012866Y-108216850D01*
X138994253Y-108282929D01*
X138973941Y-108345645D01*
X138958629Y-108387308D01*
X138941623Y-108429170D01*
X138923333Y-108470410D01*
X138904170Y-108510209D01*
X138884546Y-108547747D01*
X138864872Y-108582203D01*
X138845559Y-108612758D01*
X138836167Y-108626316D01*
X138827019Y-108638592D01*
X138820464Y-108647165D01*
X138814284Y-108655486D01*
X138809173Y-108662605D01*
X138807236Y-108665417D01*
X138805827Y-108667571D01*
X138803857Y-108670249D01*
X138800540Y-108674203D01*
X138790584Y-108685214D01*
X138777398Y-108699143D01*
X138762419Y-108714529D01*
X138747087Y-108729913D01*
X138732839Y-108743834D01*
X138721116Y-108754831D01*
X138716650Y-108758777D01*
X138713354Y-108761445D01*
X138696743Y-108773472D01*
X138680614Y-108784513D01*
X138664889Y-108794598D01*
X138649487Y-108803754D01*
X138634330Y-108812010D01*
X138619338Y-108819393D01*
X138604432Y-108825933D01*
X138589532Y-108831657D01*
X138574559Y-108836594D01*
X138559435Y-108840772D01*
X138544079Y-108844220D01*
X138528411Y-108846965D01*
X138512354Y-108849037D01*
X138495827Y-108850463D01*
X138478752Y-108851272D01*
X138461048Y-108851492D01*
X138442310Y-108851159D01*
X138425001Y-108850254D01*
X138416749Y-108849565D01*
X138408695Y-108848705D01*
X138400784Y-108847666D01*
X138392964Y-108846438D01*
X138385181Y-108845013D01*
X138377383Y-108843382D01*
X138369515Y-108841535D01*
X138361525Y-108839463D01*
X138344965Y-108834610D01*
X138327274Y-108828750D01*
X138311533Y-108822958D01*
X138295651Y-108816473D01*
X138279660Y-108809316D01*
X138263590Y-108801505D01*
X138247473Y-108793061D01*
X138231338Y-108784004D01*
X138215216Y-108774354D01*
X138199138Y-108764132D01*
X138183136Y-108753357D01*
X138167238Y-108742050D01*
X138151477Y-108730229D01*
X138135882Y-108717917D01*
X138120485Y-108705132D01*
X138105317Y-108691895D01*
X138090406Y-108678226D01*
X138075786Y-108664145D01*
X138069742Y-108658294D01*
X138064125Y-108653085D01*
X138059015Y-108648584D01*
X138054495Y-108644854D01*
X138052482Y-108643298D01*
X138050646Y-108641959D01*
X138048998Y-108640845D01*
X138047549Y-108639964D01*
X138046308Y-108639325D01*
X138045285Y-108638934D01*
X138044491Y-108638801D01*
X138044183Y-108638833D01*
X138043936Y-108638933D01*
X138043482Y-108639202D01*
X138043079Y-108639418D01*
X138042897Y-108639507D01*
X138042727Y-108639582D01*
X138042570Y-108639644D01*
X138042425Y-108639692D01*
X138042294Y-108639727D01*
X138042175Y-108639749D01*
X138042069Y-108639758D01*
X138041975Y-108639754D01*
X138041895Y-108639736D01*
X138041827Y-108639706D01*
X138041771Y-108639662D01*
X138041729Y-108639605D01*
X138041699Y-108639534D01*
X138041682Y-108639451D01*
X138041678Y-108639354D01*
X138041687Y-108639245D01*
X138041708Y-108639122D01*
X138041742Y-108638986D01*
X138041789Y-108638837D01*
X138041849Y-108638675D01*
X138041922Y-108638500D01*
X138042007Y-108638311D01*
X138042216Y-108637896D01*
X138042477Y-108637428D01*
X138042789Y-108636908D01*
X138042935Y-108636658D01*
X138043067Y-108636405D01*
X138043184Y-108636148D01*
X138043288Y-108635889D01*
X138043377Y-108635628D01*
X138043453Y-108635364D01*
X138043514Y-108635099D01*
X138043562Y-108634832D01*
X138043596Y-108634563D01*
X138043616Y-108634294D01*
X138043623Y-108634025D01*
X138043616Y-108633755D01*
X138043595Y-108633485D01*
X138043562Y-108633215D01*
X138043515Y-108632946D01*
X138043454Y-108632678D01*
X138043381Y-108632411D01*
X138043294Y-108632146D01*
X138043195Y-108631882D01*
X138043082Y-108631621D01*
X138042957Y-108631362D01*
X138042819Y-108631106D01*
X138042668Y-108630853D01*
X138042505Y-108630604D01*
X138042329Y-108630358D01*
X138042141Y-108630116D01*
X138041940Y-108629878D01*
X138041727Y-108629645D01*
X138041502Y-108629417D01*
X138041264Y-108629194D01*
X138041015Y-108628976D01*
X138040753Y-108628764D01*
X138038914Y-108627098D01*
X138036191Y-108624304D01*
X138028469Y-108615784D01*
X138018345Y-108604113D01*
X138006580Y-108590196D01*
X137993932Y-108574941D01*
X137981161Y-108559255D01*
X137969025Y-108544045D01*
X137958283Y-108530218D01*
X137941240Y-108507963D01*
X137937902Y-108503667D01*
X137932920Y-108497257D01*
X137932646Y-108497077D01*
X137932181Y-108496967D01*
X137931520Y-108496929D01*
X137930653Y-108496966D01*
X137928274Y-108497271D01*
X137924983Y-108497899D01*
X137920720Y-108498869D01*
X137915423Y-108500196D01*
X137909031Y-108501899D01*
X137901484Y-108503993D01*
X137882678Y-108509429D01*
X137858518Y-108516641D01*
X137828515Y-108525766D01*
X137792181Y-108536942D01*
X137755023Y-108548261D01*
X137722754Y-108557852D01*
X137688496Y-108568109D01*
X137646554Y-108581028D01*
X137563100Y-108606821D01*
X137536938Y-108614688D01*
X137526328Y-108617625D01*
X137526050Y-108617667D01*
X137525573Y-108617774D01*
X137524067Y-108618167D01*
X137521900Y-108618778D01*
X137519163Y-108619580D01*
X137512338Y-108621649D01*
X137504314Y-108624159D01*
X137485487Y-108630024D01*
X137468754Y-108635072D01*
X137441079Y-108643419D01*
X137395941Y-108657218D01*
X137350803Y-108670992D01*
X137323128Y-108679279D01*
X137226426Y-108708404D01*
X137123314Y-108740019D01*
X137084982Y-108751819D01*
X137028488Y-108768923D01*
X136931993Y-108798039D01*
X136916060Y-108803017D01*
X136909954Y-108805194D01*
X136908841Y-108805626D01*
X136907624Y-108806067D01*
X136906341Y-108806503D01*
X136905033Y-108806922D01*
X136903738Y-108807311D01*
X136902497Y-108807659D01*
X136901349Y-108807954D01*
X136900333Y-108808182D01*
X136879253Y-108814249D01*
X136834920Y-108827499D01*
X136744008Y-108855232D01*
X136700670Y-108868627D01*
X136669765Y-108877725D01*
X136658871Y-108880691D01*
X136650963Y-108882617D01*
X136645998Y-108883515D01*
X136644607Y-108883582D01*
X136643937Y-108883396D01*
X136643774Y-108883171D01*
X136643663Y-108882864D01*
X136643607Y-108882469D01*
X136643609Y-108881980D01*
X136643672Y-108881388D01*
X136643799Y-108880688D01*
X136643993Y-108879871D01*
X136644257Y-108878932D01*
X136645008Y-108876655D01*
X136646076Y-108873801D01*
X136647485Y-108870314D01*
X136649261Y-108866138D01*
X136651426Y-108861216D01*
X136654006Y-108855492D01*
X136657025Y-108848910D01*
X136660508Y-108841412D01*
X136668961Y-108823449D01*
X136679560Y-108801152D01*
X136710911Y-108735112D01*
X136727038Y-108701312D01*
X136751265Y-108650960D01*
X136762912Y-108626608D01*
X136772450Y-108606236D01*
X136778894Y-108591978D01*
X136780649Y-108587808D01*
X136781261Y-108585967D01*
X136781276Y-108585599D01*
X136781323Y-108585239D01*
X136781400Y-108584884D01*
X136781508Y-108584536D01*
X136781647Y-108584194D01*
X136781817Y-108583858D01*
X136782018Y-108583528D01*
X136782251Y-108583204D01*
X136782514Y-108582887D01*
X136782809Y-108582575D01*
X136783136Y-108582270D01*
X136783494Y-108581971D01*
X136783883Y-108581677D01*
X136784304Y-108581390D01*
X136784757Y-108581108D01*
X136785241Y-108580832D01*
X136785757Y-108580562D01*
X136786305Y-108580298D01*
X136786885Y-108580039D01*
X136787497Y-108579787D01*
X136788141Y-108579540D01*
X136788817Y-108579298D01*
X136789526Y-108579062D01*
X136790266Y-108578832D01*
X136791039Y-108578607D01*
X136791844Y-108578388D01*
X136793552Y-108577966D01*
X136795390Y-108577565D01*
X136797359Y-108577185D01*
X136814435Y-108573201D01*
X136854118Y-108563587D01*
X136977643Y-108533238D01*
X137202901Y-108477699D01*
X137450128Y-108416778D01*
X137733511Y-108346947D01*
X137808872Y-108328451D01*
X137831128Y-108328451D01*
X137831629Y-108329954D01*
X137833076Y-108332905D01*
X137838462Y-108342588D01*
X137846598Y-108356382D01*
X137856797Y-108373168D01*
X137868371Y-108391825D01*
X137880632Y-108411235D01*
X137892893Y-108430279D01*
X137904466Y-108447836D01*
X137913669Y-108461534D01*
X137920806Y-108471915D01*
X137923722Y-108475991D01*
X137926270Y-108479394D01*
X137928498Y-108482176D01*
X137930455Y-108484388D01*
X137932190Y-108486083D01*
X137933754Y-108487313D01*
X137935194Y-108488130D01*
X137936560Y-108488585D01*
X137937902Y-108488731D01*
X137939267Y-108488621D01*
X137940707Y-108488305D01*
X137942269Y-108487837D01*
X138011790Y-108466301D01*
X138096981Y-108440500D01*
X138144395Y-108426223D01*
X138191808Y-108411726D01*
X138263748Y-108389691D01*
X138354368Y-108362442D01*
X138373095Y-108356678D01*
X138389034Y-108351472D01*
X138395430Y-108349257D01*
X138400497Y-108347396D01*
X138404023Y-108345961D01*
X138405143Y-108345425D01*
X138405798Y-108345022D01*
X138406044Y-108344800D01*
X138406280Y-108344541D01*
X138406504Y-108344244D01*
X138406717Y-108343910D01*
X138406919Y-108343539D01*
X138407110Y-108343129D01*
X138407290Y-108342682D01*
X138407459Y-108342197D01*
X138407764Y-108341115D01*
X138408025Y-108339881D01*
X138408241Y-108338495D01*
X138408413Y-108336958D01*
X138408542Y-108335269D01*
X138408626Y-108333427D01*
X138408666Y-108331433D01*
X138408662Y-108329286D01*
X138408614Y-108326985D01*
X138408522Y-108324532D01*
X138408386Y-108321925D01*
X138408207Y-108319163D01*
X138403117Y-108211162D01*
X138393139Y-107983272D01*
X138336833Y-106704805D01*
X138334387Y-106660778D01*
X138326864Y-106750525D01*
X138311544Y-106937050D01*
X138303776Y-107031618D01*
X138283201Y-107280538D01*
X138261110Y-107548085D01*
X138234260Y-107876592D01*
X138215406Y-108110272D01*
X138211732Y-108155382D01*
X138208442Y-108193086D01*
X138205897Y-108219440D01*
X138205015Y-108227128D01*
X138204455Y-108230498D01*
X138204267Y-108231028D01*
X138204089Y-108231568D01*
X138203768Y-108232661D01*
X138203497Y-108233748D01*
X138203281Y-108234796D01*
X138203195Y-108235297D01*
X138203126Y-108235776D01*
X138203073Y-108236231D01*
X138203038Y-108236657D01*
X138203020Y-108237050D01*
X138203021Y-108237407D01*
X138203042Y-108237724D01*
X138203083Y-108237996D01*
X138203103Y-108238118D01*
X138203110Y-108238234D01*
X138203106Y-108238343D01*
X138203091Y-108238447D01*
X138203064Y-108238544D01*
X138203026Y-108238635D01*
X138202978Y-108238720D01*
X138202920Y-108238798D01*
X138202851Y-108238871D01*
X138202772Y-108238937D01*
X138202684Y-108238996D01*
X138202586Y-108239049D01*
X138202480Y-108239095D01*
X138202364Y-108239135D01*
X138202240Y-108239168D01*
X138202107Y-108239195D01*
X138201967Y-108239215D01*
X138201819Y-108239228D01*
X138201663Y-108239235D01*
X138201499Y-108239234D01*
X138201329Y-108239227D01*
X138201152Y-108239213D01*
X138200968Y-108239192D01*
X138200778Y-108239164D01*
X138200583Y-108239128D01*
X138200381Y-108239086D01*
X138200174Y-108239037D01*
X138199961Y-108238980D01*
X138199744Y-108238917D01*
X138199522Y-108238846D01*
X138199295Y-108238767D01*
X138199064Y-108238682D01*
X138197895Y-108238680D01*
X138195364Y-108239022D01*
X138186514Y-108240672D01*
X138173092Y-108243498D01*
X138155679Y-108247371D01*
X138111199Y-108257729D01*
X138057712Y-108270696D01*
X137876002Y-108315363D01*
X137858578Y-108319774D01*
X137850957Y-108321829D01*
X137844310Y-108323712D01*
X137838819Y-108325370D01*
X137834669Y-108326748D01*
X137832044Y-108327793D01*
X137831361Y-108328174D01*
X137831128Y-108328451D01*
X137808872Y-108328451D01*
X137823854Y-108324774D01*
X137813498Y-108307269D01*
X137804058Y-108290059D01*
X137790333Y-108263490D01*
X137756639Y-108195789D01*
X137725632Y-108131192D01*
X137715267Y-108108503D01*
X137710530Y-108096725D01*
X137710122Y-108095511D01*
X137709298Y-108093346D01*
X137706603Y-108086651D01*
X137702843Y-108077608D01*
X137698415Y-108067186D01*
X137697476Y-108065026D01*
X137694874Y-108059044D01*
X137693359Y-108055695D01*
X137691980Y-108052786D01*
X137690711Y-108050286D01*
X137689528Y-108048164D01*
X137688405Y-108046389D01*
X137687316Y-108044930D01*
X137686237Y-108043757D01*
X137685140Y-108042838D01*
X137684002Y-108042143D01*
X137682796Y-108041640D01*
X137681497Y-108041300D01*
X137680080Y-108041090D01*
X137678519Y-108040980D01*
X137676788Y-108040939D01*
X137673009Y-108041090D01*
X137666220Y-108041559D01*
X137645138Y-108043315D01*
X137616598Y-108045938D01*
X137583655Y-108049159D01*
X137358688Y-108071390D01*
X137116778Y-108095204D01*
X137077985Y-108098954D01*
X137046040Y-108101848D01*
X137024253Y-108103599D01*
X137018202Y-108103958D01*
X137015931Y-108103923D01*
X137022249Y-107839186D01*
X137040326Y-107197565D01*
X137052475Y-106771937D01*
X137054395Y-106687506D01*
X137428460Y-106687506D01*
X137428907Y-106713015D01*
X137431965Y-106794401D01*
X137436732Y-106889760D01*
X137439316Y-106932735D01*
X137441799Y-106967272D01*
X137446591Y-107020784D01*
X137452305Y-107076111D01*
X137458768Y-107131958D01*
X137465806Y-107187030D01*
X137473245Y-107240033D01*
X137480913Y-107289670D01*
X137488636Y-107334648D01*
X137496240Y-107373672D01*
X137499097Y-107387500D01*
X137501876Y-107401368D01*
X137504259Y-107413665D01*
X137505929Y-107422778D01*
X137513020Y-107456656D01*
X137525796Y-107513434D01*
X137539684Y-107573144D01*
X137550115Y-107615818D01*
X137560443Y-107654162D01*
X137571939Y-107694644D01*
X137584370Y-107736523D01*
X137597502Y-107779059D01*
X137611103Y-107821509D01*
X137624939Y-107863133D01*
X137638777Y-107903190D01*
X137652384Y-107940938D01*
X137671840Y-107993019D01*
X137678379Y-108009498D01*
X137683402Y-108020864D01*
X137685487Y-108024923D01*
X137687366Y-108028059D01*
X137689093Y-108030388D01*
X137690728Y-108032029D01*
X137692326Y-108033100D01*
X137693945Y-108033718D01*
X137695643Y-108034003D01*
X137697476Y-108034072D01*
X137704557Y-108033641D01*
X137720006Y-108032339D01*
X137776735Y-108027049D01*
X137998637Y-108005235D01*
X138059125Y-107999291D01*
X138085843Y-107996818D01*
X138086223Y-107996774D01*
X138086402Y-107996714D01*
X138086572Y-107996626D01*
X138086735Y-107996507D01*
X138086890Y-107996355D01*
X138087036Y-107996166D01*
X138087174Y-107995937D01*
X138087424Y-107995354D01*
X138087638Y-107994582D01*
X138087816Y-107993602D01*
X138087956Y-107992391D01*
X138088057Y-107990928D01*
X138088117Y-107989194D01*
X138088136Y-107987165D01*
X138088112Y-107984821D01*
X138088044Y-107982141D01*
X138087930Y-107979104D01*
X138087563Y-107971872D01*
X138087000Y-107962956D01*
X138086232Y-107952186D01*
X138085248Y-107939393D01*
X138084039Y-107924408D01*
X138082596Y-107907059D01*
X138080908Y-107887179D01*
X138076759Y-107839143D01*
X138030803Y-107307632D01*
X138002062Y-106974045D01*
X137988084Y-106807496D01*
X137987380Y-106798400D01*
X137986700Y-106791356D01*
X137986341Y-106788514D01*
X137985952Y-106786078D01*
X137985524Y-106784011D01*
X137985043Y-106782277D01*
X137984498Y-106780841D01*
X137983879Y-106779666D01*
X137983172Y-106778717D01*
X137982367Y-106777957D01*
X137981451Y-106777352D01*
X137980414Y-106776864D01*
X137979244Y-106776457D01*
X137977928Y-106776097D01*
X137952712Y-106771157D01*
X137899132Y-106761144D01*
X137773555Y-106738248D01*
X137624541Y-106711137D01*
X137466047Y-106682538D01*
X137437169Y-106677879D01*
X137431089Y-106677230D01*
X137428968Y-106677423D01*
X137428583Y-106680288D01*
X137428460Y-106687506D01*
X137054395Y-106687506D01*
X137055568Y-106635956D01*
X137055581Y-106604360D01*
X137064895Y-106606188D01*
X137082913Y-106609560D01*
X137113155Y-106615100D01*
X137287568Y-106646828D01*
X137383401Y-106664154D01*
X137423579Y-106671205D01*
X137423763Y-106669147D01*
X137424081Y-106663352D01*
X137425043Y-106642167D01*
X137427800Y-106572725D01*
X137429536Y-106530779D01*
X137431548Y-106489173D01*
X137433584Y-106452713D01*
X137435397Y-106426209D01*
X137436811Y-106407353D01*
X137437764Y-106391720D01*
X137438171Y-106380938D01*
X137438144Y-106377873D01*
X137438069Y-106377012D01*
X137437949Y-106376631D01*
X137427763Y-106375221D01*
X137400725Y-106372334D01*
X137337325Y-106366125D01*
X137444574Y-106366125D01*
X137444607Y-106369291D01*
X137444887Y-106370793D01*
X137445080Y-106370948D01*
X137445463Y-106371120D01*
X137446781Y-106371512D01*
X137448802Y-106371964D01*
X137451487Y-106372472D01*
X137458692Y-106373631D01*
X137468083Y-106374949D01*
X137479348Y-106376382D01*
X137492172Y-106377889D01*
X137506244Y-106379429D01*
X137521248Y-106380960D01*
X137972467Y-106427958D01*
X138304523Y-106464527D01*
X138306328Y-106464822D01*
X138307922Y-106465058D01*
X138309316Y-106465229D01*
X138310520Y-106465330D01*
X138311544Y-106465353D01*
X138311992Y-106465333D01*
X138312399Y-106465291D01*
X138312766Y-106465227D01*
X138313095Y-106465139D01*
X138313387Y-106465027D01*
X138313643Y-106464889D01*
X138313865Y-106464726D01*
X138314053Y-106464536D01*
X138314209Y-106464318D01*
X138314335Y-106464071D01*
X138314432Y-106463796D01*
X138314501Y-106463490D01*
X138314543Y-106463154D01*
X138314559Y-106462785D01*
X138314522Y-106461950D01*
X138314398Y-106460979D01*
X138314199Y-106459864D01*
X138313935Y-106458599D01*
X138310098Y-106440162D01*
X138303266Y-106406778D01*
X138283595Y-106311681D01*
X138266720Y-106232880D01*
X138254466Y-106178702D01*
X138250642Y-106163448D01*
X138248656Y-106157472D01*
X138248325Y-106157191D01*
X138247870Y-106156914D01*
X138247246Y-106156635D01*
X138246408Y-106156350D01*
X138245310Y-106156055D01*
X138243908Y-106155745D01*
X138242157Y-106155414D01*
X138240011Y-106155060D01*
X138234356Y-106154259D01*
X138226582Y-106153305D01*
X138216330Y-106152161D01*
X138203239Y-106150791D01*
X138186948Y-106149158D01*
X138167097Y-106147224D01*
X138115273Y-106142309D01*
X138044885Y-106135750D01*
X137953048Y-106127254D01*
X137644862Y-106098697D01*
X137533400Y-106088581D01*
X137499306Y-106085674D01*
X137486561Y-106084810D01*
X137486087Y-106086106D01*
X137485298Y-106089304D01*
X137482924Y-106100613D01*
X137476001Y-106137289D01*
X137468111Y-106182075D01*
X137461578Y-106222205D01*
X137454499Y-106272444D01*
X137448714Y-106319686D01*
X137446608Y-106339497D01*
X137445188Y-106355335D01*
X137444574Y-106366125D01*
X137337325Y-106366125D01*
X137310000Y-106363449D01*
X137193584Y-106352623D01*
X137079288Y-106342502D01*
X136938543Y-106331141D01*
X136830180Y-106323856D01*
X136788561Y-106321767D01*
X136755540Y-106320725D01*
X136731285Y-106320741D01*
X136715964Y-106321823D01*
X136700164Y-106324193D01*
X136701855Y-106338392D01*
X136708487Y-106406618D01*
X136722056Y-106550712D01*
X136776013Y-107117978D01*
X136828746Y-107664925D01*
X136877699Y-108172925D01*
X136891626Y-108315021D01*
X136896969Y-108367371D01*
X136863159Y-108399688D01*
X136767910Y-108491272D01*
X136743798Y-108514373D01*
X136723565Y-108533460D01*
X136709334Y-108546552D01*
X136705132Y-108550231D01*
X136703226Y-108551667D01*
X136703060Y-108551714D01*
X136702895Y-108551739D01*
X136702733Y-108551743D01*
X136702574Y-108551725D01*
X136702417Y-108551687D01*
X136702264Y-108551628D01*
X136702113Y-108551550D01*
X136701966Y-108551452D01*
X136701822Y-108551336D01*
X136701683Y-108551201D01*
X136701547Y-108551048D01*
X136701415Y-108550878D01*
X136701288Y-108550691D01*
X136701165Y-108550487D01*
X136701047Y-108550267D01*
X136700934Y-108550032D01*
X136700827Y-108549782D01*
X136700725Y-108549516D01*
X136700628Y-108549237D01*
X136700537Y-108548944D01*
X136700453Y-108548637D01*
X136700374Y-108548318D01*
X136700302Y-108547986D01*
X136700237Y-108547642D01*
X136700179Y-108547287D01*
X136700128Y-108546920D01*
X136700084Y-108546543D01*
X136700047Y-108546156D01*
X136700019Y-108545759D01*
X136699998Y-108545354D01*
X136699985Y-108544939D01*
X136699981Y-108544516D01*
X136699186Y-108529038D01*
X136697021Y-108493017D01*
X136689905Y-108380827D01*
X136632227Y-107476965D01*
X136615333Y-107209418D01*
X136569597Y-106493138D01*
X136552741Y-106222205D01*
X136543528Y-106079986D01*
X136540085Y-106033075D01*
X136538060Y-106011512D01*
X136537453Y-106007710D01*
X136537226Y-106005988D01*
X136537050Y-106004384D01*
X136536925Y-106002899D01*
X136536852Y-106001530D01*
X136536829Y-106000278D01*
X136536858Y-105999142D01*
X136536938Y-105998121D01*
X136537069Y-105997215D01*
X136537252Y-105996422D01*
X136537486Y-105995742D01*
X136537771Y-105995175D01*
X136538108Y-105994720D01*
X136538496Y-105994376D01*
X136538936Y-105994142D01*
X136540060Y-105993956D01*
X136542151Y-105993888D01*
X136549234Y-105994107D01*
X136560183Y-105994801D01*
X136574997Y-105995969D01*
X136593676Y-105997610D01*
X136616218Y-105999726D01*
X136672888Y-106005378D01*
X137003088Y-106036094D01*
X137387884Y-106071565D01*
X137452518Y-106077497D01*
X137481310Y-106079965D01*
X137481486Y-106079928D01*
X137481675Y-106079820D01*
X137481876Y-106079642D01*
X137482090Y-106079395D01*
X137482315Y-106079081D01*
X137482551Y-106078703D01*
X137483054Y-106077760D01*
X137483593Y-106076580D01*
X137484164Y-106075177D01*
X137484762Y-106073564D01*
X137485383Y-106071758D01*
X137486021Y-106069771D01*
X137486672Y-106067619D01*
X137487332Y-106065315D01*
X137487994Y-106062874D01*
X137488655Y-106060310D01*
X137489310Y-106057638D01*
X137489955Y-106054871D01*
X137490583Y-106052025D01*
X137495771Y-106029214D01*
X137501851Y-106004686D01*
X137508335Y-105980332D01*
X137514737Y-105958045D01*
X137516659Y-105951460D01*
X137518507Y-105944795D01*
X137520069Y-105938828D01*
X137521136Y-105934338D01*
X137521749Y-105931912D01*
X137522797Y-105928245D01*
X137524224Y-105923518D01*
X137525974Y-105917913D01*
X137530211Y-105904787D01*
X137535052Y-105890312D01*
X137543813Y-105864203D01*
X137546648Y-105855486D01*
X137547891Y-105851365D01*
X137548504Y-105849071D01*
X137549522Y-105845893D01*
X137552661Y-105837156D01*
X137557088Y-105825694D01*
X137562582Y-105812046D01*
X137568923Y-105796751D01*
X137575891Y-105780348D01*
X137583265Y-105763378D01*
X137590823Y-105746379D01*
X137600525Y-105725386D01*
X137610756Y-105704307D01*
X137621385Y-105683383D01*
X137632282Y-105662853D01*
X137643316Y-105642958D01*
X137654357Y-105623938D01*
X137665276Y-105606033D01*
X137675941Y-105589483D01*
X137685223Y-105575957D01*
X137695096Y-105562401D01*
X137705493Y-105548883D01*
X137716346Y-105535471D01*
X137727589Y-105522230D01*
X137739154Y-105509230D01*
X137750974Y-105496537D01*
X137762982Y-105484218D01*
X137775111Y-105472341D01*
X137787293Y-105460973D01*
X137799462Y-105450182D01*
X137811551Y-105440034D01*
X137823492Y-105430597D01*
X137835217Y-105421939D01*
X137846661Y-105414126D01*
X137857755Y-105407226D01*
X137873023Y-105398646D01*
X137888449Y-105390800D01*
X137904028Y-105383686D01*
X137919750Y-105377303D01*
X137935610Y-105371651D01*
X137951599Y-105366728D01*
X137967710Y-105362532D01*
X137983935Y-105359063D01*
X138000268Y-105356320D01*
X138016700Y-105354301D01*
X138033224Y-105353005D01*
X138049832Y-105352431D01*
X138066518Y-105352577D01*
G37*
D10*
X128789300Y-124601400D02*
X128746300Y-124638400D01*
X142136900Y-82552800D02*
X142005900Y-82552800D01*
X167727900Y-84935400D02*
X168076900Y-85712400D01*
X138430300Y-124305400D02*
X138430300Y-124675400D01*
X128833300Y-124527400D02*
X128789300Y-124601400D01*
D12*
G36*
X166495365Y-126937739D02*
G01*
X166509670Y-126944777D01*
X166519927Y-126957936D01*
X166541779Y-126995844D01*
X166569234Y-127025583D01*
X166576062Y-127032881D01*
X166587976Y-127058760D01*
X166584068Y-127075513D01*
X166570898Y-127094924D01*
X166514802Y-127148454D01*
X166457707Y-127195535D01*
X166438552Y-127206286D01*
X166436467Y-127202789D01*
X166438178Y-127195591D01*
X166438116Y-127193809D01*
X166436031Y-127190312D01*
X166430211Y-127192300D01*
X166422515Y-127194353D01*
X166418469Y-127190925D01*
X166418622Y-127189539D01*
X166428038Y-127173575D01*
X166452189Y-127147071D01*
X166486135Y-127112132D01*
X166440549Y-127151047D01*
X166390982Y-127188393D01*
X166388581Y-127187773D01*
X166370713Y-127167685D01*
X166356306Y-127148634D01*
X166280367Y-127215379D01*
X166215046Y-127275732D01*
X166154821Y-127348507D01*
X166130284Y-127400251D01*
X166125520Y-127432464D01*
X166128222Y-127450133D01*
X166145282Y-127485806D01*
X166181889Y-127533696D01*
X166182771Y-127534825D01*
X166187949Y-127540290D01*
X166195840Y-127542132D01*
X166234344Y-127529876D01*
X166328968Y-127487668D01*
X166469627Y-127424017D01*
X166473920Y-127434498D01*
X166468224Y-127440050D01*
X166462365Y-127438470D01*
X166460404Y-127438539D01*
X166458506Y-127440390D01*
X166466824Y-127456161D01*
X166467711Y-127457468D01*
X166483824Y-127472753D01*
X166500878Y-127478095D01*
X166502686Y-127478087D01*
X166516875Y-127481463D01*
X166529304Y-127489695D01*
X166539162Y-127508727D01*
X166512863Y-127526775D01*
X166448875Y-127558126D01*
X166314160Y-127623354D01*
X166270040Y-127648018D01*
X166271964Y-127703121D01*
X166272278Y-127718504D01*
X166266733Y-127759768D01*
X166244152Y-127803723D01*
X166223251Y-127834975D01*
X166191827Y-127870543D01*
X166154111Y-127904274D01*
X166109564Y-127936640D01*
X166060923Y-127965496D01*
X165961911Y-128007943D01*
X165872344Y-128028384D01*
X165825581Y-128033587D01*
X165792692Y-128003636D01*
X165816683Y-128003636D01*
X165818706Y-128005350D01*
X165825507Y-128010689D01*
X165836516Y-128011866D01*
X165844235Y-128008027D01*
X165842149Y-128004531D01*
X165824342Y-127998092D01*
X165816683Y-128003636D01*
X165792692Y-128003636D01*
X165771012Y-127983892D01*
X165729925Y-127938273D01*
X165717472Y-127907469D01*
X165719202Y-127899682D01*
X165889359Y-127899682D01*
X165935712Y-127880294D01*
X165967569Y-127866237D01*
X166010623Y-127840355D01*
X166026833Y-127827066D01*
X166097827Y-127757729D01*
X166107052Y-127744418D01*
X166105029Y-127742704D01*
X166049261Y-127774839D01*
X165946522Y-127855009D01*
X165889359Y-127899682D01*
X165719202Y-127899682D01*
X165722101Y-127886638D01*
X165735506Y-127864162D01*
X165742759Y-127854354D01*
X165783922Y-127811105D01*
X165842252Y-127761332D01*
X165991310Y-127655994D01*
X166109498Y-127589609D01*
X166136490Y-127577958D01*
X166122145Y-127560690D01*
X166015564Y-127422104D01*
X165995921Y-127388121D01*
X165983258Y-127337801D01*
X165984572Y-127314326D01*
X165993101Y-127280645D01*
X166009358Y-127244397D01*
X166017475Y-127231123D01*
X166048385Y-127189089D01*
X166086641Y-127147278D01*
X166133200Y-127104850D01*
X166185356Y-127064602D01*
X166297170Y-126996826D01*
X166394521Y-126956077D01*
X166470955Y-126956077D01*
X166474948Y-126958288D01*
X166482821Y-126961016D01*
X166496608Y-126962319D01*
X166508163Y-126958347D01*
X166502094Y-126953204D01*
X166484408Y-126950253D01*
X166478588Y-126952241D01*
X166475225Y-126953335D01*
X166470955Y-126956077D01*
X166394521Y-126956077D01*
X166406172Y-126951200D01*
X166409571Y-126950123D01*
X166478031Y-126936276D01*
X166495365Y-126937739D01*
G37*
G36*
X166977608Y-126939224D02*
G01*
X166985652Y-126945225D01*
X166988700Y-126955766D01*
X166989074Y-126966461D01*
X166994899Y-126987571D01*
X167009651Y-126996004D01*
X167017432Y-126993947D01*
X167021354Y-126993810D01*
X167037759Y-126997691D01*
X167067211Y-127018902D01*
X167074416Y-127009740D01*
X167227356Y-127009740D01*
X167231462Y-127014873D01*
X167235324Y-127013031D01*
X167246715Y-127001925D01*
X167240708Y-126998566D01*
X167227356Y-127009740D01*
X167074416Y-127009740D01*
X167107134Y-126968134D01*
X167127674Y-126956267D01*
X167143395Y-126994626D01*
X167144763Y-126998347D01*
X167161728Y-126978200D01*
X167175181Y-126972377D01*
X167206281Y-126965937D01*
X167225985Y-126967027D01*
X167255884Y-126977624D01*
X167265988Y-126994113D01*
X167266050Y-126995896D01*
X167128518Y-127205315D01*
X167106683Y-127241412D01*
X167068885Y-127302232D01*
X167056029Y-127314616D01*
X167047991Y-127307741D01*
X167039106Y-127297346D01*
X167009860Y-127280613D01*
X167008567Y-127280022D01*
X166996785Y-127265154D01*
X166992748Y-127240318D01*
X166996200Y-127191997D01*
X167003121Y-127154220D01*
X167003431Y-127152729D01*
X167026849Y-127094957D01*
X167022990Y-127096876D01*
X167018884Y-127091743D01*
X167012753Y-127084819D01*
X167007783Y-127085824D01*
X166987457Y-127098018D01*
X166959409Y-127124004D01*
X166919810Y-127168142D01*
X166878644Y-127221179D01*
X166779527Y-127354303D01*
X166672809Y-127526283D01*
X166624650Y-127625005D01*
X166608429Y-127666463D01*
X166635670Y-127661943D01*
X166689455Y-127647714D01*
X166796248Y-127612181D01*
X166915622Y-127566265D01*
X167095295Y-127485815D01*
X167118813Y-127474583D01*
X167161393Y-127474583D01*
X167169361Y-127477874D01*
X167192556Y-127469926D01*
X167198251Y-127464373D01*
X167186447Y-127461216D01*
X167174706Y-127463183D01*
X167163230Y-127470950D01*
X167161393Y-127474583D01*
X167118813Y-127474583D01*
X167142403Y-127463317D01*
X167182155Y-127450735D01*
X167191936Y-127452178D01*
X167206281Y-127469447D01*
X167208634Y-127474043D01*
X167234266Y-127486238D01*
X167240212Y-127487784D01*
X167274065Y-127507110D01*
X167284605Y-127527235D01*
X167279156Y-127539840D01*
X167263631Y-127553352D01*
X167189977Y-127599927D01*
X167081173Y-127659170D01*
X166885432Y-127752852D01*
X166822178Y-127784001D01*
X166812481Y-127792722D01*
X166814504Y-127794436D01*
X166812605Y-127796287D01*
X166808621Y-127794642D01*
X166805661Y-127794203D01*
X166796795Y-127793270D01*
X166765780Y-127799707D01*
X166749083Y-127805045D01*
X166738851Y-127813140D01*
X166740788Y-127814857D01*
X166742811Y-127816571D01*
X166708121Y-127830198D01*
X166702268Y-127831648D01*
X166653702Y-127841021D01*
X166631351Y-127838902D01*
X166604418Y-127830250D01*
X166604025Y-127830121D01*
X166659211Y-127830121D01*
X166668992Y-127831564D01*
X166680694Y-127829371D01*
X166680632Y-127827588D01*
X166672726Y-127826080D01*
X166662985Y-127828205D01*
X166659211Y-127830121D01*
X166604025Y-127830121D01*
X166581071Y-127822586D01*
X166546734Y-127803787D01*
X166438570Y-127727607D01*
X166407401Y-127700955D01*
X166390148Y-127679027D01*
X166382529Y-127657426D01*
X166380261Y-127631754D01*
X166380655Y-127612608D01*
X166387083Y-127573046D01*
X166400989Y-127528913D01*
X166426342Y-127472315D01*
X166461770Y-127409429D01*
X166515041Y-127329233D01*
X166581857Y-127240389D01*
X166614131Y-127202164D01*
X166676251Y-127137036D01*
X166740313Y-127077483D01*
X167018386Y-127077483D01*
X167022432Y-127080911D01*
X167026354Y-127080774D01*
X167032174Y-127078786D01*
X167034197Y-127080500D01*
X167035646Y-127077896D01*
X167037807Y-127071451D01*
X167029718Y-127064672D01*
X167026029Y-127065499D01*
X167018386Y-127077483D01*
X166740313Y-127077483D01*
X166744113Y-127073950D01*
X166857613Y-126984237D01*
X166899623Y-126959730D01*
X166926274Y-126959730D01*
X166951865Y-126964191D01*
X166957672Y-126964873D01*
X166963607Y-126965565D01*
X166973386Y-126964215D01*
X166982818Y-126955971D01*
X166978733Y-126948975D01*
X166949531Y-126953564D01*
X166926274Y-126959730D01*
X166899623Y-126959730D01*
X166923818Y-126945616D01*
X166960653Y-126937191D01*
X166977608Y-126939224D01*
G37*
G36*
X167789941Y-126932015D02*
G01*
X167816066Y-126951781D01*
X167861862Y-126975090D01*
X167874983Y-126978625D01*
X167920381Y-127010616D01*
X167930156Y-127024305D01*
X167941067Y-127042838D01*
X167966915Y-127067483D01*
X167973262Y-127072833D01*
X167985226Y-127083096D01*
X167996080Y-127095416D01*
X167999608Y-127109096D01*
X167998477Y-127130474D01*
X167957336Y-127299126D01*
X167924556Y-127425361D01*
X167903592Y-127531832D01*
X167892849Y-127637595D01*
X167890125Y-127669914D01*
X167887613Y-127712501D01*
X167890685Y-127730804D01*
X167896451Y-127742352D01*
X167896511Y-127742452D01*
X167902951Y-127758212D01*
X167902962Y-127758987D01*
X167900075Y-127766537D01*
X167891560Y-127769317D01*
X167879818Y-127767943D01*
X167871975Y-127768217D01*
X167866218Y-127771987D01*
X167866588Y-127782604D01*
X167866606Y-127783570D01*
X167863780Y-127792513D01*
X167855345Y-127795490D01*
X167833403Y-127785548D01*
X167785463Y-127757038D01*
X167783354Y-127756196D01*
X167750506Y-127740466D01*
X167732041Y-127721140D01*
X167723083Y-127689873D01*
X167718753Y-127638320D01*
X167717884Y-127613443D01*
X167722639Y-127470969D01*
X167729341Y-127381811D01*
X167656230Y-127473288D01*
X167607046Y-127531992D01*
X167501792Y-127645897D01*
X167415633Y-127723842D01*
X167353692Y-127765343D01*
X167312619Y-127777042D01*
X167304996Y-127776916D01*
X167290110Y-127773710D01*
X167276977Y-127765871D01*
X167269358Y-127759689D01*
X167246135Y-127749019D01*
X167301824Y-127749019D01*
X167301884Y-127750724D01*
X167305930Y-127754152D01*
X167319386Y-127748406D01*
X167321160Y-127742990D01*
X167315238Y-127739627D01*
X167314147Y-127739711D01*
X167301824Y-127749019D01*
X167246135Y-127749019D01*
X167221191Y-127737558D01*
X167178340Y-127715010D01*
X167157507Y-127693519D01*
X167152028Y-127663465D01*
X167156084Y-127623725D01*
X167170408Y-127575294D01*
X167194176Y-127519992D01*
X167230873Y-127451776D01*
X167239433Y-127438247D01*
X167488651Y-127438247D01*
X167515023Y-127408849D01*
X167608812Y-127293528D01*
X167661165Y-127224844D01*
X167691167Y-127185667D01*
X167700597Y-127174630D01*
X167687059Y-127180456D01*
X167649837Y-127212605D01*
X167639886Y-127230135D01*
X167639948Y-127231917D01*
X167624882Y-127250212D01*
X167611615Y-127261384D01*
X167613576Y-127261315D01*
X167572719Y-127323188D01*
X167507180Y-127409123D01*
X167488651Y-127438247D01*
X167239433Y-127438247D01*
X167277139Y-127378653D01*
X167394124Y-127224921D01*
X167525213Y-127084692D01*
X167623424Y-126995809D01*
X167685553Y-126954853D01*
X167728088Y-126954853D01*
X167739915Y-126956225D01*
X167776812Y-126949583D01*
X167792314Y-126943765D01*
X167772667Y-126940882D01*
X167759969Y-126942200D01*
X167733846Y-126951083D01*
X167728088Y-126954853D01*
X167685553Y-126954853D01*
X167694983Y-126948637D01*
X167748850Y-126931005D01*
X167770209Y-126926690D01*
X167789941Y-126932015D01*
G37*
G36*
X168597094Y-126090135D02*
G01*
X168605435Y-126104121D01*
X168605619Y-126109391D01*
X168613649Y-126114464D01*
X168617849Y-126115339D01*
X168629807Y-126129885D01*
X168633887Y-126136317D01*
X168660126Y-126157303D01*
X168702397Y-126189658D01*
X168720765Y-126212140D01*
X168706282Y-126244692D01*
X168639795Y-126381303D01*
X168629582Y-126402094D01*
X168447730Y-126803398D01*
X168357671Y-127023653D01*
X168356204Y-127027581D01*
X168338952Y-127073861D01*
X168268296Y-127278439D01*
X168226586Y-127442591D01*
X168207228Y-127589293D01*
X168206382Y-127621292D01*
X168208048Y-127633802D01*
X168212721Y-127641633D01*
X168220829Y-127643910D01*
X168247496Y-127636112D01*
X168294176Y-127612950D01*
X168389606Y-127556335D01*
X168480124Y-127491610D01*
X168588220Y-127405204D01*
X168698872Y-127323047D01*
X168700833Y-127322978D01*
X168685789Y-127339488D01*
X168672438Y-127350662D01*
X168672500Y-127352445D01*
X168674398Y-127350594D01*
X168678320Y-127350457D01*
X168704220Y-127363752D01*
X168711695Y-127369621D01*
X168734106Y-127378771D01*
X168739334Y-127377468D01*
X168741886Y-127376714D01*
X168745808Y-127376577D01*
X168751091Y-127376903D01*
X168771708Y-127389873D01*
X168775917Y-127400434D01*
X168772838Y-127411051D01*
X168760941Y-127426485D01*
X168698635Y-127484917D01*
X168661594Y-127518838D01*
X168511572Y-127642444D01*
X168444821Y-127688654D01*
X168380366Y-127727340D01*
X168292440Y-127770118D01*
X168239395Y-127782078D01*
X168238530Y-127782104D01*
X168214184Y-127779279D01*
X168193948Y-127771173D01*
X168186413Y-127766474D01*
X168165249Y-127750890D01*
X168214834Y-127750890D01*
X168214896Y-127752672D01*
X168215149Y-127752887D01*
X168228847Y-127761108D01*
X168236379Y-127751922D01*
X168235558Y-127750405D01*
X168222405Y-127745271D01*
X168214834Y-127750890D01*
X168165249Y-127750890D01*
X168077549Y-127686314D01*
X168046841Y-127646887D01*
X168036263Y-127618060D01*
X168030836Y-127582960D01*
X168026853Y-127581315D01*
X168026581Y-127517309D01*
X168033043Y-127435450D01*
X168052341Y-127331262D01*
X168082752Y-127207796D01*
X168126965Y-127056033D01*
X168180287Y-126894115D01*
X168297067Y-126586810D01*
X168404631Y-126349503D01*
X168491438Y-126191133D01*
X168536276Y-126126610D01*
X168549115Y-126116718D01*
X168572001Y-126099934D01*
X168589212Y-126086841D01*
X168597094Y-126090135D01*
G37*
G36*
X169176158Y-126856276D02*
G01*
X169184377Y-126865168D01*
X169187550Y-126878980D01*
X169194469Y-126903643D01*
X169210298Y-126912017D01*
X169213101Y-126911041D01*
X169216032Y-126910032D01*
X169219954Y-126909895D01*
X169233212Y-126913193D01*
X169264613Y-126939907D01*
X169274648Y-126963155D01*
X169276724Y-126970027D01*
X169303315Y-126999476D01*
X169339053Y-127038657D01*
X169347741Y-127058524D01*
X169351182Y-127079667D01*
X169351036Y-127089163D01*
X169345753Y-127116138D01*
X169333324Y-127144721D01*
X169306737Y-127184566D01*
X169268292Y-127228439D01*
X169239844Y-127256271D01*
X169190796Y-127296318D01*
X169135898Y-127333773D01*
X169025787Y-127392181D01*
X168940358Y-127421384D01*
X168897700Y-127431719D01*
X168881978Y-127487438D01*
X168867271Y-127569814D01*
X168868140Y-127594691D01*
X168903162Y-127588114D01*
X169000764Y-127563865D01*
X169081891Y-127536296D01*
X169164020Y-127502803D01*
X169305106Y-127431210D01*
X169398379Y-127367989D01*
X169439013Y-127339190D01*
X169469455Y-127328184D01*
X169479758Y-127330239D01*
X169487325Y-127336406D01*
X169489410Y-127339902D01*
X169483528Y-127340108D01*
X169473662Y-127338668D01*
X169460146Y-127342709D01*
X169454871Y-127346239D01*
X169452490Y-127348330D01*
X169475996Y-127349294D01*
X169499963Y-127351478D01*
X169509490Y-127355186D01*
X169511423Y-127361364D01*
X169517582Y-127362042D01*
X169521441Y-127360122D01*
X169532057Y-127365394D01*
X169542751Y-127379049D01*
X169552504Y-127408853D01*
X169551361Y-127415473D01*
X169535630Y-127440720D01*
X169504366Y-127473566D01*
X169410529Y-127547273D01*
X169338619Y-127595514D01*
X169337890Y-127596056D01*
X169320614Y-127607290D01*
X169316715Y-127605641D01*
X169290581Y-127617532D01*
X169282192Y-127626478D01*
X169280415Y-127631817D01*
X169276434Y-127630249D01*
X169224222Y-127648056D01*
X169158783Y-127680603D01*
X169145451Y-127689915D01*
X169145513Y-127691697D01*
X169147599Y-127695194D01*
X169145700Y-127697045D01*
X169141716Y-127695399D01*
X169133811Y-127693891D01*
X169125398Y-127694680D01*
X169079121Y-127708253D01*
X169070044Y-127715671D01*
X169070169Y-127719236D01*
X169066247Y-127719373D01*
X169052460Y-127718070D01*
X169040718Y-127716695D01*
X169034961Y-127720466D01*
X169037046Y-127723962D01*
X169039193Y-127729241D01*
X169031475Y-127733080D01*
X169026018Y-127732513D01*
X169017773Y-127731774D01*
X169013062Y-127730837D01*
X168998041Y-127728894D01*
X168990407Y-127732729D01*
X168984975Y-127738496D01*
X168969173Y-127740610D01*
X168912233Y-127735459D01*
X168853950Y-127713246D01*
X168748738Y-127648676D01*
X168698768Y-127612233D01*
X168874642Y-127612233D01*
X168892266Y-127613402D01*
X168911726Y-127610938D01*
X168907890Y-127611072D01*
X168894040Y-127607986D01*
X168878564Y-127612096D01*
X168874642Y-127612233D01*
X168698768Y-127612233D01*
X168697479Y-127611293D01*
X168692074Y-127604974D01*
X168929186Y-127604974D01*
X168938967Y-127606417D01*
X168950606Y-127602442D01*
X168948584Y-127600728D01*
X168942577Y-127597368D01*
X168935785Y-127599741D01*
X168932983Y-127601272D01*
X168930896Y-127602808D01*
X168929186Y-127604974D01*
X168692074Y-127604974D01*
X168662173Y-127570016D01*
X168650077Y-127537414D01*
X168645557Y-127497479D01*
X168644813Y-127476166D01*
X168653347Y-127414250D01*
X168669259Y-127360458D01*
X168692470Y-127304167D01*
X168711855Y-127266848D01*
X168983869Y-127266848D01*
X168985892Y-127268562D01*
X169001426Y-127259995D01*
X169014658Y-127251496D01*
X169039836Y-127235272D01*
X169135996Y-127158767D01*
X169181541Y-127107956D01*
X169190912Y-127085264D01*
X169190788Y-127081699D01*
X169188578Y-127074637D01*
X169194004Y-127063817D01*
X169203310Y-127049215D01*
X169201287Y-127047501D01*
X169189981Y-127058604D01*
X169170994Y-127077036D01*
X169168908Y-127073539D01*
X169185129Y-127032081D01*
X169195979Y-127010238D01*
X169197067Y-127007767D01*
X169270316Y-127007767D01*
X169272464Y-127013046D01*
X169280548Y-127026140D01*
X169287058Y-127037445D01*
X169299357Y-127054784D01*
X169301318Y-127054716D01*
X169301193Y-127051151D01*
X169294527Y-127026476D01*
X169276074Y-127003997D01*
X169270316Y-127007767D01*
X169197067Y-127007767D01*
X169201510Y-126997678D01*
X169199612Y-126999528D01*
X169135736Y-127082940D01*
X169122643Y-127093002D01*
X169120683Y-127093070D01*
X169118473Y-127086009D01*
X169118224Y-127078879D01*
X169093477Y-127106222D01*
X169039603Y-127181255D01*
X168983869Y-127266848D01*
X168711855Y-127266848D01*
X168724505Y-127242494D01*
X168763185Y-127180441D01*
X168856183Y-127061237D01*
X168957709Y-126961803D01*
X169056793Y-126888900D01*
X169081238Y-126876089D01*
X169117032Y-126876089D01*
X169146482Y-126878630D01*
X169169988Y-126879593D01*
X169170631Y-126879571D01*
X169179667Y-126875686D01*
X169173539Y-126868839D01*
X169157728Y-126865822D01*
X169140291Y-126870000D01*
X169117032Y-126876089D01*
X169081238Y-126876089D01*
X169105052Y-126863609D01*
X169153394Y-126851696D01*
X169176158Y-126856276D01*
G37*
G36*
X170049062Y-126870234D02*
G01*
X170058842Y-126871677D01*
X170074140Y-126884112D01*
X170092158Y-126892492D01*
X170131991Y-126902349D01*
X170142180Y-126904383D01*
X170156092Y-126909251D01*
X170180342Y-126931527D01*
X170180809Y-126931922D01*
X170192455Y-126943519D01*
X170212017Y-126955481D01*
X170293265Y-126991578D01*
X170331391Y-126999191D01*
X170333352Y-126999123D01*
X170336922Y-127002975D01*
X170337645Y-127009603D01*
X170340222Y-127019564D01*
X170344707Y-127043188D01*
X170343374Y-127056042D01*
X170337330Y-127068519D01*
X170324526Y-127081215D01*
X170309136Y-127087915D01*
X170292046Y-127090313D01*
X170281786Y-127091631D01*
X170264286Y-127094027D01*
X170215189Y-127088603D01*
X170186144Y-127071687D01*
X170162655Y-127052706D01*
X170122831Y-127022459D01*
X170112988Y-127019233D01*
X170101576Y-127021865D01*
X170065902Y-127042641D01*
X170018771Y-127081006D01*
X169954688Y-127142487D01*
X169885650Y-127216881D01*
X169768783Y-127362193D01*
X169748727Y-127391933D01*
X169657623Y-127542214D01*
X169588667Y-127656287D01*
X169571966Y-127667959D01*
X169561475Y-127669535D01*
X169548893Y-127679396D01*
X169535688Y-127692349D01*
X169471253Y-127641215D01*
X169443650Y-127618980D01*
X169417880Y-127591959D01*
X169411956Y-127568562D01*
X169418367Y-127532316D01*
X169455528Y-127412877D01*
X169513660Y-127254754D01*
X169615206Y-127010461D01*
X169660847Y-126920800D01*
X169674536Y-126904651D01*
X169676872Y-126903151D01*
X169693563Y-126889787D01*
X169701157Y-126882383D01*
X169709039Y-126885677D01*
X169713272Y-126894453D01*
X169709659Y-126903425D01*
X169702337Y-126916173D01*
X169704940Y-126921659D01*
X169710344Y-126923032D01*
X169716226Y-126922827D01*
X169739978Y-126930843D01*
X169766005Y-126947781D01*
X169775081Y-126950440D01*
X169808992Y-126982736D01*
X169818860Y-127004596D01*
X169818922Y-127006379D01*
X169821007Y-127009875D01*
X169839478Y-126999240D01*
X169870515Y-126970824D01*
X169926703Y-126923171D01*
X169976648Y-126892433D01*
X170024401Y-126892433D01*
X170040127Y-126895454D01*
X170055790Y-126896691D01*
X170057626Y-126893058D01*
X170047786Y-126889910D01*
X170047845Y-126891615D01*
X170024401Y-126892433D01*
X169976648Y-126892433D01*
X169997690Y-126879483D01*
X170031353Y-126869068D01*
X170049062Y-126870234D01*
G37*
G36*
X165180131Y-124192019D02*
G01*
X165250690Y-124212819D01*
X165270516Y-124222975D01*
X165294452Y-124248232D01*
X165313337Y-124293192D01*
X165357012Y-124402658D01*
X165367544Y-124425206D01*
X165380982Y-124470247D01*
X165386527Y-124515474D01*
X165386341Y-124536864D01*
X165372319Y-124595675D01*
X165349901Y-124633116D01*
X165285982Y-124712151D01*
X165192241Y-124809042D01*
X165057623Y-124933330D01*
X164896858Y-125069457D01*
X164538640Y-125342132D01*
X164286030Y-125524516D01*
X164250667Y-125551855D01*
X164210864Y-125572705D01*
X164190501Y-125561994D01*
X164175672Y-125542648D01*
X164197273Y-125510607D01*
X164224702Y-125478363D01*
X164185989Y-125511001D01*
X164138721Y-125543938D01*
X164137714Y-125543830D01*
X164097327Y-125499820D01*
X164067418Y-125461012D01*
X164127855Y-125396329D01*
X164401787Y-125170368D01*
X164736485Y-124899852D01*
X164876601Y-124773423D01*
X165003966Y-124645535D01*
X165140876Y-124495409D01*
X165157124Y-124466499D01*
X165145521Y-124461318D01*
X165128828Y-124470343D01*
X165128826Y-124470975D01*
X165114966Y-124482249D01*
X165106310Y-124479696D01*
X165080966Y-124486292D01*
X164990690Y-124517749D01*
X164940451Y-124536762D01*
X164872034Y-124564052D01*
X164579360Y-124707952D01*
X164367258Y-124835746D01*
X164209235Y-124949945D01*
X163972045Y-125151019D01*
X163809008Y-125320162D01*
X163722251Y-125438924D01*
X163699235Y-125484060D01*
X163648999Y-125622334D01*
X163637540Y-125700861D01*
X163641178Y-125725155D01*
X163652968Y-125746243D01*
X163717873Y-125800605D01*
X163965602Y-125965517D01*
X164096325Y-126052441D01*
X164222550Y-126157061D01*
X164263528Y-126203717D01*
X164294237Y-126250141D01*
X164339508Y-126328412D01*
X164373127Y-126386807D01*
X164399744Y-126443559D01*
X164417799Y-126524793D01*
X164417716Y-126540851D01*
X164411896Y-126579268D01*
X164397962Y-126616111D01*
X164372146Y-126656433D01*
X164335493Y-126695644D01*
X164244306Y-126775677D01*
X164241354Y-126772925D01*
X164216503Y-126793657D01*
X164205062Y-126805053D01*
X164184360Y-126819044D01*
X164160579Y-126824040D01*
X164152147Y-126824335D01*
X164143890Y-126833190D01*
X164140586Y-126840801D01*
X164132781Y-126842144D01*
X164124125Y-126839591D01*
X164118720Y-126848346D01*
X164116266Y-126859854D01*
X164113439Y-126857097D01*
X164104783Y-126854544D01*
X164087965Y-126863573D01*
X164076881Y-126869671D01*
X164071077Y-126867018D01*
X164068125Y-126864266D01*
X164051611Y-126881976D01*
X164040502Y-126890930D01*
X164043254Y-126887978D01*
X164045708Y-126876471D01*
X164039780Y-126879331D01*
X164034623Y-126882569D01*
X164018842Y-126890615D01*
X164000698Y-126892320D01*
X163992166Y-126889762D01*
X163989414Y-126892714D01*
X163992664Y-126904022D01*
X163998563Y-126909403D01*
X163995811Y-126912355D01*
X163989759Y-126909968D01*
X163984204Y-126907049D01*
X163975648Y-126907348D01*
X163956007Y-126913745D01*
X163941946Y-126919947D01*
X163933290Y-126917393D01*
X163924734Y-126917692D01*
X163924117Y-126917726D01*
X163916862Y-126920668D01*
X163913849Y-126929494D01*
X163905492Y-126935497D01*
X163891133Y-126933143D01*
X163879849Y-126933537D01*
X163865788Y-126939739D01*
X163865792Y-126940189D01*
X163851922Y-126951521D01*
X163837691Y-126949287D01*
X163820479Y-126947032D01*
X163800934Y-126956157D01*
X163784021Y-126962459D01*
X163775465Y-126962757D01*
X163769661Y-126960104D01*
X163741445Y-126973616D01*
X163738911Y-126975456D01*
X163725174Y-126987357D01*
X163719270Y-126981852D01*
X163704811Y-126976646D01*
X163693403Y-126977045D01*
X163631405Y-126993487D01*
X163598339Y-127000948D01*
X163560847Y-127010104D01*
X163222750Y-127030477D01*
X163080547Y-127032588D01*
X163000054Y-126998753D01*
X162976029Y-126977836D01*
X162958156Y-126951446D01*
X162942715Y-126929132D01*
X162895214Y-126862641D01*
X162880397Y-126843390D01*
X162872635Y-126830716D01*
X163073498Y-126830716D01*
X163096289Y-126832776D01*
X163118906Y-126826275D01*
X163116054Y-126826375D01*
X163098842Y-126824120D01*
X163079102Y-126827665D01*
X163073498Y-126830716D01*
X162872635Y-126830716D01*
X162863949Y-126816533D01*
X162858728Y-126795508D01*
X162861674Y-126781988D01*
X162863740Y-126775469D01*
X162876272Y-126757078D01*
X162902452Y-126742831D01*
X162912942Y-126740814D01*
X162924770Y-126727774D01*
X162924794Y-126727141D01*
X162932430Y-126719420D01*
X162949916Y-126715474D01*
X162971273Y-126717607D01*
X162993169Y-126731097D01*
X162996221Y-126736701D01*
X162981861Y-126734347D01*
X162973305Y-126734646D01*
X162962220Y-126740744D01*
X162964708Y-126743643D01*
X162999765Y-126756441D01*
X163022492Y-126765465D01*
X163043413Y-126783348D01*
X163058081Y-126796756D01*
X163106506Y-126798277D01*
X163220115Y-126791455D01*
X163388258Y-126770184D01*
X163682307Y-126708377D01*
X163914805Y-126633361D01*
X163976574Y-126604574D01*
X164044325Y-126563715D01*
X164104941Y-126517995D01*
X164181714Y-126438675D01*
X164208009Y-126386862D01*
X164207615Y-126375578D01*
X164197763Y-126352937D01*
X164162216Y-126323260D01*
X163968754Y-126205088D01*
X163936173Y-126185795D01*
X163749979Y-126062141D01*
X163686153Y-126007451D01*
X163629957Y-125949013D01*
X163565319Y-125865145D01*
X163503104Y-125765397D01*
X163473682Y-125713175D01*
X163408691Y-125575487D01*
X163393447Y-125520549D01*
X163387429Y-125467749D01*
X163388692Y-125422142D01*
X163413889Y-125305760D01*
X163442327Y-125234726D01*
X163480720Y-125162474D01*
X163533066Y-125083529D01*
X163596774Y-125003493D01*
X163677645Y-124916616D01*
X163771391Y-124828877D01*
X163885123Y-124734830D01*
X164013182Y-124640281D01*
X164121414Y-124568092D01*
X164381969Y-124417979D01*
X164635345Y-124305952D01*
X164763985Y-124261837D01*
X164863669Y-124234049D01*
X165211579Y-124234049D01*
X165232140Y-124250464D01*
X165275389Y-124265963D01*
X165278142Y-124263011D01*
X165263388Y-124249373D01*
X165220035Y-124230899D01*
X165211579Y-124234049D01*
X164863669Y-124234049D01*
X164895306Y-124225230D01*
X164946203Y-124212177D01*
X165031996Y-124196048D01*
X165107590Y-124189262D01*
X165180131Y-124192019D01*
G37*
G36*
X165431223Y-124778603D02*
G01*
X165424726Y-124792699D01*
X165420636Y-124798961D01*
X165420403Y-124799210D01*
X165409921Y-124819199D01*
X165417330Y-124832603D01*
X165422026Y-124838765D01*
X165424223Y-124841269D01*
X165447188Y-124866941D01*
X165469123Y-124882684D01*
X165477256Y-124873833D01*
X165485713Y-124870682D01*
X165486421Y-124870671D01*
X165504561Y-124877088D01*
X165522001Y-124893466D01*
X165536156Y-124928637D01*
X165520832Y-124980447D01*
X165387566Y-125238493D01*
X165307909Y-125403416D01*
X165257223Y-125502024D01*
X165246537Y-125519530D01*
X165246731Y-125525110D01*
X165239553Y-125557970D01*
X165225505Y-125571414D01*
X165217272Y-125577413D01*
X165217471Y-125583117D01*
X165195424Y-125645481D01*
X165093828Y-125874968D01*
X165052092Y-125984561D01*
X165055043Y-125987313D01*
X165057796Y-125984362D01*
X165190953Y-125831682D01*
X165414531Y-125601810D01*
X165527756Y-125503180D01*
X165610532Y-125442616D01*
X165653673Y-125442616D01*
X165679441Y-125444571D01*
X165713242Y-125434825D01*
X165708569Y-125423675D01*
X165695636Y-125421286D01*
X165662030Y-125436613D01*
X165653673Y-125442616D01*
X165610532Y-125442616D01*
X165648362Y-125414937D01*
X165686283Y-125398769D01*
X165711252Y-125408947D01*
X165738786Y-125433933D01*
X165827475Y-125527673D01*
X165880649Y-125583407D01*
X165888706Y-125608761D01*
X165891289Y-125645002D01*
X165877608Y-125782062D01*
X165825805Y-126048669D01*
X165813161Y-126110512D01*
X165803809Y-126154717D01*
X165803658Y-126155634D01*
X165794583Y-126217612D01*
X165784717Y-126340369D01*
X165786819Y-126368040D01*
X165802643Y-126421456D01*
X165825046Y-126435798D01*
X165831751Y-126436278D01*
X165845380Y-126449242D01*
X165851382Y-126457598D01*
X165854135Y-126454647D01*
X165859839Y-126454448D01*
X165896497Y-126478220D01*
X165909987Y-126503971D01*
X165899743Y-126516806D01*
X165876680Y-126527854D01*
X165817708Y-126552757D01*
X165798167Y-126562005D01*
X165763880Y-126548941D01*
X165742707Y-126534481D01*
X165768651Y-126534481D01*
X165768751Y-126537333D01*
X165780458Y-126545491D01*
X165792289Y-126542480D01*
X165803075Y-126538990D01*
X165816812Y-126527089D01*
X165816756Y-126526472D01*
X165810049Y-126519348D01*
X165793726Y-126516597D01*
X165788022Y-126516796D01*
X165768651Y-126534481D01*
X165742707Y-126534481D01*
X165696409Y-126502863D01*
X165616706Y-126431176D01*
X165584335Y-126390074D01*
X165582992Y-126387173D01*
X165569084Y-126330207D01*
X165562161Y-126245716D01*
X165564387Y-126106204D01*
X165589753Y-125894647D01*
X165605486Y-125810295D01*
X165618417Y-125734236D01*
X165478001Y-125872850D01*
X165448144Y-125903331D01*
X165316002Y-126050451D01*
X165173603Y-126224273D01*
X164935152Y-126546579D01*
X164855409Y-126663149D01*
X164805080Y-126736106D01*
X164791695Y-126752806D01*
X164766367Y-126768744D01*
X164760663Y-126768944D01*
X164752505Y-126780650D01*
X164754045Y-126789799D01*
X164756150Y-126803243D01*
X164759898Y-126828811D01*
X164752224Y-126871921D01*
X164733485Y-126886595D01*
X164727781Y-126886794D01*
X164721978Y-126884141D01*
X164711628Y-126891284D01*
X164705687Y-126904698D01*
X164703822Y-126912887D01*
X164689368Y-126927988D01*
X164667755Y-126920595D01*
X164637064Y-126898528D01*
X164555569Y-126847244D01*
X164530012Y-126833176D01*
X164515874Y-126818431D01*
X164507110Y-126760789D01*
X164506857Y-126750856D01*
X164511335Y-126660736D01*
X164526992Y-126556169D01*
X164558490Y-126418139D01*
X164603148Y-126265720D01*
X164664965Y-126087969D01*
X164739433Y-125900367D01*
X164920734Y-125509892D01*
X165122474Y-125145201D01*
X165249816Y-124950231D01*
X165342848Y-124825195D01*
X165361167Y-124809604D01*
X165366917Y-124808473D01*
X165397322Y-124785498D01*
X165422492Y-124770341D01*
X165431223Y-124778603D01*
G37*
G36*
X166376825Y-125306406D02*
G01*
X166388293Y-125325835D01*
X166386238Y-125348751D01*
X166384378Y-125377247D01*
X166384477Y-125380098D01*
X166387561Y-125376421D01*
X166392635Y-125368392D01*
X166406178Y-125350910D01*
X166429627Y-125375299D01*
X166429886Y-125375657D01*
X166453474Y-125400533D01*
X166456226Y-125397581D01*
X166461831Y-125394530D01*
X166470063Y-125397440D01*
X166493506Y-125422233D01*
X166516494Y-125460548D01*
X166531150Y-125505956D01*
X166528465Y-125529787D01*
X166478297Y-125724808D01*
X166374306Y-126066512D01*
X166239430Y-126523752D01*
X166231200Y-126615167D01*
X166226140Y-126679439D01*
X166225225Y-126689369D01*
X166193479Y-126676201D01*
X166185229Y-126673568D01*
X166176172Y-126671218D01*
X166169016Y-126677831D01*
X166168632Y-126697057D01*
X166167553Y-126713430D01*
X166155463Y-126728802D01*
X166137853Y-126715140D01*
X166056287Y-126658272D01*
X166003365Y-126619474D01*
X165973999Y-126584296D01*
X165970155Y-126556000D01*
X165972926Y-126492645D01*
X165993488Y-126353017D01*
X166030479Y-126177646D01*
X166131851Y-125807309D01*
X166171504Y-125638072D01*
X166171106Y-125626664D01*
X166176909Y-125629317D01*
X166182489Y-125629122D01*
X166190922Y-125624158D01*
X166201262Y-125594325D01*
X166198112Y-125585869D01*
X166198012Y-125583017D01*
X166200048Y-125571192D01*
X166231292Y-125499752D01*
X166282187Y-125408774D01*
X166334429Y-125333427D01*
X166376193Y-125306394D01*
X166376825Y-125306406D01*
G37*
G36*
X166632337Y-124305762D02*
G01*
X166666769Y-124334076D01*
X166708396Y-124369907D01*
X166733906Y-124383006D01*
X166771567Y-124405450D01*
X166789260Y-124418070D01*
X166830553Y-124459336D01*
X166798043Y-124506035D01*
X166750109Y-124601691D01*
X166723103Y-124642487D01*
X166703334Y-124648764D01*
X166699736Y-124649636D01*
X166675734Y-124672571D01*
X166671916Y-124678160D01*
X166659216Y-124690157D01*
X166641435Y-124668058D01*
X166635206Y-124660152D01*
X166612247Y-124646358D01*
X166594862Y-124639518D01*
X166517957Y-124576266D01*
X166503693Y-124556166D01*
X166504001Y-124547631D01*
X166518506Y-124483012D01*
X166545601Y-124404779D01*
X166568381Y-124358382D01*
X166624910Y-124358382D01*
X166630813Y-124363887D01*
X166647204Y-124346182D01*
X166648663Y-124336668D01*
X166649558Y-124331822D01*
X166643783Y-124326437D01*
X166641096Y-124326910D01*
X166627364Y-124346874D01*
X166626432Y-124350658D01*
X166624910Y-124358382D01*
X166568381Y-124358382D01*
X166575953Y-124342959D01*
X166608463Y-124296260D01*
X166611315Y-124296160D01*
X166632337Y-124305762D01*
G37*
G36*
X166798513Y-125365640D02*
G01*
X166790753Y-125388755D01*
X166787958Y-125397548D01*
X166785767Y-125405938D01*
X166794398Y-125411347D01*
X166805806Y-125410949D01*
X166814959Y-125427762D01*
X166829912Y-125447104D01*
X166838145Y-125441106D01*
X166834994Y-125432649D01*
X166831947Y-125427169D01*
X166831848Y-125424317D01*
X166837651Y-125426970D01*
X166847000Y-125449363D01*
X166847299Y-125457919D01*
X166842586Y-125486514D01*
X166871946Y-125431359D01*
X166907461Y-125467116D01*
X166929511Y-125490991D01*
X166943349Y-125517137D01*
X166897104Y-125661153D01*
X166853407Y-125796389D01*
X166837710Y-125833934D01*
X166798730Y-125940700D01*
X166780550Y-125992485D01*
X166751389Y-126053344D01*
X166751489Y-126056196D01*
X166839177Y-125976881D01*
X166867324Y-125949602D01*
X166989715Y-125825409D01*
X167230228Y-125606085D01*
X167336538Y-125527690D01*
X167373528Y-125527690D01*
X167390936Y-125549557D01*
X167391313Y-125549912D01*
X167403685Y-125562101D01*
X167417873Y-125574560D01*
X167422685Y-125548817D01*
X167421242Y-125539307D01*
X167412570Y-125527583D01*
X167396125Y-125524169D01*
X167373528Y-125527690D01*
X167336538Y-125527690D01*
X167349385Y-125518216D01*
X167389624Y-125501552D01*
X167394701Y-125501621D01*
X167423649Y-125513617D01*
X167453933Y-125547726D01*
X167483468Y-125581468D01*
X167503981Y-125594397D01*
X167525743Y-125607852D01*
X167556658Y-125638121D01*
X167558740Y-125640917D01*
X167583863Y-125683024D01*
X167591180Y-125730773D01*
X167593267Y-125790541D01*
X167562668Y-125973739D01*
X167552821Y-126021997D01*
X167539324Y-126088255D01*
X167483716Y-126400596D01*
X167481540Y-126415417D01*
X167470873Y-126523457D01*
X167482607Y-126614175D01*
X167482707Y-126617026D01*
X167474193Y-126628951D01*
X167469040Y-126634512D01*
X167526303Y-126663554D01*
X167527052Y-126663897D01*
X167563456Y-126684482D01*
X167582800Y-126710245D01*
X167578456Y-126720204D01*
X167551550Y-126733063D01*
X167512521Y-126738398D01*
X167481173Y-126736637D01*
X167425876Y-126714120D01*
X167471820Y-126714120D01*
X167472529Y-126715642D01*
X167484647Y-126729369D01*
X167498185Y-126733188D01*
X167506418Y-126727189D01*
X167491784Y-126713423D01*
X167483129Y-126710870D01*
X167471820Y-126714120D01*
X167425876Y-126714120D01*
X167418703Y-126711199D01*
X167384548Y-126683073D01*
X167356103Y-126647362D01*
X167327323Y-126592450D01*
X167306146Y-126529284D01*
X167287066Y-126428502D01*
X167278865Y-126322334D01*
X167281224Y-126163493D01*
X167291142Y-126038647D01*
X167291532Y-126034482D01*
X167309777Y-125929679D01*
X167329294Y-125811057D01*
X167226291Y-125896265D01*
X167123109Y-125996966D01*
X167122395Y-125997680D01*
X166931983Y-126193950D01*
X166752316Y-126390467D01*
X166568081Y-126591981D01*
X166537380Y-126620017D01*
X166522856Y-126625560D01*
X166498718Y-126642822D01*
X166484657Y-126649024D01*
X166474465Y-126647801D01*
X166423543Y-126616693D01*
X166373921Y-126566670D01*
X166343789Y-126525819D01*
X166340538Y-126514511D01*
X166357017Y-126417488D01*
X166400165Y-126267276D01*
X166504390Y-125954964D01*
X166534211Y-125867377D01*
X166584981Y-125732514D01*
X166691905Y-125482669D01*
X166745465Y-125393068D01*
X166792610Y-125360135D01*
X166798513Y-125365640D01*
G37*
G36*
X168460434Y-125280625D02*
G01*
X168525259Y-125299630D01*
X168575283Y-125349157D01*
X168646885Y-125440639D01*
X168712707Y-125533900D01*
X168727084Y-125573030D01*
X168732646Y-125614063D01*
X168731383Y-125659670D01*
X168727988Y-125687723D01*
X168708783Y-125771420D01*
X168676326Y-125866673D01*
X168576768Y-126078741D01*
X168464651Y-126255350D01*
X168412502Y-126320136D01*
X168282005Y-126448500D01*
X168150046Y-126539593D01*
X168023105Y-126598937D01*
X167927964Y-126618486D01*
X167890912Y-126616925D01*
X167864004Y-126610266D01*
X167834633Y-126594044D01*
X167742284Y-126516835D01*
X167671928Y-126444963D01*
X167845055Y-126444963D01*
X167859414Y-126447317D01*
X167873450Y-126443972D01*
X167864795Y-126441418D01*
X167850758Y-126444764D01*
X167845055Y-126444963D01*
X167671928Y-126444963D01*
X167660687Y-126433480D01*
X167620862Y-126381654D01*
X167619520Y-126378774D01*
X167614374Y-126359751D01*
X167839223Y-126359751D01*
X167844046Y-126399716D01*
X167852995Y-126412162D01*
X167869607Y-126415675D01*
X167945466Y-126393841D01*
X167956974Y-126389780D01*
X167970371Y-126384622D01*
X168032113Y-126355909D01*
X168089718Y-126320237D01*
X168156364Y-126266352D01*
X168223545Y-126198342D01*
X168331256Y-126058963D01*
X168388613Y-125965935D01*
X168438773Y-125869531D01*
X168507868Y-125692267D01*
X168536948Y-125552614D01*
X168543393Y-125495403D01*
X168506441Y-125496694D01*
X168472856Y-125501598D01*
X168390667Y-125529844D01*
X168377135Y-125541062D01*
X168377235Y-125543914D01*
X168368878Y-125549917D01*
X168336293Y-125565448D01*
X168288618Y-125601674D01*
X168224941Y-125665934D01*
X168179063Y-125738675D01*
X168168850Y-125773297D01*
X168186754Y-125795391D01*
X168201388Y-125809158D01*
X168198536Y-125809257D01*
X168190005Y-125806700D01*
X168182281Y-125805178D01*
X168178497Y-125804246D01*
X168170335Y-125815829D01*
X168170559Y-125817826D01*
X168190996Y-125835096D01*
X168206520Y-125841558D01*
X168258486Y-125879808D01*
X168273284Y-125909071D01*
X168273078Y-125915953D01*
X168269430Y-125925569D01*
X168259722Y-125929533D01*
X168242510Y-125927279D01*
X168227028Y-125929362D01*
X168203200Y-125942805D01*
X168189263Y-125949003D01*
X168165774Y-125942939D01*
X168129469Y-125917274D01*
X168117705Y-125905084D01*
X168142166Y-125905084D01*
X168151021Y-125913341D01*
X168182667Y-125923658D01*
X168191024Y-125917655D01*
X168187972Y-125912051D01*
X168176625Y-125903524D01*
X168159178Y-125901634D01*
X168142166Y-125905084D01*
X168117705Y-125905084D01*
X168083960Y-125870119D01*
X168021934Y-125804002D01*
X168000608Y-125847455D01*
X167974957Y-125906836D01*
X167934817Y-126000596D01*
X167904367Y-126077939D01*
X167850591Y-126262621D01*
X167839223Y-126359751D01*
X167614374Y-126359751D01*
X167605834Y-126328178D01*
X167599480Y-126259987D01*
X167599213Y-126223749D01*
X167611426Y-126111458D01*
X167661324Y-125950633D01*
X167760779Y-125735217D01*
X167860282Y-125576244D01*
X167944302Y-125480270D01*
X168013516Y-125421486D01*
X168054140Y-125421486D01*
X168060138Y-125429719D01*
X168071128Y-125420893D01*
X168073681Y-125412237D01*
X168065025Y-125409684D01*
X168064408Y-125409717D01*
X168057153Y-125412659D01*
X168054140Y-125421486D01*
X168013516Y-125421486D01*
X168032630Y-125405252D01*
X168067180Y-125389620D01*
X168068725Y-125389578D01*
X168082966Y-125392168D01*
X168087642Y-125403183D01*
X168085388Y-125420395D01*
X168084225Y-125433952D01*
X168083328Y-125443186D01*
X168086578Y-125454495D01*
X168136500Y-125415754D01*
X168221394Y-125354616D01*
X168316277Y-125309703D01*
X168400342Y-125309703D01*
X168460583Y-125324732D01*
X168520745Y-125333929D01*
X168528532Y-125337240D01*
X168532352Y-125339235D01*
X168534981Y-125336287D01*
X168526155Y-125325298D01*
X168525115Y-125324412D01*
X168497297Y-125313788D01*
X168454282Y-125307819D01*
X168429592Y-125306894D01*
X168417230Y-125306258D01*
X168400342Y-125309703D01*
X168316277Y-125309703D01*
X168339214Y-125298846D01*
X168436302Y-125280017D01*
X168460434Y-125280625D01*
G37*
G36*
X169450516Y-124447907D02*
G01*
X169460370Y-124464339D01*
X169463198Y-124472517D01*
X169481003Y-124486338D01*
X169485423Y-124487257D01*
X169504711Y-124511085D01*
X169509728Y-124520298D01*
X169545905Y-124549499D01*
X169604485Y-124598728D01*
X169631244Y-124629079D01*
X169495894Y-124912773D01*
X169201144Y-125584377D01*
X169187749Y-125623745D01*
X169273606Y-125558175D01*
X169309856Y-125527901D01*
X169402641Y-125458945D01*
X169497196Y-125398836D01*
X169589190Y-125353187D01*
X169764666Y-125353187D01*
X169776472Y-125364196D01*
X169787540Y-125369974D01*
X169799558Y-125374688D01*
X169802016Y-125363304D01*
X169801937Y-125362370D01*
X169794036Y-125352959D01*
X169778702Y-125349841D01*
X169764666Y-125353187D01*
X169589190Y-125353187D01*
X169624815Y-125335509D01*
X169698497Y-125335509D01*
X169707152Y-125338062D01*
X169744304Y-125342476D01*
X169773340Y-125339458D01*
X169786661Y-125332430D01*
X169771591Y-125327959D01*
X169735374Y-125328510D01*
X169698497Y-125335509D01*
X169624815Y-125335509D01*
X169649322Y-125323348D01*
X169734382Y-125300114D01*
X169783363Y-125309096D01*
X169827062Y-125348152D01*
X169863303Y-125384197D01*
X169885766Y-125397377D01*
X169938340Y-125438124D01*
X169954614Y-125455270D01*
X169972243Y-125479616D01*
X169977801Y-125505154D01*
X169976997Y-125518613D01*
X169976041Y-125536501D01*
X169974758Y-125544975D01*
X169940307Y-125654451D01*
X169853119Y-125810559D01*
X169819289Y-125857939D01*
X169811231Y-125872498D01*
X169811331Y-125875350D01*
X169814378Y-125880830D01*
X169803468Y-125895489D01*
X169799783Y-125896742D01*
X169779477Y-125917497D01*
X169754463Y-125956917D01*
X169675181Y-126050812D01*
X169650198Y-126077148D01*
X169637066Y-126100562D01*
X169637165Y-126103414D01*
X169570076Y-126189157D01*
X169466965Y-126294450D01*
X169445096Y-126309384D01*
X169411888Y-126336118D01*
X169398810Y-126356730D01*
X169376127Y-126371509D01*
X169369626Y-126372628D01*
X169351056Y-126389517D01*
X169340171Y-126401319D01*
X169334367Y-126398666D01*
X169306739Y-126425206D01*
X169298504Y-126434790D01*
X169287592Y-126445739D01*
X169287497Y-126443011D01*
X169187180Y-126503375D01*
X169176193Y-126510313D01*
X169068020Y-126576242D01*
X169016684Y-126594745D01*
X168987889Y-126584329D01*
X168964181Y-126559581D01*
X168966934Y-126556630D01*
X168966735Y-126550926D01*
X168957880Y-126542669D01*
X168902948Y-126516156D01*
X168862451Y-126497706D01*
X168862330Y-126497711D01*
X168844935Y-126507935D01*
X168832689Y-126541329D01*
X168832393Y-126542581D01*
X168824907Y-126554761D01*
X168813322Y-126559138D01*
X168807519Y-126556486D01*
X168801715Y-126553833D01*
X168801154Y-126553869D01*
X168789726Y-126561678D01*
X168782672Y-126577342D01*
X168782082Y-126578895D01*
X168772441Y-126593285D01*
X168760549Y-126597978D01*
X168748017Y-126595026D01*
X168738140Y-126584712D01*
X168733914Y-126567622D01*
X168733848Y-126566079D01*
X168730669Y-126552039D01*
X168721809Y-126548057D01*
X168713476Y-126551203D01*
X168710624Y-126551303D01*
X168669125Y-126541264D01*
X168603273Y-126507489D01*
X168588930Y-126490125D01*
X168606389Y-126421232D01*
X168625083Y-126344441D01*
X168928238Y-126344441D01*
X168970599Y-126334520D01*
X168981594Y-126330291D01*
X169081921Y-126262225D01*
X169298557Y-126045787D01*
X169566312Y-125740748D01*
X169684444Y-125583681D01*
X169722165Y-125522647D01*
X169677350Y-125544076D01*
X169609057Y-125582477D01*
X169524532Y-125642573D01*
X169336309Y-125803667D01*
X169173558Y-125987309D01*
X169088419Y-126100827D01*
X169003875Y-126227954D01*
X168928238Y-126344441D01*
X168625083Y-126344441D01*
X168668603Y-126165668D01*
X168695588Y-126059344D01*
X168760854Y-125832583D01*
X168836862Y-125600489D01*
X169008158Y-125151680D01*
X169165479Y-124809205D01*
X169285552Y-124597482D01*
X169367295Y-124490309D01*
X169405198Y-124458310D01*
X169436758Y-124442320D01*
X169450516Y-124447907D01*
G37*
G36*
X170233715Y-125171721D02*
G01*
X170245183Y-125191150D01*
X170243127Y-125214065D01*
X170241267Y-125242561D01*
X170241367Y-125245413D01*
X170244451Y-125241736D01*
X170249524Y-125233706D01*
X170263067Y-125216225D01*
X170286516Y-125240614D01*
X170286775Y-125240972D01*
X170310363Y-125265847D01*
X170313116Y-125262896D01*
X170318720Y-125259845D01*
X170326952Y-125262754D01*
X170350395Y-125287548D01*
X170373383Y-125325862D01*
X170388039Y-125371270D01*
X170385354Y-125395102D01*
X170335186Y-125590122D01*
X170231195Y-125931827D01*
X170096319Y-126389067D01*
X170088089Y-126480481D01*
X170083029Y-126544753D01*
X170082114Y-126554684D01*
X170050368Y-126541515D01*
X170042118Y-126538883D01*
X170033061Y-126536533D01*
X170025905Y-126543145D01*
X170025521Y-126562371D01*
X170024443Y-126578744D01*
X170012353Y-126594117D01*
X169994743Y-126580454D01*
X169913176Y-126523586D01*
X169860254Y-126484789D01*
X169830888Y-126449610D01*
X169827044Y-126421314D01*
X169829815Y-126357959D01*
X169850377Y-126218331D01*
X169887368Y-126042961D01*
X169988740Y-125672624D01*
X170028393Y-125503387D01*
X170027995Y-125491979D01*
X170033799Y-125494632D01*
X170039379Y-125494437D01*
X170047811Y-125489472D01*
X170058152Y-125459640D01*
X170055001Y-125451183D01*
X170054901Y-125448331D01*
X170056938Y-125436506D01*
X170088182Y-125365067D01*
X170139076Y-125274088D01*
X170191318Y-125198742D01*
X170233082Y-125171708D01*
X170233715Y-125171721D01*
G37*
G36*
X170489227Y-124171076D02*
G01*
X170523659Y-124199391D01*
X170565286Y-124235221D01*
X170590795Y-124248321D01*
X170628456Y-124270764D01*
X170646149Y-124283385D01*
X170687443Y-124324651D01*
X170654932Y-124371349D01*
X170606998Y-124467006D01*
X170579992Y-124507801D01*
X170560223Y-124514078D01*
X170556625Y-124514951D01*
X170532624Y-124537886D01*
X170528805Y-124543474D01*
X170516105Y-124555471D01*
X170498324Y-124533373D01*
X170492095Y-124525466D01*
X170469136Y-124511672D01*
X170451751Y-124504832D01*
X170374846Y-124441580D01*
X170360582Y-124421481D01*
X170360890Y-124412946D01*
X170375395Y-124348326D01*
X170402491Y-124270093D01*
X170425270Y-124223696D01*
X170481799Y-124223696D01*
X170487703Y-124229201D01*
X170504093Y-124211496D01*
X170505552Y-124201983D01*
X170506447Y-124197136D01*
X170500672Y-124191751D01*
X170497985Y-124192224D01*
X170484253Y-124212189D01*
X170483321Y-124215973D01*
X170481799Y-124223696D01*
X170425270Y-124223696D01*
X170432842Y-124208273D01*
X170465353Y-124161575D01*
X170468205Y-124161475D01*
X170489227Y-124171076D01*
G37*
D13*
G36*
X170419675Y-87810784D02*
G01*
X170432424Y-87792949D01*
X170927113Y-87334955D01*
X171031522Y-87201264D01*
X171080563Y-87122864D01*
X171080563Y-87053382D01*
X171040083Y-86987467D01*
X170959031Y-86953579D01*
X170767148Y-86953579D01*
X170686189Y-86987312D01*
X170645617Y-87053072D01*
X170641336Y-87106347D01*
X170628587Y-87122321D01*
X170609418Y-87133023D01*
X170585967Y-87138296D01*
X170509196Y-87133023D01*
X170490026Y-87122321D01*
X170477184Y-87106347D01*
X170472904Y-87042370D01*
X170479325Y-87019261D01*
X170532646Y-86927213D01*
X170615838Y-86860367D01*
X170726669Y-86814614D01*
X170752259Y-86809651D01*
X170974013Y-86809651D01*
X170999604Y-86815002D01*
X171110434Y-86861298D01*
X171193533Y-86929074D01*
X171246855Y-87021743D01*
X171253276Y-87044852D01*
X171253276Y-87135737D01*
X171246855Y-87158924D01*
X171189346Y-87256943D01*
X171078422Y-87394201D01*
X170715967Y-87732772D01*
X171248995Y-87732772D01*
X171272445Y-87736262D01*
X171291708Y-87746653D01*
X171304457Y-87762318D01*
X171308737Y-87826604D01*
X171304457Y-87845681D01*
X171291708Y-87861345D01*
X171272445Y-87871736D01*
X171248995Y-87876700D01*
X170477184Y-87876700D01*
X170453734Y-87873132D01*
X170434564Y-87862431D01*
X170421816Y-87846379D01*
X170417535Y-87828620D01*
X170419675Y-87810784D01*
G37*
G36*
X172203662Y-86860677D02*
G01*
X172235673Y-86880219D01*
X172355065Y-87036244D01*
X172410527Y-87275632D01*
X172410527Y-87422816D01*
X172346597Y-87671045D01*
X172222925Y-87819935D01*
X172020341Y-87876700D01*
X171890248Y-87874916D01*
X171726096Y-87828853D01*
X171694084Y-87809311D01*
X171574693Y-87653286D01*
X171519324Y-87413898D01*
X171519324Y-87281758D01*
X171694084Y-87281758D01*
X171694084Y-87409556D01*
X171745265Y-87624439D01*
X171804915Y-87700823D01*
X171920119Y-87732772D01*
X172009639Y-87732772D01*
X172124843Y-87700823D01*
X172184492Y-87624439D01*
X172235673Y-87409556D01*
X172235673Y-87281758D01*
X172184492Y-87066875D01*
X172124843Y-86990491D01*
X172009639Y-86958542D01*
X171920119Y-86958542D01*
X171804915Y-86990491D01*
X171745265Y-87066875D01*
X171694084Y-87281758D01*
X171519324Y-87281758D01*
X171519324Y-87266792D01*
X171583254Y-87018486D01*
X171706926Y-86869595D01*
X171900949Y-86814614D01*
X172039510Y-86814614D01*
X172203662Y-86860677D01*
G37*
G36*
X172623254Y-87810784D02*
G01*
X172636003Y-87792949D01*
X173130691Y-87334955D01*
X173235100Y-87201264D01*
X173284141Y-87122864D01*
X173284141Y-87053382D01*
X173243662Y-86987467D01*
X173162609Y-86953579D01*
X172970727Y-86953579D01*
X172889768Y-86987312D01*
X172849195Y-87053072D01*
X172844914Y-87106347D01*
X172832166Y-87122321D01*
X172812996Y-87133023D01*
X172789546Y-87138296D01*
X172712774Y-87133023D01*
X172693605Y-87122321D01*
X172680763Y-87106347D01*
X172676482Y-87042370D01*
X172682903Y-87019261D01*
X172736224Y-86927213D01*
X172819417Y-86860367D01*
X172930247Y-86814614D01*
X172955838Y-86809651D01*
X173177592Y-86809651D01*
X173203182Y-86815002D01*
X173314012Y-86861298D01*
X173397112Y-86929074D01*
X173450433Y-87021743D01*
X173456854Y-87044852D01*
X173456854Y-87135737D01*
X173450433Y-87158924D01*
X173392924Y-87256943D01*
X173282001Y-87394201D01*
X172919546Y-87732772D01*
X173452574Y-87732772D01*
X173476024Y-87736262D01*
X173495286Y-87746653D01*
X173508035Y-87762318D01*
X173512316Y-87826604D01*
X173508035Y-87845681D01*
X173495286Y-87861345D01*
X173476024Y-87871736D01*
X173452574Y-87876700D01*
X172680763Y-87876700D01*
X172657312Y-87873132D01*
X172638143Y-87862431D01*
X172625394Y-87846379D01*
X172621113Y-87828620D01*
X172623254Y-87810784D01*
G37*
G36*
X174403053Y-86811668D02*
G01*
X174424363Y-86819577D01*
X174445673Y-86840825D01*
X174452094Y-86860290D01*
X174452094Y-87499510D01*
X174611965Y-87499510D01*
X174635415Y-87503078D01*
X174654585Y-87513702D01*
X174667426Y-87529754D01*
X174671707Y-87549296D01*
X174671707Y-87593653D01*
X174667426Y-87613194D01*
X174654585Y-87629247D01*
X174635415Y-87639871D01*
X174611965Y-87643438D01*
X174452094Y-87643438D01*
X174445673Y-87846223D01*
X174432924Y-87862353D01*
X174413754Y-87873132D01*
X174336983Y-87876700D01*
X174313533Y-87873132D01*
X174294270Y-87862353D01*
X174281521Y-87846223D01*
X174277240Y-87643438D01*
X173784692Y-87643438D01*
X173763382Y-87643438D01*
X173731371Y-87620329D01*
X173725043Y-87584735D01*
X173735651Y-87568760D01*
X173791090Y-87501449D01*
X173991557Y-87501449D01*
X174277240Y-87499510D01*
X174277240Y-87156442D01*
X173991557Y-87501449D01*
X173791090Y-87501449D01*
X174343311Y-86830977D01*
X174358293Y-86818569D01*
X174381743Y-86809651D01*
X174403053Y-86811668D01*
G37*
D12*
G36*
X170867294Y-126974212D02*
G01*
X170827280Y-126987473D01*
X170864502Y-126966070D01*
X170896607Y-126955601D01*
X170867294Y-126974212D01*
G37*
G36*
X171056431Y-126918378D02*
G01*
X171019209Y-126934198D01*
X170997806Y-126944900D01*
X170965934Y-126955601D01*
X170955233Y-126944900D01*
X170976403Y-126934198D01*
X170987104Y-126928847D01*
X171051081Y-126896975D01*
X171077834Y-126891625D01*
X171056431Y-126918378D01*
G37*
G36*
X172271750Y-123666751D02*
G01*
X172261048Y-123672102D01*
X172274309Y-123677452D01*
X172319674Y-123693505D01*
X172405053Y-123720026D01*
X172415755Y-123714675D01*
X172405053Y-123704206D01*
X172389001Y-123688154D01*
X172434366Y-123701414D01*
X172500901Y-123725376D01*
X172519513Y-123730727D01*
X172548826Y-123741429D01*
X172627558Y-123785543D01*
X172724935Y-123869381D01*
X172746105Y-123890552D01*
X172783561Y-123917305D01*
X172815432Y-123970580D01*
X172826134Y-124018504D01*
X172831485Y-124077130D01*
X172826134Y-124157159D01*
X172815432Y-124247889D01*
X172799380Y-124279761D01*
X172778210Y-124365140D01*
X172756807Y-124418415D01*
X172746105Y-124439585D01*
X172719352Y-124501003D01*
X172682129Y-124551718D01*
X172676778Y-124562187D01*
X172666309Y-124588941D01*
X172644906Y-124631514D01*
X172610243Y-124676879D01*
X172543707Y-124748766D01*
X172522304Y-124770169D01*
X172479498Y-124818093D01*
X172431574Y-124855315D01*
X172372949Y-124892770D01*
X172308972Y-124932785D01*
X172277100Y-124940695D01*
X172218475Y-124988619D01*
X172143797Y-125073998D01*
X172074470Y-125143325D01*
X172050125Y-125167495D01*
X172063768Y-125169846D01*
X172072367Y-125172515D01*
X172053300Y-125201951D01*
X172021195Y-125244524D01*
X171957219Y-125303150D01*
X171917204Y-125337813D01*
X171893242Y-125367126D01*
X171866721Y-125399231D01*
X171856020Y-125420401D01*
X171919996Y-125367126D01*
X172074470Y-125212652D01*
X172197072Y-125095401D01*
X172226385Y-125063297D01*
X172266399Y-125031425D01*
X172298503Y-124988619D01*
X172314323Y-124972799D01*
X172330375Y-124964889D01*
X172351778Y-124951396D01*
X172367598Y-124935344D01*
X172378299Y-124929993D01*
X172389001Y-124924642D01*
X172394352Y-124919292D01*
X172405053Y-124914173D01*
X172410404Y-124919292D01*
X172383650Y-124951396D01*
X172365039Y-124972799D01*
X172351778Y-124993969D01*
X172325025Y-125028633D01*
X172279660Y-125076557D01*
X172237086Y-125119363D01*
X172213124Y-125137974D01*
X172197072Y-125148676D01*
X172181020Y-125161936D01*
X172165200Y-125175197D01*
X172077262Y-125257785D01*
X172026546Y-125292448D01*
X172021195Y-125297799D01*
X171975830Y-125348515D01*
X171925347Y-125393880D01*
X171901152Y-125407140D01*
X171861138Y-125436453D01*
X171823915Y-125471117D01*
X171808096Y-125495079D01*
X171781342Y-125516482D01*
X171759939Y-125526951D01*
X171738768Y-125532301D01*
X171721056Y-125550485D01*
X171722716Y-125569757D01*
X171712015Y-125580458D01*
X171688053Y-125604420D01*
X171669441Y-125628382D01*
X171664091Y-125639084D01*
X171658740Y-125649553D01*
X171648038Y-125665605D01*
X171621517Y-125703060D01*
X171568242Y-125756335D01*
X171498915Y-125820311D01*
X171466811Y-125846833D01*
X171440290Y-125860326D01*
X171413536Y-125873586D01*
X171402834Y-125886847D01*
X171392366Y-125900107D01*
X171370963Y-125916160D01*
X171333507Y-125950823D01*
X171298844Y-125985487D01*
X171290934Y-126001539D01*
X171317688Y-125980136D01*
X171352351Y-125964084D01*
X171370963Y-125969434D01*
X171365612Y-125980136D01*
X171344209Y-126001539D01*
X171328389Y-126028060D01*
X171304194Y-126054814D01*
X171280232Y-126075984D01*
X171275114Y-126086686D01*
X171259062Y-126102738D01*
X171221607Y-126139961D01*
X171200436Y-126166714D01*
X171195086Y-126172065D01*
X171160422Y-126204170D01*
X171131109Y-126246743D01*
X171125759Y-126257212D01*
X171135185Y-126257291D01*
X171179033Y-126219989D01*
X171269764Y-126134610D01*
X171285583Y-126121582D01*
X171301635Y-126108089D01*
X171314896Y-126094828D01*
X171336299Y-126094828D01*
X171338858Y-126097387D01*
X171349560Y-126097387D01*
X171336299Y-126094828D01*
X171314896Y-126094828D01*
X171317688Y-126092036D01*
X171354910Y-126054814D01*
X171378872Y-126033411D01*
X171392366Y-126017359D01*
X171418887Y-125993397D01*
X171450991Y-125974785D01*
X171408185Y-126022709D01*
X171354910Y-126081335D01*
X171365612Y-126086686D01*
X171381664Y-126075984D01*
X171389574Y-126065515D01*
X171392366Y-126054814D01*
X171426796Y-126030852D01*
X171461460Y-125996188D01*
X171456342Y-126017359D01*
X171442849Y-126060165D01*
X171418887Y-126081335D01*
X171386782Y-126108089D01*
X171344209Y-126161364D01*
X171317688Y-126182767D01*
X171306986Y-126193235D01*
X171285583Y-126214638D01*
X171275114Y-126219989D01*
X171269764Y-126225340D01*
X171259062Y-126230691D01*
X171243010Y-126246743D01*
X171211138Y-126267913D01*
X171195086Y-126289316D01*
X171184384Y-126294667D01*
X171157630Y-126310487D01*
X171144370Y-126323980D01*
X171131109Y-126331890D01*
X171120408Y-126342591D01*
X171131109Y-126342591D01*
X171141811Y-126347942D01*
X171153536Y-126342591D01*
X172005143Y-126342591D01*
X172031897Y-126342591D01*
X172026546Y-126337240D01*
X172005143Y-126342591D01*
X171153536Y-126342591D01*
X171200436Y-126321188D01*
X171264180Y-126276056D01*
X171306986Y-126236041D01*
X171328389Y-126219989D01*
X171338858Y-126219989D01*
X171328389Y-126236041D01*
X171306986Y-126262563D01*
X171289655Y-126294199D01*
X171301635Y-126294667D01*
X171312337Y-126300018D01*
X171333507Y-126307928D01*
X171376313Y-126294667D01*
X171424237Y-126289316D01*
X171472162Y-126283966D01*
X171481094Y-126281406D01*
X171914645Y-126281406D01*
X171925347Y-126289316D01*
X171936048Y-126286757D01*
X171930698Y-126283966D01*
X171914645Y-126281406D01*
X171481094Y-126281406D01*
X171546839Y-126262563D01*
X171621517Y-126246743D01*
X171648038Y-126244184D01*
X171674792Y-126241392D01*
X171712015Y-126230691D01*
X171728067Y-126230691D01*
X171744119Y-126228132D01*
X171765290Y-126225340D01*
X171775991Y-126222781D01*
X171786693Y-126219989D01*
X171797394Y-126219989D01*
X171804672Y-126228690D01*
X171839967Y-126225340D01*
X171845318Y-126214638D01*
X171850669Y-126209288D01*
X171872072Y-126209288D01*
X171885332Y-126203937D01*
X171882541Y-126214638D01*
X171882541Y-126219989D01*
X171914645Y-126219989D01*
X171960730Y-126214172D01*
X171957219Y-126203937D01*
X171994674Y-126198586D01*
X172031581Y-126202710D01*
X172031897Y-126209288D01*
X172018403Y-126212079D01*
X172000025Y-126214638D01*
X171978622Y-126219989D01*
X171987114Y-126228542D01*
X172031897Y-126225340D01*
X172101224Y-126236041D01*
X172154498Y-126246743D01*
X172158118Y-126241392D01*
X172170551Y-126241392D01*
X172186370Y-126257212D01*
X172217959Y-126273914D01*
X172223826Y-126267913D01*
X172202423Y-126249302D01*
X172170551Y-126241392D01*
X172158118Y-126241392D01*
X172159849Y-126238833D01*
X172154498Y-126225340D01*
X172154498Y-126214638D01*
X172173110Y-126206729D01*
X172223826Y-126251861D01*
X172255697Y-126273264D01*
X172252906Y-126252094D01*
X172239878Y-126225340D01*
X172261048Y-126236041D01*
X172282451Y-126246743D01*
X172287802Y-126236041D01*
X172293153Y-126236041D01*
X172303622Y-126222781D01*
X172308972Y-126225340D01*
X172314323Y-126246743D01*
X172335726Y-126251861D01*
X172346428Y-126257212D01*
X172357129Y-126262563D01*
X172351778Y-126300018D01*
X172362480Y-126300018D01*
X172389001Y-126294667D01*
X172405053Y-126305369D01*
X172405053Y-126310487D01*
X172415755Y-126316070D01*
X172405053Y-126342591D01*
X172394352Y-126363994D01*
X172404852Y-126386534D01*
X172447627Y-126411918D01*
X172485082Y-126438439D01*
X172500901Y-126449141D01*
X172516954Y-126451933D01*
X172516954Y-126454492D01*
X172516954Y-126475895D01*
X172523427Y-126503844D01*
X172511603Y-126518468D01*
X172506252Y-126529169D01*
X172500901Y-126534520D01*
X172479731Y-126550572D01*
X172463679Y-126566392D01*
X172455536Y-126587795D01*
X172431574Y-126603847D01*
X172426224Y-126619667D01*
X172415522Y-126643862D01*
X172341077Y-126635719D01*
X172239645Y-126627809D01*
X172175901Y-126630368D01*
X172159849Y-126635719D01*
X172122627Y-126646421D01*
X172047949Y-126662473D01*
X172026546Y-126667824D01*
X172015844Y-126667824D01*
X171994674Y-126672942D01*
X171957219Y-126688994D01*
X171936048Y-126699696D01*
X171898593Y-126718540D01*
X171845318Y-126731800D01*
X171866721Y-126699696D01*
X171941166Y-126646421D01*
X171994674Y-126619667D01*
X172042365Y-126595705D01*
X172074470Y-126561041D01*
X172045157Y-126553132D01*
X172005143Y-126566392D01*
X171989323Y-126577094D01*
X171922555Y-126582444D01*
X171882541Y-126593146D01*
X171863929Y-126595938D01*
X171834617Y-126598497D01*
X171771343Y-126608498D01*
X171701313Y-126641070D01*
X171648038Y-126667824D01*
X171616166Y-126678293D01*
X171568242Y-126694345D01*
X171530787Y-126705046D01*
X171498915Y-126721099D01*
X171461460Y-126734359D01*
X171445640Y-126726449D01*
X171450991Y-126705046D01*
X171477512Y-126694345D01*
X171482863Y-126686435D01*
X171477512Y-126678293D01*
X171472162Y-126683643D01*
X171461460Y-126688994D01*
X171440290Y-126694345D01*
X171376313Y-126710397D01*
X171301635Y-126737151D01*
X171259062Y-126769023D01*
X171248361Y-126779724D01*
X171243010Y-126785075D01*
X171184384Y-126809037D01*
X171136460Y-126843701D01*
X171067133Y-126875572D01*
X170981754Y-126902326D01*
X170928479Y-126918378D01*
X170845891Y-126926288D01*
X170760512Y-126928847D01*
X170704678Y-126923496D01*
X170672573Y-126913028D01*
X170608830Y-126907677D01*
X170549971Y-126918146D01*
X170523450Y-126907677D01*
X170507398Y-126886274D01*
X170518100Y-126854402D01*
X170507398Y-126849051D01*
X170491346Y-126854169D01*
X170486228Y-126849051D01*
X170475526Y-126838350D01*
X170454123Y-126822298D01*
X170448772Y-126795544D01*
X170451126Y-126774936D01*
X170438071Y-126769023D01*
X170411550Y-126769023D01*
X170379678Y-126737151D01*
X170363626Y-126694345D01*
X170361467Y-126688994D01*
X170406199Y-126688994D01*
X170416901Y-126688994D01*
X170406199Y-126678293D01*
X170406199Y-126688994D01*
X170361467Y-126688994D01*
X170352924Y-126667824D01*
X170354217Y-126651771D01*
X170379445Y-126651771D01*
X170395498Y-126657122D01*
X170406199Y-126657122D01*
X170387588Y-126638511D01*
X170419692Y-126638511D01*
X170422251Y-126657122D01*
X171514968Y-126657122D01*
X171525436Y-126662473D01*
X171536138Y-126651771D01*
X171525436Y-126649212D01*
X171514968Y-126657122D01*
X170422251Y-126657122D01*
X170432720Y-126654563D01*
X170432720Y-126630368D01*
X170427602Y-126614549D01*
X170422251Y-126619667D01*
X170419692Y-126638511D01*
X170387588Y-126638511D01*
X170384796Y-126635719D01*
X170379445Y-126651771D01*
X170354217Y-126651771D01*
X170355716Y-126633160D01*
X170358275Y-126603847D01*
X170363626Y-126598497D01*
X170368744Y-126593146D01*
X170395498Y-126587795D01*
X170398289Y-126598497D01*
X170400848Y-126614316D01*
X170406199Y-126614316D01*
X170411550Y-126577094D01*
X170407232Y-126571743D01*
X170438071Y-126571743D01*
X170448772Y-126609198D01*
X170454123Y-126625018D01*
X170454123Y-126619667D01*
X170456915Y-126609198D01*
X170459474Y-126593146D01*
X170454123Y-126545222D01*
X170448772Y-126523819D01*
X170438071Y-126571743D01*
X170407232Y-126571743D01*
X170400848Y-126563833D01*
X170384796Y-126566392D01*
X170392938Y-126537079D01*
X170422251Y-126507766D01*
X170438071Y-126475895D01*
X170470175Y-126433089D01*
X170496696Y-126395866D01*
X170528801Y-126369345D01*
X170566504Y-126337240D01*
X170603479Y-126337240D01*
X170610226Y-126344953D01*
X170613787Y-126342591D01*
X171045730Y-126342591D01*
X171051081Y-126347942D01*
X171067133Y-126331890D01*
X171061782Y-126323980D01*
X171045730Y-126342591D01*
X170613787Y-126342591D01*
X170646052Y-126321188D01*
X170688626Y-126294667D01*
X170704678Y-126283966D01*
X170710029Y-126267913D01*
X170717938Y-126254653D01*
X170704678Y-126241392D01*
X170672573Y-126252094D01*
X170656754Y-126278615D01*
X170646052Y-126294667D01*
X170619298Y-126310719D01*
X170603479Y-126337240D01*
X170566504Y-126337240D01*
X170582076Y-126323980D01*
X170598128Y-126283966D01*
X170606038Y-126273264D01*
X170619298Y-126262563D01*
X170635351Y-126241392D01*
X170656754Y-126219989D01*
X170667455Y-126209288D01*
X170715379Y-126209288D01*
X170717938Y-126214638D01*
X170731199Y-126209288D01*
X170728640Y-126198586D01*
X170715379Y-126209288D01*
X170667455Y-126209288D01*
X170693976Y-126182767D01*
X170755161Y-126148103D01*
X170762948Y-126150923D01*
X170747251Y-126172065D01*
X170741900Y-126193235D01*
X170768654Y-126177416D01*
X170792616Y-126164155D01*
X170790057Y-126172065D01*
X170790057Y-126182767D01*
X170784706Y-126193235D01*
X170776481Y-126206450D01*
X170795175Y-126203937D01*
X170837981Y-126172065D01*
X170856593Y-126150662D01*
X170859152Y-126156013D01*
X170848683Y-126166714D01*
X170843332Y-126172065D01*
X170827280Y-126187885D01*
X170805877Y-126209288D01*
X170781915Y-126225340D01*
X170757953Y-126246743D01*
X170774005Y-126241392D01*
X170811228Y-126225340D01*
X170861943Y-126193468D01*
X170876134Y-126182767D01*
X170981754Y-126182767D01*
X171003157Y-126166714D01*
X171008507Y-126150662D01*
X170992455Y-126166714D01*
X170981754Y-126182767D01*
X170876134Y-126182767D01*
X170904517Y-126161364D01*
X170923128Y-126134610D01*
X170933830Y-126124141D01*
X170944531Y-126110880D01*
X170960583Y-126092036D01*
X170971052Y-126078776D01*
X170981754Y-126065515D01*
X170992455Y-126054814D01*
X170997806Y-126044112D01*
X171003157Y-126030852D01*
X170992455Y-126022709D01*
X170965934Y-126038762D01*
X170944531Y-126049463D01*
X170928479Y-126054814D01*
X170880555Y-126081335D01*
X170853801Y-126102738D01*
X170885905Y-126060165D01*
X170909867Y-126030852D01*
X170933830Y-126006657D01*
X170939180Y-125996188D01*
X170944531Y-125990837D01*
X170912427Y-126006657D01*
X170904517Y-126017359D01*
X170896607Y-126022709D01*
X170885905Y-126028060D01*
X170880555Y-126038762D01*
X170859152Y-126060165D01*
X170832631Y-126076217D01*
X170805877Y-126097387D01*
X170750043Y-126137402D01*
X170720730Y-126145311D01*
X170733991Y-126126700D01*
X170747251Y-126108089D01*
X170779356Y-126075984D01*
X170829839Y-126030852D01*
X170843332Y-126001539D01*
X170853801Y-125990837D01*
X170867061Y-125980136D01*
X170875204Y-125969434D01*
X170960583Y-125969434D01*
X170979195Y-125956174D01*
X171003157Y-125942913D01*
X171013858Y-125953382D01*
X171003157Y-125953382D01*
X170987104Y-125958733D01*
X170981754Y-125985487D01*
X170992455Y-125980136D01*
X171008507Y-125964084D01*
X171024342Y-125957336D01*
X171008507Y-125932212D01*
X170971285Y-125942913D01*
X170960583Y-125969434D01*
X170875204Y-125969434D01*
X170885905Y-125948031D01*
X170912427Y-125926861D01*
X170923128Y-125916160D01*
X171003157Y-125916160D01*
X171008507Y-125926861D01*
X171016418Y-125918951D01*
X171045730Y-125918951D01*
X171061782Y-125926861D01*
X171072484Y-125932212D01*
X171061782Y-125932212D01*
X171056431Y-125937563D01*
X171060874Y-125945120D01*
X171083185Y-125921510D01*
X171101564Y-125897548D01*
X171077834Y-125905458D01*
X171056431Y-125916160D01*
X171045730Y-125918951D01*
X171016418Y-125918951D01*
X171019209Y-125916160D01*
X171035028Y-125905458D01*
X171077602Y-125897548D01*
X171109706Y-125873586D01*
X171117616Y-125868236D01*
X171120408Y-125873586D01*
X171120408Y-125878937D01*
X171147162Y-125857534D01*
X171189735Y-125798908D01*
X171176242Y-125790999D01*
X171152512Y-125804259D01*
X171120408Y-125825430D01*
X171099005Y-125836131D01*
X171083185Y-125852183D01*
X171035028Y-125889406D01*
X171013858Y-125905458D01*
X171003157Y-125916160D01*
X170923128Y-125916160D01*
X170928479Y-125910809D01*
X170960583Y-125873586D01*
X170997806Y-125841482D01*
X171016417Y-125820311D01*
X171056431Y-125782856D01*
X171095719Y-125740283D01*
X171237659Y-125740283D01*
X171237659Y-125756335D01*
X171264413Y-125740283D01*
X171328389Y-125687008D01*
X171384223Y-125641643D01*
X171450991Y-125580458D01*
X171539739Y-125500430D01*
X171770640Y-125500430D01*
X171775703Y-125509823D01*
X171797394Y-125495079D01*
X171802745Y-125473676D01*
X171799953Y-125471117D01*
X171797394Y-125479027D01*
X171781342Y-125489728D01*
X171770640Y-125500430D01*
X171539739Y-125500430D01*
X171557541Y-125484377D01*
X171632219Y-125420401D01*
X171644328Y-125404349D01*
X171738768Y-125404349D01*
X171749470Y-125399231D01*
X171738768Y-125393880D01*
X171738768Y-125404349D01*
X171644328Y-125404349D01*
X171672978Y-125366370D01*
X171653389Y-125351074D01*
X171629427Y-125361775D01*
X171584062Y-125404349D01*
X171538697Y-125447155D01*
X171509617Y-125479027D01*
X171456342Y-125526951D01*
X171450991Y-125532301D01*
X171440290Y-125548354D01*
X171408185Y-125585809D01*
X171352351Y-125639084D01*
X171299076Y-125689567D01*
X171269764Y-125713529D01*
X171253711Y-125729581D01*
X171248361Y-125734932D01*
X171237659Y-125740283D01*
X171095719Y-125740283D01*
X171120408Y-125713529D01*
X171157630Y-125670956D01*
X171216256Y-125612330D01*
X171232308Y-125596278D01*
X171237659Y-125590927D01*
X171245569Y-125569757D01*
X171269764Y-125559055D01*
X171280232Y-125548354D01*
X171290934Y-125532301D01*
X171296285Y-125521600D01*
X171301635Y-125505780D01*
X171328157Y-125481818D01*
X171365612Y-125441804D01*
X171408185Y-125396439D01*
X171429588Y-125377828D01*
X171440290Y-125361775D01*
X171477512Y-125308501D01*
X171536138Y-125247316D01*
X171605465Y-125170079D01*
X171664091Y-125103311D01*
X171701313Y-125063297D01*
X171749470Y-125004671D01*
X171789252Y-124967448D01*
X171834617Y-124914173D01*
X171879982Y-124852756D01*
X171936048Y-124791572D01*
X172021195Y-124690140D01*
X172138446Y-124541017D01*
X172181020Y-124482391D01*
X172247788Y-124389102D01*
X172317115Y-124287903D01*
X172367598Y-124210434D01*
X172415522Y-124127846D01*
X172436925Y-124071779D01*
X172418314Y-124058751D01*
X172394352Y-124066661D01*
X172341077Y-124082481D01*
X172306413Y-124090623D01*
X172255697Y-124109235D01*
X172223826Y-124119936D01*
X172191721Y-124135756D01*
X172149148Y-124146457D01*
X172133095Y-124157159D01*
X172090522Y-124173211D01*
X172053300Y-124194381D01*
X172042598Y-124199732D01*
X172037247Y-124199732D01*
X172005143Y-124210434D01*
X171975830Y-124223927D01*
X171946517Y-124237187D01*
X171898593Y-124258358D01*
X171847877Y-124287903D01*
X171802745Y-124306514D01*
X171759939Y-124322567D01*
X171680143Y-124359789D01*
X171602906Y-124397012D01*
X171568242Y-124418415D01*
X171560100Y-124421207D01*
X171552190Y-124423766D01*
X171498915Y-124439585D01*
X171413536Y-124460988D01*
X171370963Y-124466339D01*
X171338858Y-124477040D01*
X171245569Y-124485183D01*
X171179033Y-124466339D01*
X171173683Y-124455637D01*
X171162981Y-124439585D01*
X171131109Y-124397012D01*
X171093654Y-124349088D01*
X171040379Y-124242538D01*
X171024560Y-124205083D01*
X171035028Y-124189031D01*
X171051081Y-124178562D01*
X171099005Y-124151808D01*
X171165773Y-124098533D01*
X171261621Y-124034789D01*
X171360261Y-123973372D01*
X171440290Y-123928007D01*
X171615934Y-123837509D01*
X171754821Y-123773300D01*
X171918805Y-123720026D01*
X172159849Y-123720026D01*
X172183811Y-123728168D01*
X172239878Y-123736078D01*
X172252906Y-123733519D01*
X172237027Y-123726151D01*
X172429851Y-123726151D01*
X172447627Y-123730727D01*
X172469030Y-123730727D01*
X172452977Y-123725376D01*
X172447627Y-123725376D01*
X172442276Y-123714675D01*
X172431574Y-123714675D01*
X172429851Y-123726151D01*
X172237027Y-123726151D01*
X172223826Y-123720026D01*
X172169262Y-123712545D01*
X172159849Y-123720026D01*
X171918805Y-123720026D01*
X171983972Y-123698855D01*
X172085171Y-123677452D01*
X172181252Y-123666751D01*
X172221034Y-123664192D01*
X172250347Y-123661400D01*
X172271750Y-123666751D01*
G37*
G36*
X172463679Y-126358643D02*
G01*
X172450186Y-126369345D01*
X172436925Y-126358643D01*
X172447627Y-126350734D01*
X172463679Y-126358643D01*
G37*
G36*
X172119835Y-126214638D02*
G01*
X172111925Y-126219989D01*
X172085171Y-126219989D01*
X172066327Y-126212079D01*
X172085171Y-126209288D01*
X172119835Y-126214638D01*
G37*
G36*
X172346428Y-126209288D02*
G01*
X172335726Y-126214638D01*
X172338285Y-126198586D01*
X172346428Y-126209288D01*
G37*
G36*
X171930465Y-126212079D02*
G01*
X171914645Y-126209288D01*
X171927906Y-126201378D01*
X171946517Y-126198586D01*
X171930465Y-126212079D01*
G37*
G36*
X170843332Y-126118790D02*
G01*
X170837981Y-126129259D01*
X170837981Y-126118790D01*
X170840540Y-126110880D01*
X170843332Y-126118790D01*
G37*
G36*
X170896607Y-126102738D02*
G01*
X170885905Y-126097387D01*
X170896374Y-126094828D01*
X170896607Y-126102738D01*
G37*
G36*
X170987104Y-126060165D02*
G01*
X170973844Y-126065515D01*
X170971285Y-126060165D01*
X170984313Y-126049463D01*
X170987104Y-126060165D01*
G37*
G36*
X171389574Y-125950823D02*
G01*
X171376313Y-125953382D01*
X171386782Y-125940122D01*
X171402834Y-125932212D01*
X171389574Y-125950823D01*
G37*
G36*
X171754588Y-125646994D02*
G01*
X171717365Y-125676306D01*
X171706664Y-125692359D01*
X171693403Y-125705619D01*
X171680143Y-125713529D01*
X171674792Y-125718880D01*
X171669441Y-125718880D01*
X171744119Y-125644202D01*
X171775991Y-125623032D01*
X171754588Y-125646994D01*
G37*
G36*
X171735977Y-125694918D02*
G01*
X171717365Y-125708178D01*
X171722716Y-125697709D01*
X171733418Y-125687008D01*
X171738768Y-125681657D01*
X171735977Y-125694918D01*
G37*
D13*
G36*
X130256900Y-110912695D02*
G01*
X130243996Y-110902071D01*
X130235310Y-110886097D01*
X130232457Y-110866555D01*
X130235310Y-110617784D01*
X130243872Y-110601732D01*
X130256775Y-110591108D01*
X130272471Y-110587540D01*
X130419748Y-110587540D01*
X130438360Y-110592891D01*
X130522731Y-110647950D01*
X130604249Y-110752793D01*
X130641409Y-110845152D01*
X130645380Y-110866477D01*
X130645380Y-111051272D01*
X130641099Y-111072598D01*
X130596990Y-111179225D01*
X130522979Y-111269800D01*
X130439042Y-111324936D01*
X130310934Y-111376427D01*
X130125876Y-111376427D01*
X130003476Y-111328425D01*
X129913831Y-111269800D01*
X129839820Y-111179225D01*
X129795711Y-111072598D01*
X129791741Y-111051272D01*
X129791741Y-110866477D01*
X129795960Y-110845152D01*
X129832438Y-110752793D01*
X129912528Y-110647950D01*
X129999257Y-110591108D01*
X130014891Y-110587540D01*
X130029097Y-110591108D01*
X130050438Y-110614217D01*
X130054657Y-110637326D01*
X130051865Y-110701224D01*
X130031951Y-110727901D01*
X129963709Y-110770552D01*
X129936723Y-110804285D01*
X129906883Y-110878962D01*
X129906883Y-111038865D01*
X129936909Y-111113542D01*
X129964082Y-111149059D01*
X130029842Y-111189926D01*
X130132762Y-111230794D01*
X130304358Y-111230794D01*
X130407279Y-111189926D01*
X130473039Y-111149059D01*
X130500211Y-111113542D01*
X130530238Y-111038865D01*
X130530238Y-110878962D01*
X130500025Y-110804362D01*
X130472729Y-110770552D01*
X130412304Y-110733251D01*
X130350452Y-110733251D01*
X130347599Y-110886097D01*
X130338975Y-110902071D01*
X130324583Y-110912695D01*
X130272781Y-110916263D01*
X130256900Y-110912695D01*
G37*
G36*
X129831507Y-110364980D02*
G01*
X129810228Y-110357846D01*
X129798875Y-110345438D01*
X129791741Y-110315195D01*
X129797448Y-110290380D01*
X129808801Y-110276111D01*
X130372228Y-109767945D01*
X129832624Y-109767945D01*
X129816990Y-109762594D01*
X129804211Y-109751970D01*
X129795711Y-109735918D01*
X129792858Y-109672019D01*
X129795711Y-109652477D01*
X129804211Y-109636425D01*
X129817052Y-109625801D01*
X129832624Y-109622234D01*
X130605613Y-109622234D01*
X130626892Y-109629368D01*
X130642526Y-109652477D01*
X130645380Y-109672019D01*
X130639672Y-109696834D01*
X130628319Y-109711103D01*
X130064893Y-110219269D01*
X130604497Y-110219269D01*
X130620130Y-110224620D01*
X130632910Y-110235244D01*
X130641409Y-110251296D01*
X130644263Y-110315195D01*
X130641409Y-110334737D01*
X130632910Y-110350789D01*
X130620068Y-110361413D01*
X130604497Y-110364980D01*
X129831507Y-110364980D01*
G37*
G36*
X130434017Y-108659021D02*
G01*
X130513487Y-108708729D01*
X130597176Y-108810006D01*
X130607102Y-108829548D01*
X130645380Y-108982393D01*
X130645380Y-109303981D01*
X130641409Y-109323523D01*
X130632910Y-109339575D01*
X130620130Y-109350199D01*
X130604497Y-109353766D01*
X129832624Y-109353766D01*
X129816990Y-109350199D01*
X129804211Y-109339575D01*
X129795711Y-109323523D01*
X129794285Y-109303981D01*
X129795606Y-108991311D01*
X129910853Y-108991311D01*
X129910853Y-109209839D01*
X130526267Y-109209839D01*
X130526267Y-108991311D01*
X130495186Y-108872198D01*
X130469813Y-108838465D01*
X130404859Y-108799382D01*
X130303242Y-108756731D01*
X130133879Y-108756731D01*
X130032261Y-108799382D01*
X129967308Y-108838465D01*
X129941934Y-108872198D01*
X129910853Y-108991311D01*
X129795606Y-108991311D01*
X129795711Y-108966418D01*
X129832562Y-108829548D01*
X129842550Y-108810006D01*
X129926239Y-108708729D01*
X130005647Y-108659021D01*
X130114895Y-108612803D01*
X130312051Y-108611020D01*
X130434017Y-108659021D01*
G37*
G36*
X170834429Y-85865515D02*
G01*
X170847177Y-85849618D01*
X170866440Y-85837210D01*
X170945259Y-85833643D01*
X170968709Y-85837210D01*
X170987972Y-85849308D01*
X171000721Y-85864895D01*
X171005001Y-85944613D01*
X171083913Y-85882963D01*
X171194743Y-85837210D01*
X171220334Y-85832247D01*
X171386626Y-85832247D01*
X171414357Y-85837521D01*
X171542309Y-85895448D01*
X171578508Y-85972685D01*
X171691479Y-85882963D01*
X171802402Y-85837210D01*
X171827993Y-85832247D01*
X171994285Y-85832247D01*
X172022016Y-85837598D01*
X172130799Y-85883739D01*
X172149969Y-85896224D01*
X172162717Y-85912198D01*
X172220319Y-86066750D01*
X172220319Y-86526914D01*
X172216039Y-86546534D01*
X172203290Y-86562508D01*
X172184027Y-86573132D01*
X172105208Y-86576700D01*
X172081758Y-86573132D01*
X172062495Y-86562431D01*
X172049747Y-86546379D01*
X172045466Y-86526837D01*
X172045466Y-86077761D01*
X172004987Y-86010063D01*
X171926075Y-85976175D01*
X171842882Y-85976175D01*
X171749081Y-86015258D01*
X171612660Y-86091720D01*
X171612660Y-86525518D01*
X171608380Y-86545060D01*
X171595631Y-86561035D01*
X171576368Y-86571736D01*
X171552918Y-86576700D01*
X171497549Y-86576700D01*
X171474099Y-86573132D01*
X171454836Y-86562431D01*
X171442088Y-86546379D01*
X171437807Y-86526837D01*
X171437807Y-86077761D01*
X171397327Y-86010063D01*
X171318415Y-85976175D01*
X171235223Y-85976175D01*
X171141422Y-86015258D01*
X171005001Y-86091720D01*
X171005001Y-86525518D01*
X171000721Y-86545060D01*
X170987972Y-86561035D01*
X170968709Y-86571736D01*
X170889890Y-86575304D01*
X170866440Y-86571736D01*
X170847177Y-86561113D01*
X170834429Y-86545215D01*
X170830148Y-86525751D01*
X170830148Y-85883196D01*
X170834429Y-85865515D01*
G37*
G36*
X172547506Y-85539895D02*
G01*
X172560255Y-85523842D01*
X172579518Y-85513219D01*
X172602968Y-85509651D01*
X172679646Y-85513219D01*
X172698909Y-85523842D01*
X172711658Y-85539895D01*
X172715938Y-85559437D01*
X172715938Y-86222775D01*
X173168007Y-85848222D01*
X173187177Y-85835814D01*
X173210627Y-85832247D01*
X173263948Y-85832247D01*
X173300147Y-85842173D01*
X173319317Y-85863499D01*
X173323597Y-85881335D01*
X173319317Y-85900876D01*
X173306568Y-85916851D01*
X172986733Y-86185397D01*
X173310849Y-86494887D01*
X173321457Y-86510862D01*
X173323597Y-86530481D01*
X173319317Y-86548240D01*
X173304428Y-86564214D01*
X173263948Y-86576700D01*
X173155165Y-86576700D01*
X173129575Y-86571736D01*
X173108265Y-86559329D01*
X172846031Y-86303501D01*
X172715938Y-86410051D01*
X172715938Y-86527302D01*
X172711658Y-86546844D01*
X172698909Y-86562896D01*
X172679646Y-86571736D01*
X172656196Y-86576700D01*
X172602968Y-86576700D01*
X172579518Y-86573132D01*
X172560255Y-86562508D01*
X172547506Y-86546456D01*
X172543225Y-86526914D01*
X172543225Y-85559437D01*
X172547506Y-85539895D01*
G37*
G36*
X173540884Y-86372363D02*
G01*
X173568615Y-86345764D01*
X173589925Y-86340413D01*
X173649668Y-86340413D01*
X173690147Y-86354605D01*
X173726439Y-86404390D01*
X173826661Y-86432772D01*
X173971643Y-86432772D01*
X174071865Y-86404312D01*
X174088894Y-86379420D01*
X174088894Y-86356311D01*
X174065444Y-86320794D01*
X173739188Y-86206955D01*
X173609188Y-86150113D01*
X173540884Y-86045192D01*
X173534557Y-86022083D01*
X173540884Y-86000757D01*
X173611328Y-85892346D01*
X173796790Y-85837210D01*
X173982252Y-85833643D01*
X174165666Y-85883971D01*
X174186976Y-85892967D01*
X174255186Y-86002463D01*
X174261607Y-86020221D01*
X174259467Y-86039763D01*
X174248765Y-86055738D01*
X174225315Y-86069929D01*
X174201865Y-86073496D01*
X174125093Y-86069929D01*
X174093175Y-86046820D01*
X174071865Y-86009520D01*
X173971643Y-85981138D01*
X173826661Y-85981138D01*
X173726439Y-86009520D01*
X173717878Y-86023711D01*
X173732860Y-86048526D01*
X173786088Y-86069774D01*
X174059023Y-86161900D01*
X174189116Y-86218665D01*
X174255186Y-86323198D01*
X174261607Y-86390586D01*
X174255186Y-86413618D01*
X174186976Y-86520013D01*
X174001421Y-86576700D01*
X173796790Y-86576700D01*
X173611328Y-86519857D01*
X173540884Y-86413230D01*
X173536697Y-86391905D01*
X173540884Y-86372363D01*
G37*
G36*
X129815936Y-113882333D02*
G01*
X129803094Y-113871709D01*
X129794595Y-113855734D01*
X129791741Y-113836115D01*
X129794595Y-113770433D01*
X129803094Y-113754458D01*
X129817363Y-113743756D01*
X130385007Y-113468387D01*
X129818417Y-113192939D01*
X129804211Y-113182315D01*
X129795711Y-113166341D01*
X129792858Y-113146799D01*
X129795711Y-113082822D01*
X129804211Y-113066848D01*
X129817052Y-113054363D01*
X129831259Y-113050795D01*
X129846892Y-113054363D01*
X130619820Y-113422168D01*
X130632600Y-113432792D01*
X130642526Y-113448845D01*
X130645380Y-113466603D01*
X130642526Y-113486145D01*
X130634027Y-113502120D01*
X130621185Y-113514527D01*
X129845776Y-113882333D01*
X129831569Y-113885900D01*
X129815936Y-113882333D01*
G37*
G36*
X130220607Y-112871817D02*
G01*
X130207952Y-112861115D01*
X130199515Y-112845140D01*
X130196723Y-112825599D01*
X130196723Y-112507578D01*
X129942244Y-112507578D01*
X129926611Y-112504011D01*
X129913831Y-112493387D01*
X129905332Y-112477335D01*
X129902478Y-112411652D01*
X129905332Y-112392110D01*
X129913831Y-112376058D01*
X129926611Y-112365434D01*
X129942244Y-112361867D01*
X130196723Y-112361867D01*
X130196723Y-112043846D01*
X130199515Y-112024304D01*
X130207952Y-112008330D01*
X130220607Y-111997628D01*
X130272533Y-111994061D01*
X130287980Y-111997628D01*
X130300636Y-112008330D01*
X130309073Y-112024304D01*
X130311865Y-112043846D01*
X130311865Y-112361867D01*
X130566281Y-112361867D01*
X130581915Y-112365434D01*
X130594695Y-112376058D01*
X130603194Y-112392110D01*
X130606048Y-112457793D01*
X130603194Y-112477335D01*
X130594695Y-112493387D01*
X130581915Y-112504011D01*
X130566281Y-112507578D01*
X130311865Y-112507578D01*
X130311865Y-112825599D01*
X130309073Y-112845140D01*
X130300636Y-112861115D01*
X130287980Y-112871817D01*
X130236055Y-112875384D01*
X130220607Y-112871817D01*
G37*
D14*
X163231900Y-87869564D02*
X163231900Y-88085236D01*
X163951900Y-87869564D02*
X163951900Y-88085236D01*
X154158100Y-125087436D02*
X154158100Y-124871764D01*
X154878100Y-125087436D02*
X154878100Y-124871764D01*
X134715480Y-114455000D02*
X134434320Y-114455000D01*
X134715480Y-115475000D02*
X134434320Y-115475000D01*
X152740459Y-126377600D02*
X153047741Y-126377600D01*
X152740459Y-127137600D02*
X153047741Y-127137600D01*
X174441100Y-112511436D02*
X174441100Y-112295764D01*
X175161100Y-112511436D02*
X175161100Y-112295764D01*
X152635936Y-124038200D02*
X152420264Y-124038200D01*
X152635936Y-124758200D02*
X152420264Y-124758200D01*
X139554900Y-91835236D02*
X139554900Y-91619564D01*
X140274900Y-91835236D02*
X140274900Y-91619564D01*
X174441100Y-118911436D02*
X174441100Y-118695764D01*
X175161100Y-118911436D02*
X175161100Y-118695764D01*
X159827059Y-126498000D02*
X160134341Y-126498000D01*
X159827059Y-127258000D02*
X160134341Y-127258000D01*
X157741100Y-125214436D02*
X157741100Y-124998764D01*
X158461100Y-125214436D02*
X158461100Y-124998764D01*
X158844900Y-87119564D02*
X158844900Y-87335236D01*
X159564900Y-87119564D02*
X159564900Y-87335236D01*
D12*
X147418100Y-89492600D02*
X147418100Y-89492600D01*
X147518100Y-89492600D02*
X147518100Y-89492600D01*
X147418100Y-89492600D02*
G75*
G02*
X147518100Y-89492600I50000J0D01*
G01*
X147518100Y-89492600D02*
G75*
G02*
X147418100Y-89492600I-50000J0D01*
G01*
X132724900Y-82127400D02*
X138324900Y-82127400D01*
X132724900Y-84127400D02*
X138324900Y-84127400D01*
D14*
X156725100Y-124998764D02*
X156725100Y-125214436D01*
X157445100Y-124998764D02*
X157445100Y-125214436D01*
X159168900Y-125327359D02*
X159168900Y-125634641D01*
X159928900Y-125327359D02*
X159928900Y-125634641D01*
X141764900Y-85485236D02*
X141764900Y-85269564D01*
X142484900Y-85485236D02*
X142484900Y-85269564D01*
D15*
X143693100Y-94167600D02*
X144593100Y-93267600D01*
X143693100Y-121067600D02*
X143693100Y-94167600D01*
X144593100Y-93267600D02*
X171493100Y-93267600D01*
X171493100Y-93267600D02*
X171493100Y-121067600D01*
X171493100Y-121067600D02*
X143693100Y-121067600D01*
D14*
X165964459Y-89512600D02*
X166271741Y-89512600D01*
X165964459Y-90272600D02*
X166271741Y-90272600D01*
X131454900Y-117666148D02*
X131454900Y-118188652D01*
X133674900Y-117666148D02*
X133674900Y-118188652D01*
X149994100Y-125468436D02*
X149994100Y-125252764D01*
X150714100Y-125468436D02*
X150714100Y-125252764D01*
X174441100Y-106495764D02*
X174441100Y-106711436D01*
X175161100Y-106495764D02*
X175161100Y-106711436D01*
X127611259Y-117947400D02*
X127918541Y-117947400D01*
X127611259Y-118707400D02*
X127918541Y-118707400D01*
X130214900Y-94267400D02*
X131624900Y-94267400D01*
X130224900Y-96587400D02*
X131624900Y-96587400D01*
X129844900Y-94317400D02*
X129604900Y-93987400D01*
X130084900Y-93987400D01*
X129844900Y-94317400D01*
G36*
X129844900Y-94317400D02*
G01*
X129604900Y-93987400D01*
X130084900Y-93987400D01*
X129844900Y-94317400D01*
G37*
X133514900Y-106086820D02*
X133514900Y-106367980D01*
X134534900Y-106086820D02*
X134534900Y-106367980D01*
X126504900Y-119835236D02*
X126504900Y-119619564D01*
X127224900Y-119835236D02*
X127224900Y-119619564D01*
X150254900Y-87119564D02*
X150254900Y-87335236D01*
X150974900Y-87119564D02*
X150974900Y-87335236D01*
X146692100Y-125468436D02*
X146692100Y-125252764D01*
X147412100Y-125468436D02*
X147412100Y-125252764D01*
X149471259Y-88247400D02*
X149778541Y-88247400D01*
X149471259Y-89007400D02*
X149778541Y-89007400D01*
X132421259Y-111847400D02*
X132728541Y-111847400D01*
X132421259Y-112607400D02*
X132728541Y-112607400D01*
X148724100Y-125252764D02*
X148724100Y-125468436D01*
X149444100Y-125252764D02*
X149444100Y-125468436D01*
X156372659Y-126961800D02*
X156679941Y-126961800D01*
X156372659Y-127721800D02*
X156679941Y-127721800D01*
X134448016Y-97027400D02*
X134783892Y-96691524D01*
X134783892Y-97363276D02*
X134448016Y-97027400D01*
X136389024Y-95086392D02*
X136555194Y-94920222D01*
X136389024Y-98968408D02*
X136724900Y-99304284D01*
X136724900Y-99304284D02*
X137060776Y-98968408D01*
X137060776Y-95086392D02*
X136937032Y-94962648D01*
X138665908Y-96691524D02*
X139001784Y-97027400D01*
X139001784Y-97027400D02*
X138665908Y-97363276D01*
X137127951Y-94686877D02*
X136724900Y-94750516D01*
X136788540Y-94347465D01*
X137127951Y-94686877D01*
G36*
X137127951Y-94686877D02*
G01*
X136724900Y-94750516D01*
X136788540Y-94347465D01*
X137127951Y-94686877D01*
G37*
D16*
X146560100Y-82021600D02*
X146560100Y-84561600D01*
X146560100Y-84561600D02*
X171960100Y-84561600D01*
X171960100Y-82021600D02*
X146560100Y-82021600D01*
X171960100Y-84561600D02*
X171960100Y-82021600D01*
D14*
X127174900Y-87047400D02*
X127674900Y-87047400D01*
X127174900Y-89407400D02*
X127674900Y-89407400D01*
X140041100Y-109695764D02*
X140041100Y-109911436D01*
X140761100Y-109695764D02*
X140761100Y-109911436D01*
X127938100Y-96646241D02*
X127938100Y-96338959D01*
X128698100Y-96646241D02*
X128698100Y-96338959D01*
X145090264Y-86232600D02*
X145305936Y-86232600D01*
X145090264Y-86952600D02*
X145305936Y-86952600D01*
X158061259Y-88247400D02*
X158368541Y-88247400D01*
X158061259Y-89007400D02*
X158368541Y-89007400D01*
X153143936Y-89643600D02*
X152928264Y-89643600D01*
X153143936Y-90363600D02*
X152928264Y-90363600D01*
D17*
X126664900Y-116227400D02*
X126664900Y-116227400D01*
X126664900Y-116427400D02*
X126664900Y-116427400D01*
X126664900Y-116227400D02*
G75*
G02*
X126664900Y-116427400I0J-100000D01*
G01*
X126664900Y-116427400D02*
G75*
G02*
X126664900Y-116227400I0J100000D01*
G01*
D14*
X126838100Y-96646241D02*
X126838100Y-96338959D01*
X127598100Y-96646241D02*
X127598100Y-96338959D01*
X157721100Y-127038241D02*
X157721100Y-126730959D01*
X158481100Y-127038241D02*
X158481100Y-126730959D01*
X140041100Y-96295764D02*
X140041100Y-96511436D01*
X140761100Y-96295764D02*
X140761100Y-96511436D01*
X134339900Y-110466148D02*
X134339900Y-110988652D01*
X135809900Y-110466148D02*
X135809900Y-110988652D01*
X154138100Y-126911241D02*
X154138100Y-126603959D01*
X154898100Y-126911241D02*
X154898100Y-126603959D01*
X129529900Y-116566148D02*
X129529900Y-117088652D01*
X130999900Y-116566148D02*
X130999900Y-117088652D01*
X134518584Y-113100656D02*
X134306189Y-113063205D01*
X134643611Y-112391595D02*
X134431216Y-112354144D01*
X140041100Y-116295764D02*
X140041100Y-116511436D01*
X140761100Y-116295764D02*
X140761100Y-116511436D01*
X174441100Y-99511436D02*
X174441100Y-99295764D01*
X175161100Y-99511436D02*
X175161100Y-99295764D01*
X140041100Y-104495764D02*
X140041100Y-104711436D01*
X140761100Y-104495764D02*
X140761100Y-104711436D01*
X142964900Y-122435236D02*
X142964900Y-122219564D01*
X143684900Y-122435236D02*
X143684900Y-122219564D01*
X138307064Y-89167400D02*
X138522736Y-89167400D01*
X138307064Y-89887400D02*
X138522736Y-89887400D01*
X169410264Y-89643600D02*
X169625936Y-89643600D01*
X169410264Y-90363600D02*
X169625936Y-90363600D01*
X155689100Y-124952959D02*
X155689100Y-125260241D01*
X156449100Y-124952959D02*
X156449100Y-125260241D01*
X131314900Y-113735236D02*
X131314900Y-113519564D01*
X132034900Y-113735236D02*
X132034900Y-113519564D01*
X140041100Y-101895764D02*
X140041100Y-102111436D01*
X140761100Y-101895764D02*
X140761100Y-102111436D01*
X145117064Y-83967400D02*
X145332736Y-83967400D01*
X145117064Y-84687400D02*
X145332736Y-84687400D01*
X132194900Y-113781041D02*
X132194900Y-113473759D01*
X132954900Y-113781041D02*
X132954900Y-113473759D01*
X129905480Y-120555000D02*
X129624320Y-120555000D01*
X129905480Y-121575000D02*
X129624320Y-121575000D01*
X127384900Y-119881041D02*
X127384900Y-119573759D01*
X128144900Y-119881041D02*
X128144900Y-119573759D01*
D17*
X140899900Y-89427400D02*
X140899900Y-88427400D01*
X141124900Y-87877400D02*
X143124900Y-87877400D01*
X141124900Y-88077400D02*
X141124900Y-87877400D01*
X143124900Y-87877400D02*
X143124900Y-88077400D01*
X143124900Y-88077400D02*
X141124900Y-88077400D01*
D14*
X129905480Y-119417400D02*
X129624320Y-119417400D01*
X129905480Y-120437400D02*
X129624320Y-120437400D01*
X133113495Y-85851860D02*
X133039730Y-85649195D01*
X133790070Y-85605605D02*
X133716305Y-85402940D01*
D16*
X126854900Y-108887400D02*
X129394900Y-108887400D01*
X126854900Y-113967400D02*
X126854900Y-108887400D01*
X129394900Y-108887400D02*
X129394900Y-113967400D01*
X129394900Y-113967400D02*
X126854900Y-113967400D01*
D14*
X137467064Y-87979900D02*
X137682736Y-87979900D01*
X137467064Y-88699900D02*
X137682736Y-88699900D01*
X139415264Y-119611600D02*
X139630936Y-119611600D01*
X139415264Y-120331600D02*
X139630936Y-120331600D01*
X147688100Y-125514241D02*
X147688100Y-125206959D01*
X148448100Y-125514241D02*
X148448100Y-125206959D01*
X156445936Y-89643600D02*
X156230264Y-89643600D01*
X156445936Y-90363600D02*
X156230264Y-90363600D01*
X161777864Y-126543400D02*
X161993536Y-126543400D01*
X161777864Y-127263400D02*
X161993536Y-127263400D01*
D12*
X137624900Y-114427400D02*
X137624900Y-114427400D01*
X137624900Y-114527400D02*
X137624900Y-114527400D01*
X137624900Y-114427400D02*
G75*
G02*
X137624900Y-114527400I0J-50000D01*
G01*
X137624900Y-114527400D02*
G75*
G02*
X137624900Y-114427400I0J50000D01*
G01*
D14*
X154444900Y-87119564D02*
X154444900Y-87335236D01*
X155164900Y-87119564D02*
X155164900Y-87335236D01*
D13*
X125573050Y-98430000D02*
X125573050Y-107624800D01*
X125573050Y-107624800D02*
X126411250Y-107624800D01*
X126411250Y-98430000D02*
X125573050Y-98430000D01*
X129205250Y-107624800D02*
X130627650Y-107624800D01*
X130627650Y-98430000D02*
X129205250Y-98430000D01*
D14*
X134715480Y-113317400D02*
X134434320Y-113317400D01*
X134715480Y-114337400D02*
X134434320Y-114337400D01*
X139523100Y-120647600D02*
X138023100Y-120647600D01*
X139523100Y-120647600D02*
X141023100Y-120647600D01*
X139523100Y-123867600D02*
X138023100Y-123867600D01*
X139523100Y-123867600D02*
X141023100Y-123867600D01*
X137310600Y-120822600D02*
X137070600Y-120492600D01*
X137550600Y-120492600D01*
X137310600Y-120822600D01*
G36*
X137310600Y-120822600D02*
G01*
X137070600Y-120492600D01*
X137550600Y-120492600D01*
X137310600Y-120822600D01*
G37*
D17*
X131474900Y-110127400D02*
X131474900Y-110127400D01*
X131474900Y-110327400D02*
X131474900Y-110327400D01*
X131474900Y-110127400D02*
G75*
G02*
X131474900Y-110327400I0J-100000D01*
G01*
X131474900Y-110327400D02*
G75*
G02*
X131474900Y-110127400I0J100000D01*
G01*
D14*
X129708584Y-119200656D02*
X129496189Y-119163205D01*
X129833611Y-118491595D02*
X129621216Y-118454144D01*
X172935941Y-121976800D02*
X172628659Y-121976800D01*
X172935941Y-122736800D02*
X172628659Y-122736800D01*
D16*
X127240100Y-125455600D02*
X145020100Y-125455600D01*
X127240100Y-127995600D02*
X127240100Y-125455600D01*
X145020100Y-125455600D02*
X145020100Y-127995600D01*
X145020100Y-127995600D02*
X127240100Y-127995600D01*
D17*
X128670100Y-128725600D02*
G75*
G02*
X128470100Y-128725600I-100000J0D01*
G01*
X128470100Y-128725600D02*
G75*
G02*
X128670100Y-128725600I100000J0D01*
G01*
D14*
X153661259Y-88247400D02*
X153968541Y-88247400D01*
X153661259Y-89007400D02*
X153968541Y-89007400D01*
X136264900Y-111566148D02*
X136264900Y-112088652D01*
X138484900Y-111566148D02*
X138484900Y-112088652D01*
X127674900Y-90147400D02*
X127174900Y-90147400D01*
X127674900Y-92507400D02*
X127174900Y-92507400D01*
X149279459Y-89623600D02*
X149586741Y-89623600D01*
X149279459Y-90383600D02*
X149586741Y-90383600D01*
X133936593Y-98858210D02*
X133784090Y-98705707D01*
X134445710Y-98349093D02*
X134293207Y-98196590D01*
X167731900Y-88098436D02*
X167731900Y-87882764D01*
X168451900Y-88098436D02*
X168451900Y-87882764D01*
X145071259Y-84947400D02*
X145378541Y-84947400D01*
X145071259Y-85707400D02*
X145378541Y-85707400D01*
X145044459Y-87212600D02*
X145351741Y-87212600D01*
X145044459Y-87972600D02*
X145351741Y-87972600D01*
X161906936Y-123809600D02*
X161691264Y-123809600D01*
X161906936Y-124529600D02*
X161691264Y-124529600D01*
X134519090Y-94874093D02*
X134671593Y-94721590D01*
X135028207Y-95383210D02*
X135180710Y-95230707D01*
X157812736Y-86267400D02*
X157597064Y-86267400D01*
X157812736Y-86987400D02*
X157597064Y-86987400D01*
X130114900Y-87467400D02*
X130589900Y-87467400D01*
X130114900Y-87942400D02*
X130114900Y-87467400D01*
X130114900Y-92212400D02*
X130114900Y-92687400D01*
X130114900Y-92687400D02*
X130589900Y-92687400D01*
X134859900Y-87467400D02*
X135094900Y-87467400D01*
X135334900Y-87942400D02*
X135334900Y-87767400D01*
X135334900Y-92212400D02*
X135334900Y-92687400D01*
X135334900Y-92687400D02*
X134859900Y-92687400D01*
X135664900Y-87707400D02*
X135334900Y-87467400D01*
X135664900Y-87227400D01*
X135664900Y-87707400D01*
G36*
X135664900Y-87707400D02*
G01*
X135334900Y-87467400D01*
X135664900Y-87227400D01*
X135664900Y-87707400D01*
G37*
X153412736Y-86267400D02*
X153197064Y-86267400D01*
X153412736Y-86987400D02*
X153197064Y-86987400D01*
X137834320Y-86729900D02*
X138115480Y-86729900D01*
X137834320Y-87749900D02*
X138115480Y-87749900D01*
X149222736Y-86267400D02*
X149007064Y-86267400D01*
X149222736Y-86987400D02*
X149007064Y-86987400D01*
M02*
