%TF.GenerationSoftware,KiCad,Pcbnew,8.99.0-2608-ga0707285a1*%
%TF.CreationDate,2024-10-22T09:16:20-04:00*%
%TF.ProjectId,shinobi,7368696e-6f62-4692-9e6b-696361645f70,rev?*%
%TF.SameCoordinates,Original*%
%TF.FileFunction,Soldermask,Bot*%
%TF.FilePolarity,Negative*%
%FSLAX46Y46*%
G04 Gerber Fmt 4.6, Leading zero omitted, Abs format (unit mm)*
G04 Created by KiCad (PCBNEW 8.99.0-2608-ga0707285a1) date 2024-10-22 09:16:20*
%MOMM*%
%LPD*%
G01*
G04 APERTURE LIST*
%ADD10R,1.584000X1.584000*%
%ADD11C,1.584000*%
G04 APERTURE END LIST*
D10*
X147830100Y-83291600D03*
D11*
X150370100Y-83291600D03*
X152910100Y-83291600D03*
X155450100Y-83291600D03*
X157990100Y-83291600D03*
X160530100Y-83291600D03*
X163070100Y-83291600D03*
X165610100Y-83291600D03*
X168150100Y-83291600D03*
X170690100Y-83291600D03*
D10*
X128124900Y-112697400D03*
D11*
X128124900Y-110157400D03*
G36*
G01*
X127006450Y-98707400D02*
X127006450Y-98707400D01*
G75*
G02*
X127506450Y-98207400I500000J0D01*
G01*
X128106450Y-98207400D01*
G75*
G02*
X128606450Y-98707400I0J-500000D01*
G01*
X128606450Y-98707400D01*
G75*
G02*
X128106450Y-99207400I-500000J0D01*
G01*
X127506450Y-99207400D01*
G75*
G02*
X127006450Y-98707400I0J500000D01*
G01*
G37*
G36*
G01*
X127006450Y-107347400D02*
X127006450Y-107347400D01*
G75*
G02*
X127506450Y-106847400I500000J0D01*
G01*
X128106450Y-106847400D01*
G75*
G02*
X128606450Y-107347400I0J-500000D01*
G01*
X128606450Y-107347400D01*
G75*
G02*
X128106450Y-107847400I-500000J0D01*
G01*
X127506450Y-107847400D01*
G75*
G02*
X127006450Y-107347400I0J500000D01*
G01*
G37*
G36*
G01*
X130756450Y-98707400D02*
X130756450Y-98707400D01*
G75*
G02*
X131256450Y-98207400I500000J0D01*
G01*
X132356450Y-98207400D01*
G75*
G02*
X132856450Y-98707400I0J-500000D01*
G01*
X132856450Y-98707400D01*
G75*
G02*
X132356450Y-99207400I-500000J0D01*
G01*
X131256450Y-99207400D01*
G75*
G02*
X130756450Y-98707400I0J500000D01*
G01*
G37*
G36*
G01*
X130756450Y-107347400D02*
X130756450Y-107347400D01*
G75*
G02*
X131256450Y-106847400I500000J0D01*
G01*
X132356450Y-106847400D01*
G75*
G02*
X132856450Y-107347400I0J-500000D01*
G01*
X132856450Y-107347400D01*
G75*
G02*
X132356450Y-107847400I-500000J0D01*
G01*
X131256450Y-107847400D01*
G75*
G02*
X130756450Y-107347400I0J500000D01*
G01*
G37*
D10*
X128510100Y-126725600D03*
D11*
X131050100Y-126725600D03*
X133590100Y-126725600D03*
X136130100Y-126725600D03*
X138670100Y-126725600D03*
X141210100Y-126725600D03*
X143750100Y-126725600D03*
G36*
G01*
X150513100Y-103609600D02*
X150173100Y-103609600D01*
G75*
G02*
X150033100Y-103469600I0J140000D01*
G01*
X150033100Y-103189600D01*
G75*
G02*
X150173100Y-103049600I140000J0D01*
G01*
X150513100Y-103049600D01*
G75*
G02*
X150653100Y-103189600I0J-140000D01*
G01*
X150653100Y-103469600D01*
G75*
G02*
X150513100Y-103609600I-140000J0D01*
G01*
G37*
G36*
G01*
X150513100Y-102649600D02*
X150173100Y-102649600D01*
G75*
G02*
X150033100Y-102509600I0J140000D01*
G01*
X150033100Y-102229600D01*
G75*
G02*
X150173100Y-102089600I140000J0D01*
G01*
X150513100Y-102089600D01*
G75*
G02*
X150653100Y-102229600I0J-140000D01*
G01*
X150653100Y-102509600D01*
G75*
G02*
X150513100Y-102649600I-140000J0D01*
G01*
G37*
G36*
G01*
X164631100Y-111743600D02*
X164971100Y-111743600D01*
G75*
G02*
X165111100Y-111883600I0J-140000D01*
G01*
X165111100Y-112163600D01*
G75*
G02*
X164971100Y-112303600I-140000J0D01*
G01*
X164631100Y-112303600D01*
G75*
G02*
X164491100Y-112163600I0J140000D01*
G01*
X164491100Y-111883600D01*
G75*
G02*
X164631100Y-111743600I140000J0D01*
G01*
G37*
G36*
G01*
X164631100Y-112703600D02*
X164971100Y-112703600D01*
G75*
G02*
X165111100Y-112843600I0J-140000D01*
G01*
X165111100Y-113123600D01*
G75*
G02*
X164971100Y-113263600I-140000J0D01*
G01*
X164631100Y-113263600D01*
G75*
G02*
X164491100Y-113123600I0J140000D01*
G01*
X164491100Y-112843600D01*
G75*
G02*
X164631100Y-112703600I140000J0D01*
G01*
G37*
G36*
G01*
X150173100Y-97517600D02*
X150513100Y-97517600D01*
G75*
G02*
X150653100Y-97657600I0J-140000D01*
G01*
X150653100Y-97937600D01*
G75*
G02*
X150513100Y-98077600I-140000J0D01*
G01*
X150173100Y-98077600D01*
G75*
G02*
X150033100Y-97937600I0J140000D01*
G01*
X150033100Y-97657600D01*
G75*
G02*
X150173100Y-97517600I140000J0D01*
G01*
G37*
G36*
G01*
X150173100Y-98477600D02*
X150513100Y-98477600D01*
G75*
G02*
X150653100Y-98617600I0J-140000D01*
G01*
X150653100Y-98897600D01*
G75*
G02*
X150513100Y-99037600I-140000J0D01*
G01*
X150173100Y-99037600D01*
G75*
G02*
X150033100Y-98897600I0J140000D01*
G01*
X150033100Y-98617600D01*
G75*
G02*
X150173100Y-98477600I140000J0D01*
G01*
G37*
G36*
G01*
X157098100Y-121202600D02*
X157438100Y-121202600D01*
G75*
G02*
X157578100Y-121342600I0J-140000D01*
G01*
X157578100Y-121622600D01*
G75*
G02*
X157438100Y-121762600I-140000J0D01*
G01*
X157098100Y-121762600D01*
G75*
G02*
X156958100Y-121622600I0J140000D01*
G01*
X156958100Y-121342600D01*
G75*
G02*
X157098100Y-121202600I140000J0D01*
G01*
G37*
G36*
G01*
X157098100Y-122162600D02*
X157438100Y-122162600D01*
G75*
G02*
X157578100Y-122302600I0J-140000D01*
G01*
X157578100Y-122582600D01*
G75*
G02*
X157438100Y-122722600I-140000J0D01*
G01*
X157098100Y-122722600D01*
G75*
G02*
X156958100Y-122582600I0J140000D01*
G01*
X156958100Y-122302600D01*
G75*
G02*
X157098100Y-122162600I140000J0D01*
G01*
G37*
G36*
G01*
X164631100Y-108943600D02*
X164971100Y-108943600D01*
G75*
G02*
X165111100Y-109083600I0J-140000D01*
G01*
X165111100Y-109363600D01*
G75*
G02*
X164971100Y-109503600I-140000J0D01*
G01*
X164631100Y-109503600D01*
G75*
G02*
X164491100Y-109363600I0J140000D01*
G01*
X164491100Y-109083600D01*
G75*
G02*
X164631100Y-108943600I140000J0D01*
G01*
G37*
G36*
G01*
X164631100Y-109903600D02*
X164971100Y-109903600D01*
G75*
G02*
X165111100Y-110043600I0J-140000D01*
G01*
X165111100Y-110323600D01*
G75*
G02*
X164971100Y-110463600I-140000J0D01*
G01*
X164631100Y-110463600D01*
G75*
G02*
X164491100Y-110323600I0J140000D01*
G01*
X164491100Y-110043600D01*
G75*
G02*
X164631100Y-109903600I140000J0D01*
G01*
G37*
G36*
G01*
X164971100Y-102063600D02*
X164631100Y-102063600D01*
G75*
G02*
X164491100Y-101923600I0J140000D01*
G01*
X164491100Y-101643600D01*
G75*
G02*
X164631100Y-101503600I140000J0D01*
G01*
X164971100Y-101503600D01*
G75*
G02*
X165111100Y-101643600I0J-140000D01*
G01*
X165111100Y-101923600D01*
G75*
G02*
X164971100Y-102063600I-140000J0D01*
G01*
G37*
G36*
G01*
X164971100Y-101103600D02*
X164631100Y-101103600D01*
G75*
G02*
X164491100Y-100963600I0J140000D01*
G01*
X164491100Y-100683600D01*
G75*
G02*
X164631100Y-100543600I140000J0D01*
G01*
X164971100Y-100543600D01*
G75*
G02*
X165111100Y-100683600I0J-140000D01*
G01*
X165111100Y-100963600D01*
G75*
G02*
X164971100Y-101103600I-140000J0D01*
G01*
G37*
G36*
G01*
X150513100Y-116563600D02*
X150173100Y-116563600D01*
G75*
G02*
X150033100Y-116423600I0J140000D01*
G01*
X150033100Y-116143600D01*
G75*
G02*
X150173100Y-116003600I140000J0D01*
G01*
X150513100Y-116003600D01*
G75*
G02*
X150653100Y-116143600I0J-140000D01*
G01*
X150653100Y-116423600D01*
G75*
G02*
X150513100Y-116563600I-140000J0D01*
G01*
G37*
G36*
G01*
X150513100Y-115603600D02*
X150173100Y-115603600D01*
G75*
G02*
X150033100Y-115463600I0J140000D01*
G01*
X150033100Y-115183600D01*
G75*
G02*
X150173100Y-115043600I140000J0D01*
G01*
X150513100Y-115043600D01*
G75*
G02*
X150653100Y-115183600I0J-140000D01*
G01*
X150653100Y-115463600D01*
G75*
G02*
X150513100Y-115603600I-140000J0D01*
G01*
G37*
G36*
G01*
X149298100Y-121202600D02*
X149638100Y-121202600D01*
G75*
G02*
X149778100Y-121342600I0J-140000D01*
G01*
X149778100Y-121622600D01*
G75*
G02*
X149638100Y-121762600I-140000J0D01*
G01*
X149298100Y-121762600D01*
G75*
G02*
X149158100Y-121622600I0J140000D01*
G01*
X149158100Y-121342600D01*
G75*
G02*
X149298100Y-121202600I140000J0D01*
G01*
G37*
G36*
G01*
X149298100Y-122162600D02*
X149638100Y-122162600D01*
G75*
G02*
X149778100Y-122302600I0J-140000D01*
G01*
X149778100Y-122582600D01*
G75*
G02*
X149638100Y-122722600I-140000J0D01*
G01*
X149298100Y-122722600D01*
G75*
G02*
X149158100Y-122582600I0J140000D01*
G01*
X149158100Y-122302600D01*
G75*
G02*
X149298100Y-122162600I140000J0D01*
G01*
G37*
G36*
G01*
X164971100Y-99063600D02*
X164631100Y-99063600D01*
G75*
G02*
X164491100Y-98923600I0J140000D01*
G01*
X164491100Y-98643600D01*
G75*
G02*
X164631100Y-98503600I140000J0D01*
G01*
X164971100Y-98503600D01*
G75*
G02*
X165111100Y-98643600I0J-140000D01*
G01*
X165111100Y-98923600D01*
G75*
G02*
X164971100Y-99063600I-140000J0D01*
G01*
G37*
G36*
G01*
X164971100Y-98103600D02*
X164631100Y-98103600D01*
G75*
G02*
X164491100Y-97963600I0J140000D01*
G01*
X164491100Y-97683600D01*
G75*
G02*
X164631100Y-97543600I140000J0D01*
G01*
X164971100Y-97543600D01*
G75*
G02*
X165111100Y-97683600I0J-140000D01*
G01*
X165111100Y-97963600D01*
G75*
G02*
X164971100Y-98103600I-140000J0D01*
G01*
G37*
G36*
G01*
X151248100Y-121202600D02*
X151588100Y-121202600D01*
G75*
G02*
X151728100Y-121342600I0J-140000D01*
G01*
X151728100Y-121622600D01*
G75*
G02*
X151588100Y-121762600I-140000J0D01*
G01*
X151248100Y-121762600D01*
G75*
G02*
X151108100Y-121622600I0J140000D01*
G01*
X151108100Y-121342600D01*
G75*
G02*
X151248100Y-121202600I140000J0D01*
G01*
G37*
G36*
G01*
X151248100Y-122162600D02*
X151588100Y-122162600D01*
G75*
G02*
X151728100Y-122302600I0J-140000D01*
G01*
X151728100Y-122582600D01*
G75*
G02*
X151588100Y-122722600I-140000J0D01*
G01*
X151248100Y-122722600D01*
G75*
G02*
X151108100Y-122582600I0J140000D01*
G01*
X151108100Y-122302600D01*
G75*
G02*
X151248100Y-122162600I140000J0D01*
G01*
G37*
G36*
G01*
X150173100Y-110725600D02*
X150513100Y-110725600D01*
G75*
G02*
X150653100Y-110865600I0J-140000D01*
G01*
X150653100Y-111145600D01*
G75*
G02*
X150513100Y-111285600I-140000J0D01*
G01*
X150173100Y-111285600D01*
G75*
G02*
X150033100Y-111145600I0J140000D01*
G01*
X150033100Y-110865600D01*
G75*
G02*
X150173100Y-110725600I140000J0D01*
G01*
G37*
G36*
G01*
X150173100Y-111685600D02*
X150513100Y-111685600D01*
G75*
G02*
X150653100Y-111825600I0J-140000D01*
G01*
X150653100Y-112105600D01*
G75*
G02*
X150513100Y-112245600I-140000J0D01*
G01*
X150173100Y-112245600D01*
G75*
G02*
X150033100Y-112105600I0J140000D01*
G01*
X150033100Y-111825600D01*
G75*
G02*
X150173100Y-111685600I140000J0D01*
G01*
G37*
G36*
G01*
X151239850Y-117731100D02*
X151239850Y-117604100D01*
G75*
G02*
X151316050Y-117527900I76200J0D01*
G01*
X152370150Y-117527900D01*
G75*
G02*
X152446350Y-117604100I0J-76200D01*
G01*
X152446350Y-117731100D01*
G75*
G02*
X152370150Y-117807300I-76200J0D01*
G01*
X151316050Y-117807300D01*
G75*
G02*
X151239850Y-117731100I0J76200D01*
G01*
G37*
G36*
G01*
X151239850Y-117231100D02*
X151239850Y-117104100D01*
G75*
G02*
X151316050Y-117027900I76200J0D01*
G01*
X152370150Y-117027900D01*
G75*
G02*
X152446350Y-117104100I0J-76200D01*
G01*
X152446350Y-117231100D01*
G75*
G02*
X152370150Y-117307300I-76200J0D01*
G01*
X151316050Y-117307300D01*
G75*
G02*
X151239850Y-117231100I0J76200D01*
G01*
G37*
G36*
G01*
X151239850Y-116731100D02*
X151239850Y-116604100D01*
G75*
G02*
X151316050Y-116527900I76200J0D01*
G01*
X152370150Y-116527900D01*
G75*
G02*
X152446350Y-116604100I0J-76200D01*
G01*
X152446350Y-116731100D01*
G75*
G02*
X152370150Y-116807300I-76200J0D01*
G01*
X151316050Y-116807300D01*
G75*
G02*
X151239850Y-116731100I0J76200D01*
G01*
G37*
G36*
G01*
X151239850Y-116231100D02*
X151239850Y-116104100D01*
G75*
G02*
X151316050Y-116027900I76200J0D01*
G01*
X152370150Y-116027900D01*
G75*
G02*
X152446350Y-116104100I0J-76200D01*
G01*
X152446350Y-116231100D01*
G75*
G02*
X152370150Y-116307300I-76200J0D01*
G01*
X151316050Y-116307300D01*
G75*
G02*
X151239850Y-116231100I0J76200D01*
G01*
G37*
G36*
G01*
X151239850Y-115731100D02*
X151239850Y-115604100D01*
G75*
G02*
X151316050Y-115527900I76200J0D01*
G01*
X152370150Y-115527900D01*
G75*
G02*
X152446350Y-115604100I0J-76200D01*
G01*
X152446350Y-115731100D01*
G75*
G02*
X152370150Y-115807300I-76200J0D01*
G01*
X151316050Y-115807300D01*
G75*
G02*
X151239850Y-115731100I0J76200D01*
G01*
G37*
G36*
G01*
X151239850Y-115231100D02*
X151239850Y-115104100D01*
G75*
G02*
X151316050Y-115027900I76200J0D01*
G01*
X152370150Y-115027900D01*
G75*
G02*
X152446350Y-115104100I0J-76200D01*
G01*
X152446350Y-115231100D01*
G75*
G02*
X152370150Y-115307300I-76200J0D01*
G01*
X151316050Y-115307300D01*
G75*
G02*
X151239850Y-115231100I0J76200D01*
G01*
G37*
G36*
G01*
X151239850Y-114731100D02*
X151239850Y-114604100D01*
G75*
G02*
X151316050Y-114527900I76200J0D01*
G01*
X152370150Y-114527900D01*
G75*
G02*
X152446350Y-114604100I0J-76200D01*
G01*
X152446350Y-114731100D01*
G75*
G02*
X152370150Y-114807300I-76200J0D01*
G01*
X151316050Y-114807300D01*
G75*
G02*
X151239850Y-114731100I0J76200D01*
G01*
G37*
G36*
G01*
X151239850Y-114231100D02*
X151239850Y-114104100D01*
G75*
G02*
X151316050Y-114027900I76200J0D01*
G01*
X152370150Y-114027900D01*
G75*
G02*
X152446350Y-114104100I0J-76200D01*
G01*
X152446350Y-114231100D01*
G75*
G02*
X152370150Y-114307300I-76200J0D01*
G01*
X151316050Y-114307300D01*
G75*
G02*
X151239850Y-114231100I0J76200D01*
G01*
G37*
G36*
G01*
X151239850Y-113731100D02*
X151239850Y-113604100D01*
G75*
G02*
X151316050Y-113527900I76200J0D01*
G01*
X152370150Y-113527900D01*
G75*
G02*
X152446350Y-113604100I0J-76200D01*
G01*
X152446350Y-113731100D01*
G75*
G02*
X152370150Y-113807300I-76200J0D01*
G01*
X151316050Y-113807300D01*
G75*
G02*
X151239850Y-113731100I0J76200D01*
G01*
G37*
G36*
G01*
X151239850Y-113231100D02*
X151239850Y-113104100D01*
G75*
G02*
X151316050Y-113027900I76200J0D01*
G01*
X152370150Y-113027900D01*
G75*
G02*
X152446350Y-113104100I0J-76200D01*
G01*
X152446350Y-113231100D01*
G75*
G02*
X152370150Y-113307300I-76200J0D01*
G01*
X151316050Y-113307300D01*
G75*
G02*
X151239850Y-113231100I0J76200D01*
G01*
G37*
G36*
G01*
X151239850Y-112731100D02*
X151239850Y-112604100D01*
G75*
G02*
X151316050Y-112527900I76200J0D01*
G01*
X152370150Y-112527900D01*
G75*
G02*
X152446350Y-112604100I0J-76200D01*
G01*
X152446350Y-112731100D01*
G75*
G02*
X152370150Y-112807300I-76200J0D01*
G01*
X151316050Y-112807300D01*
G75*
G02*
X151239850Y-112731100I0J76200D01*
G01*
G37*
G36*
G01*
X151239850Y-112231100D02*
X151239850Y-112104100D01*
G75*
G02*
X151316050Y-112027900I76200J0D01*
G01*
X152370150Y-112027900D01*
G75*
G02*
X152446350Y-112104100I0J-76200D01*
G01*
X152446350Y-112231100D01*
G75*
G02*
X152370150Y-112307300I-76200J0D01*
G01*
X151316050Y-112307300D01*
G75*
G02*
X151239850Y-112231100I0J76200D01*
G01*
G37*
G36*
G01*
X151239850Y-111731100D02*
X151239850Y-111604100D01*
G75*
G02*
X151316050Y-111527900I76200J0D01*
G01*
X152370150Y-111527900D01*
G75*
G02*
X152446350Y-111604100I0J-76200D01*
G01*
X152446350Y-111731100D01*
G75*
G02*
X152370150Y-111807300I-76200J0D01*
G01*
X151316050Y-111807300D01*
G75*
G02*
X151239850Y-111731100I0J76200D01*
G01*
G37*
G36*
G01*
X151239850Y-111231100D02*
X151239850Y-111104100D01*
G75*
G02*
X151316050Y-111027900I76200J0D01*
G01*
X152370150Y-111027900D01*
G75*
G02*
X152446350Y-111104100I0J-76200D01*
G01*
X152446350Y-111231100D01*
G75*
G02*
X152370150Y-111307300I-76200J0D01*
G01*
X151316050Y-111307300D01*
G75*
G02*
X151239850Y-111231100I0J76200D01*
G01*
G37*
G36*
G01*
X151239850Y-110731100D02*
X151239850Y-110604100D01*
G75*
G02*
X151316050Y-110527900I76200J0D01*
G01*
X152370150Y-110527900D01*
G75*
G02*
X152446350Y-110604100I0J-76200D01*
G01*
X152446350Y-110731100D01*
G75*
G02*
X152370150Y-110807300I-76200J0D01*
G01*
X151316050Y-110807300D01*
G75*
G02*
X151239850Y-110731100I0J76200D01*
G01*
G37*
G36*
G01*
X151239850Y-110231100D02*
X151239850Y-110104100D01*
G75*
G02*
X151316050Y-110027900I76200J0D01*
G01*
X152370150Y-110027900D01*
G75*
G02*
X152446350Y-110104100I0J-76200D01*
G01*
X152446350Y-110231100D01*
G75*
G02*
X152370150Y-110307300I-76200J0D01*
G01*
X151316050Y-110307300D01*
G75*
G02*
X151239850Y-110231100I0J76200D01*
G01*
G37*
G36*
G01*
X151239850Y-109731100D02*
X151239850Y-109604100D01*
G75*
G02*
X151316050Y-109527900I76200J0D01*
G01*
X152370150Y-109527900D01*
G75*
G02*
X152446350Y-109604100I0J-76200D01*
G01*
X152446350Y-109731100D01*
G75*
G02*
X152370150Y-109807300I-76200J0D01*
G01*
X151316050Y-109807300D01*
G75*
G02*
X151239850Y-109731100I0J76200D01*
G01*
G37*
G36*
G01*
X151239850Y-109231100D02*
X151239850Y-109104100D01*
G75*
G02*
X151316050Y-109027900I76200J0D01*
G01*
X152370150Y-109027900D01*
G75*
G02*
X152446350Y-109104100I0J-76200D01*
G01*
X152446350Y-109231100D01*
G75*
G02*
X152370150Y-109307300I-76200J0D01*
G01*
X151316050Y-109307300D01*
G75*
G02*
X151239850Y-109231100I0J76200D01*
G01*
G37*
G36*
G01*
X151239850Y-108731100D02*
X151239850Y-108604100D01*
G75*
G02*
X151316050Y-108527900I76200J0D01*
G01*
X152370150Y-108527900D01*
G75*
G02*
X152446350Y-108604100I0J-76200D01*
G01*
X152446350Y-108731100D01*
G75*
G02*
X152370150Y-108807300I-76200J0D01*
G01*
X151316050Y-108807300D01*
G75*
G02*
X151239850Y-108731100I0J76200D01*
G01*
G37*
G36*
G01*
X151239850Y-108231100D02*
X151239850Y-108104100D01*
G75*
G02*
X151316050Y-108027900I76200J0D01*
G01*
X152370150Y-108027900D01*
G75*
G02*
X152446350Y-108104100I0J-76200D01*
G01*
X152446350Y-108231100D01*
G75*
G02*
X152370150Y-108307300I-76200J0D01*
G01*
X151316050Y-108307300D01*
G75*
G02*
X151239850Y-108231100I0J76200D01*
G01*
G37*
G36*
G01*
X151239850Y-107731100D02*
X151239850Y-107604100D01*
G75*
G02*
X151316050Y-107527900I76200J0D01*
G01*
X152370150Y-107527900D01*
G75*
G02*
X152446350Y-107604100I0J-76200D01*
G01*
X152446350Y-107731100D01*
G75*
G02*
X152370150Y-107807300I-76200J0D01*
G01*
X151316050Y-107807300D01*
G75*
G02*
X151239850Y-107731100I0J76200D01*
G01*
G37*
G36*
G01*
X151239850Y-107231100D02*
X151239850Y-107104100D01*
G75*
G02*
X151316050Y-107027900I76200J0D01*
G01*
X152370150Y-107027900D01*
G75*
G02*
X152446350Y-107104100I0J-76200D01*
G01*
X152446350Y-107231100D01*
G75*
G02*
X152370150Y-107307300I-76200J0D01*
G01*
X151316050Y-107307300D01*
G75*
G02*
X151239850Y-107231100I0J76200D01*
G01*
G37*
G36*
G01*
X151239850Y-106731100D02*
X151239850Y-106604100D01*
G75*
G02*
X151316050Y-106527900I76200J0D01*
G01*
X152370150Y-106527900D01*
G75*
G02*
X152446350Y-106604100I0J-76200D01*
G01*
X152446350Y-106731100D01*
G75*
G02*
X152370150Y-106807300I-76200J0D01*
G01*
X151316050Y-106807300D01*
G75*
G02*
X151239850Y-106731100I0J76200D01*
G01*
G37*
G36*
G01*
X151239850Y-106231100D02*
X151239850Y-106104100D01*
G75*
G02*
X151316050Y-106027900I76200J0D01*
G01*
X152370150Y-106027900D01*
G75*
G02*
X152446350Y-106104100I0J-76200D01*
G01*
X152446350Y-106231100D01*
G75*
G02*
X152370150Y-106307300I-76200J0D01*
G01*
X151316050Y-106307300D01*
G75*
G02*
X151239850Y-106231100I0J76200D01*
G01*
G37*
G36*
G01*
X151239850Y-105731100D02*
X151239850Y-105604100D01*
G75*
G02*
X151316050Y-105527900I76200J0D01*
G01*
X152370150Y-105527900D01*
G75*
G02*
X152446350Y-105604100I0J-76200D01*
G01*
X152446350Y-105731100D01*
G75*
G02*
X152370150Y-105807300I-76200J0D01*
G01*
X151316050Y-105807300D01*
G75*
G02*
X151239850Y-105731100I0J76200D01*
G01*
G37*
G36*
G01*
X151239850Y-105231100D02*
X151239850Y-105104100D01*
G75*
G02*
X151316050Y-105027900I76200J0D01*
G01*
X152370150Y-105027900D01*
G75*
G02*
X152446350Y-105104100I0J-76200D01*
G01*
X152446350Y-105231100D01*
G75*
G02*
X152370150Y-105307300I-76200J0D01*
G01*
X151316050Y-105307300D01*
G75*
G02*
X151239850Y-105231100I0J76200D01*
G01*
G37*
G36*
G01*
X151239850Y-104731100D02*
X151239850Y-104604100D01*
G75*
G02*
X151316050Y-104527900I76200J0D01*
G01*
X152370150Y-104527900D01*
G75*
G02*
X152446350Y-104604100I0J-76200D01*
G01*
X152446350Y-104731100D01*
G75*
G02*
X152370150Y-104807300I-76200J0D01*
G01*
X151316050Y-104807300D01*
G75*
G02*
X151239850Y-104731100I0J76200D01*
G01*
G37*
G36*
G01*
X151239850Y-104231100D02*
X151239850Y-104104100D01*
G75*
G02*
X151316050Y-104027900I76200J0D01*
G01*
X152370150Y-104027900D01*
G75*
G02*
X152446350Y-104104100I0J-76200D01*
G01*
X152446350Y-104231100D01*
G75*
G02*
X152370150Y-104307300I-76200J0D01*
G01*
X151316050Y-104307300D01*
G75*
G02*
X151239850Y-104231100I0J76200D01*
G01*
G37*
G36*
G01*
X151239850Y-103731100D02*
X151239850Y-103604100D01*
G75*
G02*
X151316050Y-103527900I76200J0D01*
G01*
X152370150Y-103527900D01*
G75*
G02*
X152446350Y-103604100I0J-76200D01*
G01*
X152446350Y-103731100D01*
G75*
G02*
X152370150Y-103807300I-76200J0D01*
G01*
X151316050Y-103807300D01*
G75*
G02*
X151239850Y-103731100I0J76200D01*
G01*
G37*
G36*
G01*
X151239850Y-103231100D02*
X151239850Y-103104100D01*
G75*
G02*
X151316050Y-103027900I76200J0D01*
G01*
X152370150Y-103027900D01*
G75*
G02*
X152446350Y-103104100I0J-76200D01*
G01*
X152446350Y-103231100D01*
G75*
G02*
X152370150Y-103307300I-76200J0D01*
G01*
X151316050Y-103307300D01*
G75*
G02*
X151239850Y-103231100I0J76200D01*
G01*
G37*
G36*
G01*
X151239850Y-102731100D02*
X151239850Y-102604100D01*
G75*
G02*
X151316050Y-102527900I76200J0D01*
G01*
X152370150Y-102527900D01*
G75*
G02*
X152446350Y-102604100I0J-76200D01*
G01*
X152446350Y-102731100D01*
G75*
G02*
X152370150Y-102807300I-76200J0D01*
G01*
X151316050Y-102807300D01*
G75*
G02*
X151239850Y-102731100I0J76200D01*
G01*
G37*
G36*
G01*
X151239850Y-102231100D02*
X151239850Y-102104100D01*
G75*
G02*
X151316050Y-102027900I76200J0D01*
G01*
X152370150Y-102027900D01*
G75*
G02*
X152446350Y-102104100I0J-76200D01*
G01*
X152446350Y-102231100D01*
G75*
G02*
X152370150Y-102307300I-76200J0D01*
G01*
X151316050Y-102307300D01*
G75*
G02*
X151239850Y-102231100I0J76200D01*
G01*
G37*
G36*
G01*
X151239850Y-101731100D02*
X151239850Y-101604100D01*
G75*
G02*
X151316050Y-101527900I76200J0D01*
G01*
X152370150Y-101527900D01*
G75*
G02*
X152446350Y-101604100I0J-76200D01*
G01*
X152446350Y-101731100D01*
G75*
G02*
X152370150Y-101807300I-76200J0D01*
G01*
X151316050Y-101807300D01*
G75*
G02*
X151239850Y-101731100I0J76200D01*
G01*
G37*
G36*
G01*
X151239850Y-101231100D02*
X151239850Y-101104100D01*
G75*
G02*
X151316050Y-101027900I76200J0D01*
G01*
X152370150Y-101027900D01*
G75*
G02*
X152446350Y-101104100I0J-76200D01*
G01*
X152446350Y-101231100D01*
G75*
G02*
X152370150Y-101307300I-76200J0D01*
G01*
X151316050Y-101307300D01*
G75*
G02*
X151239850Y-101231100I0J76200D01*
G01*
G37*
G36*
G01*
X151239850Y-100731100D02*
X151239850Y-100604100D01*
G75*
G02*
X151316050Y-100527900I76200J0D01*
G01*
X152370150Y-100527900D01*
G75*
G02*
X152446350Y-100604100I0J-76200D01*
G01*
X152446350Y-100731100D01*
G75*
G02*
X152370150Y-100807300I-76200J0D01*
G01*
X151316050Y-100807300D01*
G75*
G02*
X151239850Y-100731100I0J76200D01*
G01*
G37*
G36*
G01*
X151239850Y-100231100D02*
X151239850Y-100104100D01*
G75*
G02*
X151316050Y-100027900I76200J0D01*
G01*
X152370150Y-100027900D01*
G75*
G02*
X152446350Y-100104100I0J-76200D01*
G01*
X152446350Y-100231100D01*
G75*
G02*
X152370150Y-100307300I-76200J0D01*
G01*
X151316050Y-100307300D01*
G75*
G02*
X151239850Y-100231100I0J76200D01*
G01*
G37*
G36*
G01*
X151239850Y-99731100D02*
X151239850Y-99604100D01*
G75*
G02*
X151316050Y-99527900I76200J0D01*
G01*
X152370150Y-99527900D01*
G75*
G02*
X152446350Y-99604100I0J-76200D01*
G01*
X152446350Y-99731100D01*
G75*
G02*
X152370150Y-99807300I-76200J0D01*
G01*
X151316050Y-99807300D01*
G75*
G02*
X151239850Y-99731100I0J76200D01*
G01*
G37*
G36*
G01*
X151239850Y-99231100D02*
X151239850Y-99104100D01*
G75*
G02*
X151316050Y-99027900I76200J0D01*
G01*
X152370150Y-99027900D01*
G75*
G02*
X152446350Y-99104100I0J-76200D01*
G01*
X152446350Y-99231100D01*
G75*
G02*
X152370150Y-99307300I-76200J0D01*
G01*
X151316050Y-99307300D01*
G75*
G02*
X151239850Y-99231100I0J76200D01*
G01*
G37*
G36*
G01*
X151239850Y-98731100D02*
X151239850Y-98604100D01*
G75*
G02*
X151316050Y-98527900I76200J0D01*
G01*
X152370150Y-98527900D01*
G75*
G02*
X152446350Y-98604100I0J-76200D01*
G01*
X152446350Y-98731100D01*
G75*
G02*
X152370150Y-98807300I-76200J0D01*
G01*
X151316050Y-98807300D01*
G75*
G02*
X151239850Y-98731100I0J76200D01*
G01*
G37*
G36*
G01*
X151239850Y-98231100D02*
X151239850Y-98104100D01*
G75*
G02*
X151316050Y-98027900I76200J0D01*
G01*
X152370150Y-98027900D01*
G75*
G02*
X152446350Y-98104100I0J-76200D01*
G01*
X152446350Y-98231100D01*
G75*
G02*
X152370150Y-98307300I-76200J0D01*
G01*
X151316050Y-98307300D01*
G75*
G02*
X151239850Y-98231100I0J76200D01*
G01*
G37*
G36*
G01*
X151239850Y-97731100D02*
X151239850Y-97604100D01*
G75*
G02*
X151316050Y-97527900I76200J0D01*
G01*
X152370150Y-97527900D01*
G75*
G02*
X152446350Y-97604100I0J-76200D01*
G01*
X152446350Y-97731100D01*
G75*
G02*
X152370150Y-97807300I-76200J0D01*
G01*
X151316050Y-97807300D01*
G75*
G02*
X151239850Y-97731100I0J76200D01*
G01*
G37*
G36*
G01*
X151239850Y-97231100D02*
X151239850Y-97104100D01*
G75*
G02*
X151316050Y-97027900I76200J0D01*
G01*
X152370150Y-97027900D01*
G75*
G02*
X152446350Y-97104100I0J-76200D01*
G01*
X152446350Y-97231100D01*
G75*
G02*
X152370150Y-97307300I-76200J0D01*
G01*
X151316050Y-97307300D01*
G75*
G02*
X151239850Y-97231100I0J76200D01*
G01*
G37*
G36*
G01*
X151239850Y-96731100D02*
X151239850Y-96604100D01*
G75*
G02*
X151316050Y-96527900I76200J0D01*
G01*
X152370150Y-96527900D01*
G75*
G02*
X152446350Y-96604100I0J-76200D01*
G01*
X152446350Y-96731100D01*
G75*
G02*
X152370150Y-96807300I-76200J0D01*
G01*
X151316050Y-96807300D01*
G75*
G02*
X151239850Y-96731100I0J76200D01*
G01*
G37*
G36*
G01*
X162739850Y-96731100D02*
X162739850Y-96604100D01*
G75*
G02*
X162816050Y-96527900I76200J0D01*
G01*
X163870150Y-96527900D01*
G75*
G02*
X163946350Y-96604100I0J-76200D01*
G01*
X163946350Y-96731100D01*
G75*
G02*
X163870150Y-96807300I-76200J0D01*
G01*
X162816050Y-96807300D01*
G75*
G02*
X162739850Y-96731100I0J76200D01*
G01*
G37*
G36*
G01*
X162739850Y-97231100D02*
X162739850Y-97104100D01*
G75*
G02*
X162816050Y-97027900I76200J0D01*
G01*
X163870150Y-97027900D01*
G75*
G02*
X163946350Y-97104100I0J-76200D01*
G01*
X163946350Y-97231100D01*
G75*
G02*
X163870150Y-97307300I-76200J0D01*
G01*
X162816050Y-97307300D01*
G75*
G02*
X162739850Y-97231100I0J76200D01*
G01*
G37*
G36*
G01*
X162739850Y-97731100D02*
X162739850Y-97604100D01*
G75*
G02*
X162816050Y-97527900I76200J0D01*
G01*
X163870150Y-97527900D01*
G75*
G02*
X163946350Y-97604100I0J-76200D01*
G01*
X163946350Y-97731100D01*
G75*
G02*
X163870150Y-97807300I-76200J0D01*
G01*
X162816050Y-97807300D01*
G75*
G02*
X162739850Y-97731100I0J76200D01*
G01*
G37*
G36*
G01*
X162739850Y-98231100D02*
X162739850Y-98104100D01*
G75*
G02*
X162816050Y-98027900I76200J0D01*
G01*
X163870150Y-98027900D01*
G75*
G02*
X163946350Y-98104100I0J-76200D01*
G01*
X163946350Y-98231100D01*
G75*
G02*
X163870150Y-98307300I-76200J0D01*
G01*
X162816050Y-98307300D01*
G75*
G02*
X162739850Y-98231100I0J76200D01*
G01*
G37*
G36*
G01*
X162739850Y-98731100D02*
X162739850Y-98604100D01*
G75*
G02*
X162816050Y-98527900I76200J0D01*
G01*
X163870150Y-98527900D01*
G75*
G02*
X163946350Y-98604100I0J-76200D01*
G01*
X163946350Y-98731100D01*
G75*
G02*
X163870150Y-98807300I-76200J0D01*
G01*
X162816050Y-98807300D01*
G75*
G02*
X162739850Y-98731100I0J76200D01*
G01*
G37*
G36*
G01*
X162739850Y-99231100D02*
X162739850Y-99104100D01*
G75*
G02*
X162816050Y-99027900I76200J0D01*
G01*
X163870150Y-99027900D01*
G75*
G02*
X163946350Y-99104100I0J-76200D01*
G01*
X163946350Y-99231100D01*
G75*
G02*
X163870150Y-99307300I-76200J0D01*
G01*
X162816050Y-99307300D01*
G75*
G02*
X162739850Y-99231100I0J76200D01*
G01*
G37*
G36*
G01*
X162739850Y-99731100D02*
X162739850Y-99604100D01*
G75*
G02*
X162816050Y-99527900I76200J0D01*
G01*
X163870150Y-99527900D01*
G75*
G02*
X163946350Y-99604100I0J-76200D01*
G01*
X163946350Y-99731100D01*
G75*
G02*
X163870150Y-99807300I-76200J0D01*
G01*
X162816050Y-99807300D01*
G75*
G02*
X162739850Y-99731100I0J76200D01*
G01*
G37*
G36*
G01*
X162739850Y-100231100D02*
X162739850Y-100104100D01*
G75*
G02*
X162816050Y-100027900I76200J0D01*
G01*
X163870150Y-100027900D01*
G75*
G02*
X163946350Y-100104100I0J-76200D01*
G01*
X163946350Y-100231100D01*
G75*
G02*
X163870150Y-100307300I-76200J0D01*
G01*
X162816050Y-100307300D01*
G75*
G02*
X162739850Y-100231100I0J76200D01*
G01*
G37*
G36*
G01*
X162739850Y-100731100D02*
X162739850Y-100604100D01*
G75*
G02*
X162816050Y-100527900I76200J0D01*
G01*
X163870150Y-100527900D01*
G75*
G02*
X163946350Y-100604100I0J-76200D01*
G01*
X163946350Y-100731100D01*
G75*
G02*
X163870150Y-100807300I-76200J0D01*
G01*
X162816050Y-100807300D01*
G75*
G02*
X162739850Y-100731100I0J76200D01*
G01*
G37*
G36*
G01*
X162739850Y-101231100D02*
X162739850Y-101104100D01*
G75*
G02*
X162816050Y-101027900I76200J0D01*
G01*
X163870150Y-101027900D01*
G75*
G02*
X163946350Y-101104100I0J-76200D01*
G01*
X163946350Y-101231100D01*
G75*
G02*
X163870150Y-101307300I-76200J0D01*
G01*
X162816050Y-101307300D01*
G75*
G02*
X162739850Y-101231100I0J76200D01*
G01*
G37*
G36*
G01*
X162739850Y-101731100D02*
X162739850Y-101604100D01*
G75*
G02*
X162816050Y-101527900I76200J0D01*
G01*
X163870150Y-101527900D01*
G75*
G02*
X163946350Y-101604100I0J-76200D01*
G01*
X163946350Y-101731100D01*
G75*
G02*
X163870150Y-101807300I-76200J0D01*
G01*
X162816050Y-101807300D01*
G75*
G02*
X162739850Y-101731100I0J76200D01*
G01*
G37*
G36*
G01*
X162739850Y-102231100D02*
X162739850Y-102104100D01*
G75*
G02*
X162816050Y-102027900I76200J0D01*
G01*
X163870150Y-102027900D01*
G75*
G02*
X163946350Y-102104100I0J-76200D01*
G01*
X163946350Y-102231100D01*
G75*
G02*
X163870150Y-102307300I-76200J0D01*
G01*
X162816050Y-102307300D01*
G75*
G02*
X162739850Y-102231100I0J76200D01*
G01*
G37*
G36*
G01*
X162739850Y-102731100D02*
X162739850Y-102604100D01*
G75*
G02*
X162816050Y-102527900I76200J0D01*
G01*
X163870150Y-102527900D01*
G75*
G02*
X163946350Y-102604100I0J-76200D01*
G01*
X163946350Y-102731100D01*
G75*
G02*
X163870150Y-102807300I-76200J0D01*
G01*
X162816050Y-102807300D01*
G75*
G02*
X162739850Y-102731100I0J76200D01*
G01*
G37*
G36*
G01*
X162739850Y-103231100D02*
X162739850Y-103104100D01*
G75*
G02*
X162816050Y-103027900I76200J0D01*
G01*
X163870150Y-103027900D01*
G75*
G02*
X163946350Y-103104100I0J-76200D01*
G01*
X163946350Y-103231100D01*
G75*
G02*
X163870150Y-103307300I-76200J0D01*
G01*
X162816050Y-103307300D01*
G75*
G02*
X162739850Y-103231100I0J76200D01*
G01*
G37*
G36*
G01*
X162739850Y-103731100D02*
X162739850Y-103604100D01*
G75*
G02*
X162816050Y-103527900I76200J0D01*
G01*
X163870150Y-103527900D01*
G75*
G02*
X163946350Y-103604100I0J-76200D01*
G01*
X163946350Y-103731100D01*
G75*
G02*
X163870150Y-103807300I-76200J0D01*
G01*
X162816050Y-103807300D01*
G75*
G02*
X162739850Y-103731100I0J76200D01*
G01*
G37*
G36*
G01*
X162739850Y-104231100D02*
X162739850Y-104104100D01*
G75*
G02*
X162816050Y-104027900I76200J0D01*
G01*
X163870150Y-104027900D01*
G75*
G02*
X163946350Y-104104100I0J-76200D01*
G01*
X163946350Y-104231100D01*
G75*
G02*
X163870150Y-104307300I-76200J0D01*
G01*
X162816050Y-104307300D01*
G75*
G02*
X162739850Y-104231100I0J76200D01*
G01*
G37*
G36*
G01*
X162739850Y-104731100D02*
X162739850Y-104604100D01*
G75*
G02*
X162816050Y-104527900I76200J0D01*
G01*
X163870150Y-104527900D01*
G75*
G02*
X163946350Y-104604100I0J-76200D01*
G01*
X163946350Y-104731100D01*
G75*
G02*
X163870150Y-104807300I-76200J0D01*
G01*
X162816050Y-104807300D01*
G75*
G02*
X162739850Y-104731100I0J76200D01*
G01*
G37*
G36*
G01*
X162739850Y-105231100D02*
X162739850Y-105104100D01*
G75*
G02*
X162816050Y-105027900I76200J0D01*
G01*
X163870150Y-105027900D01*
G75*
G02*
X163946350Y-105104100I0J-76200D01*
G01*
X163946350Y-105231100D01*
G75*
G02*
X163870150Y-105307300I-76200J0D01*
G01*
X162816050Y-105307300D01*
G75*
G02*
X162739850Y-105231100I0J76200D01*
G01*
G37*
G36*
G01*
X162739850Y-105731100D02*
X162739850Y-105604100D01*
G75*
G02*
X162816050Y-105527900I76200J0D01*
G01*
X163870150Y-105527900D01*
G75*
G02*
X163946350Y-105604100I0J-76200D01*
G01*
X163946350Y-105731100D01*
G75*
G02*
X163870150Y-105807300I-76200J0D01*
G01*
X162816050Y-105807300D01*
G75*
G02*
X162739850Y-105731100I0J76200D01*
G01*
G37*
G36*
G01*
X162739850Y-106231100D02*
X162739850Y-106104100D01*
G75*
G02*
X162816050Y-106027900I76200J0D01*
G01*
X163870150Y-106027900D01*
G75*
G02*
X163946350Y-106104100I0J-76200D01*
G01*
X163946350Y-106231100D01*
G75*
G02*
X163870150Y-106307300I-76200J0D01*
G01*
X162816050Y-106307300D01*
G75*
G02*
X162739850Y-106231100I0J76200D01*
G01*
G37*
G36*
G01*
X162739850Y-106731100D02*
X162739850Y-106604100D01*
G75*
G02*
X162816050Y-106527900I76200J0D01*
G01*
X163870150Y-106527900D01*
G75*
G02*
X163946350Y-106604100I0J-76200D01*
G01*
X163946350Y-106731100D01*
G75*
G02*
X163870150Y-106807300I-76200J0D01*
G01*
X162816050Y-106807300D01*
G75*
G02*
X162739850Y-106731100I0J76200D01*
G01*
G37*
G36*
G01*
X162739850Y-107231100D02*
X162739850Y-107104100D01*
G75*
G02*
X162816050Y-107027900I76200J0D01*
G01*
X163870150Y-107027900D01*
G75*
G02*
X163946350Y-107104100I0J-76200D01*
G01*
X163946350Y-107231100D01*
G75*
G02*
X163870150Y-107307300I-76200J0D01*
G01*
X162816050Y-107307300D01*
G75*
G02*
X162739850Y-107231100I0J76200D01*
G01*
G37*
G36*
G01*
X162739850Y-107731100D02*
X162739850Y-107604100D01*
G75*
G02*
X162816050Y-107527900I76200J0D01*
G01*
X163870150Y-107527900D01*
G75*
G02*
X163946350Y-107604100I0J-76200D01*
G01*
X163946350Y-107731100D01*
G75*
G02*
X163870150Y-107807300I-76200J0D01*
G01*
X162816050Y-107807300D01*
G75*
G02*
X162739850Y-107731100I0J76200D01*
G01*
G37*
G36*
G01*
X162739850Y-108231100D02*
X162739850Y-108104100D01*
G75*
G02*
X162816050Y-108027900I76200J0D01*
G01*
X163870150Y-108027900D01*
G75*
G02*
X163946350Y-108104100I0J-76200D01*
G01*
X163946350Y-108231100D01*
G75*
G02*
X163870150Y-108307300I-76200J0D01*
G01*
X162816050Y-108307300D01*
G75*
G02*
X162739850Y-108231100I0J76200D01*
G01*
G37*
G36*
G01*
X162739850Y-108731100D02*
X162739850Y-108604100D01*
G75*
G02*
X162816050Y-108527900I76200J0D01*
G01*
X163870150Y-108527900D01*
G75*
G02*
X163946350Y-108604100I0J-76200D01*
G01*
X163946350Y-108731100D01*
G75*
G02*
X163870150Y-108807300I-76200J0D01*
G01*
X162816050Y-108807300D01*
G75*
G02*
X162739850Y-108731100I0J76200D01*
G01*
G37*
G36*
G01*
X162739850Y-109231100D02*
X162739850Y-109104100D01*
G75*
G02*
X162816050Y-109027900I76200J0D01*
G01*
X163870150Y-109027900D01*
G75*
G02*
X163946350Y-109104100I0J-76200D01*
G01*
X163946350Y-109231100D01*
G75*
G02*
X163870150Y-109307300I-76200J0D01*
G01*
X162816050Y-109307300D01*
G75*
G02*
X162739850Y-109231100I0J76200D01*
G01*
G37*
G36*
G01*
X162739850Y-109731100D02*
X162739850Y-109604100D01*
G75*
G02*
X162816050Y-109527900I76200J0D01*
G01*
X163870150Y-109527900D01*
G75*
G02*
X163946350Y-109604100I0J-76200D01*
G01*
X163946350Y-109731100D01*
G75*
G02*
X163870150Y-109807300I-76200J0D01*
G01*
X162816050Y-109807300D01*
G75*
G02*
X162739850Y-109731100I0J76200D01*
G01*
G37*
G36*
G01*
X162739850Y-110231100D02*
X162739850Y-110104100D01*
G75*
G02*
X162816050Y-110027900I76200J0D01*
G01*
X163870150Y-110027900D01*
G75*
G02*
X163946350Y-110104100I0J-76200D01*
G01*
X163946350Y-110231100D01*
G75*
G02*
X163870150Y-110307300I-76200J0D01*
G01*
X162816050Y-110307300D01*
G75*
G02*
X162739850Y-110231100I0J76200D01*
G01*
G37*
G36*
G01*
X162739850Y-110731100D02*
X162739850Y-110604100D01*
G75*
G02*
X162816050Y-110527900I76200J0D01*
G01*
X163870150Y-110527900D01*
G75*
G02*
X163946350Y-110604100I0J-76200D01*
G01*
X163946350Y-110731100D01*
G75*
G02*
X163870150Y-110807300I-76200J0D01*
G01*
X162816050Y-110807300D01*
G75*
G02*
X162739850Y-110731100I0J76200D01*
G01*
G37*
G36*
G01*
X162739850Y-111231100D02*
X162739850Y-111104100D01*
G75*
G02*
X162816050Y-111027900I76200J0D01*
G01*
X163870150Y-111027900D01*
G75*
G02*
X163946350Y-111104100I0J-76200D01*
G01*
X163946350Y-111231100D01*
G75*
G02*
X163870150Y-111307300I-76200J0D01*
G01*
X162816050Y-111307300D01*
G75*
G02*
X162739850Y-111231100I0J76200D01*
G01*
G37*
G36*
G01*
X162739850Y-111731100D02*
X162739850Y-111604100D01*
G75*
G02*
X162816050Y-111527900I76200J0D01*
G01*
X163870150Y-111527900D01*
G75*
G02*
X163946350Y-111604100I0J-76200D01*
G01*
X163946350Y-111731100D01*
G75*
G02*
X163870150Y-111807300I-76200J0D01*
G01*
X162816050Y-111807300D01*
G75*
G02*
X162739850Y-111731100I0J76200D01*
G01*
G37*
G36*
G01*
X162739850Y-112231100D02*
X162739850Y-112104100D01*
G75*
G02*
X162816050Y-112027900I76200J0D01*
G01*
X163870150Y-112027900D01*
G75*
G02*
X163946350Y-112104100I0J-76200D01*
G01*
X163946350Y-112231100D01*
G75*
G02*
X163870150Y-112307300I-76200J0D01*
G01*
X162816050Y-112307300D01*
G75*
G02*
X162739850Y-112231100I0J76200D01*
G01*
G37*
G36*
G01*
X162739850Y-112731100D02*
X162739850Y-112604100D01*
G75*
G02*
X162816050Y-112527900I76200J0D01*
G01*
X163870150Y-112527900D01*
G75*
G02*
X163946350Y-112604100I0J-76200D01*
G01*
X163946350Y-112731100D01*
G75*
G02*
X163870150Y-112807300I-76200J0D01*
G01*
X162816050Y-112807300D01*
G75*
G02*
X162739850Y-112731100I0J76200D01*
G01*
G37*
G36*
G01*
X162739850Y-113231100D02*
X162739850Y-113104100D01*
G75*
G02*
X162816050Y-113027900I76200J0D01*
G01*
X163870150Y-113027900D01*
G75*
G02*
X163946350Y-113104100I0J-76200D01*
G01*
X163946350Y-113231100D01*
G75*
G02*
X163870150Y-113307300I-76200J0D01*
G01*
X162816050Y-113307300D01*
G75*
G02*
X162739850Y-113231100I0J76200D01*
G01*
G37*
G36*
G01*
X162739850Y-113731100D02*
X162739850Y-113604100D01*
G75*
G02*
X162816050Y-113527900I76200J0D01*
G01*
X163870150Y-113527900D01*
G75*
G02*
X163946350Y-113604100I0J-76200D01*
G01*
X163946350Y-113731100D01*
G75*
G02*
X163870150Y-113807300I-76200J0D01*
G01*
X162816050Y-113807300D01*
G75*
G02*
X162739850Y-113731100I0J76200D01*
G01*
G37*
G36*
G01*
X162739850Y-114231100D02*
X162739850Y-114104100D01*
G75*
G02*
X162816050Y-114027900I76200J0D01*
G01*
X163870150Y-114027900D01*
G75*
G02*
X163946350Y-114104100I0J-76200D01*
G01*
X163946350Y-114231100D01*
G75*
G02*
X163870150Y-114307300I-76200J0D01*
G01*
X162816050Y-114307300D01*
G75*
G02*
X162739850Y-114231100I0J76200D01*
G01*
G37*
G36*
G01*
X162739850Y-114731100D02*
X162739850Y-114604100D01*
G75*
G02*
X162816050Y-114527900I76200J0D01*
G01*
X163870150Y-114527900D01*
G75*
G02*
X163946350Y-114604100I0J-76200D01*
G01*
X163946350Y-114731100D01*
G75*
G02*
X163870150Y-114807300I-76200J0D01*
G01*
X162816050Y-114807300D01*
G75*
G02*
X162739850Y-114731100I0J76200D01*
G01*
G37*
G36*
G01*
X162739850Y-115231100D02*
X162739850Y-115104100D01*
G75*
G02*
X162816050Y-115027900I76200J0D01*
G01*
X163870150Y-115027900D01*
G75*
G02*
X163946350Y-115104100I0J-76200D01*
G01*
X163946350Y-115231100D01*
G75*
G02*
X163870150Y-115307300I-76200J0D01*
G01*
X162816050Y-115307300D01*
G75*
G02*
X162739850Y-115231100I0J76200D01*
G01*
G37*
G36*
G01*
X162739850Y-115731100D02*
X162739850Y-115604100D01*
G75*
G02*
X162816050Y-115527900I76200J0D01*
G01*
X163870150Y-115527900D01*
G75*
G02*
X163946350Y-115604100I0J-76200D01*
G01*
X163946350Y-115731100D01*
G75*
G02*
X163870150Y-115807300I-76200J0D01*
G01*
X162816050Y-115807300D01*
G75*
G02*
X162739850Y-115731100I0J76200D01*
G01*
G37*
G36*
G01*
X162739850Y-116231100D02*
X162739850Y-116104100D01*
G75*
G02*
X162816050Y-116027900I76200J0D01*
G01*
X163870150Y-116027900D01*
G75*
G02*
X163946350Y-116104100I0J-76200D01*
G01*
X163946350Y-116231100D01*
G75*
G02*
X163870150Y-116307300I-76200J0D01*
G01*
X162816050Y-116307300D01*
G75*
G02*
X162739850Y-116231100I0J76200D01*
G01*
G37*
G36*
G01*
X162739850Y-116731100D02*
X162739850Y-116604100D01*
G75*
G02*
X162816050Y-116527900I76200J0D01*
G01*
X163870150Y-116527900D01*
G75*
G02*
X163946350Y-116604100I0J-76200D01*
G01*
X163946350Y-116731100D01*
G75*
G02*
X163870150Y-116807300I-76200J0D01*
G01*
X162816050Y-116807300D01*
G75*
G02*
X162739850Y-116731100I0J76200D01*
G01*
G37*
G36*
G01*
X162739850Y-117231100D02*
X162739850Y-117104100D01*
G75*
G02*
X162816050Y-117027900I76200J0D01*
G01*
X163870150Y-117027900D01*
G75*
G02*
X163946350Y-117104100I0J-76200D01*
G01*
X163946350Y-117231100D01*
G75*
G02*
X163870150Y-117307300I-76200J0D01*
G01*
X162816050Y-117307300D01*
G75*
G02*
X162739850Y-117231100I0J76200D01*
G01*
G37*
G36*
G01*
X162739850Y-117731100D02*
X162739850Y-117604100D01*
G75*
G02*
X162816050Y-117527900I76200J0D01*
G01*
X163870150Y-117527900D01*
G75*
G02*
X163946350Y-117604100I0J-76200D01*
G01*
X163946350Y-117731100D01*
G75*
G02*
X163870150Y-117807300I-76200J0D01*
G01*
X162816050Y-117807300D01*
G75*
G02*
X162739850Y-117731100I0J76200D01*
G01*
G37*
M02*
