%TF.GenerationSoftware,KiCad,Pcbnew,8.99.0-2608-ga0707285a1*%
%TF.CreationDate,2024-10-22T01:28:05-04:00*%
%TF.ProjectId,shinobi,7368696e-6f62-4692-9e6b-696361645f70,rev?*%
%TF.SameCoordinates,Original*%
%TF.FileFunction,Soldermask,Top*%
%TF.FilePolarity,Negative*%
%FSLAX46Y46*%
G04 Gerber Fmt 4.6, Leading zero omitted, Abs format (unit mm)*
G04 Created by KiCad (PCBNEW 8.99.0-2608-ga0707285a1) date 2024-10-22 01:28:05*
%MOMM*%
%LPD*%
G01*
G04 APERTURE LIST*
%ADD10R,1.584000X1.584000*%
%ADD11C,1.584000*%
%ADD12R,3.450000X3.450000*%
G04 APERTURE END LIST*
G36*
G01*
X163421900Y-87217400D02*
X163761900Y-87217400D01*
G75*
G02*
X163901900Y-87357400I0J-140000D01*
G01*
X163901900Y-87637400D01*
G75*
G02*
X163761900Y-87777400I-140000J0D01*
G01*
X163421900Y-87777400D01*
G75*
G02*
X163281900Y-87637400I0J140000D01*
G01*
X163281900Y-87357400D01*
G75*
G02*
X163421900Y-87217400I140000J0D01*
G01*
G37*
G36*
G01*
X163421900Y-88177400D02*
X163761900Y-88177400D01*
G75*
G02*
X163901900Y-88317400I0J-140000D01*
G01*
X163901900Y-88597400D01*
G75*
G02*
X163761900Y-88737400I-140000J0D01*
G01*
X163421900Y-88737400D01*
G75*
G02*
X163281900Y-88597400I0J140000D01*
G01*
X163281900Y-88317400D01*
G75*
G02*
X163421900Y-88177400I140000J0D01*
G01*
G37*
G36*
G01*
X154688100Y-125739600D02*
X154348100Y-125739600D01*
G75*
G02*
X154208100Y-125599600I0J140000D01*
G01*
X154208100Y-125319600D01*
G75*
G02*
X154348100Y-125179600I140000J0D01*
G01*
X154688100Y-125179600D01*
G75*
G02*
X154828100Y-125319600I0J-140000D01*
G01*
X154828100Y-125599600D01*
G75*
G02*
X154688100Y-125739600I-140000J0D01*
G01*
G37*
G36*
G01*
X154688100Y-124779600D02*
X154348100Y-124779600D01*
G75*
G02*
X154208100Y-124639600I0J140000D01*
G01*
X154208100Y-124359600D01*
G75*
G02*
X154348100Y-124219600I140000J0D01*
G01*
X154688100Y-124219600D01*
G75*
G02*
X154828100Y-124359600I0J-140000D01*
G01*
X154828100Y-124639600D01*
G75*
G02*
X154688100Y-124779600I-140000J0D01*
G01*
G37*
G36*
G01*
X135799900Y-114715000D02*
X135799900Y-115215000D01*
G75*
G02*
X135574900Y-115440000I-225000J0D01*
G01*
X135124900Y-115440000D01*
G75*
G02*
X134899900Y-115215000I0J225000D01*
G01*
X134899900Y-114715000D01*
G75*
G02*
X135124900Y-114490000I225000J0D01*
G01*
X135574900Y-114490000D01*
G75*
G02*
X135799900Y-114715000I0J-225000D01*
G01*
G37*
G36*
G01*
X134249900Y-114715000D02*
X134249900Y-115215000D01*
G75*
G02*
X134024900Y-115440000I-225000J0D01*
G01*
X133574900Y-115440000D01*
G75*
G02*
X133349900Y-115215000I0J225000D01*
G01*
X133349900Y-114715000D01*
G75*
G02*
X133574900Y-114490000I225000J0D01*
G01*
X134024900Y-114490000D01*
G75*
G02*
X134249900Y-114715000I0J-225000D01*
G01*
G37*
G36*
G01*
X152114100Y-126942600D02*
X152114100Y-126572600D01*
G75*
G02*
X152249100Y-126437600I135000J0D01*
G01*
X152519100Y-126437600D01*
G75*
G02*
X152654100Y-126572600I0J-135000D01*
G01*
X152654100Y-126942600D01*
G75*
G02*
X152519100Y-127077600I-135000J0D01*
G01*
X152249100Y-127077600D01*
G75*
G02*
X152114100Y-126942600I0J135000D01*
G01*
G37*
G36*
G01*
X153134100Y-126942600D02*
X153134100Y-126572600D01*
G75*
G02*
X153269100Y-126437600I135000J0D01*
G01*
X153539100Y-126437600D01*
G75*
G02*
X153674100Y-126572600I0J-135000D01*
G01*
X153674100Y-126942600D01*
G75*
G02*
X153539100Y-127077600I-135000J0D01*
G01*
X153269100Y-127077600D01*
G75*
G02*
X153134100Y-126942600I0J135000D01*
G01*
G37*
G36*
G01*
X174971100Y-113163600D02*
X174631100Y-113163600D01*
G75*
G02*
X174491100Y-113023600I0J140000D01*
G01*
X174491100Y-112743600D01*
G75*
G02*
X174631100Y-112603600I140000J0D01*
G01*
X174971100Y-112603600D01*
G75*
G02*
X175111100Y-112743600I0J-140000D01*
G01*
X175111100Y-113023600D01*
G75*
G02*
X174971100Y-113163600I-140000J0D01*
G01*
G37*
G36*
G01*
X174971100Y-112203600D02*
X174631100Y-112203600D01*
G75*
G02*
X174491100Y-112063600I0J140000D01*
G01*
X174491100Y-111783600D01*
G75*
G02*
X174631100Y-111643600I140000J0D01*
G01*
X174971100Y-111643600D01*
G75*
G02*
X175111100Y-111783600I0J-140000D01*
G01*
X175111100Y-112063600D01*
G75*
G02*
X174971100Y-112203600I-140000J0D01*
G01*
G37*
G36*
G01*
X153288100Y-124228200D02*
X153288100Y-124568200D01*
G75*
G02*
X153148100Y-124708200I-140000J0D01*
G01*
X152868100Y-124708200D01*
G75*
G02*
X152728100Y-124568200I0J140000D01*
G01*
X152728100Y-124228200D01*
G75*
G02*
X152868100Y-124088200I140000J0D01*
G01*
X153148100Y-124088200D01*
G75*
G02*
X153288100Y-124228200I0J-140000D01*
G01*
G37*
G36*
G01*
X152328100Y-124228200D02*
X152328100Y-124568200D01*
G75*
G02*
X152188100Y-124708200I-140000J0D01*
G01*
X151908100Y-124708200D01*
G75*
G02*
X151768100Y-124568200I0J140000D01*
G01*
X151768100Y-124228200D01*
G75*
G02*
X151908100Y-124088200I140000J0D01*
G01*
X152188100Y-124088200D01*
G75*
G02*
X152328100Y-124228200I0J-140000D01*
G01*
G37*
G36*
G01*
X140084900Y-92487400D02*
X139744900Y-92487400D01*
G75*
G02*
X139604900Y-92347400I0J140000D01*
G01*
X139604900Y-92067400D01*
G75*
G02*
X139744900Y-91927400I140000J0D01*
G01*
X140084900Y-91927400D01*
G75*
G02*
X140224900Y-92067400I0J-140000D01*
G01*
X140224900Y-92347400D01*
G75*
G02*
X140084900Y-92487400I-140000J0D01*
G01*
G37*
G36*
G01*
X140084900Y-91527400D02*
X139744900Y-91527400D01*
G75*
G02*
X139604900Y-91387400I0J140000D01*
G01*
X139604900Y-91107400D01*
G75*
G02*
X139744900Y-90967400I140000J0D01*
G01*
X140084900Y-90967400D01*
G75*
G02*
X140224900Y-91107400I0J-140000D01*
G01*
X140224900Y-91387400D01*
G75*
G02*
X140084900Y-91527400I-140000J0D01*
G01*
G37*
G36*
G01*
X149898100Y-87420100D02*
X149898100Y-87765100D01*
G75*
G02*
X149750600Y-87912600I-147500J0D01*
G01*
X149455600Y-87912600D01*
G75*
G02*
X149308100Y-87765100I0J147500D01*
G01*
X149308100Y-87420100D01*
G75*
G02*
X149455600Y-87272600I147500J0D01*
G01*
X149750600Y-87272600D01*
G75*
G02*
X149898100Y-87420100I0J-147500D01*
G01*
G37*
G36*
G01*
X148928100Y-87420100D02*
X148928100Y-87765100D01*
G75*
G02*
X148780600Y-87912600I-147500J0D01*
G01*
X148485600Y-87912600D01*
G75*
G02*
X148338100Y-87765100I0J147500D01*
G01*
X148338100Y-87420100D01*
G75*
G02*
X148485600Y-87272600I147500J0D01*
G01*
X148780600Y-87272600D01*
G75*
G02*
X148928100Y-87420100I0J-147500D01*
G01*
G37*
G36*
G01*
X174971100Y-119563600D02*
X174631100Y-119563600D01*
G75*
G02*
X174491100Y-119423600I0J140000D01*
G01*
X174491100Y-119143600D01*
G75*
G02*
X174631100Y-119003600I140000J0D01*
G01*
X174971100Y-119003600D01*
G75*
G02*
X175111100Y-119143600I0J-140000D01*
G01*
X175111100Y-119423600D01*
G75*
G02*
X174971100Y-119563600I-140000J0D01*
G01*
G37*
G36*
G01*
X174971100Y-118603600D02*
X174631100Y-118603600D01*
G75*
G02*
X174491100Y-118463600I0J140000D01*
G01*
X174491100Y-118183600D01*
G75*
G02*
X174631100Y-118043600I140000J0D01*
G01*
X174971100Y-118043600D01*
G75*
G02*
X175111100Y-118183600I0J-140000D01*
G01*
X175111100Y-118463600D01*
G75*
G02*
X174971100Y-118603600I-140000J0D01*
G01*
G37*
G36*
G01*
X159200700Y-127063000D02*
X159200700Y-126693000D01*
G75*
G02*
X159335700Y-126558000I135000J0D01*
G01*
X159605700Y-126558000D01*
G75*
G02*
X159740700Y-126693000I0J-135000D01*
G01*
X159740700Y-127063000D01*
G75*
G02*
X159605700Y-127198000I-135000J0D01*
G01*
X159335700Y-127198000D01*
G75*
G02*
X159200700Y-127063000I0J135000D01*
G01*
G37*
G36*
G01*
X160220700Y-127063000D02*
X160220700Y-126693000D01*
G75*
G02*
X160355700Y-126558000I135000J0D01*
G01*
X160625700Y-126558000D01*
G75*
G02*
X160760700Y-126693000I0J-135000D01*
G01*
X160760700Y-127063000D01*
G75*
G02*
X160625700Y-127198000I-135000J0D01*
G01*
X160355700Y-127198000D01*
G75*
G02*
X160220700Y-127063000I0J135000D01*
G01*
G37*
G36*
G01*
X135768100Y-123367600D02*
X135068100Y-123367600D01*
G75*
G02*
X134918100Y-123217600I0J150000D01*
G01*
X134918100Y-122367600D01*
G75*
G02*
X135068100Y-122217600I150000J0D01*
G01*
X135768100Y-122217600D01*
G75*
G02*
X135918100Y-122367600I0J-150000D01*
G01*
X135918100Y-123217600D01*
G75*
G02*
X135768100Y-123367600I-150000J0D01*
G01*
G37*
G36*
G01*
X135768100Y-121767600D02*
X135068100Y-121767600D01*
G75*
G02*
X134918100Y-121617600I0J150000D01*
G01*
X134918100Y-120767600D01*
G75*
G02*
X135068100Y-120617600I150000J0D01*
G01*
X135768100Y-120617600D01*
G75*
G02*
X135918100Y-120767600I0J-150000D01*
G01*
X135918100Y-121617600D01*
G75*
G02*
X135768100Y-121767600I-150000J0D01*
G01*
G37*
G36*
G01*
X134568100Y-121767600D02*
X133868100Y-121767600D01*
G75*
G02*
X133718100Y-121617600I0J150000D01*
G01*
X133718100Y-120767600D01*
G75*
G02*
X133868100Y-120617600I150000J0D01*
G01*
X134568100Y-120617600D01*
G75*
G02*
X134718100Y-120767600I0J-150000D01*
G01*
X134718100Y-121617600D01*
G75*
G02*
X134568100Y-121767600I-150000J0D01*
G01*
G37*
G36*
G01*
X134568100Y-123367600D02*
X133868100Y-123367600D01*
G75*
G02*
X133718100Y-123217600I0J150000D01*
G01*
X133718100Y-122367600D01*
G75*
G02*
X133868100Y-122217600I150000J0D01*
G01*
X134568100Y-122217600D01*
G75*
G02*
X134718100Y-122367600I0J-150000D01*
G01*
X134718100Y-123217600D01*
G75*
G02*
X134568100Y-123367600I-150000J0D01*
G01*
G37*
G36*
G01*
X136964900Y-90352400D02*
X137664900Y-90352400D01*
G75*
G02*
X137814900Y-90502400I0J-150000D01*
G01*
X137814900Y-91352400D01*
G75*
G02*
X137664900Y-91502400I-150000J0D01*
G01*
X136964900Y-91502400D01*
G75*
G02*
X136814900Y-91352400I0J150000D01*
G01*
X136814900Y-90502400D01*
G75*
G02*
X136964900Y-90352400I150000J0D01*
G01*
G37*
G36*
G01*
X136964900Y-91952400D02*
X137664900Y-91952400D01*
G75*
G02*
X137814900Y-92102400I0J-150000D01*
G01*
X137814900Y-92952400D01*
G75*
G02*
X137664900Y-93102400I-150000J0D01*
G01*
X136964900Y-93102400D01*
G75*
G02*
X136814900Y-92952400I0J150000D01*
G01*
X136814900Y-92102400D01*
G75*
G02*
X136964900Y-91952400I150000J0D01*
G01*
G37*
G36*
G01*
X138164900Y-91952400D02*
X138864900Y-91952400D01*
G75*
G02*
X139014900Y-92102400I0J-150000D01*
G01*
X139014900Y-92952400D01*
G75*
G02*
X138864900Y-93102400I-150000J0D01*
G01*
X138164900Y-93102400D01*
G75*
G02*
X138014900Y-92952400I0J150000D01*
G01*
X138014900Y-92102400D01*
G75*
G02*
X138164900Y-91952400I150000J0D01*
G01*
G37*
G36*
G01*
X138164900Y-90352400D02*
X138864900Y-90352400D01*
G75*
G02*
X139014900Y-90502400I0J-150000D01*
G01*
X139014900Y-91352400D01*
G75*
G02*
X138864900Y-91502400I-150000J0D01*
G01*
X138164900Y-91502400D01*
G75*
G02*
X138014900Y-91352400I0J150000D01*
G01*
X138014900Y-90502400D01*
G75*
G02*
X138164900Y-90352400I150000J0D01*
G01*
G37*
G36*
G01*
X158271100Y-125866600D02*
X157931100Y-125866600D01*
G75*
G02*
X157791100Y-125726600I0J140000D01*
G01*
X157791100Y-125446600D01*
G75*
G02*
X157931100Y-125306600I140000J0D01*
G01*
X158271100Y-125306600D01*
G75*
G02*
X158411100Y-125446600I0J-140000D01*
G01*
X158411100Y-125726600D01*
G75*
G02*
X158271100Y-125866600I-140000J0D01*
G01*
G37*
G36*
G01*
X158271100Y-124906600D02*
X157931100Y-124906600D01*
G75*
G02*
X157791100Y-124766600I0J140000D01*
G01*
X157791100Y-124486600D01*
G75*
G02*
X157931100Y-124346600I140000J0D01*
G01*
X158271100Y-124346600D01*
G75*
G02*
X158411100Y-124486600I0J-140000D01*
G01*
X158411100Y-124766600D01*
G75*
G02*
X158271100Y-124906600I-140000J0D01*
G01*
G37*
G36*
G01*
X159034900Y-86467400D02*
X159374900Y-86467400D01*
G75*
G02*
X159514900Y-86607400I0J-140000D01*
G01*
X159514900Y-86887400D01*
G75*
G02*
X159374900Y-87027400I-140000J0D01*
G01*
X159034900Y-87027400D01*
G75*
G02*
X158894900Y-86887400I0J140000D01*
G01*
X158894900Y-86607400D01*
G75*
G02*
X159034900Y-86467400I140000J0D01*
G01*
G37*
G36*
G01*
X159034900Y-87427400D02*
X159374900Y-87427400D01*
G75*
G02*
X159514900Y-87567400I0J-140000D01*
G01*
X159514900Y-87847400D01*
G75*
G02*
X159374900Y-87987400I-140000J0D01*
G01*
X159034900Y-87987400D01*
G75*
G02*
X158894900Y-87847400I0J140000D01*
G01*
X158894900Y-87567400D01*
G75*
G02*
X159034900Y-87427400I140000J0D01*
G01*
G37*
G36*
G01*
X146993600Y-89286350D02*
X146993600Y-89698850D01*
G75*
G02*
X146824850Y-89867600I-168750J0D01*
G01*
X146487350Y-89867600D01*
G75*
G02*
X146318600Y-89698850I0J168750D01*
G01*
X146318600Y-89286350D01*
G75*
G02*
X146487350Y-89117600I168750J0D01*
G01*
X146824850Y-89117600D01*
G75*
G02*
X146993600Y-89286350I0J-168750D01*
G01*
G37*
G36*
G01*
X146018100Y-88817100D02*
X146018100Y-89142100D01*
G75*
G02*
X145918100Y-89242100I-100000J0D01*
G01*
X145718100Y-89242100D01*
G75*
G02*
X145618100Y-89142100I0J100000D01*
G01*
X145618100Y-88817100D01*
G75*
G02*
X145718100Y-88717100I100000J0D01*
G01*
X145918100Y-88717100D01*
G75*
G02*
X146018100Y-88817100I0J-100000D01*
G01*
G37*
G36*
G01*
X145318600Y-89286350D02*
X145318600Y-89698850D01*
G75*
G02*
X145149850Y-89867600I-168750J0D01*
G01*
X144812350Y-89867600D01*
G75*
G02*
X144643600Y-89698850I0J168750D01*
G01*
X144643600Y-89286350D01*
G75*
G02*
X144812350Y-89117600I168750J0D01*
G01*
X145149850Y-89117600D01*
G75*
G02*
X145318600Y-89286350I0J-168750D01*
G01*
G37*
G36*
G01*
X146018100Y-89843100D02*
X146018100Y-90168100D01*
G75*
G02*
X145918100Y-90268100I-100000J0D01*
G01*
X145718100Y-90268100D01*
G75*
G02*
X145618100Y-90168100I0J100000D01*
G01*
X145618100Y-89843100D01*
G75*
G02*
X145718100Y-89743100I100000J0D01*
G01*
X145918100Y-89743100D01*
G75*
G02*
X146018100Y-89843100I0J-100000D01*
G01*
G37*
G36*
G01*
X132524900Y-82502400D02*
X132524900Y-83752400D01*
G75*
G02*
X132149900Y-84127400I-375000J0D01*
G01*
X131399900Y-84127400D01*
G75*
G02*
X131024900Y-83752400I0J375000D01*
G01*
X131024900Y-82502400D01*
G75*
G02*
X131399900Y-82127400I375000J0D01*
G01*
X132149900Y-82127400D01*
G75*
G02*
X132524900Y-82502400I0J-375000D01*
G01*
G37*
G36*
G01*
X139524900Y-82377400D02*
X139524900Y-83877400D01*
G75*
G02*
X139274900Y-84127400I-250000J0D01*
G01*
X138774900Y-84127400D01*
G75*
G02*
X138524900Y-83877400I0J250000D01*
G01*
X138524900Y-82377400D01*
G75*
G02*
X138774900Y-82127400I250000J0D01*
G01*
X139274900Y-82127400D01*
G75*
G02*
X139524900Y-82377400I0J-250000D01*
G01*
G37*
G36*
G01*
X156915100Y-124346600D02*
X157255100Y-124346600D01*
G75*
G02*
X157395100Y-124486600I0J-140000D01*
G01*
X157395100Y-124766600D01*
G75*
G02*
X157255100Y-124906600I-140000J0D01*
G01*
X156915100Y-124906600D01*
G75*
G02*
X156775100Y-124766600I0J140000D01*
G01*
X156775100Y-124486600D01*
G75*
G02*
X156915100Y-124346600I140000J0D01*
G01*
G37*
G36*
G01*
X156915100Y-125306600D02*
X157255100Y-125306600D01*
G75*
G02*
X157395100Y-125446600I0J-140000D01*
G01*
X157395100Y-125726600D01*
G75*
G02*
X157255100Y-125866600I-140000J0D01*
G01*
X156915100Y-125866600D01*
G75*
G02*
X156775100Y-125726600I0J140000D01*
G01*
X156775100Y-125446600D01*
G75*
G02*
X156915100Y-125306600I140000J0D01*
G01*
G37*
G36*
G01*
X159363900Y-124701000D02*
X159733900Y-124701000D01*
G75*
G02*
X159868900Y-124836000I0J-135000D01*
G01*
X159868900Y-125106000D01*
G75*
G02*
X159733900Y-125241000I-135000J0D01*
G01*
X159363900Y-125241000D01*
G75*
G02*
X159228900Y-125106000I0J135000D01*
G01*
X159228900Y-124836000D01*
G75*
G02*
X159363900Y-124701000I135000J0D01*
G01*
G37*
G36*
G01*
X159363900Y-125721000D02*
X159733900Y-125721000D01*
G75*
G02*
X159868900Y-125856000I0J-135000D01*
G01*
X159868900Y-126126000D01*
G75*
G02*
X159733900Y-126261000I-135000J0D01*
G01*
X159363900Y-126261000D01*
G75*
G02*
X159228900Y-126126000I0J135000D01*
G01*
X159228900Y-125856000D01*
G75*
G02*
X159363900Y-125721000I135000J0D01*
G01*
G37*
G36*
G01*
X142294900Y-86137400D02*
X141954900Y-86137400D01*
G75*
G02*
X141814900Y-85997400I0J140000D01*
G01*
X141814900Y-85717400D01*
G75*
G02*
X141954900Y-85577400I140000J0D01*
G01*
X142294900Y-85577400D01*
G75*
G02*
X142434900Y-85717400I0J-140000D01*
G01*
X142434900Y-85997400D01*
G75*
G02*
X142294900Y-86137400I-140000J0D01*
G01*
G37*
G36*
G01*
X142294900Y-85177400D02*
X141954900Y-85177400D01*
G75*
G02*
X141814900Y-85037400I0J140000D01*
G01*
X141814900Y-84757400D01*
G75*
G02*
X141954900Y-84617400I140000J0D01*
G01*
X142294900Y-84617400D01*
G75*
G02*
X142434900Y-84757400I0J-140000D01*
G01*
X142434900Y-85037400D01*
G75*
G02*
X142294900Y-85177400I-140000J0D01*
G01*
G37*
G36*
G01*
X141318100Y-94641400D02*
X141318100Y-94343800D01*
G75*
G02*
X141394300Y-94267600I76200J0D01*
G01*
X143241900Y-94267600D01*
G75*
G02*
X143318100Y-94343800I0J-76200D01*
G01*
X143318100Y-94641400D01*
G75*
G02*
X143241900Y-94717600I-76200J0D01*
G01*
X141394300Y-94717600D01*
G75*
G02*
X141318100Y-94641400I0J76200D01*
G01*
G37*
G36*
G01*
X141318100Y-95291400D02*
X141318100Y-94993800D01*
G75*
G02*
X141394300Y-94917600I76200J0D01*
G01*
X143241900Y-94917600D01*
G75*
G02*
X143318100Y-94993800I0J-76200D01*
G01*
X143318100Y-95291400D01*
G75*
G02*
X143241900Y-95367600I-76200J0D01*
G01*
X141394300Y-95367600D01*
G75*
G02*
X141318100Y-95291400I0J76200D01*
G01*
G37*
G36*
G01*
X141318100Y-95941400D02*
X141318100Y-95643800D01*
G75*
G02*
X141394300Y-95567600I76200J0D01*
G01*
X143241900Y-95567600D01*
G75*
G02*
X143318100Y-95643800I0J-76200D01*
G01*
X143318100Y-95941400D01*
G75*
G02*
X143241900Y-96017600I-76200J0D01*
G01*
X141394300Y-96017600D01*
G75*
G02*
X141318100Y-95941400I0J76200D01*
G01*
G37*
G36*
G01*
X141318100Y-96591400D02*
X141318100Y-96293800D01*
G75*
G02*
X141394300Y-96217600I76200J0D01*
G01*
X143241900Y-96217600D01*
G75*
G02*
X143318100Y-96293800I0J-76200D01*
G01*
X143318100Y-96591400D01*
G75*
G02*
X143241900Y-96667600I-76200J0D01*
G01*
X141394300Y-96667600D01*
G75*
G02*
X141318100Y-96591400I0J76200D01*
G01*
G37*
G36*
G01*
X141318100Y-97241400D02*
X141318100Y-96943800D01*
G75*
G02*
X141394300Y-96867600I76200J0D01*
G01*
X143241900Y-96867600D01*
G75*
G02*
X143318100Y-96943800I0J-76200D01*
G01*
X143318100Y-97241400D01*
G75*
G02*
X143241900Y-97317600I-76200J0D01*
G01*
X141394300Y-97317600D01*
G75*
G02*
X141318100Y-97241400I0J76200D01*
G01*
G37*
G36*
G01*
X141318100Y-97891400D02*
X141318100Y-97593800D01*
G75*
G02*
X141394300Y-97517600I76200J0D01*
G01*
X143241900Y-97517600D01*
G75*
G02*
X143318100Y-97593800I0J-76200D01*
G01*
X143318100Y-97891400D01*
G75*
G02*
X143241900Y-97967600I-76200J0D01*
G01*
X141394300Y-97967600D01*
G75*
G02*
X141318100Y-97891400I0J76200D01*
G01*
G37*
G36*
G01*
X141318100Y-98541400D02*
X141318100Y-98243800D01*
G75*
G02*
X141394300Y-98167600I76200J0D01*
G01*
X143241900Y-98167600D01*
G75*
G02*
X143318100Y-98243800I0J-76200D01*
G01*
X143318100Y-98541400D01*
G75*
G02*
X143241900Y-98617600I-76200J0D01*
G01*
X141394300Y-98617600D01*
G75*
G02*
X141318100Y-98541400I0J76200D01*
G01*
G37*
G36*
G01*
X141318100Y-99191400D02*
X141318100Y-98893800D01*
G75*
G02*
X141394300Y-98817600I76200J0D01*
G01*
X143241900Y-98817600D01*
G75*
G02*
X143318100Y-98893800I0J-76200D01*
G01*
X143318100Y-99191400D01*
G75*
G02*
X143241900Y-99267600I-76200J0D01*
G01*
X141394300Y-99267600D01*
G75*
G02*
X141318100Y-99191400I0J76200D01*
G01*
G37*
G36*
G01*
X141318100Y-99841400D02*
X141318100Y-99543800D01*
G75*
G02*
X141394300Y-99467600I76200J0D01*
G01*
X143241900Y-99467600D01*
G75*
G02*
X143318100Y-99543800I0J-76200D01*
G01*
X143318100Y-99841400D01*
G75*
G02*
X143241900Y-99917600I-76200J0D01*
G01*
X141394300Y-99917600D01*
G75*
G02*
X141318100Y-99841400I0J76200D01*
G01*
G37*
G36*
G01*
X141318100Y-100491400D02*
X141318100Y-100193800D01*
G75*
G02*
X141394300Y-100117600I76200J0D01*
G01*
X143241900Y-100117600D01*
G75*
G02*
X143318100Y-100193800I0J-76200D01*
G01*
X143318100Y-100491400D01*
G75*
G02*
X143241900Y-100567600I-76200J0D01*
G01*
X141394300Y-100567600D01*
G75*
G02*
X141318100Y-100491400I0J76200D01*
G01*
G37*
G36*
G01*
X141318100Y-101141400D02*
X141318100Y-100843800D01*
G75*
G02*
X141394300Y-100767600I76200J0D01*
G01*
X143241900Y-100767600D01*
G75*
G02*
X143318100Y-100843800I0J-76200D01*
G01*
X143318100Y-101141400D01*
G75*
G02*
X143241900Y-101217600I-76200J0D01*
G01*
X141394300Y-101217600D01*
G75*
G02*
X141318100Y-101141400I0J76200D01*
G01*
G37*
G36*
G01*
X141318100Y-101791400D02*
X141318100Y-101493800D01*
G75*
G02*
X141394300Y-101417600I76200J0D01*
G01*
X143241900Y-101417600D01*
G75*
G02*
X143318100Y-101493800I0J-76200D01*
G01*
X143318100Y-101791400D01*
G75*
G02*
X143241900Y-101867600I-76200J0D01*
G01*
X141394300Y-101867600D01*
G75*
G02*
X141318100Y-101791400I0J76200D01*
G01*
G37*
G36*
G01*
X141318100Y-102441400D02*
X141318100Y-102143800D01*
G75*
G02*
X141394300Y-102067600I76200J0D01*
G01*
X143241900Y-102067600D01*
G75*
G02*
X143318100Y-102143800I0J-76200D01*
G01*
X143318100Y-102441400D01*
G75*
G02*
X143241900Y-102517600I-76200J0D01*
G01*
X141394300Y-102517600D01*
G75*
G02*
X141318100Y-102441400I0J76200D01*
G01*
G37*
G36*
G01*
X141318100Y-103091400D02*
X141318100Y-102793800D01*
G75*
G02*
X141394300Y-102717600I76200J0D01*
G01*
X143241900Y-102717600D01*
G75*
G02*
X143318100Y-102793800I0J-76200D01*
G01*
X143318100Y-103091400D01*
G75*
G02*
X143241900Y-103167600I-76200J0D01*
G01*
X141394300Y-103167600D01*
G75*
G02*
X141318100Y-103091400I0J76200D01*
G01*
G37*
G36*
G01*
X141318100Y-103741400D02*
X141318100Y-103443800D01*
G75*
G02*
X141394300Y-103367600I76200J0D01*
G01*
X143241900Y-103367600D01*
G75*
G02*
X143318100Y-103443800I0J-76200D01*
G01*
X143318100Y-103741400D01*
G75*
G02*
X143241900Y-103817600I-76200J0D01*
G01*
X141394300Y-103817600D01*
G75*
G02*
X141318100Y-103741400I0J76200D01*
G01*
G37*
G36*
G01*
X141318100Y-104391400D02*
X141318100Y-104093800D01*
G75*
G02*
X141394300Y-104017600I76200J0D01*
G01*
X143241900Y-104017600D01*
G75*
G02*
X143318100Y-104093800I0J-76200D01*
G01*
X143318100Y-104391400D01*
G75*
G02*
X143241900Y-104467600I-76200J0D01*
G01*
X141394300Y-104467600D01*
G75*
G02*
X141318100Y-104391400I0J76200D01*
G01*
G37*
G36*
G01*
X141318100Y-105041400D02*
X141318100Y-104743800D01*
G75*
G02*
X141394300Y-104667600I76200J0D01*
G01*
X143241900Y-104667600D01*
G75*
G02*
X143318100Y-104743800I0J-76200D01*
G01*
X143318100Y-105041400D01*
G75*
G02*
X143241900Y-105117600I-76200J0D01*
G01*
X141394300Y-105117600D01*
G75*
G02*
X141318100Y-105041400I0J76200D01*
G01*
G37*
G36*
G01*
X141318100Y-105691400D02*
X141318100Y-105393800D01*
G75*
G02*
X141394300Y-105317600I76200J0D01*
G01*
X143241900Y-105317600D01*
G75*
G02*
X143318100Y-105393800I0J-76200D01*
G01*
X143318100Y-105691400D01*
G75*
G02*
X143241900Y-105767600I-76200J0D01*
G01*
X141394300Y-105767600D01*
G75*
G02*
X141318100Y-105691400I0J76200D01*
G01*
G37*
G36*
G01*
X141318100Y-106341400D02*
X141318100Y-106043800D01*
G75*
G02*
X141394300Y-105967600I76200J0D01*
G01*
X143241900Y-105967600D01*
G75*
G02*
X143318100Y-106043800I0J-76200D01*
G01*
X143318100Y-106341400D01*
G75*
G02*
X143241900Y-106417600I-76200J0D01*
G01*
X141394300Y-106417600D01*
G75*
G02*
X141318100Y-106341400I0J76200D01*
G01*
G37*
G36*
G01*
X141318100Y-106991400D02*
X141318100Y-106693800D01*
G75*
G02*
X141394300Y-106617600I76200J0D01*
G01*
X143241900Y-106617600D01*
G75*
G02*
X143318100Y-106693800I0J-76200D01*
G01*
X143318100Y-106991400D01*
G75*
G02*
X143241900Y-107067600I-76200J0D01*
G01*
X141394300Y-107067600D01*
G75*
G02*
X141318100Y-106991400I0J76200D01*
G01*
G37*
G36*
G01*
X141318100Y-107641400D02*
X141318100Y-107343800D01*
G75*
G02*
X141394300Y-107267600I76200J0D01*
G01*
X143241900Y-107267600D01*
G75*
G02*
X143318100Y-107343800I0J-76200D01*
G01*
X143318100Y-107641400D01*
G75*
G02*
X143241900Y-107717600I-76200J0D01*
G01*
X141394300Y-107717600D01*
G75*
G02*
X141318100Y-107641400I0J76200D01*
G01*
G37*
G36*
G01*
X141318100Y-108291400D02*
X141318100Y-107993800D01*
G75*
G02*
X141394300Y-107917600I76200J0D01*
G01*
X143241900Y-107917600D01*
G75*
G02*
X143318100Y-107993800I0J-76200D01*
G01*
X143318100Y-108291400D01*
G75*
G02*
X143241900Y-108367600I-76200J0D01*
G01*
X141394300Y-108367600D01*
G75*
G02*
X141318100Y-108291400I0J76200D01*
G01*
G37*
G36*
G01*
X141318100Y-108941400D02*
X141318100Y-108643800D01*
G75*
G02*
X141394300Y-108567600I76200J0D01*
G01*
X143241900Y-108567600D01*
G75*
G02*
X143318100Y-108643800I0J-76200D01*
G01*
X143318100Y-108941400D01*
G75*
G02*
X143241900Y-109017600I-76200J0D01*
G01*
X141394300Y-109017600D01*
G75*
G02*
X141318100Y-108941400I0J76200D01*
G01*
G37*
G36*
G01*
X141318100Y-109591400D02*
X141318100Y-109293800D01*
G75*
G02*
X141394300Y-109217600I76200J0D01*
G01*
X143241900Y-109217600D01*
G75*
G02*
X143318100Y-109293800I0J-76200D01*
G01*
X143318100Y-109591400D01*
G75*
G02*
X143241900Y-109667600I-76200J0D01*
G01*
X141394300Y-109667600D01*
G75*
G02*
X141318100Y-109591400I0J76200D01*
G01*
G37*
G36*
G01*
X141318100Y-110241400D02*
X141318100Y-109943800D01*
G75*
G02*
X141394300Y-109867600I76200J0D01*
G01*
X143241900Y-109867600D01*
G75*
G02*
X143318100Y-109943800I0J-76200D01*
G01*
X143318100Y-110241400D01*
G75*
G02*
X143241900Y-110317600I-76200J0D01*
G01*
X141394300Y-110317600D01*
G75*
G02*
X141318100Y-110241400I0J76200D01*
G01*
G37*
G36*
G01*
X141318100Y-110891400D02*
X141318100Y-110593800D01*
G75*
G02*
X141394300Y-110517600I76200J0D01*
G01*
X143241900Y-110517600D01*
G75*
G02*
X143318100Y-110593800I0J-76200D01*
G01*
X143318100Y-110891400D01*
G75*
G02*
X143241900Y-110967600I-76200J0D01*
G01*
X141394300Y-110967600D01*
G75*
G02*
X141318100Y-110891400I0J76200D01*
G01*
G37*
G36*
G01*
X141318100Y-111541400D02*
X141318100Y-111243800D01*
G75*
G02*
X141394300Y-111167600I76200J0D01*
G01*
X143241900Y-111167600D01*
G75*
G02*
X143318100Y-111243800I0J-76200D01*
G01*
X143318100Y-111541400D01*
G75*
G02*
X143241900Y-111617600I-76200J0D01*
G01*
X141394300Y-111617600D01*
G75*
G02*
X141318100Y-111541400I0J76200D01*
G01*
G37*
G36*
G01*
X141318100Y-112191400D02*
X141318100Y-111893800D01*
G75*
G02*
X141394300Y-111817600I76200J0D01*
G01*
X143241900Y-111817600D01*
G75*
G02*
X143318100Y-111893800I0J-76200D01*
G01*
X143318100Y-112191400D01*
G75*
G02*
X143241900Y-112267600I-76200J0D01*
G01*
X141394300Y-112267600D01*
G75*
G02*
X141318100Y-112191400I0J76200D01*
G01*
G37*
G36*
G01*
X141318100Y-112841400D02*
X141318100Y-112543800D01*
G75*
G02*
X141394300Y-112467600I76200J0D01*
G01*
X143241900Y-112467600D01*
G75*
G02*
X143318100Y-112543800I0J-76200D01*
G01*
X143318100Y-112841400D01*
G75*
G02*
X143241900Y-112917600I-76200J0D01*
G01*
X141394300Y-112917600D01*
G75*
G02*
X141318100Y-112841400I0J76200D01*
G01*
G37*
G36*
G01*
X141318100Y-113491400D02*
X141318100Y-113193800D01*
G75*
G02*
X141394300Y-113117600I76200J0D01*
G01*
X143241900Y-113117600D01*
G75*
G02*
X143318100Y-113193800I0J-76200D01*
G01*
X143318100Y-113491400D01*
G75*
G02*
X143241900Y-113567600I-76200J0D01*
G01*
X141394300Y-113567600D01*
G75*
G02*
X141318100Y-113491400I0J76200D01*
G01*
G37*
G36*
G01*
X141318100Y-114141400D02*
X141318100Y-113843800D01*
G75*
G02*
X141394300Y-113767600I76200J0D01*
G01*
X143241900Y-113767600D01*
G75*
G02*
X143318100Y-113843800I0J-76200D01*
G01*
X143318100Y-114141400D01*
G75*
G02*
X143241900Y-114217600I-76200J0D01*
G01*
X141394300Y-114217600D01*
G75*
G02*
X141318100Y-114141400I0J76200D01*
G01*
G37*
G36*
G01*
X141318100Y-114791400D02*
X141318100Y-114493800D01*
G75*
G02*
X141394300Y-114417600I76200J0D01*
G01*
X143241900Y-114417600D01*
G75*
G02*
X143318100Y-114493800I0J-76200D01*
G01*
X143318100Y-114791400D01*
G75*
G02*
X143241900Y-114867600I-76200J0D01*
G01*
X141394300Y-114867600D01*
G75*
G02*
X141318100Y-114791400I0J76200D01*
G01*
G37*
G36*
G01*
X141318100Y-115441400D02*
X141318100Y-115143800D01*
G75*
G02*
X141394300Y-115067600I76200J0D01*
G01*
X143241900Y-115067600D01*
G75*
G02*
X143318100Y-115143800I0J-76200D01*
G01*
X143318100Y-115441400D01*
G75*
G02*
X143241900Y-115517600I-76200J0D01*
G01*
X141394300Y-115517600D01*
G75*
G02*
X141318100Y-115441400I0J76200D01*
G01*
G37*
G36*
G01*
X141318100Y-116091400D02*
X141318100Y-115793800D01*
G75*
G02*
X141394300Y-115717600I76200J0D01*
G01*
X143241900Y-115717600D01*
G75*
G02*
X143318100Y-115793800I0J-76200D01*
G01*
X143318100Y-116091400D01*
G75*
G02*
X143241900Y-116167600I-76200J0D01*
G01*
X141394300Y-116167600D01*
G75*
G02*
X141318100Y-116091400I0J76200D01*
G01*
G37*
G36*
G01*
X141318100Y-116741400D02*
X141318100Y-116443800D01*
G75*
G02*
X141394300Y-116367600I76200J0D01*
G01*
X143241900Y-116367600D01*
G75*
G02*
X143318100Y-116443800I0J-76200D01*
G01*
X143318100Y-116741400D01*
G75*
G02*
X143241900Y-116817600I-76200J0D01*
G01*
X141394300Y-116817600D01*
G75*
G02*
X141318100Y-116741400I0J76200D01*
G01*
G37*
G36*
G01*
X141318100Y-117391400D02*
X141318100Y-117093800D01*
G75*
G02*
X141394300Y-117017600I76200J0D01*
G01*
X143241900Y-117017600D01*
G75*
G02*
X143318100Y-117093800I0J-76200D01*
G01*
X143318100Y-117391400D01*
G75*
G02*
X143241900Y-117467600I-76200J0D01*
G01*
X141394300Y-117467600D01*
G75*
G02*
X141318100Y-117391400I0J76200D01*
G01*
G37*
G36*
G01*
X141318100Y-118041400D02*
X141318100Y-117743800D01*
G75*
G02*
X141394300Y-117667600I76200J0D01*
G01*
X143241900Y-117667600D01*
G75*
G02*
X143318100Y-117743800I0J-76200D01*
G01*
X143318100Y-118041400D01*
G75*
G02*
X143241900Y-118117600I-76200J0D01*
G01*
X141394300Y-118117600D01*
G75*
G02*
X141318100Y-118041400I0J76200D01*
G01*
G37*
G36*
G01*
X141318100Y-118691400D02*
X141318100Y-118393800D01*
G75*
G02*
X141394300Y-118317600I76200J0D01*
G01*
X143241900Y-118317600D01*
G75*
G02*
X143318100Y-118393800I0J-76200D01*
G01*
X143318100Y-118691400D01*
G75*
G02*
X143241900Y-118767600I-76200J0D01*
G01*
X141394300Y-118767600D01*
G75*
G02*
X141318100Y-118691400I0J76200D01*
G01*
G37*
G36*
G01*
X141318100Y-119341400D02*
X141318100Y-119043800D01*
G75*
G02*
X141394300Y-118967600I76200J0D01*
G01*
X143241900Y-118967600D01*
G75*
G02*
X143318100Y-119043800I0J-76200D01*
G01*
X143318100Y-119341400D01*
G75*
G02*
X143241900Y-119417600I-76200J0D01*
G01*
X141394300Y-119417600D01*
G75*
G02*
X141318100Y-119341400I0J76200D01*
G01*
G37*
G36*
G01*
X141318100Y-119991400D02*
X141318100Y-119693800D01*
G75*
G02*
X141394300Y-119617600I76200J0D01*
G01*
X143241900Y-119617600D01*
G75*
G02*
X143318100Y-119693800I0J-76200D01*
G01*
X143318100Y-119991400D01*
G75*
G02*
X143241900Y-120067600I-76200J0D01*
G01*
X141394300Y-120067600D01*
G75*
G02*
X141318100Y-119991400I0J76200D01*
G01*
G37*
G36*
G01*
X144693100Y-123366400D02*
X144693100Y-121518800D01*
G75*
G02*
X144769300Y-121442600I76200J0D01*
G01*
X145066900Y-121442600D01*
G75*
G02*
X145143100Y-121518800I0J-76200D01*
G01*
X145143100Y-123366400D01*
G75*
G02*
X145066900Y-123442600I-76200J0D01*
G01*
X144769300Y-123442600D01*
G75*
G02*
X144693100Y-123366400I0J76200D01*
G01*
G37*
G36*
G01*
X145343100Y-123366400D02*
X145343100Y-121518800D01*
G75*
G02*
X145419300Y-121442600I76200J0D01*
G01*
X145716900Y-121442600D01*
G75*
G02*
X145793100Y-121518800I0J-76200D01*
G01*
X145793100Y-123366400D01*
G75*
G02*
X145716900Y-123442600I-76200J0D01*
G01*
X145419300Y-123442600D01*
G75*
G02*
X145343100Y-123366400I0J76200D01*
G01*
G37*
G36*
G01*
X145993100Y-123366400D02*
X145993100Y-121518800D01*
G75*
G02*
X146069300Y-121442600I76200J0D01*
G01*
X146366900Y-121442600D01*
G75*
G02*
X146443100Y-121518800I0J-76200D01*
G01*
X146443100Y-123366400D01*
G75*
G02*
X146366900Y-123442600I-76200J0D01*
G01*
X146069300Y-123442600D01*
G75*
G02*
X145993100Y-123366400I0J76200D01*
G01*
G37*
G36*
G01*
X146643100Y-123366400D02*
X146643100Y-121518800D01*
G75*
G02*
X146719300Y-121442600I76200J0D01*
G01*
X147016900Y-121442600D01*
G75*
G02*
X147093100Y-121518800I0J-76200D01*
G01*
X147093100Y-123366400D01*
G75*
G02*
X147016900Y-123442600I-76200J0D01*
G01*
X146719300Y-123442600D01*
G75*
G02*
X146643100Y-123366400I0J76200D01*
G01*
G37*
G36*
G01*
X147293100Y-123366400D02*
X147293100Y-121518800D01*
G75*
G02*
X147369300Y-121442600I76200J0D01*
G01*
X147666900Y-121442600D01*
G75*
G02*
X147743100Y-121518800I0J-76200D01*
G01*
X147743100Y-123366400D01*
G75*
G02*
X147666900Y-123442600I-76200J0D01*
G01*
X147369300Y-123442600D01*
G75*
G02*
X147293100Y-123366400I0J76200D01*
G01*
G37*
G36*
G01*
X147943100Y-123366400D02*
X147943100Y-121518800D01*
G75*
G02*
X148019300Y-121442600I76200J0D01*
G01*
X148316900Y-121442600D01*
G75*
G02*
X148393100Y-121518800I0J-76200D01*
G01*
X148393100Y-123366400D01*
G75*
G02*
X148316900Y-123442600I-76200J0D01*
G01*
X148019300Y-123442600D01*
G75*
G02*
X147943100Y-123366400I0J76200D01*
G01*
G37*
G36*
G01*
X148593100Y-123366400D02*
X148593100Y-121518800D01*
G75*
G02*
X148669300Y-121442600I76200J0D01*
G01*
X148966900Y-121442600D01*
G75*
G02*
X149043100Y-121518800I0J-76200D01*
G01*
X149043100Y-123366400D01*
G75*
G02*
X148966900Y-123442600I-76200J0D01*
G01*
X148669300Y-123442600D01*
G75*
G02*
X148593100Y-123366400I0J76200D01*
G01*
G37*
G36*
G01*
X149243100Y-123366400D02*
X149243100Y-121518800D01*
G75*
G02*
X149319300Y-121442600I76200J0D01*
G01*
X149616900Y-121442600D01*
G75*
G02*
X149693100Y-121518800I0J-76200D01*
G01*
X149693100Y-123366400D01*
G75*
G02*
X149616900Y-123442600I-76200J0D01*
G01*
X149319300Y-123442600D01*
G75*
G02*
X149243100Y-123366400I0J76200D01*
G01*
G37*
G36*
G01*
X149893100Y-123366400D02*
X149893100Y-121518800D01*
G75*
G02*
X149969300Y-121442600I76200J0D01*
G01*
X150266900Y-121442600D01*
G75*
G02*
X150343100Y-121518800I0J-76200D01*
G01*
X150343100Y-123366400D01*
G75*
G02*
X150266900Y-123442600I-76200J0D01*
G01*
X149969300Y-123442600D01*
G75*
G02*
X149893100Y-123366400I0J76200D01*
G01*
G37*
G36*
G01*
X150543100Y-123366400D02*
X150543100Y-121518800D01*
G75*
G02*
X150619300Y-121442600I76200J0D01*
G01*
X150916900Y-121442600D01*
G75*
G02*
X150993100Y-121518800I0J-76200D01*
G01*
X150993100Y-123366400D01*
G75*
G02*
X150916900Y-123442600I-76200J0D01*
G01*
X150619300Y-123442600D01*
G75*
G02*
X150543100Y-123366400I0J76200D01*
G01*
G37*
G36*
G01*
X151193100Y-123366400D02*
X151193100Y-121518800D01*
G75*
G02*
X151269300Y-121442600I76200J0D01*
G01*
X151566900Y-121442600D01*
G75*
G02*
X151643100Y-121518800I0J-76200D01*
G01*
X151643100Y-123366400D01*
G75*
G02*
X151566900Y-123442600I-76200J0D01*
G01*
X151269300Y-123442600D01*
G75*
G02*
X151193100Y-123366400I0J76200D01*
G01*
G37*
G36*
G01*
X151843100Y-123366400D02*
X151843100Y-121518800D01*
G75*
G02*
X151919300Y-121442600I76200J0D01*
G01*
X152216900Y-121442600D01*
G75*
G02*
X152293100Y-121518800I0J-76200D01*
G01*
X152293100Y-123366400D01*
G75*
G02*
X152216900Y-123442600I-76200J0D01*
G01*
X151919300Y-123442600D01*
G75*
G02*
X151843100Y-123366400I0J76200D01*
G01*
G37*
G36*
G01*
X152493100Y-123366400D02*
X152493100Y-121518800D01*
G75*
G02*
X152569300Y-121442600I76200J0D01*
G01*
X152866900Y-121442600D01*
G75*
G02*
X152943100Y-121518800I0J-76200D01*
G01*
X152943100Y-123366400D01*
G75*
G02*
X152866900Y-123442600I-76200J0D01*
G01*
X152569300Y-123442600D01*
G75*
G02*
X152493100Y-123366400I0J76200D01*
G01*
G37*
G36*
G01*
X153143100Y-123366400D02*
X153143100Y-121518800D01*
G75*
G02*
X153219300Y-121442600I76200J0D01*
G01*
X153516900Y-121442600D01*
G75*
G02*
X153593100Y-121518800I0J-76200D01*
G01*
X153593100Y-123366400D01*
G75*
G02*
X153516900Y-123442600I-76200J0D01*
G01*
X153219300Y-123442600D01*
G75*
G02*
X153143100Y-123366400I0J76200D01*
G01*
G37*
G36*
G01*
X153793100Y-123366400D02*
X153793100Y-121518800D01*
G75*
G02*
X153869300Y-121442600I76200J0D01*
G01*
X154166900Y-121442600D01*
G75*
G02*
X154243100Y-121518800I0J-76200D01*
G01*
X154243100Y-123366400D01*
G75*
G02*
X154166900Y-123442600I-76200J0D01*
G01*
X153869300Y-123442600D01*
G75*
G02*
X153793100Y-123366400I0J76200D01*
G01*
G37*
G36*
G01*
X154443100Y-123366400D02*
X154443100Y-121518800D01*
G75*
G02*
X154519300Y-121442600I76200J0D01*
G01*
X154816900Y-121442600D01*
G75*
G02*
X154893100Y-121518800I0J-76200D01*
G01*
X154893100Y-123366400D01*
G75*
G02*
X154816900Y-123442600I-76200J0D01*
G01*
X154519300Y-123442600D01*
G75*
G02*
X154443100Y-123366400I0J76200D01*
G01*
G37*
G36*
G01*
X155093100Y-123366400D02*
X155093100Y-121518800D01*
G75*
G02*
X155169300Y-121442600I76200J0D01*
G01*
X155466900Y-121442600D01*
G75*
G02*
X155543100Y-121518800I0J-76200D01*
G01*
X155543100Y-123366400D01*
G75*
G02*
X155466900Y-123442600I-76200J0D01*
G01*
X155169300Y-123442600D01*
G75*
G02*
X155093100Y-123366400I0J76200D01*
G01*
G37*
G36*
G01*
X155743100Y-123366400D02*
X155743100Y-121518800D01*
G75*
G02*
X155819300Y-121442600I76200J0D01*
G01*
X156116900Y-121442600D01*
G75*
G02*
X156193100Y-121518800I0J-76200D01*
G01*
X156193100Y-123366400D01*
G75*
G02*
X156116900Y-123442600I-76200J0D01*
G01*
X155819300Y-123442600D01*
G75*
G02*
X155743100Y-123366400I0J76200D01*
G01*
G37*
G36*
G01*
X156393100Y-123366400D02*
X156393100Y-121518800D01*
G75*
G02*
X156469300Y-121442600I76200J0D01*
G01*
X156766900Y-121442600D01*
G75*
G02*
X156843100Y-121518800I0J-76200D01*
G01*
X156843100Y-123366400D01*
G75*
G02*
X156766900Y-123442600I-76200J0D01*
G01*
X156469300Y-123442600D01*
G75*
G02*
X156393100Y-123366400I0J76200D01*
G01*
G37*
G36*
G01*
X157043100Y-123366400D02*
X157043100Y-121518800D01*
G75*
G02*
X157119300Y-121442600I76200J0D01*
G01*
X157416900Y-121442600D01*
G75*
G02*
X157493100Y-121518800I0J-76200D01*
G01*
X157493100Y-123366400D01*
G75*
G02*
X157416900Y-123442600I-76200J0D01*
G01*
X157119300Y-123442600D01*
G75*
G02*
X157043100Y-123366400I0J76200D01*
G01*
G37*
G36*
G01*
X157693100Y-123366400D02*
X157693100Y-121518800D01*
G75*
G02*
X157769300Y-121442600I76200J0D01*
G01*
X158066900Y-121442600D01*
G75*
G02*
X158143100Y-121518800I0J-76200D01*
G01*
X158143100Y-123366400D01*
G75*
G02*
X158066900Y-123442600I-76200J0D01*
G01*
X157769300Y-123442600D01*
G75*
G02*
X157693100Y-123366400I0J76200D01*
G01*
G37*
G36*
G01*
X158343100Y-123366400D02*
X158343100Y-121518800D01*
G75*
G02*
X158419300Y-121442600I76200J0D01*
G01*
X158716900Y-121442600D01*
G75*
G02*
X158793100Y-121518800I0J-76200D01*
G01*
X158793100Y-123366400D01*
G75*
G02*
X158716900Y-123442600I-76200J0D01*
G01*
X158419300Y-123442600D01*
G75*
G02*
X158343100Y-123366400I0J76200D01*
G01*
G37*
G36*
G01*
X158993100Y-123366400D02*
X158993100Y-121518800D01*
G75*
G02*
X159069300Y-121442600I76200J0D01*
G01*
X159366900Y-121442600D01*
G75*
G02*
X159443100Y-121518800I0J-76200D01*
G01*
X159443100Y-123366400D01*
G75*
G02*
X159366900Y-123442600I-76200J0D01*
G01*
X159069300Y-123442600D01*
G75*
G02*
X158993100Y-123366400I0J76200D01*
G01*
G37*
G36*
G01*
X159643100Y-123366400D02*
X159643100Y-121518800D01*
G75*
G02*
X159719300Y-121442600I76200J0D01*
G01*
X160016900Y-121442600D01*
G75*
G02*
X160093100Y-121518800I0J-76200D01*
G01*
X160093100Y-123366400D01*
G75*
G02*
X160016900Y-123442600I-76200J0D01*
G01*
X159719300Y-123442600D01*
G75*
G02*
X159643100Y-123366400I0J76200D01*
G01*
G37*
G36*
G01*
X160293100Y-123366400D02*
X160293100Y-121518800D01*
G75*
G02*
X160369300Y-121442600I76200J0D01*
G01*
X160666900Y-121442600D01*
G75*
G02*
X160743100Y-121518800I0J-76200D01*
G01*
X160743100Y-123366400D01*
G75*
G02*
X160666900Y-123442600I-76200J0D01*
G01*
X160369300Y-123442600D01*
G75*
G02*
X160293100Y-123366400I0J76200D01*
G01*
G37*
G36*
G01*
X160943100Y-123366400D02*
X160943100Y-121518800D01*
G75*
G02*
X161019300Y-121442600I76200J0D01*
G01*
X161316900Y-121442600D01*
G75*
G02*
X161393100Y-121518800I0J-76200D01*
G01*
X161393100Y-123366400D01*
G75*
G02*
X161316900Y-123442600I-76200J0D01*
G01*
X161019300Y-123442600D01*
G75*
G02*
X160943100Y-123366400I0J76200D01*
G01*
G37*
G36*
G01*
X161593100Y-123366400D02*
X161593100Y-121518800D01*
G75*
G02*
X161669300Y-121442600I76200J0D01*
G01*
X161966900Y-121442600D01*
G75*
G02*
X162043100Y-121518800I0J-76200D01*
G01*
X162043100Y-123366400D01*
G75*
G02*
X161966900Y-123442600I-76200J0D01*
G01*
X161669300Y-123442600D01*
G75*
G02*
X161593100Y-123366400I0J76200D01*
G01*
G37*
G36*
G01*
X162243100Y-123366400D02*
X162243100Y-121518800D01*
G75*
G02*
X162319300Y-121442600I76200J0D01*
G01*
X162616900Y-121442600D01*
G75*
G02*
X162693100Y-121518800I0J-76200D01*
G01*
X162693100Y-123366400D01*
G75*
G02*
X162616900Y-123442600I-76200J0D01*
G01*
X162319300Y-123442600D01*
G75*
G02*
X162243100Y-123366400I0J76200D01*
G01*
G37*
G36*
G01*
X162893100Y-123366400D02*
X162893100Y-121518800D01*
G75*
G02*
X162969300Y-121442600I76200J0D01*
G01*
X163266900Y-121442600D01*
G75*
G02*
X163343100Y-121518800I0J-76200D01*
G01*
X163343100Y-123366400D01*
G75*
G02*
X163266900Y-123442600I-76200J0D01*
G01*
X162969300Y-123442600D01*
G75*
G02*
X162893100Y-123366400I0J76200D01*
G01*
G37*
G36*
G01*
X163543100Y-123366400D02*
X163543100Y-121518800D01*
G75*
G02*
X163619300Y-121442600I76200J0D01*
G01*
X163916900Y-121442600D01*
G75*
G02*
X163993100Y-121518800I0J-76200D01*
G01*
X163993100Y-123366400D01*
G75*
G02*
X163916900Y-123442600I-76200J0D01*
G01*
X163619300Y-123442600D01*
G75*
G02*
X163543100Y-123366400I0J76200D01*
G01*
G37*
G36*
G01*
X164193100Y-123366400D02*
X164193100Y-121518800D01*
G75*
G02*
X164269300Y-121442600I76200J0D01*
G01*
X164566900Y-121442600D01*
G75*
G02*
X164643100Y-121518800I0J-76200D01*
G01*
X164643100Y-123366400D01*
G75*
G02*
X164566900Y-123442600I-76200J0D01*
G01*
X164269300Y-123442600D01*
G75*
G02*
X164193100Y-123366400I0J76200D01*
G01*
G37*
G36*
G01*
X164843100Y-123366400D02*
X164843100Y-121518800D01*
G75*
G02*
X164919300Y-121442600I76200J0D01*
G01*
X165216900Y-121442600D01*
G75*
G02*
X165293100Y-121518800I0J-76200D01*
G01*
X165293100Y-123366400D01*
G75*
G02*
X165216900Y-123442600I-76200J0D01*
G01*
X164919300Y-123442600D01*
G75*
G02*
X164843100Y-123366400I0J76200D01*
G01*
G37*
G36*
G01*
X165493100Y-123366400D02*
X165493100Y-121518800D01*
G75*
G02*
X165569300Y-121442600I76200J0D01*
G01*
X165866900Y-121442600D01*
G75*
G02*
X165943100Y-121518800I0J-76200D01*
G01*
X165943100Y-123366400D01*
G75*
G02*
X165866900Y-123442600I-76200J0D01*
G01*
X165569300Y-123442600D01*
G75*
G02*
X165493100Y-123366400I0J76200D01*
G01*
G37*
G36*
G01*
X166143100Y-123366400D02*
X166143100Y-121518800D01*
G75*
G02*
X166219300Y-121442600I76200J0D01*
G01*
X166516900Y-121442600D01*
G75*
G02*
X166593100Y-121518800I0J-76200D01*
G01*
X166593100Y-123366400D01*
G75*
G02*
X166516900Y-123442600I-76200J0D01*
G01*
X166219300Y-123442600D01*
G75*
G02*
X166143100Y-123366400I0J76200D01*
G01*
G37*
G36*
G01*
X166793100Y-123366400D02*
X166793100Y-121518800D01*
G75*
G02*
X166869300Y-121442600I76200J0D01*
G01*
X167166900Y-121442600D01*
G75*
G02*
X167243100Y-121518800I0J-76200D01*
G01*
X167243100Y-123366400D01*
G75*
G02*
X167166900Y-123442600I-76200J0D01*
G01*
X166869300Y-123442600D01*
G75*
G02*
X166793100Y-123366400I0J76200D01*
G01*
G37*
G36*
G01*
X167443100Y-123366400D02*
X167443100Y-121518800D01*
G75*
G02*
X167519300Y-121442600I76200J0D01*
G01*
X167816900Y-121442600D01*
G75*
G02*
X167893100Y-121518800I0J-76200D01*
G01*
X167893100Y-123366400D01*
G75*
G02*
X167816900Y-123442600I-76200J0D01*
G01*
X167519300Y-123442600D01*
G75*
G02*
X167443100Y-123366400I0J76200D01*
G01*
G37*
G36*
G01*
X168093100Y-123366400D02*
X168093100Y-121518800D01*
G75*
G02*
X168169300Y-121442600I76200J0D01*
G01*
X168466900Y-121442600D01*
G75*
G02*
X168543100Y-121518800I0J-76200D01*
G01*
X168543100Y-123366400D01*
G75*
G02*
X168466900Y-123442600I-76200J0D01*
G01*
X168169300Y-123442600D01*
G75*
G02*
X168093100Y-123366400I0J76200D01*
G01*
G37*
G36*
G01*
X168743100Y-123366400D02*
X168743100Y-121518800D01*
G75*
G02*
X168819300Y-121442600I76200J0D01*
G01*
X169116900Y-121442600D01*
G75*
G02*
X169193100Y-121518800I0J-76200D01*
G01*
X169193100Y-123366400D01*
G75*
G02*
X169116900Y-123442600I-76200J0D01*
G01*
X168819300Y-123442600D01*
G75*
G02*
X168743100Y-123366400I0J76200D01*
G01*
G37*
G36*
G01*
X169393100Y-123366400D02*
X169393100Y-121518800D01*
G75*
G02*
X169469300Y-121442600I76200J0D01*
G01*
X169766900Y-121442600D01*
G75*
G02*
X169843100Y-121518800I0J-76200D01*
G01*
X169843100Y-123366400D01*
G75*
G02*
X169766900Y-123442600I-76200J0D01*
G01*
X169469300Y-123442600D01*
G75*
G02*
X169393100Y-123366400I0J76200D01*
G01*
G37*
G36*
G01*
X170043100Y-123366400D02*
X170043100Y-121518800D01*
G75*
G02*
X170119300Y-121442600I76200J0D01*
G01*
X170416900Y-121442600D01*
G75*
G02*
X170493100Y-121518800I0J-76200D01*
G01*
X170493100Y-123366400D01*
G75*
G02*
X170416900Y-123442600I-76200J0D01*
G01*
X170119300Y-123442600D01*
G75*
G02*
X170043100Y-123366400I0J76200D01*
G01*
G37*
G36*
G01*
X171868100Y-119991400D02*
X171868100Y-119693800D01*
G75*
G02*
X171944300Y-119617600I76200J0D01*
G01*
X173791900Y-119617600D01*
G75*
G02*
X173868100Y-119693800I0J-76200D01*
G01*
X173868100Y-119991400D01*
G75*
G02*
X173791900Y-120067600I-76200J0D01*
G01*
X171944300Y-120067600D01*
G75*
G02*
X171868100Y-119991400I0J76200D01*
G01*
G37*
G36*
G01*
X171868100Y-119341400D02*
X171868100Y-119043800D01*
G75*
G02*
X171944300Y-118967600I76200J0D01*
G01*
X173791900Y-118967600D01*
G75*
G02*
X173868100Y-119043800I0J-76200D01*
G01*
X173868100Y-119341400D01*
G75*
G02*
X173791900Y-119417600I-76200J0D01*
G01*
X171944300Y-119417600D01*
G75*
G02*
X171868100Y-119341400I0J76200D01*
G01*
G37*
G36*
G01*
X171868100Y-118691400D02*
X171868100Y-118393800D01*
G75*
G02*
X171944300Y-118317600I76200J0D01*
G01*
X173791900Y-118317600D01*
G75*
G02*
X173868100Y-118393800I0J-76200D01*
G01*
X173868100Y-118691400D01*
G75*
G02*
X173791900Y-118767600I-76200J0D01*
G01*
X171944300Y-118767600D01*
G75*
G02*
X171868100Y-118691400I0J76200D01*
G01*
G37*
G36*
G01*
X171868100Y-118041400D02*
X171868100Y-117743800D01*
G75*
G02*
X171944300Y-117667600I76200J0D01*
G01*
X173791900Y-117667600D01*
G75*
G02*
X173868100Y-117743800I0J-76200D01*
G01*
X173868100Y-118041400D01*
G75*
G02*
X173791900Y-118117600I-76200J0D01*
G01*
X171944300Y-118117600D01*
G75*
G02*
X171868100Y-118041400I0J76200D01*
G01*
G37*
G36*
G01*
X171868100Y-117391400D02*
X171868100Y-117093800D01*
G75*
G02*
X171944300Y-117017600I76200J0D01*
G01*
X173791900Y-117017600D01*
G75*
G02*
X173868100Y-117093800I0J-76200D01*
G01*
X173868100Y-117391400D01*
G75*
G02*
X173791900Y-117467600I-76200J0D01*
G01*
X171944300Y-117467600D01*
G75*
G02*
X171868100Y-117391400I0J76200D01*
G01*
G37*
G36*
G01*
X171868100Y-116741400D02*
X171868100Y-116443800D01*
G75*
G02*
X171944300Y-116367600I76200J0D01*
G01*
X173791900Y-116367600D01*
G75*
G02*
X173868100Y-116443800I0J-76200D01*
G01*
X173868100Y-116741400D01*
G75*
G02*
X173791900Y-116817600I-76200J0D01*
G01*
X171944300Y-116817600D01*
G75*
G02*
X171868100Y-116741400I0J76200D01*
G01*
G37*
G36*
G01*
X171868100Y-116091400D02*
X171868100Y-115793800D01*
G75*
G02*
X171944300Y-115717600I76200J0D01*
G01*
X173791900Y-115717600D01*
G75*
G02*
X173868100Y-115793800I0J-76200D01*
G01*
X173868100Y-116091400D01*
G75*
G02*
X173791900Y-116167600I-76200J0D01*
G01*
X171944300Y-116167600D01*
G75*
G02*
X171868100Y-116091400I0J76200D01*
G01*
G37*
G36*
G01*
X171868100Y-115441400D02*
X171868100Y-115143800D01*
G75*
G02*
X171944300Y-115067600I76200J0D01*
G01*
X173791900Y-115067600D01*
G75*
G02*
X173868100Y-115143800I0J-76200D01*
G01*
X173868100Y-115441400D01*
G75*
G02*
X173791900Y-115517600I-76200J0D01*
G01*
X171944300Y-115517600D01*
G75*
G02*
X171868100Y-115441400I0J76200D01*
G01*
G37*
G36*
G01*
X171868100Y-114791400D02*
X171868100Y-114493800D01*
G75*
G02*
X171944300Y-114417600I76200J0D01*
G01*
X173791900Y-114417600D01*
G75*
G02*
X173868100Y-114493800I0J-76200D01*
G01*
X173868100Y-114791400D01*
G75*
G02*
X173791900Y-114867600I-76200J0D01*
G01*
X171944300Y-114867600D01*
G75*
G02*
X171868100Y-114791400I0J76200D01*
G01*
G37*
G36*
G01*
X171868100Y-114141400D02*
X171868100Y-113843800D01*
G75*
G02*
X171944300Y-113767600I76200J0D01*
G01*
X173791900Y-113767600D01*
G75*
G02*
X173868100Y-113843800I0J-76200D01*
G01*
X173868100Y-114141400D01*
G75*
G02*
X173791900Y-114217600I-76200J0D01*
G01*
X171944300Y-114217600D01*
G75*
G02*
X171868100Y-114141400I0J76200D01*
G01*
G37*
G36*
G01*
X171868100Y-113491400D02*
X171868100Y-113193800D01*
G75*
G02*
X171944300Y-113117600I76200J0D01*
G01*
X173791900Y-113117600D01*
G75*
G02*
X173868100Y-113193800I0J-76200D01*
G01*
X173868100Y-113491400D01*
G75*
G02*
X173791900Y-113567600I-76200J0D01*
G01*
X171944300Y-113567600D01*
G75*
G02*
X171868100Y-113491400I0J76200D01*
G01*
G37*
G36*
G01*
X171868100Y-112841400D02*
X171868100Y-112543800D01*
G75*
G02*
X171944300Y-112467600I76200J0D01*
G01*
X173791900Y-112467600D01*
G75*
G02*
X173868100Y-112543800I0J-76200D01*
G01*
X173868100Y-112841400D01*
G75*
G02*
X173791900Y-112917600I-76200J0D01*
G01*
X171944300Y-112917600D01*
G75*
G02*
X171868100Y-112841400I0J76200D01*
G01*
G37*
G36*
G01*
X171868100Y-112191400D02*
X171868100Y-111893800D01*
G75*
G02*
X171944300Y-111817600I76200J0D01*
G01*
X173791900Y-111817600D01*
G75*
G02*
X173868100Y-111893800I0J-76200D01*
G01*
X173868100Y-112191400D01*
G75*
G02*
X173791900Y-112267600I-76200J0D01*
G01*
X171944300Y-112267600D01*
G75*
G02*
X171868100Y-112191400I0J76200D01*
G01*
G37*
G36*
G01*
X171868100Y-111541400D02*
X171868100Y-111243800D01*
G75*
G02*
X171944300Y-111167600I76200J0D01*
G01*
X173791900Y-111167600D01*
G75*
G02*
X173868100Y-111243800I0J-76200D01*
G01*
X173868100Y-111541400D01*
G75*
G02*
X173791900Y-111617600I-76200J0D01*
G01*
X171944300Y-111617600D01*
G75*
G02*
X171868100Y-111541400I0J76200D01*
G01*
G37*
G36*
G01*
X171868100Y-110891400D02*
X171868100Y-110593800D01*
G75*
G02*
X171944300Y-110517600I76200J0D01*
G01*
X173791900Y-110517600D01*
G75*
G02*
X173868100Y-110593800I0J-76200D01*
G01*
X173868100Y-110891400D01*
G75*
G02*
X173791900Y-110967600I-76200J0D01*
G01*
X171944300Y-110967600D01*
G75*
G02*
X171868100Y-110891400I0J76200D01*
G01*
G37*
G36*
G01*
X171868100Y-110241400D02*
X171868100Y-109943800D01*
G75*
G02*
X171944300Y-109867600I76200J0D01*
G01*
X173791900Y-109867600D01*
G75*
G02*
X173868100Y-109943800I0J-76200D01*
G01*
X173868100Y-110241400D01*
G75*
G02*
X173791900Y-110317600I-76200J0D01*
G01*
X171944300Y-110317600D01*
G75*
G02*
X171868100Y-110241400I0J76200D01*
G01*
G37*
G36*
G01*
X171868100Y-109591400D02*
X171868100Y-109293800D01*
G75*
G02*
X171944300Y-109217600I76200J0D01*
G01*
X173791900Y-109217600D01*
G75*
G02*
X173868100Y-109293800I0J-76200D01*
G01*
X173868100Y-109591400D01*
G75*
G02*
X173791900Y-109667600I-76200J0D01*
G01*
X171944300Y-109667600D01*
G75*
G02*
X171868100Y-109591400I0J76200D01*
G01*
G37*
G36*
G01*
X171868100Y-108941400D02*
X171868100Y-108643800D01*
G75*
G02*
X171944300Y-108567600I76200J0D01*
G01*
X173791900Y-108567600D01*
G75*
G02*
X173868100Y-108643800I0J-76200D01*
G01*
X173868100Y-108941400D01*
G75*
G02*
X173791900Y-109017600I-76200J0D01*
G01*
X171944300Y-109017600D01*
G75*
G02*
X171868100Y-108941400I0J76200D01*
G01*
G37*
G36*
G01*
X171868100Y-108291400D02*
X171868100Y-107993800D01*
G75*
G02*
X171944300Y-107917600I76200J0D01*
G01*
X173791900Y-107917600D01*
G75*
G02*
X173868100Y-107993800I0J-76200D01*
G01*
X173868100Y-108291400D01*
G75*
G02*
X173791900Y-108367600I-76200J0D01*
G01*
X171944300Y-108367600D01*
G75*
G02*
X171868100Y-108291400I0J76200D01*
G01*
G37*
G36*
G01*
X171868100Y-107641400D02*
X171868100Y-107343800D01*
G75*
G02*
X171944300Y-107267600I76200J0D01*
G01*
X173791900Y-107267600D01*
G75*
G02*
X173868100Y-107343800I0J-76200D01*
G01*
X173868100Y-107641400D01*
G75*
G02*
X173791900Y-107717600I-76200J0D01*
G01*
X171944300Y-107717600D01*
G75*
G02*
X171868100Y-107641400I0J76200D01*
G01*
G37*
G36*
G01*
X171868100Y-106991400D02*
X171868100Y-106693800D01*
G75*
G02*
X171944300Y-106617600I76200J0D01*
G01*
X173791900Y-106617600D01*
G75*
G02*
X173868100Y-106693800I0J-76200D01*
G01*
X173868100Y-106991400D01*
G75*
G02*
X173791900Y-107067600I-76200J0D01*
G01*
X171944300Y-107067600D01*
G75*
G02*
X171868100Y-106991400I0J76200D01*
G01*
G37*
G36*
G01*
X171868100Y-106341400D02*
X171868100Y-106043800D01*
G75*
G02*
X171944300Y-105967600I76200J0D01*
G01*
X173791900Y-105967600D01*
G75*
G02*
X173868100Y-106043800I0J-76200D01*
G01*
X173868100Y-106341400D01*
G75*
G02*
X173791900Y-106417600I-76200J0D01*
G01*
X171944300Y-106417600D01*
G75*
G02*
X171868100Y-106341400I0J76200D01*
G01*
G37*
G36*
G01*
X171868100Y-105691400D02*
X171868100Y-105393800D01*
G75*
G02*
X171944300Y-105317600I76200J0D01*
G01*
X173791900Y-105317600D01*
G75*
G02*
X173868100Y-105393800I0J-76200D01*
G01*
X173868100Y-105691400D01*
G75*
G02*
X173791900Y-105767600I-76200J0D01*
G01*
X171944300Y-105767600D01*
G75*
G02*
X171868100Y-105691400I0J76200D01*
G01*
G37*
G36*
G01*
X171868100Y-105041400D02*
X171868100Y-104743800D01*
G75*
G02*
X171944300Y-104667600I76200J0D01*
G01*
X173791900Y-104667600D01*
G75*
G02*
X173868100Y-104743800I0J-76200D01*
G01*
X173868100Y-105041400D01*
G75*
G02*
X173791900Y-105117600I-76200J0D01*
G01*
X171944300Y-105117600D01*
G75*
G02*
X171868100Y-105041400I0J76200D01*
G01*
G37*
G36*
G01*
X171868100Y-104391400D02*
X171868100Y-104093800D01*
G75*
G02*
X171944300Y-104017600I76200J0D01*
G01*
X173791900Y-104017600D01*
G75*
G02*
X173868100Y-104093800I0J-76200D01*
G01*
X173868100Y-104391400D01*
G75*
G02*
X173791900Y-104467600I-76200J0D01*
G01*
X171944300Y-104467600D01*
G75*
G02*
X171868100Y-104391400I0J76200D01*
G01*
G37*
G36*
G01*
X171868100Y-103741400D02*
X171868100Y-103443800D01*
G75*
G02*
X171944300Y-103367600I76200J0D01*
G01*
X173791900Y-103367600D01*
G75*
G02*
X173868100Y-103443800I0J-76200D01*
G01*
X173868100Y-103741400D01*
G75*
G02*
X173791900Y-103817600I-76200J0D01*
G01*
X171944300Y-103817600D01*
G75*
G02*
X171868100Y-103741400I0J76200D01*
G01*
G37*
G36*
G01*
X171868100Y-103091400D02*
X171868100Y-102793800D01*
G75*
G02*
X171944300Y-102717600I76200J0D01*
G01*
X173791900Y-102717600D01*
G75*
G02*
X173868100Y-102793800I0J-76200D01*
G01*
X173868100Y-103091400D01*
G75*
G02*
X173791900Y-103167600I-76200J0D01*
G01*
X171944300Y-103167600D01*
G75*
G02*
X171868100Y-103091400I0J76200D01*
G01*
G37*
G36*
G01*
X171868100Y-102441400D02*
X171868100Y-102143800D01*
G75*
G02*
X171944300Y-102067600I76200J0D01*
G01*
X173791900Y-102067600D01*
G75*
G02*
X173868100Y-102143800I0J-76200D01*
G01*
X173868100Y-102441400D01*
G75*
G02*
X173791900Y-102517600I-76200J0D01*
G01*
X171944300Y-102517600D01*
G75*
G02*
X171868100Y-102441400I0J76200D01*
G01*
G37*
G36*
G01*
X171868100Y-101791400D02*
X171868100Y-101493800D01*
G75*
G02*
X171944300Y-101417600I76200J0D01*
G01*
X173791900Y-101417600D01*
G75*
G02*
X173868100Y-101493800I0J-76200D01*
G01*
X173868100Y-101791400D01*
G75*
G02*
X173791900Y-101867600I-76200J0D01*
G01*
X171944300Y-101867600D01*
G75*
G02*
X171868100Y-101791400I0J76200D01*
G01*
G37*
G36*
G01*
X171868100Y-101141400D02*
X171868100Y-100843800D01*
G75*
G02*
X171944300Y-100767600I76200J0D01*
G01*
X173791900Y-100767600D01*
G75*
G02*
X173868100Y-100843800I0J-76200D01*
G01*
X173868100Y-101141400D01*
G75*
G02*
X173791900Y-101217600I-76200J0D01*
G01*
X171944300Y-101217600D01*
G75*
G02*
X171868100Y-101141400I0J76200D01*
G01*
G37*
G36*
G01*
X171868100Y-100491400D02*
X171868100Y-100193800D01*
G75*
G02*
X171944300Y-100117600I76200J0D01*
G01*
X173791900Y-100117600D01*
G75*
G02*
X173868100Y-100193800I0J-76200D01*
G01*
X173868100Y-100491400D01*
G75*
G02*
X173791900Y-100567600I-76200J0D01*
G01*
X171944300Y-100567600D01*
G75*
G02*
X171868100Y-100491400I0J76200D01*
G01*
G37*
G36*
G01*
X171868100Y-99841400D02*
X171868100Y-99543800D01*
G75*
G02*
X171944300Y-99467600I76200J0D01*
G01*
X173791900Y-99467600D01*
G75*
G02*
X173868100Y-99543800I0J-76200D01*
G01*
X173868100Y-99841400D01*
G75*
G02*
X173791900Y-99917600I-76200J0D01*
G01*
X171944300Y-99917600D01*
G75*
G02*
X171868100Y-99841400I0J76200D01*
G01*
G37*
G36*
G01*
X171868100Y-99191400D02*
X171868100Y-98893800D01*
G75*
G02*
X171944300Y-98817600I76200J0D01*
G01*
X173791900Y-98817600D01*
G75*
G02*
X173868100Y-98893800I0J-76200D01*
G01*
X173868100Y-99191400D01*
G75*
G02*
X173791900Y-99267600I-76200J0D01*
G01*
X171944300Y-99267600D01*
G75*
G02*
X171868100Y-99191400I0J76200D01*
G01*
G37*
G36*
G01*
X171868100Y-98541400D02*
X171868100Y-98243800D01*
G75*
G02*
X171944300Y-98167600I76200J0D01*
G01*
X173791900Y-98167600D01*
G75*
G02*
X173868100Y-98243800I0J-76200D01*
G01*
X173868100Y-98541400D01*
G75*
G02*
X173791900Y-98617600I-76200J0D01*
G01*
X171944300Y-98617600D01*
G75*
G02*
X171868100Y-98541400I0J76200D01*
G01*
G37*
G36*
G01*
X171868100Y-97891400D02*
X171868100Y-97593800D01*
G75*
G02*
X171944300Y-97517600I76200J0D01*
G01*
X173791900Y-97517600D01*
G75*
G02*
X173868100Y-97593800I0J-76200D01*
G01*
X173868100Y-97891400D01*
G75*
G02*
X173791900Y-97967600I-76200J0D01*
G01*
X171944300Y-97967600D01*
G75*
G02*
X171868100Y-97891400I0J76200D01*
G01*
G37*
G36*
G01*
X171868100Y-97241400D02*
X171868100Y-96943800D01*
G75*
G02*
X171944300Y-96867600I76200J0D01*
G01*
X173791900Y-96867600D01*
G75*
G02*
X173868100Y-96943800I0J-76200D01*
G01*
X173868100Y-97241400D01*
G75*
G02*
X173791900Y-97317600I-76200J0D01*
G01*
X171944300Y-97317600D01*
G75*
G02*
X171868100Y-97241400I0J76200D01*
G01*
G37*
G36*
G01*
X171868100Y-96591400D02*
X171868100Y-96293800D01*
G75*
G02*
X171944300Y-96217600I76200J0D01*
G01*
X173791900Y-96217600D01*
G75*
G02*
X173868100Y-96293800I0J-76200D01*
G01*
X173868100Y-96591400D01*
G75*
G02*
X173791900Y-96667600I-76200J0D01*
G01*
X171944300Y-96667600D01*
G75*
G02*
X171868100Y-96591400I0J76200D01*
G01*
G37*
G36*
G01*
X171868100Y-95941400D02*
X171868100Y-95643800D01*
G75*
G02*
X171944300Y-95567600I76200J0D01*
G01*
X173791900Y-95567600D01*
G75*
G02*
X173868100Y-95643800I0J-76200D01*
G01*
X173868100Y-95941400D01*
G75*
G02*
X173791900Y-96017600I-76200J0D01*
G01*
X171944300Y-96017600D01*
G75*
G02*
X171868100Y-95941400I0J76200D01*
G01*
G37*
G36*
G01*
X171868100Y-95291400D02*
X171868100Y-94993800D01*
G75*
G02*
X171944300Y-94917600I76200J0D01*
G01*
X173791900Y-94917600D01*
G75*
G02*
X173868100Y-94993800I0J-76200D01*
G01*
X173868100Y-95291400D01*
G75*
G02*
X173791900Y-95367600I-76200J0D01*
G01*
X171944300Y-95367600D01*
G75*
G02*
X171868100Y-95291400I0J76200D01*
G01*
G37*
G36*
G01*
X171868100Y-94641400D02*
X171868100Y-94343800D01*
G75*
G02*
X171944300Y-94267600I76200J0D01*
G01*
X173791900Y-94267600D01*
G75*
G02*
X173868100Y-94343800I0J-76200D01*
G01*
X173868100Y-94641400D01*
G75*
G02*
X173791900Y-94717600I-76200J0D01*
G01*
X171944300Y-94717600D01*
G75*
G02*
X171868100Y-94641400I0J76200D01*
G01*
G37*
G36*
G01*
X170043100Y-92816400D02*
X170043100Y-90968800D01*
G75*
G02*
X170119300Y-90892600I76200J0D01*
G01*
X170416900Y-90892600D01*
G75*
G02*
X170493100Y-90968800I0J-76200D01*
G01*
X170493100Y-92816400D01*
G75*
G02*
X170416900Y-92892600I-76200J0D01*
G01*
X170119300Y-92892600D01*
G75*
G02*
X170043100Y-92816400I0J76200D01*
G01*
G37*
G36*
G01*
X169393100Y-92816400D02*
X169393100Y-90968800D01*
G75*
G02*
X169469300Y-90892600I76200J0D01*
G01*
X169766900Y-90892600D01*
G75*
G02*
X169843100Y-90968800I0J-76200D01*
G01*
X169843100Y-92816400D01*
G75*
G02*
X169766900Y-92892600I-76200J0D01*
G01*
X169469300Y-92892600D01*
G75*
G02*
X169393100Y-92816400I0J76200D01*
G01*
G37*
G36*
G01*
X168743100Y-92816400D02*
X168743100Y-90968800D01*
G75*
G02*
X168819300Y-90892600I76200J0D01*
G01*
X169116900Y-90892600D01*
G75*
G02*
X169193100Y-90968800I0J-76200D01*
G01*
X169193100Y-92816400D01*
G75*
G02*
X169116900Y-92892600I-76200J0D01*
G01*
X168819300Y-92892600D01*
G75*
G02*
X168743100Y-92816400I0J76200D01*
G01*
G37*
G36*
G01*
X168093100Y-92816400D02*
X168093100Y-90968800D01*
G75*
G02*
X168169300Y-90892600I76200J0D01*
G01*
X168466900Y-90892600D01*
G75*
G02*
X168543100Y-90968800I0J-76200D01*
G01*
X168543100Y-92816400D01*
G75*
G02*
X168466900Y-92892600I-76200J0D01*
G01*
X168169300Y-92892600D01*
G75*
G02*
X168093100Y-92816400I0J76200D01*
G01*
G37*
G36*
G01*
X167443100Y-92816400D02*
X167443100Y-90968800D01*
G75*
G02*
X167519300Y-90892600I76200J0D01*
G01*
X167816900Y-90892600D01*
G75*
G02*
X167893100Y-90968800I0J-76200D01*
G01*
X167893100Y-92816400D01*
G75*
G02*
X167816900Y-92892600I-76200J0D01*
G01*
X167519300Y-92892600D01*
G75*
G02*
X167443100Y-92816400I0J76200D01*
G01*
G37*
G36*
G01*
X166793100Y-92816400D02*
X166793100Y-90968800D01*
G75*
G02*
X166869300Y-90892600I76200J0D01*
G01*
X167166900Y-90892600D01*
G75*
G02*
X167243100Y-90968800I0J-76200D01*
G01*
X167243100Y-92816400D01*
G75*
G02*
X167166900Y-92892600I-76200J0D01*
G01*
X166869300Y-92892600D01*
G75*
G02*
X166793100Y-92816400I0J76200D01*
G01*
G37*
G36*
G01*
X166143100Y-92816400D02*
X166143100Y-90968800D01*
G75*
G02*
X166219300Y-90892600I76200J0D01*
G01*
X166516900Y-90892600D01*
G75*
G02*
X166593100Y-90968800I0J-76200D01*
G01*
X166593100Y-92816400D01*
G75*
G02*
X166516900Y-92892600I-76200J0D01*
G01*
X166219300Y-92892600D01*
G75*
G02*
X166143100Y-92816400I0J76200D01*
G01*
G37*
G36*
G01*
X165493100Y-92816400D02*
X165493100Y-90968800D01*
G75*
G02*
X165569300Y-90892600I76200J0D01*
G01*
X165866900Y-90892600D01*
G75*
G02*
X165943100Y-90968800I0J-76200D01*
G01*
X165943100Y-92816400D01*
G75*
G02*
X165866900Y-92892600I-76200J0D01*
G01*
X165569300Y-92892600D01*
G75*
G02*
X165493100Y-92816400I0J76200D01*
G01*
G37*
G36*
G01*
X164843100Y-92816400D02*
X164843100Y-90968800D01*
G75*
G02*
X164919300Y-90892600I76200J0D01*
G01*
X165216900Y-90892600D01*
G75*
G02*
X165293100Y-90968800I0J-76200D01*
G01*
X165293100Y-92816400D01*
G75*
G02*
X165216900Y-92892600I-76200J0D01*
G01*
X164919300Y-92892600D01*
G75*
G02*
X164843100Y-92816400I0J76200D01*
G01*
G37*
G36*
G01*
X164193100Y-92816400D02*
X164193100Y-90968800D01*
G75*
G02*
X164269300Y-90892600I76200J0D01*
G01*
X164566900Y-90892600D01*
G75*
G02*
X164643100Y-90968800I0J-76200D01*
G01*
X164643100Y-92816400D01*
G75*
G02*
X164566900Y-92892600I-76200J0D01*
G01*
X164269300Y-92892600D01*
G75*
G02*
X164193100Y-92816400I0J76200D01*
G01*
G37*
G36*
G01*
X163543100Y-92816400D02*
X163543100Y-90968800D01*
G75*
G02*
X163619300Y-90892600I76200J0D01*
G01*
X163916900Y-90892600D01*
G75*
G02*
X163993100Y-90968800I0J-76200D01*
G01*
X163993100Y-92816400D01*
G75*
G02*
X163916900Y-92892600I-76200J0D01*
G01*
X163619300Y-92892600D01*
G75*
G02*
X163543100Y-92816400I0J76200D01*
G01*
G37*
G36*
G01*
X162893100Y-92816400D02*
X162893100Y-90968800D01*
G75*
G02*
X162969300Y-90892600I76200J0D01*
G01*
X163266900Y-90892600D01*
G75*
G02*
X163343100Y-90968800I0J-76200D01*
G01*
X163343100Y-92816400D01*
G75*
G02*
X163266900Y-92892600I-76200J0D01*
G01*
X162969300Y-92892600D01*
G75*
G02*
X162893100Y-92816400I0J76200D01*
G01*
G37*
G36*
G01*
X162243100Y-92816400D02*
X162243100Y-90968800D01*
G75*
G02*
X162319300Y-90892600I76200J0D01*
G01*
X162616900Y-90892600D01*
G75*
G02*
X162693100Y-90968800I0J-76200D01*
G01*
X162693100Y-92816400D01*
G75*
G02*
X162616900Y-92892600I-76200J0D01*
G01*
X162319300Y-92892600D01*
G75*
G02*
X162243100Y-92816400I0J76200D01*
G01*
G37*
G36*
G01*
X161593100Y-92816400D02*
X161593100Y-90968800D01*
G75*
G02*
X161669300Y-90892600I76200J0D01*
G01*
X161966900Y-90892600D01*
G75*
G02*
X162043100Y-90968800I0J-76200D01*
G01*
X162043100Y-92816400D01*
G75*
G02*
X161966900Y-92892600I-76200J0D01*
G01*
X161669300Y-92892600D01*
G75*
G02*
X161593100Y-92816400I0J76200D01*
G01*
G37*
G36*
G01*
X160943100Y-92816400D02*
X160943100Y-90968800D01*
G75*
G02*
X161019300Y-90892600I76200J0D01*
G01*
X161316900Y-90892600D01*
G75*
G02*
X161393100Y-90968800I0J-76200D01*
G01*
X161393100Y-92816400D01*
G75*
G02*
X161316900Y-92892600I-76200J0D01*
G01*
X161019300Y-92892600D01*
G75*
G02*
X160943100Y-92816400I0J76200D01*
G01*
G37*
G36*
G01*
X160293100Y-92816400D02*
X160293100Y-90968800D01*
G75*
G02*
X160369300Y-90892600I76200J0D01*
G01*
X160666900Y-90892600D01*
G75*
G02*
X160743100Y-90968800I0J-76200D01*
G01*
X160743100Y-92816400D01*
G75*
G02*
X160666900Y-92892600I-76200J0D01*
G01*
X160369300Y-92892600D01*
G75*
G02*
X160293100Y-92816400I0J76200D01*
G01*
G37*
G36*
G01*
X159643100Y-92816400D02*
X159643100Y-90968800D01*
G75*
G02*
X159719300Y-90892600I76200J0D01*
G01*
X160016900Y-90892600D01*
G75*
G02*
X160093100Y-90968800I0J-76200D01*
G01*
X160093100Y-92816400D01*
G75*
G02*
X160016900Y-92892600I-76200J0D01*
G01*
X159719300Y-92892600D01*
G75*
G02*
X159643100Y-92816400I0J76200D01*
G01*
G37*
G36*
G01*
X158993100Y-92816400D02*
X158993100Y-90968800D01*
G75*
G02*
X159069300Y-90892600I76200J0D01*
G01*
X159366900Y-90892600D01*
G75*
G02*
X159443100Y-90968800I0J-76200D01*
G01*
X159443100Y-92816400D01*
G75*
G02*
X159366900Y-92892600I-76200J0D01*
G01*
X159069300Y-92892600D01*
G75*
G02*
X158993100Y-92816400I0J76200D01*
G01*
G37*
G36*
G01*
X158343100Y-92816400D02*
X158343100Y-90968800D01*
G75*
G02*
X158419300Y-90892600I76200J0D01*
G01*
X158716900Y-90892600D01*
G75*
G02*
X158793100Y-90968800I0J-76200D01*
G01*
X158793100Y-92816400D01*
G75*
G02*
X158716900Y-92892600I-76200J0D01*
G01*
X158419300Y-92892600D01*
G75*
G02*
X158343100Y-92816400I0J76200D01*
G01*
G37*
G36*
G01*
X157693100Y-92816400D02*
X157693100Y-90968800D01*
G75*
G02*
X157769300Y-90892600I76200J0D01*
G01*
X158066900Y-90892600D01*
G75*
G02*
X158143100Y-90968800I0J-76200D01*
G01*
X158143100Y-92816400D01*
G75*
G02*
X158066900Y-92892600I-76200J0D01*
G01*
X157769300Y-92892600D01*
G75*
G02*
X157693100Y-92816400I0J76200D01*
G01*
G37*
G36*
G01*
X157043100Y-92816400D02*
X157043100Y-90968800D01*
G75*
G02*
X157119300Y-90892600I76200J0D01*
G01*
X157416900Y-90892600D01*
G75*
G02*
X157493100Y-90968800I0J-76200D01*
G01*
X157493100Y-92816400D01*
G75*
G02*
X157416900Y-92892600I-76200J0D01*
G01*
X157119300Y-92892600D01*
G75*
G02*
X157043100Y-92816400I0J76200D01*
G01*
G37*
G36*
G01*
X156393100Y-92816400D02*
X156393100Y-90968800D01*
G75*
G02*
X156469300Y-90892600I76200J0D01*
G01*
X156766900Y-90892600D01*
G75*
G02*
X156843100Y-90968800I0J-76200D01*
G01*
X156843100Y-92816400D01*
G75*
G02*
X156766900Y-92892600I-76200J0D01*
G01*
X156469300Y-92892600D01*
G75*
G02*
X156393100Y-92816400I0J76200D01*
G01*
G37*
G36*
G01*
X155743100Y-92816400D02*
X155743100Y-90968800D01*
G75*
G02*
X155819300Y-90892600I76200J0D01*
G01*
X156116900Y-90892600D01*
G75*
G02*
X156193100Y-90968800I0J-76200D01*
G01*
X156193100Y-92816400D01*
G75*
G02*
X156116900Y-92892600I-76200J0D01*
G01*
X155819300Y-92892600D01*
G75*
G02*
X155743100Y-92816400I0J76200D01*
G01*
G37*
G36*
G01*
X155093100Y-92816400D02*
X155093100Y-90968800D01*
G75*
G02*
X155169300Y-90892600I76200J0D01*
G01*
X155466900Y-90892600D01*
G75*
G02*
X155543100Y-90968800I0J-76200D01*
G01*
X155543100Y-92816400D01*
G75*
G02*
X155466900Y-92892600I-76200J0D01*
G01*
X155169300Y-92892600D01*
G75*
G02*
X155093100Y-92816400I0J76200D01*
G01*
G37*
G36*
G01*
X154443100Y-92816400D02*
X154443100Y-90968800D01*
G75*
G02*
X154519300Y-90892600I76200J0D01*
G01*
X154816900Y-90892600D01*
G75*
G02*
X154893100Y-90968800I0J-76200D01*
G01*
X154893100Y-92816400D01*
G75*
G02*
X154816900Y-92892600I-76200J0D01*
G01*
X154519300Y-92892600D01*
G75*
G02*
X154443100Y-92816400I0J76200D01*
G01*
G37*
G36*
G01*
X153793100Y-92816400D02*
X153793100Y-90968800D01*
G75*
G02*
X153869300Y-90892600I76200J0D01*
G01*
X154166900Y-90892600D01*
G75*
G02*
X154243100Y-90968800I0J-76200D01*
G01*
X154243100Y-92816400D01*
G75*
G02*
X154166900Y-92892600I-76200J0D01*
G01*
X153869300Y-92892600D01*
G75*
G02*
X153793100Y-92816400I0J76200D01*
G01*
G37*
G36*
G01*
X153143100Y-92816400D02*
X153143100Y-90968800D01*
G75*
G02*
X153219300Y-90892600I76200J0D01*
G01*
X153516900Y-90892600D01*
G75*
G02*
X153593100Y-90968800I0J-76200D01*
G01*
X153593100Y-92816400D01*
G75*
G02*
X153516900Y-92892600I-76200J0D01*
G01*
X153219300Y-92892600D01*
G75*
G02*
X153143100Y-92816400I0J76200D01*
G01*
G37*
G36*
G01*
X152493100Y-92816400D02*
X152493100Y-90968800D01*
G75*
G02*
X152569300Y-90892600I76200J0D01*
G01*
X152866900Y-90892600D01*
G75*
G02*
X152943100Y-90968800I0J-76200D01*
G01*
X152943100Y-92816400D01*
G75*
G02*
X152866900Y-92892600I-76200J0D01*
G01*
X152569300Y-92892600D01*
G75*
G02*
X152493100Y-92816400I0J76200D01*
G01*
G37*
G36*
G01*
X151843100Y-92816400D02*
X151843100Y-90968800D01*
G75*
G02*
X151919300Y-90892600I76200J0D01*
G01*
X152216900Y-90892600D01*
G75*
G02*
X152293100Y-90968800I0J-76200D01*
G01*
X152293100Y-92816400D01*
G75*
G02*
X152216900Y-92892600I-76200J0D01*
G01*
X151919300Y-92892600D01*
G75*
G02*
X151843100Y-92816400I0J76200D01*
G01*
G37*
G36*
G01*
X151193100Y-92816400D02*
X151193100Y-90968800D01*
G75*
G02*
X151269300Y-90892600I76200J0D01*
G01*
X151566900Y-90892600D01*
G75*
G02*
X151643100Y-90968800I0J-76200D01*
G01*
X151643100Y-92816400D01*
G75*
G02*
X151566900Y-92892600I-76200J0D01*
G01*
X151269300Y-92892600D01*
G75*
G02*
X151193100Y-92816400I0J76200D01*
G01*
G37*
G36*
G01*
X150543100Y-92816400D02*
X150543100Y-90968800D01*
G75*
G02*
X150619300Y-90892600I76200J0D01*
G01*
X150916900Y-90892600D01*
G75*
G02*
X150993100Y-90968800I0J-76200D01*
G01*
X150993100Y-92816400D01*
G75*
G02*
X150916900Y-92892600I-76200J0D01*
G01*
X150619300Y-92892600D01*
G75*
G02*
X150543100Y-92816400I0J76200D01*
G01*
G37*
G36*
G01*
X149893100Y-92816400D02*
X149893100Y-90968800D01*
G75*
G02*
X149969300Y-90892600I76200J0D01*
G01*
X150266900Y-90892600D01*
G75*
G02*
X150343100Y-90968800I0J-76200D01*
G01*
X150343100Y-92816400D01*
G75*
G02*
X150266900Y-92892600I-76200J0D01*
G01*
X149969300Y-92892600D01*
G75*
G02*
X149893100Y-92816400I0J76200D01*
G01*
G37*
G36*
G01*
X149243100Y-92816400D02*
X149243100Y-90968800D01*
G75*
G02*
X149319300Y-90892600I76200J0D01*
G01*
X149616900Y-90892600D01*
G75*
G02*
X149693100Y-90968800I0J-76200D01*
G01*
X149693100Y-92816400D01*
G75*
G02*
X149616900Y-92892600I-76200J0D01*
G01*
X149319300Y-92892600D01*
G75*
G02*
X149243100Y-92816400I0J76200D01*
G01*
G37*
G36*
G01*
X148593100Y-92816400D02*
X148593100Y-90968800D01*
G75*
G02*
X148669300Y-90892600I76200J0D01*
G01*
X148966900Y-90892600D01*
G75*
G02*
X149043100Y-90968800I0J-76200D01*
G01*
X149043100Y-92816400D01*
G75*
G02*
X148966900Y-92892600I-76200J0D01*
G01*
X148669300Y-92892600D01*
G75*
G02*
X148593100Y-92816400I0J76200D01*
G01*
G37*
G36*
G01*
X147943100Y-92816400D02*
X147943100Y-90968800D01*
G75*
G02*
X148019300Y-90892600I76200J0D01*
G01*
X148316900Y-90892600D01*
G75*
G02*
X148393100Y-90968800I0J-76200D01*
G01*
X148393100Y-92816400D01*
G75*
G02*
X148316900Y-92892600I-76200J0D01*
G01*
X148019300Y-92892600D01*
G75*
G02*
X147943100Y-92816400I0J76200D01*
G01*
G37*
G36*
G01*
X147293100Y-92816400D02*
X147293100Y-90968800D01*
G75*
G02*
X147369300Y-90892600I76200J0D01*
G01*
X147666900Y-90892600D01*
G75*
G02*
X147743100Y-90968800I0J-76200D01*
G01*
X147743100Y-92816400D01*
G75*
G02*
X147666900Y-92892600I-76200J0D01*
G01*
X147369300Y-92892600D01*
G75*
G02*
X147293100Y-92816400I0J76200D01*
G01*
G37*
G36*
G01*
X146643100Y-92816400D02*
X146643100Y-90968800D01*
G75*
G02*
X146719300Y-90892600I76200J0D01*
G01*
X147016900Y-90892600D01*
G75*
G02*
X147093100Y-90968800I0J-76200D01*
G01*
X147093100Y-92816400D01*
G75*
G02*
X147016900Y-92892600I-76200J0D01*
G01*
X146719300Y-92892600D01*
G75*
G02*
X146643100Y-92816400I0J76200D01*
G01*
G37*
G36*
G01*
X145993100Y-92816400D02*
X145993100Y-90968800D01*
G75*
G02*
X146069300Y-90892600I76200J0D01*
G01*
X146366900Y-90892600D01*
G75*
G02*
X146443100Y-90968800I0J-76200D01*
G01*
X146443100Y-92816400D01*
G75*
G02*
X146366900Y-92892600I-76200J0D01*
G01*
X146069300Y-92892600D01*
G75*
G02*
X145993100Y-92816400I0J76200D01*
G01*
G37*
G36*
G01*
X145343100Y-92816400D02*
X145343100Y-90968800D01*
G75*
G02*
X145419300Y-90892600I76200J0D01*
G01*
X145716900Y-90892600D01*
G75*
G02*
X145793100Y-90968800I0J-76200D01*
G01*
X145793100Y-92816400D01*
G75*
G02*
X145716900Y-92892600I-76200J0D01*
G01*
X145419300Y-92892600D01*
G75*
G02*
X145343100Y-92816400I0J76200D01*
G01*
G37*
G36*
G01*
X144693100Y-92816400D02*
X144693100Y-90968800D01*
G75*
G02*
X144769300Y-90892600I76200J0D01*
G01*
X145066900Y-90892600D01*
G75*
G02*
X145143100Y-90968800I0J-76200D01*
G01*
X145143100Y-92816400D01*
G75*
G02*
X145066900Y-92892600I-76200J0D01*
G01*
X144769300Y-92892600D01*
G75*
G02*
X144693100Y-92816400I0J76200D01*
G01*
G37*
G36*
G01*
X165338100Y-90077600D02*
X165338100Y-89707600D01*
G75*
G02*
X165473100Y-89572600I135000J0D01*
G01*
X165743100Y-89572600D01*
G75*
G02*
X165878100Y-89707600I0J-135000D01*
G01*
X165878100Y-90077600D01*
G75*
G02*
X165743100Y-90212600I-135000J0D01*
G01*
X165473100Y-90212600D01*
G75*
G02*
X165338100Y-90077600I0J135000D01*
G01*
G37*
G36*
G01*
X166358100Y-90077600D02*
X166358100Y-89707600D01*
G75*
G02*
X166493100Y-89572600I135000J0D01*
G01*
X166763100Y-89572600D01*
G75*
G02*
X166898100Y-89707600I0J-135000D01*
G01*
X166898100Y-90077600D01*
G75*
G02*
X166763100Y-90212600I-135000J0D01*
G01*
X166493100Y-90212600D01*
G75*
G02*
X166358100Y-90077600I0J135000D01*
G01*
G37*
G36*
G01*
X131714900Y-116227400D02*
X133414900Y-116227400D01*
G75*
G02*
X133664900Y-116477400I0J-250000D01*
G01*
X133664900Y-117227400D01*
G75*
G02*
X133414900Y-117477400I-250000J0D01*
G01*
X131714900Y-117477400D01*
G75*
G02*
X131464900Y-117227400I0J250000D01*
G01*
X131464900Y-116477400D01*
G75*
G02*
X131714900Y-116227400I250000J0D01*
G01*
G37*
G36*
G01*
X131714900Y-118377400D02*
X133414900Y-118377400D01*
G75*
G02*
X133664900Y-118627400I0J-250000D01*
G01*
X133664900Y-119377400D01*
G75*
G02*
X133414900Y-119627400I-250000J0D01*
G01*
X131714900Y-119627400D01*
G75*
G02*
X131464900Y-119377400I0J250000D01*
G01*
X131464900Y-118627400D01*
G75*
G02*
X131714900Y-118377400I250000J0D01*
G01*
G37*
G36*
G01*
X150524100Y-126120600D02*
X150184100Y-126120600D01*
G75*
G02*
X150044100Y-125980600I0J140000D01*
G01*
X150044100Y-125700600D01*
G75*
G02*
X150184100Y-125560600I140000J0D01*
G01*
X150524100Y-125560600D01*
G75*
G02*
X150664100Y-125700600I0J-140000D01*
G01*
X150664100Y-125980600D01*
G75*
G02*
X150524100Y-126120600I-140000J0D01*
G01*
G37*
G36*
G01*
X150524100Y-125160600D02*
X150184100Y-125160600D01*
G75*
G02*
X150044100Y-125020600I0J140000D01*
G01*
X150044100Y-124740600D01*
G75*
G02*
X150184100Y-124600600I140000J0D01*
G01*
X150524100Y-124600600D01*
G75*
G02*
X150664100Y-124740600I0J-140000D01*
G01*
X150664100Y-125020600D01*
G75*
G02*
X150524100Y-125160600I-140000J0D01*
G01*
G37*
G36*
G01*
X174631100Y-105843600D02*
X174971100Y-105843600D01*
G75*
G02*
X175111100Y-105983600I0J-140000D01*
G01*
X175111100Y-106263600D01*
G75*
G02*
X174971100Y-106403600I-140000J0D01*
G01*
X174631100Y-106403600D01*
G75*
G02*
X174491100Y-106263600I0J140000D01*
G01*
X174491100Y-105983600D01*
G75*
G02*
X174631100Y-105843600I140000J0D01*
G01*
G37*
G36*
G01*
X174631100Y-106803600D02*
X174971100Y-106803600D01*
G75*
G02*
X175111100Y-106943600I0J-140000D01*
G01*
X175111100Y-107223600D01*
G75*
G02*
X174971100Y-107363600I-140000J0D01*
G01*
X174631100Y-107363600D01*
G75*
G02*
X174491100Y-107223600I0J140000D01*
G01*
X174491100Y-106943600D01*
G75*
G02*
X174631100Y-106803600I140000J0D01*
G01*
G37*
G36*
G01*
X126984900Y-118512400D02*
X126984900Y-118142400D01*
G75*
G02*
X127119900Y-118007400I135000J0D01*
G01*
X127389900Y-118007400D01*
G75*
G02*
X127524900Y-118142400I0J-135000D01*
G01*
X127524900Y-118512400D01*
G75*
G02*
X127389900Y-118647400I-135000J0D01*
G01*
X127119900Y-118647400D01*
G75*
G02*
X126984900Y-118512400I0J135000D01*
G01*
G37*
G36*
G01*
X128004900Y-118512400D02*
X128004900Y-118142400D01*
G75*
G02*
X128139900Y-118007400I135000J0D01*
G01*
X128409900Y-118007400D01*
G75*
G02*
X128544900Y-118142400I0J-135000D01*
G01*
X128544900Y-118512400D01*
G75*
G02*
X128409900Y-118647400I-135000J0D01*
G01*
X128139900Y-118647400D01*
G75*
G02*
X128004900Y-118512400I0J135000D01*
G01*
G37*
G36*
G01*
X129649900Y-94877400D02*
X129649900Y-94677400D01*
G75*
G02*
X129749900Y-94577400I100000J0D01*
G01*
X130199900Y-94577400D01*
G75*
G02*
X130299900Y-94677400I0J-100000D01*
G01*
X130299900Y-94877400D01*
G75*
G02*
X130199900Y-94977400I-100000J0D01*
G01*
X129749900Y-94977400D01*
G75*
G02*
X129649900Y-94877400I0J100000D01*
G01*
G37*
G36*
G01*
X129649900Y-95527400D02*
X129649900Y-95327400D01*
G75*
G02*
X129749900Y-95227400I100000J0D01*
G01*
X130199900Y-95227400D01*
G75*
G02*
X130299900Y-95327400I0J-100000D01*
G01*
X130299900Y-95527400D01*
G75*
G02*
X130199900Y-95627400I-100000J0D01*
G01*
X129749900Y-95627400D01*
G75*
G02*
X129649900Y-95527400I0J100000D01*
G01*
G37*
G36*
G01*
X129649900Y-96177400D02*
X129649900Y-95977400D01*
G75*
G02*
X129749900Y-95877400I100000J0D01*
G01*
X130199900Y-95877400D01*
G75*
G02*
X130299900Y-95977400I0J-100000D01*
G01*
X130299900Y-96177400D01*
G75*
G02*
X130199900Y-96277400I-100000J0D01*
G01*
X129749900Y-96277400D01*
G75*
G02*
X129649900Y-96177400I0J100000D01*
G01*
G37*
G36*
G01*
X131549900Y-96177400D02*
X131549900Y-95977400D01*
G75*
G02*
X131649900Y-95877400I100000J0D01*
G01*
X132099900Y-95877400D01*
G75*
G02*
X132199900Y-95977400I0J-100000D01*
G01*
X132199900Y-96177400D01*
G75*
G02*
X132099900Y-96277400I-100000J0D01*
G01*
X131649900Y-96277400D01*
G75*
G02*
X131549900Y-96177400I0J100000D01*
G01*
G37*
G36*
G01*
X131549900Y-95527400D02*
X131549900Y-95327400D01*
G75*
G02*
X131649900Y-95227400I100000J0D01*
G01*
X132099900Y-95227400D01*
G75*
G02*
X132199900Y-95327400I0J-100000D01*
G01*
X132199900Y-95527400D01*
G75*
G02*
X132099900Y-95627400I-100000J0D01*
G01*
X131649900Y-95627400D01*
G75*
G02*
X131549900Y-95527400I0J100000D01*
G01*
G37*
G36*
G01*
X131549900Y-94877400D02*
X131549900Y-94677400D01*
G75*
G02*
X131649900Y-94577400I100000J0D01*
G01*
X132099900Y-94577400D01*
G75*
G02*
X132199900Y-94677400I0J-100000D01*
G01*
X132199900Y-94877400D01*
G75*
G02*
X132099900Y-94977400I-100000J0D01*
G01*
X131649900Y-94977400D01*
G75*
G02*
X131549900Y-94877400I0J100000D01*
G01*
G37*
G36*
G01*
X133774900Y-105002400D02*
X134274900Y-105002400D01*
G75*
G02*
X134499900Y-105227400I0J-225000D01*
G01*
X134499900Y-105677400D01*
G75*
G02*
X134274900Y-105902400I-225000J0D01*
G01*
X133774900Y-105902400D01*
G75*
G02*
X133549900Y-105677400I0J225000D01*
G01*
X133549900Y-105227400D01*
G75*
G02*
X133774900Y-105002400I225000J0D01*
G01*
G37*
G36*
G01*
X133774900Y-106552400D02*
X134274900Y-106552400D01*
G75*
G02*
X134499900Y-106777400I0J-225000D01*
G01*
X134499900Y-107227400D01*
G75*
G02*
X134274900Y-107452400I-225000J0D01*
G01*
X133774900Y-107452400D01*
G75*
G02*
X133549900Y-107227400I0J225000D01*
G01*
X133549900Y-106777400D01*
G75*
G02*
X133774900Y-106552400I225000J0D01*
G01*
G37*
G36*
G01*
X127034900Y-120487400D02*
X126694900Y-120487400D01*
G75*
G02*
X126554900Y-120347400I0J140000D01*
G01*
X126554900Y-120067400D01*
G75*
G02*
X126694900Y-119927400I140000J0D01*
G01*
X127034900Y-119927400D01*
G75*
G02*
X127174900Y-120067400I0J-140000D01*
G01*
X127174900Y-120347400D01*
G75*
G02*
X127034900Y-120487400I-140000J0D01*
G01*
G37*
G36*
G01*
X127034900Y-119527400D02*
X126694900Y-119527400D01*
G75*
G02*
X126554900Y-119387400I0J140000D01*
G01*
X126554900Y-119107400D01*
G75*
G02*
X126694900Y-118967400I140000J0D01*
G01*
X127034900Y-118967400D01*
G75*
G02*
X127174900Y-119107400I0J-140000D01*
G01*
X127174900Y-119387400D01*
G75*
G02*
X127034900Y-119527400I-140000J0D01*
G01*
G37*
G36*
G01*
X150444900Y-86467400D02*
X150784900Y-86467400D01*
G75*
G02*
X150924900Y-86607400I0J-140000D01*
G01*
X150924900Y-86887400D01*
G75*
G02*
X150784900Y-87027400I-140000J0D01*
G01*
X150444900Y-87027400D01*
G75*
G02*
X150304900Y-86887400I0J140000D01*
G01*
X150304900Y-86607400D01*
G75*
G02*
X150444900Y-86467400I140000J0D01*
G01*
G37*
G36*
G01*
X150444900Y-87427400D02*
X150784900Y-87427400D01*
G75*
G02*
X150924900Y-87567400I0J-140000D01*
G01*
X150924900Y-87847400D01*
G75*
G02*
X150784900Y-87987400I-140000J0D01*
G01*
X150444900Y-87987400D01*
G75*
G02*
X150304900Y-87847400I0J140000D01*
G01*
X150304900Y-87567400D01*
G75*
G02*
X150444900Y-87427400I140000J0D01*
G01*
G37*
G36*
G01*
X147222100Y-126120600D02*
X146882100Y-126120600D01*
G75*
G02*
X146742100Y-125980600I0J140000D01*
G01*
X146742100Y-125700600D01*
G75*
G02*
X146882100Y-125560600I140000J0D01*
G01*
X147222100Y-125560600D01*
G75*
G02*
X147362100Y-125700600I0J-140000D01*
G01*
X147362100Y-125980600D01*
G75*
G02*
X147222100Y-126120600I-140000J0D01*
G01*
G37*
G36*
G01*
X147222100Y-125160600D02*
X146882100Y-125160600D01*
G75*
G02*
X146742100Y-125020600I0J140000D01*
G01*
X146742100Y-124740600D01*
G75*
G02*
X146882100Y-124600600I140000J0D01*
G01*
X147222100Y-124600600D01*
G75*
G02*
X147362100Y-124740600I0J-140000D01*
G01*
X147362100Y-125020600D01*
G75*
G02*
X147222100Y-125160600I-140000J0D01*
G01*
G37*
G36*
G01*
X148844900Y-88812400D02*
X148844900Y-88442400D01*
G75*
G02*
X148979900Y-88307400I135000J0D01*
G01*
X149249900Y-88307400D01*
G75*
G02*
X149384900Y-88442400I0J-135000D01*
G01*
X149384900Y-88812400D01*
G75*
G02*
X149249900Y-88947400I-135000J0D01*
G01*
X148979900Y-88947400D01*
G75*
G02*
X148844900Y-88812400I0J135000D01*
G01*
G37*
G36*
G01*
X149864900Y-88812400D02*
X149864900Y-88442400D01*
G75*
G02*
X149999900Y-88307400I135000J0D01*
G01*
X150269900Y-88307400D01*
G75*
G02*
X150404900Y-88442400I0J-135000D01*
G01*
X150404900Y-88812400D01*
G75*
G02*
X150269900Y-88947400I-135000J0D01*
G01*
X149999900Y-88947400D01*
G75*
G02*
X149864900Y-88812400I0J135000D01*
G01*
G37*
G36*
G01*
X131794900Y-112412400D02*
X131794900Y-112042400D01*
G75*
G02*
X131929900Y-111907400I135000J0D01*
G01*
X132199900Y-111907400D01*
G75*
G02*
X132334900Y-112042400I0J-135000D01*
G01*
X132334900Y-112412400D01*
G75*
G02*
X132199900Y-112547400I-135000J0D01*
G01*
X131929900Y-112547400D01*
G75*
G02*
X131794900Y-112412400I0J135000D01*
G01*
G37*
G36*
G01*
X132814900Y-112412400D02*
X132814900Y-112042400D01*
G75*
G02*
X132949900Y-111907400I135000J0D01*
G01*
X133219900Y-111907400D01*
G75*
G02*
X133354900Y-112042400I0J-135000D01*
G01*
X133354900Y-112412400D01*
G75*
G02*
X133219900Y-112547400I-135000J0D01*
G01*
X132949900Y-112547400D01*
G75*
G02*
X132814900Y-112412400I0J135000D01*
G01*
G37*
G36*
G01*
X148914100Y-124600600D02*
X149254100Y-124600600D01*
G75*
G02*
X149394100Y-124740600I0J-140000D01*
G01*
X149394100Y-125020600D01*
G75*
G02*
X149254100Y-125160600I-140000J0D01*
G01*
X148914100Y-125160600D01*
G75*
G02*
X148774100Y-125020600I0J140000D01*
G01*
X148774100Y-124740600D01*
G75*
G02*
X148914100Y-124600600I140000J0D01*
G01*
G37*
G36*
G01*
X148914100Y-125560600D02*
X149254100Y-125560600D01*
G75*
G02*
X149394100Y-125700600I0J-140000D01*
G01*
X149394100Y-125980600D01*
G75*
G02*
X149254100Y-126120600I-140000J0D01*
G01*
X148914100Y-126120600D01*
G75*
G02*
X148774100Y-125980600I0J140000D01*
G01*
X148774100Y-125700600D01*
G75*
G02*
X148914100Y-125560600I140000J0D01*
G01*
G37*
G36*
G01*
X155746300Y-127526800D02*
X155746300Y-127156800D01*
G75*
G02*
X155881300Y-127021800I135000J0D01*
G01*
X156151300Y-127021800D01*
G75*
G02*
X156286300Y-127156800I0J-135000D01*
G01*
X156286300Y-127526800D01*
G75*
G02*
X156151300Y-127661800I-135000J0D01*
G01*
X155881300Y-127661800D01*
G75*
G02*
X155746300Y-127526800I0J135000D01*
G01*
G37*
G36*
G01*
X156766300Y-127526800D02*
X156766300Y-127156800D01*
G75*
G02*
X156901300Y-127021800I135000J0D01*
G01*
X157171300Y-127021800D01*
G75*
G02*
X157306300Y-127156800I0J-135000D01*
G01*
X157306300Y-127526800D01*
G75*
G02*
X157171300Y-127661800I-135000J0D01*
G01*
X156901300Y-127661800D01*
G75*
G02*
X156766300Y-127526800I0J135000D01*
G01*
G37*
G36*
G01*
X135885210Y-95215439D02*
X135973599Y-95127050D01*
G75*
G02*
X136061987Y-95127050I44194J-44194D01*
G01*
X136556962Y-95622025D01*
G75*
G02*
X136556962Y-95710413I-44194J-44194D01*
G01*
X136468573Y-95798802D01*
G75*
G02*
X136380185Y-95798802I-44194J44194D01*
G01*
X135885210Y-95303827D01*
G75*
G02*
X135885210Y-95215439I44194J44194D01*
G01*
G37*
G36*
G01*
X135531657Y-95568993D02*
X135620046Y-95480604D01*
G75*
G02*
X135708434Y-95480604I44194J-44194D01*
G01*
X136203409Y-95975579D01*
G75*
G02*
X136203409Y-96063967I-44194J-44194D01*
G01*
X136115020Y-96152356D01*
G75*
G02*
X136026632Y-96152356I-44194J44194D01*
G01*
X135531657Y-95657381D01*
G75*
G02*
X135531657Y-95568993I44194J44194D01*
G01*
G37*
G36*
G01*
X135178104Y-95922546D02*
X135266493Y-95834157D01*
G75*
G02*
X135354881Y-95834157I44194J-44194D01*
G01*
X135849856Y-96329132D01*
G75*
G02*
X135849856Y-96417520I-44194J-44194D01*
G01*
X135761467Y-96505909D01*
G75*
G02*
X135673079Y-96505909I-44194J44194D01*
G01*
X135178104Y-96010934D01*
G75*
G02*
X135178104Y-95922546I44194J44194D01*
G01*
G37*
G36*
G01*
X134824550Y-96276099D02*
X134912939Y-96187710D01*
G75*
G02*
X135001327Y-96187710I44194J-44194D01*
G01*
X135496302Y-96682685D01*
G75*
G02*
X135496302Y-96771073I-44194J-44194D01*
G01*
X135407913Y-96859462D01*
G75*
G02*
X135319525Y-96859462I-44194J44194D01*
G01*
X134824550Y-96364487D01*
G75*
G02*
X134824550Y-96276099I44194J44194D01*
G01*
G37*
G36*
G01*
X134824550Y-97690313D02*
X135319525Y-97195338D01*
G75*
G02*
X135407913Y-97195338I44194J-44194D01*
G01*
X135496302Y-97283727D01*
G75*
G02*
X135496302Y-97372115I-44194J-44194D01*
G01*
X135001327Y-97867090D01*
G75*
G02*
X134912939Y-97867090I-44194J44194D01*
G01*
X134824550Y-97778701D01*
G75*
G02*
X134824550Y-97690313I44194J44194D01*
G01*
G37*
G36*
G01*
X135178104Y-98043866D02*
X135673079Y-97548891D01*
G75*
G02*
X135761467Y-97548891I44194J-44194D01*
G01*
X135849856Y-97637280D01*
G75*
G02*
X135849856Y-97725668I-44194J-44194D01*
G01*
X135354881Y-98220643D01*
G75*
G02*
X135266493Y-98220643I-44194J44194D01*
G01*
X135178104Y-98132254D01*
G75*
G02*
X135178104Y-98043866I44194J44194D01*
G01*
G37*
G36*
G01*
X135531657Y-98397419D02*
X136026632Y-97902444D01*
G75*
G02*
X136115020Y-97902444I44194J-44194D01*
G01*
X136203409Y-97990833D01*
G75*
G02*
X136203409Y-98079221I-44194J-44194D01*
G01*
X135708434Y-98574196D01*
G75*
G02*
X135620046Y-98574196I-44194J44194D01*
G01*
X135531657Y-98485807D01*
G75*
G02*
X135531657Y-98397419I44194J44194D01*
G01*
G37*
G36*
G01*
X135885210Y-98750973D02*
X136380185Y-98255998D01*
G75*
G02*
X136468573Y-98255998I44194J-44194D01*
G01*
X136556962Y-98344387D01*
G75*
G02*
X136556962Y-98432775I-44194J-44194D01*
G01*
X136061987Y-98927750D01*
G75*
G02*
X135973599Y-98927750I-44194J44194D01*
G01*
X135885210Y-98839361D01*
G75*
G02*
X135885210Y-98750973I44194J44194D01*
G01*
G37*
G36*
G01*
X136892838Y-98344387D02*
X136981227Y-98255998D01*
G75*
G02*
X137069615Y-98255998I44194J-44194D01*
G01*
X137564590Y-98750973D01*
G75*
G02*
X137564590Y-98839361I-44194J-44194D01*
G01*
X137476201Y-98927750D01*
G75*
G02*
X137387813Y-98927750I-44194J44194D01*
G01*
X136892838Y-98432775D01*
G75*
G02*
X136892838Y-98344387I44194J44194D01*
G01*
G37*
G36*
G01*
X137246391Y-97990833D02*
X137334780Y-97902444D01*
G75*
G02*
X137423168Y-97902444I44194J-44194D01*
G01*
X137918143Y-98397419D01*
G75*
G02*
X137918143Y-98485807I-44194J-44194D01*
G01*
X137829754Y-98574196D01*
G75*
G02*
X137741366Y-98574196I-44194J44194D01*
G01*
X137246391Y-98079221D01*
G75*
G02*
X137246391Y-97990833I44194J44194D01*
G01*
G37*
G36*
G01*
X137599944Y-97637280D02*
X137688333Y-97548891D01*
G75*
G02*
X137776721Y-97548891I44194J-44194D01*
G01*
X138271696Y-98043866D01*
G75*
G02*
X138271696Y-98132254I-44194J-44194D01*
G01*
X138183307Y-98220643D01*
G75*
G02*
X138094919Y-98220643I-44194J44194D01*
G01*
X137599944Y-97725668D01*
G75*
G02*
X137599944Y-97637280I44194J44194D01*
G01*
G37*
G36*
G01*
X137953498Y-97283727D02*
X138041887Y-97195338D01*
G75*
G02*
X138130275Y-97195338I44194J-44194D01*
G01*
X138625250Y-97690313D01*
G75*
G02*
X138625250Y-97778701I-44194J-44194D01*
G01*
X138536861Y-97867090D01*
G75*
G02*
X138448473Y-97867090I-44194J44194D01*
G01*
X137953498Y-97372115D01*
G75*
G02*
X137953498Y-97283727I44194J44194D01*
G01*
G37*
G36*
G01*
X137953498Y-96682685D02*
X138448473Y-96187710D01*
G75*
G02*
X138536861Y-96187710I44194J-44194D01*
G01*
X138625250Y-96276099D01*
G75*
G02*
X138625250Y-96364487I-44194J-44194D01*
G01*
X138130275Y-96859462D01*
G75*
G02*
X138041887Y-96859462I-44194J44194D01*
G01*
X137953498Y-96771073D01*
G75*
G02*
X137953498Y-96682685I44194J44194D01*
G01*
G37*
G36*
G01*
X137599944Y-96329132D02*
X138094919Y-95834157D01*
G75*
G02*
X138183307Y-95834157I44194J-44194D01*
G01*
X138271696Y-95922546D01*
G75*
G02*
X138271696Y-96010934I-44194J-44194D01*
G01*
X137776721Y-96505909D01*
G75*
G02*
X137688333Y-96505909I-44194J44194D01*
G01*
X137599944Y-96417520D01*
G75*
G02*
X137599944Y-96329132I44194J44194D01*
G01*
G37*
G36*
G01*
X137246391Y-95975579D02*
X137741366Y-95480604D01*
G75*
G02*
X137829754Y-95480604I44194J-44194D01*
G01*
X137918143Y-95568993D01*
G75*
G02*
X137918143Y-95657381I-44194J-44194D01*
G01*
X137423168Y-96152356D01*
G75*
G02*
X137334780Y-96152356I-44194J44194D01*
G01*
X137246391Y-96063967D01*
G75*
G02*
X137246391Y-95975579I44194J44194D01*
G01*
G37*
G36*
G01*
X136892838Y-95622025D02*
X137387813Y-95127050D01*
G75*
G02*
X137476201Y-95127050I44194J-44194D01*
G01*
X137564590Y-95215439D01*
G75*
G02*
X137564590Y-95303827I-44194J-44194D01*
G01*
X137069615Y-95798802D01*
G75*
G02*
X136981227Y-95798802I-44194J44194D01*
G01*
X136892838Y-95710413D01*
G75*
G02*
X136892838Y-95622025I44194J44194D01*
G01*
G37*
G36*
X135522818Y-97027400D02*
G01*
X136724900Y-95825318D01*
X137926982Y-97027400D01*
X136724900Y-98229482D01*
X135522818Y-97027400D01*
G37*
D10*
X147830100Y-83291600D03*
D11*
X150370100Y-83291600D03*
X152910100Y-83291600D03*
X155450100Y-83291600D03*
X157990100Y-83291600D03*
X160530100Y-83291600D03*
X163070100Y-83291600D03*
X165610100Y-83291600D03*
X168150100Y-83291600D03*
X170690100Y-83291600D03*
G36*
G01*
X128174900Y-88877400D02*
X128174900Y-89077400D01*
G75*
G02*
X128074900Y-89177400I-100000J0D01*
G01*
X127774900Y-89177400D01*
G75*
G02*
X127674900Y-89077400I0J100000D01*
G01*
X127674900Y-88877400D01*
G75*
G02*
X127774900Y-88777400I100000J0D01*
G01*
X128074900Y-88777400D01*
G75*
G02*
X128174900Y-88877400I0J-100000D01*
G01*
G37*
G36*
G01*
X128174900Y-88402400D02*
X128174900Y-88552400D01*
G75*
G02*
X128099900Y-88627400I-75000J0D01*
G01*
X127749900Y-88627400D01*
G75*
G02*
X127674900Y-88552400I0J75000D01*
G01*
X127674900Y-88402400D01*
G75*
G02*
X127749900Y-88327400I75000J0D01*
G01*
X128099900Y-88327400D01*
G75*
G02*
X128174900Y-88402400I0J-75000D01*
G01*
G37*
G36*
G01*
X128174900Y-87902400D02*
X128174900Y-88052400D01*
G75*
G02*
X128099900Y-88127400I-75000J0D01*
G01*
X127749900Y-88127400D01*
G75*
G02*
X127674900Y-88052400I0J75000D01*
G01*
X127674900Y-87902400D01*
G75*
G02*
X127749900Y-87827400I75000J0D01*
G01*
X128099900Y-87827400D01*
G75*
G02*
X128174900Y-87902400I0J-75000D01*
G01*
G37*
G36*
G01*
X128174900Y-87377400D02*
X128174900Y-87577400D01*
G75*
G02*
X128074900Y-87677400I-100000J0D01*
G01*
X127774900Y-87677400D01*
G75*
G02*
X127674900Y-87577400I0J100000D01*
G01*
X127674900Y-87377400D01*
G75*
G02*
X127774900Y-87277400I100000J0D01*
G01*
X128074900Y-87277400D01*
G75*
G02*
X128174900Y-87377400I0J-100000D01*
G01*
G37*
G36*
G01*
X127174900Y-87377400D02*
X127174900Y-87577400D01*
G75*
G02*
X127074900Y-87677400I-100000J0D01*
G01*
X126774900Y-87677400D01*
G75*
G02*
X126674900Y-87577400I0J100000D01*
G01*
X126674900Y-87377400D01*
G75*
G02*
X126774900Y-87277400I100000J0D01*
G01*
X127074900Y-87277400D01*
G75*
G02*
X127174900Y-87377400I0J-100000D01*
G01*
G37*
G36*
G01*
X127174900Y-87902400D02*
X127174900Y-88052400D01*
G75*
G02*
X127099900Y-88127400I-75000J0D01*
G01*
X126749900Y-88127400D01*
G75*
G02*
X126674900Y-88052400I0J75000D01*
G01*
X126674900Y-87902400D01*
G75*
G02*
X126749900Y-87827400I75000J0D01*
G01*
X127099900Y-87827400D01*
G75*
G02*
X127174900Y-87902400I0J-75000D01*
G01*
G37*
G36*
G01*
X127174900Y-88402400D02*
X127174900Y-88552400D01*
G75*
G02*
X127099900Y-88627400I-75000J0D01*
G01*
X126749900Y-88627400D01*
G75*
G02*
X126674900Y-88552400I0J75000D01*
G01*
X126674900Y-88402400D01*
G75*
G02*
X126749900Y-88327400I75000J0D01*
G01*
X127099900Y-88327400D01*
G75*
G02*
X127174900Y-88402400I0J-75000D01*
G01*
G37*
G36*
G01*
X127174900Y-88877400D02*
X127174900Y-89077400D01*
G75*
G02*
X127074900Y-89177400I-100000J0D01*
G01*
X126774900Y-89177400D01*
G75*
G02*
X126674900Y-89077400I0J100000D01*
G01*
X126674900Y-88877400D01*
G75*
G02*
X126774900Y-88777400I100000J0D01*
G01*
X127074900Y-88777400D01*
G75*
G02*
X127174900Y-88877400I0J-100000D01*
G01*
G37*
G36*
G01*
X140231100Y-109043600D02*
X140571100Y-109043600D01*
G75*
G02*
X140711100Y-109183600I0J-140000D01*
G01*
X140711100Y-109463600D01*
G75*
G02*
X140571100Y-109603600I-140000J0D01*
G01*
X140231100Y-109603600D01*
G75*
G02*
X140091100Y-109463600I0J140000D01*
G01*
X140091100Y-109183600D01*
G75*
G02*
X140231100Y-109043600I140000J0D01*
G01*
G37*
G36*
G01*
X140231100Y-110003600D02*
X140571100Y-110003600D01*
G75*
G02*
X140711100Y-110143600I0J-140000D01*
G01*
X140711100Y-110423600D01*
G75*
G02*
X140571100Y-110563600I-140000J0D01*
G01*
X140231100Y-110563600D01*
G75*
G02*
X140091100Y-110423600I0J140000D01*
G01*
X140091100Y-110143600D01*
G75*
G02*
X140231100Y-110003600I140000J0D01*
G01*
G37*
G36*
G01*
X128503100Y-97272600D02*
X128133100Y-97272600D01*
G75*
G02*
X127998100Y-97137600I0J135000D01*
G01*
X127998100Y-96867600D01*
G75*
G02*
X128133100Y-96732600I135000J0D01*
G01*
X128503100Y-96732600D01*
G75*
G02*
X128638100Y-96867600I0J-135000D01*
G01*
X128638100Y-97137600D01*
G75*
G02*
X128503100Y-97272600I-135000J0D01*
G01*
G37*
G36*
G01*
X128503100Y-96252600D02*
X128133100Y-96252600D01*
G75*
G02*
X127998100Y-96117600I0J135000D01*
G01*
X127998100Y-95847600D01*
G75*
G02*
X128133100Y-95712600I135000J0D01*
G01*
X128503100Y-95712600D01*
G75*
G02*
X128638100Y-95847600I0J-135000D01*
G01*
X128638100Y-96117600D01*
G75*
G02*
X128503100Y-96252600I-135000J0D01*
G01*
G37*
G36*
G01*
X144438100Y-86762600D02*
X144438100Y-86422600D01*
G75*
G02*
X144578100Y-86282600I140000J0D01*
G01*
X144858100Y-86282600D01*
G75*
G02*
X144998100Y-86422600I0J-140000D01*
G01*
X144998100Y-86762600D01*
G75*
G02*
X144858100Y-86902600I-140000J0D01*
G01*
X144578100Y-86902600D01*
G75*
G02*
X144438100Y-86762600I0J140000D01*
G01*
G37*
G36*
G01*
X145398100Y-86762600D02*
X145398100Y-86422600D01*
G75*
G02*
X145538100Y-86282600I140000J0D01*
G01*
X145818100Y-86282600D01*
G75*
G02*
X145958100Y-86422600I0J-140000D01*
G01*
X145958100Y-86762600D01*
G75*
G02*
X145818100Y-86902600I-140000J0D01*
G01*
X145538100Y-86902600D01*
G75*
G02*
X145398100Y-86762600I0J140000D01*
G01*
G37*
G36*
G01*
X157434900Y-88812400D02*
X157434900Y-88442400D01*
G75*
G02*
X157569900Y-88307400I135000J0D01*
G01*
X157839900Y-88307400D01*
G75*
G02*
X157974900Y-88442400I0J-135000D01*
G01*
X157974900Y-88812400D01*
G75*
G02*
X157839900Y-88947400I-135000J0D01*
G01*
X157569900Y-88947400D01*
G75*
G02*
X157434900Y-88812400I0J135000D01*
G01*
G37*
G36*
G01*
X158454900Y-88812400D02*
X158454900Y-88442400D01*
G75*
G02*
X158589900Y-88307400I135000J0D01*
G01*
X158859900Y-88307400D01*
G75*
G02*
X158994900Y-88442400I0J-135000D01*
G01*
X158994900Y-88812400D01*
G75*
G02*
X158859900Y-88947400I-135000J0D01*
G01*
X158589900Y-88947400D01*
G75*
G02*
X158454900Y-88812400I0J135000D01*
G01*
G37*
G36*
G01*
X153796100Y-89833600D02*
X153796100Y-90173600D01*
G75*
G02*
X153656100Y-90313600I-140000J0D01*
G01*
X153376100Y-90313600D01*
G75*
G02*
X153236100Y-90173600I0J140000D01*
G01*
X153236100Y-89833600D01*
G75*
G02*
X153376100Y-89693600I140000J0D01*
G01*
X153656100Y-89693600D01*
G75*
G02*
X153796100Y-89833600I0J-140000D01*
G01*
G37*
G36*
G01*
X152836100Y-89833600D02*
X152836100Y-90173600D01*
G75*
G02*
X152696100Y-90313600I-140000J0D01*
G01*
X152416100Y-90313600D01*
G75*
G02*
X152276100Y-90173600I0J140000D01*
G01*
X152276100Y-89833600D01*
G75*
G02*
X152416100Y-89693600I140000J0D01*
G01*
X152696100Y-89693600D01*
G75*
G02*
X152836100Y-89833600I0J-140000D01*
G01*
G37*
G36*
G01*
X127652400Y-116452400D02*
X127177400Y-116452400D01*
G75*
G02*
X127114900Y-116389900I0J62500D01*
G01*
X127114900Y-116264900D01*
G75*
G02*
X127177400Y-116202400I62500J0D01*
G01*
X127652400Y-116202400D01*
G75*
G02*
X127714900Y-116264900I0J-62500D01*
G01*
X127714900Y-116389900D01*
G75*
G02*
X127652400Y-116452400I-62500J0D01*
G01*
G37*
G36*
G01*
X127652400Y-116952400D02*
X127177400Y-116952400D01*
G75*
G02*
X127114900Y-116889900I0J62500D01*
G01*
X127114900Y-116764900D01*
G75*
G02*
X127177400Y-116702400I62500J0D01*
G01*
X127652400Y-116702400D01*
G75*
G02*
X127714900Y-116764900I0J-62500D01*
G01*
X127714900Y-116889900D01*
G75*
G02*
X127652400Y-116952400I-62500J0D01*
G01*
G37*
G36*
G01*
X127652400Y-117452400D02*
X127177400Y-117452400D01*
G75*
G02*
X127114900Y-117389900I0J62500D01*
G01*
X127114900Y-117264900D01*
G75*
G02*
X127177400Y-117202400I62500J0D01*
G01*
X127652400Y-117202400D01*
G75*
G02*
X127714900Y-117264900I0J-62500D01*
G01*
X127714900Y-117389900D01*
G75*
G02*
X127652400Y-117452400I-62500J0D01*
G01*
G37*
G36*
G01*
X128989900Y-117477400D02*
X128039900Y-117477400D01*
G75*
G02*
X127964900Y-117402400I0J75000D01*
G01*
X127964900Y-117252400D01*
G75*
G02*
X128039900Y-117177400I75000J0D01*
G01*
X128989900Y-117177400D01*
G75*
G02*
X129064900Y-117252400I0J-75000D01*
G01*
X129064900Y-117402400D01*
G75*
G02*
X128989900Y-117477400I-75000J0D01*
G01*
G37*
G36*
G01*
X128989900Y-116977400D02*
X128039900Y-116977400D01*
G75*
G02*
X127964900Y-116902400I0J75000D01*
G01*
X127964900Y-116752400D01*
G75*
G02*
X128039900Y-116677400I75000J0D01*
G01*
X128989900Y-116677400D01*
G75*
G02*
X129064900Y-116752400I0J-75000D01*
G01*
X129064900Y-116902400D01*
G75*
G02*
X128989900Y-116977400I-75000J0D01*
G01*
G37*
G36*
G01*
X128989900Y-116477400D02*
X128039900Y-116477400D01*
G75*
G02*
X127964900Y-116402400I0J75000D01*
G01*
X127964900Y-116252400D01*
G75*
G02*
X128039900Y-116177400I75000J0D01*
G01*
X128989900Y-116177400D01*
G75*
G02*
X129064900Y-116252400I0J-75000D01*
G01*
X129064900Y-116402400D01*
G75*
G02*
X128989900Y-116477400I-75000J0D01*
G01*
G37*
G36*
G01*
X164443100Y-88927400D02*
X164443100Y-88227400D01*
G75*
G02*
X164593100Y-88077400I150000J0D01*
G01*
X165443100Y-88077400D01*
G75*
G02*
X165593100Y-88227400I0J-150000D01*
G01*
X165593100Y-88927400D01*
G75*
G02*
X165443100Y-89077400I-150000J0D01*
G01*
X164593100Y-89077400D01*
G75*
G02*
X164443100Y-88927400I0J150000D01*
G01*
G37*
G36*
G01*
X166043100Y-88927400D02*
X166043100Y-88227400D01*
G75*
G02*
X166193100Y-88077400I150000J0D01*
G01*
X167043100Y-88077400D01*
G75*
G02*
X167193100Y-88227400I0J-150000D01*
G01*
X167193100Y-88927400D01*
G75*
G02*
X167043100Y-89077400I-150000J0D01*
G01*
X166193100Y-89077400D01*
G75*
G02*
X166043100Y-88927400I0J150000D01*
G01*
G37*
G36*
G01*
X166043100Y-87727400D02*
X166043100Y-87027400D01*
G75*
G02*
X166193100Y-86877400I150000J0D01*
G01*
X167043100Y-86877400D01*
G75*
G02*
X167193100Y-87027400I0J-150000D01*
G01*
X167193100Y-87727400D01*
G75*
G02*
X167043100Y-87877400I-150000J0D01*
G01*
X166193100Y-87877400D01*
G75*
G02*
X166043100Y-87727400I0J150000D01*
G01*
G37*
G36*
G01*
X164443100Y-87727400D02*
X164443100Y-87027400D01*
G75*
G02*
X164593100Y-86877400I150000J0D01*
G01*
X165443100Y-86877400D01*
G75*
G02*
X165593100Y-87027400I0J-150000D01*
G01*
X165593100Y-87727400D01*
G75*
G02*
X165443100Y-87877400I-150000J0D01*
G01*
X164593100Y-87877400D01*
G75*
G02*
X164443100Y-87727400I0J150000D01*
G01*
G37*
G36*
G01*
X127403100Y-97272600D02*
X127033100Y-97272600D01*
G75*
G02*
X126898100Y-97137600I0J135000D01*
G01*
X126898100Y-96867600D01*
G75*
G02*
X127033100Y-96732600I135000J0D01*
G01*
X127403100Y-96732600D01*
G75*
G02*
X127538100Y-96867600I0J-135000D01*
G01*
X127538100Y-97137600D01*
G75*
G02*
X127403100Y-97272600I-135000J0D01*
G01*
G37*
G36*
G01*
X127403100Y-96252600D02*
X127033100Y-96252600D01*
G75*
G02*
X126898100Y-96117600I0J135000D01*
G01*
X126898100Y-95847600D01*
G75*
G02*
X127033100Y-95712600I135000J0D01*
G01*
X127403100Y-95712600D01*
G75*
G02*
X127538100Y-95847600I0J-135000D01*
G01*
X127538100Y-96117600D01*
G75*
G02*
X127403100Y-96252600I-135000J0D01*
G01*
G37*
G36*
G01*
X158286100Y-127664600D02*
X157916100Y-127664600D01*
G75*
G02*
X157781100Y-127529600I0J135000D01*
G01*
X157781100Y-127259600D01*
G75*
G02*
X157916100Y-127124600I135000J0D01*
G01*
X158286100Y-127124600D01*
G75*
G02*
X158421100Y-127259600I0J-135000D01*
G01*
X158421100Y-127529600D01*
G75*
G02*
X158286100Y-127664600I-135000J0D01*
G01*
G37*
G36*
G01*
X158286100Y-126644600D02*
X157916100Y-126644600D01*
G75*
G02*
X157781100Y-126509600I0J135000D01*
G01*
X157781100Y-126239600D01*
G75*
G02*
X157916100Y-126104600I135000J0D01*
G01*
X158286100Y-126104600D01*
G75*
G02*
X158421100Y-126239600I0J-135000D01*
G01*
X158421100Y-126509600D01*
G75*
G02*
X158286100Y-126644600I-135000J0D01*
G01*
G37*
G36*
G01*
X140231100Y-95643600D02*
X140571100Y-95643600D01*
G75*
G02*
X140711100Y-95783600I0J-140000D01*
G01*
X140711100Y-96063600D01*
G75*
G02*
X140571100Y-96203600I-140000J0D01*
G01*
X140231100Y-96203600D01*
G75*
G02*
X140091100Y-96063600I0J140000D01*
G01*
X140091100Y-95783600D01*
G75*
G02*
X140231100Y-95643600I140000J0D01*
G01*
G37*
G36*
G01*
X140231100Y-96603600D02*
X140571100Y-96603600D01*
G75*
G02*
X140711100Y-96743600I0J-140000D01*
G01*
X140711100Y-97023600D01*
G75*
G02*
X140571100Y-97163600I-140000J0D01*
G01*
X140231100Y-97163600D01*
G75*
G02*
X140091100Y-97023600I0J140000D01*
G01*
X140091100Y-96743600D01*
G75*
G02*
X140231100Y-96603600I140000J0D01*
G01*
G37*
G36*
G01*
X134599900Y-109277400D02*
X135549900Y-109277400D01*
G75*
G02*
X135799900Y-109527400I0J-250000D01*
G01*
X135799900Y-110027400D01*
G75*
G02*
X135549900Y-110277400I-250000J0D01*
G01*
X134599900Y-110277400D01*
G75*
G02*
X134349900Y-110027400I0J250000D01*
G01*
X134349900Y-109527400D01*
G75*
G02*
X134599900Y-109277400I250000J0D01*
G01*
G37*
G36*
G01*
X134599900Y-111177400D02*
X135549900Y-111177400D01*
G75*
G02*
X135799900Y-111427400I0J-250000D01*
G01*
X135799900Y-111927400D01*
G75*
G02*
X135549900Y-112177400I-250000J0D01*
G01*
X134599900Y-112177400D01*
G75*
G02*
X134349900Y-111927400I0J250000D01*
G01*
X134349900Y-111427400D01*
G75*
G02*
X134599900Y-111177400I250000J0D01*
G01*
G37*
G36*
G01*
X154703100Y-127537600D02*
X154333100Y-127537600D01*
G75*
G02*
X154198100Y-127402600I0J135000D01*
G01*
X154198100Y-127132600D01*
G75*
G02*
X154333100Y-126997600I135000J0D01*
G01*
X154703100Y-126997600D01*
G75*
G02*
X154838100Y-127132600I0J-135000D01*
G01*
X154838100Y-127402600D01*
G75*
G02*
X154703100Y-127537600I-135000J0D01*
G01*
G37*
G36*
G01*
X154703100Y-126517600D02*
X154333100Y-126517600D01*
G75*
G02*
X154198100Y-126382600I0J135000D01*
G01*
X154198100Y-126112600D01*
G75*
G02*
X154333100Y-125977600I135000J0D01*
G01*
X154703100Y-125977600D01*
G75*
G02*
X154838100Y-126112600I0J-135000D01*
G01*
X154838100Y-126382600D01*
G75*
G02*
X154703100Y-126517600I-135000J0D01*
G01*
G37*
G36*
G01*
X129789900Y-115377400D02*
X130739900Y-115377400D01*
G75*
G02*
X130989900Y-115627400I0J-250000D01*
G01*
X130989900Y-116127400D01*
G75*
G02*
X130739900Y-116377400I-250000J0D01*
G01*
X129789900Y-116377400D01*
G75*
G02*
X129539900Y-116127400I0J250000D01*
G01*
X129539900Y-115627400D01*
G75*
G02*
X129789900Y-115377400I250000J0D01*
G01*
G37*
G36*
G01*
X129789900Y-117277400D02*
X130739900Y-117277400D01*
G75*
G02*
X130989900Y-117527400I0J-250000D01*
G01*
X130989900Y-118027400D01*
G75*
G02*
X130739900Y-118277400I-250000J0D01*
G01*
X129789900Y-118277400D01*
G75*
G02*
X129539900Y-118027400I0J250000D01*
G01*
X129539900Y-117527400D01*
G75*
G02*
X129789900Y-117277400I250000J0D01*
G01*
G37*
G36*
G01*
X135252874Y-112691955D02*
X135193834Y-113026790D01*
G75*
G02*
X135031650Y-113140352I-137873J24311D01*
G01*
X134755904Y-113091731D01*
G75*
G02*
X134642342Y-112929547I24311J137873D01*
G01*
X134701382Y-112594712D01*
G75*
G02*
X134863566Y-112481150I137873J-24311D01*
G01*
X135139312Y-112529771D01*
G75*
G02*
X135252874Y-112691955I-24311J-137873D01*
G01*
G37*
G36*
G01*
X134307458Y-112525253D02*
X134248418Y-112860088D01*
G75*
G02*
X134086234Y-112973650I-137873J24311D01*
G01*
X133810488Y-112925029D01*
G75*
G02*
X133696926Y-112762845I24311J137873D01*
G01*
X133755966Y-112428010D01*
G75*
G02*
X133918150Y-112314448I137873J-24311D01*
G01*
X134193896Y-112363069D01*
G75*
G02*
X134307458Y-112525253I-24311J-137873D01*
G01*
G37*
G36*
G01*
X140231100Y-115643600D02*
X140571100Y-115643600D01*
G75*
G02*
X140711100Y-115783600I0J-140000D01*
G01*
X140711100Y-116063600D01*
G75*
G02*
X140571100Y-116203600I-140000J0D01*
G01*
X140231100Y-116203600D01*
G75*
G02*
X140091100Y-116063600I0J140000D01*
G01*
X140091100Y-115783600D01*
G75*
G02*
X140231100Y-115643600I140000J0D01*
G01*
G37*
G36*
G01*
X140231100Y-116603600D02*
X140571100Y-116603600D01*
G75*
G02*
X140711100Y-116743600I0J-140000D01*
G01*
X140711100Y-117023600D01*
G75*
G02*
X140571100Y-117163600I-140000J0D01*
G01*
X140231100Y-117163600D01*
G75*
G02*
X140091100Y-117023600I0J140000D01*
G01*
X140091100Y-116743600D01*
G75*
G02*
X140231100Y-116603600I140000J0D01*
G01*
G37*
G36*
G01*
X174971100Y-100163600D02*
X174631100Y-100163600D01*
G75*
G02*
X174491100Y-100023600I0J140000D01*
G01*
X174491100Y-99743600D01*
G75*
G02*
X174631100Y-99603600I140000J0D01*
G01*
X174971100Y-99603600D01*
G75*
G02*
X175111100Y-99743600I0J-140000D01*
G01*
X175111100Y-100023600D01*
G75*
G02*
X174971100Y-100163600I-140000J0D01*
G01*
G37*
G36*
G01*
X174971100Y-99203600D02*
X174631100Y-99203600D01*
G75*
G02*
X174491100Y-99063600I0J140000D01*
G01*
X174491100Y-98783600D01*
G75*
G02*
X174631100Y-98643600I140000J0D01*
G01*
X174971100Y-98643600D01*
G75*
G02*
X175111100Y-98783600I0J-140000D01*
G01*
X175111100Y-99063600D01*
G75*
G02*
X174971100Y-99203600I-140000J0D01*
G01*
G37*
G36*
G01*
X140231100Y-103843600D02*
X140571100Y-103843600D01*
G75*
G02*
X140711100Y-103983600I0J-140000D01*
G01*
X140711100Y-104263600D01*
G75*
G02*
X140571100Y-104403600I-140000J0D01*
G01*
X140231100Y-104403600D01*
G75*
G02*
X140091100Y-104263600I0J140000D01*
G01*
X140091100Y-103983600D01*
G75*
G02*
X140231100Y-103843600I140000J0D01*
G01*
G37*
G36*
G01*
X140231100Y-104803600D02*
X140571100Y-104803600D01*
G75*
G02*
X140711100Y-104943600I0J-140000D01*
G01*
X140711100Y-105223600D01*
G75*
G02*
X140571100Y-105363600I-140000J0D01*
G01*
X140231100Y-105363600D01*
G75*
G02*
X140091100Y-105223600I0J140000D01*
G01*
X140091100Y-104943600D01*
G75*
G02*
X140231100Y-104803600I140000J0D01*
G01*
G37*
G36*
G01*
X143494900Y-123087400D02*
X143154900Y-123087400D01*
G75*
G02*
X143014900Y-122947400I0J140000D01*
G01*
X143014900Y-122667400D01*
G75*
G02*
X143154900Y-122527400I140000J0D01*
G01*
X143494900Y-122527400D01*
G75*
G02*
X143634900Y-122667400I0J-140000D01*
G01*
X143634900Y-122947400D01*
G75*
G02*
X143494900Y-123087400I-140000J0D01*
G01*
G37*
G36*
G01*
X143494900Y-122127400D02*
X143154900Y-122127400D01*
G75*
G02*
X143014900Y-121987400I0J140000D01*
G01*
X143014900Y-121707400D01*
G75*
G02*
X143154900Y-121567400I140000J0D01*
G01*
X143494900Y-121567400D01*
G75*
G02*
X143634900Y-121707400I0J-140000D01*
G01*
X143634900Y-121987400D01*
G75*
G02*
X143494900Y-122127400I-140000J0D01*
G01*
G37*
G36*
G01*
X137654900Y-89697400D02*
X137654900Y-89357400D01*
G75*
G02*
X137794900Y-89217400I140000J0D01*
G01*
X138074900Y-89217400D01*
G75*
G02*
X138214900Y-89357400I0J-140000D01*
G01*
X138214900Y-89697400D01*
G75*
G02*
X138074900Y-89837400I-140000J0D01*
G01*
X137794900Y-89837400D01*
G75*
G02*
X137654900Y-89697400I0J140000D01*
G01*
G37*
G36*
G01*
X138614900Y-89697400D02*
X138614900Y-89357400D01*
G75*
G02*
X138754900Y-89217400I140000J0D01*
G01*
X139034900Y-89217400D01*
G75*
G02*
X139174900Y-89357400I0J-140000D01*
G01*
X139174900Y-89697400D01*
G75*
G02*
X139034900Y-89837400I-140000J0D01*
G01*
X138754900Y-89837400D01*
G75*
G02*
X138614900Y-89697400I0J140000D01*
G01*
G37*
G36*
G01*
X168758100Y-90173600D02*
X168758100Y-89833600D01*
G75*
G02*
X168898100Y-89693600I140000J0D01*
G01*
X169178100Y-89693600D01*
G75*
G02*
X169318100Y-89833600I0J-140000D01*
G01*
X169318100Y-90173600D01*
G75*
G02*
X169178100Y-90313600I-140000J0D01*
G01*
X168898100Y-90313600D01*
G75*
G02*
X168758100Y-90173600I0J140000D01*
G01*
G37*
G36*
G01*
X169718100Y-90173600D02*
X169718100Y-89833600D01*
G75*
G02*
X169858100Y-89693600I140000J0D01*
G01*
X170138100Y-89693600D01*
G75*
G02*
X170278100Y-89833600I0J-140000D01*
G01*
X170278100Y-90173600D01*
G75*
G02*
X170138100Y-90313600I-140000J0D01*
G01*
X169858100Y-90313600D01*
G75*
G02*
X169718100Y-90173600I0J140000D01*
G01*
G37*
G36*
G01*
X155884100Y-124326600D02*
X156254100Y-124326600D01*
G75*
G02*
X156389100Y-124461600I0J-135000D01*
G01*
X156389100Y-124731600D01*
G75*
G02*
X156254100Y-124866600I-135000J0D01*
G01*
X155884100Y-124866600D01*
G75*
G02*
X155749100Y-124731600I0J135000D01*
G01*
X155749100Y-124461600D01*
G75*
G02*
X155884100Y-124326600I135000J0D01*
G01*
G37*
G36*
G01*
X155884100Y-125346600D02*
X156254100Y-125346600D01*
G75*
G02*
X156389100Y-125481600I0J-135000D01*
G01*
X156389100Y-125751600D01*
G75*
G02*
X156254100Y-125886600I-135000J0D01*
G01*
X155884100Y-125886600D01*
G75*
G02*
X155749100Y-125751600I0J135000D01*
G01*
X155749100Y-125481600D01*
G75*
G02*
X155884100Y-125346600I135000J0D01*
G01*
G37*
G36*
G01*
X131844900Y-114387400D02*
X131504900Y-114387400D01*
G75*
G02*
X131364900Y-114247400I0J140000D01*
G01*
X131364900Y-113967400D01*
G75*
G02*
X131504900Y-113827400I140000J0D01*
G01*
X131844900Y-113827400D01*
G75*
G02*
X131984900Y-113967400I0J-140000D01*
G01*
X131984900Y-114247400D01*
G75*
G02*
X131844900Y-114387400I-140000J0D01*
G01*
G37*
G36*
G01*
X131844900Y-113427400D02*
X131504900Y-113427400D01*
G75*
G02*
X131364900Y-113287400I0J140000D01*
G01*
X131364900Y-113007400D01*
G75*
G02*
X131504900Y-112867400I140000J0D01*
G01*
X131844900Y-112867400D01*
G75*
G02*
X131984900Y-113007400I0J-140000D01*
G01*
X131984900Y-113287400D01*
G75*
G02*
X131844900Y-113427400I-140000J0D01*
G01*
G37*
G36*
G01*
X140231100Y-101243600D02*
X140571100Y-101243600D01*
G75*
G02*
X140711100Y-101383600I0J-140000D01*
G01*
X140711100Y-101663600D01*
G75*
G02*
X140571100Y-101803600I-140000J0D01*
G01*
X140231100Y-101803600D01*
G75*
G02*
X140091100Y-101663600I0J140000D01*
G01*
X140091100Y-101383600D01*
G75*
G02*
X140231100Y-101243600I140000J0D01*
G01*
G37*
G36*
G01*
X140231100Y-102203600D02*
X140571100Y-102203600D01*
G75*
G02*
X140711100Y-102343600I0J-140000D01*
G01*
X140711100Y-102623600D01*
G75*
G02*
X140571100Y-102763600I-140000J0D01*
G01*
X140231100Y-102763600D01*
G75*
G02*
X140091100Y-102623600I0J140000D01*
G01*
X140091100Y-102343600D01*
G75*
G02*
X140231100Y-102203600I140000J0D01*
G01*
G37*
G36*
G01*
X144464900Y-84497400D02*
X144464900Y-84157400D01*
G75*
G02*
X144604900Y-84017400I140000J0D01*
G01*
X144884900Y-84017400D01*
G75*
G02*
X145024900Y-84157400I0J-140000D01*
G01*
X145024900Y-84497400D01*
G75*
G02*
X144884900Y-84637400I-140000J0D01*
G01*
X144604900Y-84637400D01*
G75*
G02*
X144464900Y-84497400I0J140000D01*
G01*
G37*
G36*
G01*
X145424900Y-84497400D02*
X145424900Y-84157400D01*
G75*
G02*
X145564900Y-84017400I140000J0D01*
G01*
X145844900Y-84017400D01*
G75*
G02*
X145984900Y-84157400I0J-140000D01*
G01*
X145984900Y-84497400D01*
G75*
G02*
X145844900Y-84637400I-140000J0D01*
G01*
X145564900Y-84637400D01*
G75*
G02*
X145424900Y-84497400I0J140000D01*
G01*
G37*
G36*
G01*
X132759900Y-114407400D02*
X132389900Y-114407400D01*
G75*
G02*
X132254900Y-114272400I0J135000D01*
G01*
X132254900Y-114002400D01*
G75*
G02*
X132389900Y-113867400I135000J0D01*
G01*
X132759900Y-113867400D01*
G75*
G02*
X132894900Y-114002400I0J-135000D01*
G01*
X132894900Y-114272400D01*
G75*
G02*
X132759900Y-114407400I-135000J0D01*
G01*
G37*
G36*
G01*
X132759900Y-113387400D02*
X132389900Y-113387400D01*
G75*
G02*
X132254900Y-113252400I0J135000D01*
G01*
X132254900Y-112982400D01*
G75*
G02*
X132389900Y-112847400I135000J0D01*
G01*
X132759900Y-112847400D01*
G75*
G02*
X132894900Y-112982400I0J-135000D01*
G01*
X132894900Y-113252400D01*
G75*
G02*
X132759900Y-113387400I-135000J0D01*
G01*
G37*
G36*
G01*
X130989900Y-120815000D02*
X130989900Y-121315000D01*
G75*
G02*
X130764900Y-121540000I-225000J0D01*
G01*
X130314900Y-121540000D01*
G75*
G02*
X130089900Y-121315000I0J225000D01*
G01*
X130089900Y-120815000D01*
G75*
G02*
X130314900Y-120590000I225000J0D01*
G01*
X130764900Y-120590000D01*
G75*
G02*
X130989900Y-120815000I0J-225000D01*
G01*
G37*
G36*
G01*
X129439900Y-120815000D02*
X129439900Y-121315000D01*
G75*
G02*
X129214900Y-121540000I-225000J0D01*
G01*
X128764900Y-121540000D01*
G75*
G02*
X128539900Y-121315000I0J225000D01*
G01*
X128539900Y-120815000D01*
G75*
G02*
X128764900Y-120590000I225000J0D01*
G01*
X129214900Y-120590000D01*
G75*
G02*
X129439900Y-120815000I0J-225000D01*
G01*
G37*
G36*
G01*
X127949900Y-120507400D02*
X127579900Y-120507400D01*
G75*
G02*
X127444900Y-120372400I0J135000D01*
G01*
X127444900Y-120102400D01*
G75*
G02*
X127579900Y-119967400I135000J0D01*
G01*
X127949900Y-119967400D01*
G75*
G02*
X128084900Y-120102400I0J-135000D01*
G01*
X128084900Y-120372400D01*
G75*
G02*
X127949900Y-120507400I-135000J0D01*
G01*
G37*
G36*
G01*
X127949900Y-119487400D02*
X127579900Y-119487400D01*
G75*
G02*
X127444900Y-119352400I0J135000D01*
G01*
X127444900Y-119082400D01*
G75*
G02*
X127579900Y-118947400I135000J0D01*
G01*
X127949900Y-118947400D01*
G75*
G02*
X128084900Y-119082400I0J-135000D01*
G01*
X128084900Y-119352400D01*
G75*
G02*
X127949900Y-119487400I-135000J0D01*
G01*
G37*
G36*
G01*
X141699900Y-88539900D02*
X141699900Y-89314900D01*
G75*
G02*
X141587400Y-89427400I-112500J0D01*
G01*
X141362400Y-89427400D01*
G75*
G02*
X141249900Y-89314900I0J112500D01*
G01*
X141249900Y-88539900D01*
G75*
G02*
X141362400Y-88427400I112500J0D01*
G01*
X141587400Y-88427400D01*
G75*
G02*
X141699900Y-88539900I0J-112500D01*
G01*
G37*
G36*
G01*
X142349900Y-88539900D02*
X142349900Y-89314900D01*
G75*
G02*
X142237400Y-89427400I-112500J0D01*
G01*
X142012400Y-89427400D01*
G75*
G02*
X141899900Y-89314900I0J112500D01*
G01*
X141899900Y-88539900D01*
G75*
G02*
X142012400Y-88427400I112500J0D01*
G01*
X142237400Y-88427400D01*
G75*
G02*
X142349900Y-88539900I0J-112500D01*
G01*
G37*
G36*
G01*
X142999900Y-88539900D02*
X142999900Y-89314900D01*
G75*
G02*
X142887400Y-89427400I-112500J0D01*
G01*
X142662400Y-89427400D01*
G75*
G02*
X142549900Y-89314900I0J112500D01*
G01*
X142549900Y-88539900D01*
G75*
G02*
X142662400Y-88427400I112500J0D01*
G01*
X142887400Y-88427400D01*
G75*
G02*
X142999900Y-88539900I0J-112500D01*
G01*
G37*
G36*
G01*
X142999900Y-86639900D02*
X142999900Y-87414900D01*
G75*
G02*
X142887400Y-87527400I-112500J0D01*
G01*
X142662400Y-87527400D01*
G75*
G02*
X142549900Y-87414900I0J112500D01*
G01*
X142549900Y-86639900D01*
G75*
G02*
X142662400Y-86527400I112500J0D01*
G01*
X142887400Y-86527400D01*
G75*
G02*
X142999900Y-86639900I0J-112500D01*
G01*
G37*
G36*
G01*
X142349900Y-86639900D02*
X142349900Y-87414900D01*
G75*
G02*
X142237400Y-87527400I-112500J0D01*
G01*
X142012400Y-87527400D01*
G75*
G02*
X141899900Y-87414900I0J112500D01*
G01*
X141899900Y-86639900D01*
G75*
G02*
X142012400Y-86527400I112500J0D01*
G01*
X142237400Y-86527400D01*
G75*
G02*
X142349900Y-86639900I0J-112500D01*
G01*
G37*
G36*
G01*
X141699900Y-86639900D02*
X141699900Y-87414900D01*
G75*
G02*
X141587400Y-87527400I-112500J0D01*
G01*
X141362400Y-87527400D01*
G75*
G02*
X141249900Y-87414900I0J112500D01*
G01*
X141249900Y-86639900D01*
G75*
G02*
X141362400Y-86527400I112500J0D01*
G01*
X141587400Y-86527400D01*
G75*
G02*
X141699900Y-86639900I0J-112500D01*
G01*
G37*
G36*
G01*
X130989900Y-119677400D02*
X130989900Y-120177400D01*
G75*
G02*
X130764900Y-120402400I-225000J0D01*
G01*
X130314900Y-120402400D01*
G75*
G02*
X130089900Y-120177400I0J225000D01*
G01*
X130089900Y-119677400D01*
G75*
G02*
X130314900Y-119452400I225000J0D01*
G01*
X130764900Y-119452400D01*
G75*
G02*
X130989900Y-119677400I0J-225000D01*
G01*
G37*
G36*
G01*
X129439900Y-119677400D02*
X129439900Y-120177400D01*
G75*
G02*
X129214900Y-120402400I-225000J0D01*
G01*
X128764900Y-120402400D01*
G75*
G02*
X128539900Y-120177400I0J225000D01*
G01*
X128539900Y-119677400D01*
G75*
G02*
X128764900Y-119452400I225000J0D01*
G01*
X129214900Y-119452400D01*
G75*
G02*
X129439900Y-119677400I0J-225000D01*
G01*
G37*
G36*
G01*
X133834584Y-86283423D02*
X133515088Y-86399709D01*
G75*
G02*
X133335648Y-86316035I-47883J131557D01*
G01*
X133239882Y-86052921D01*
G75*
G02*
X133323556Y-85873481I131557J47883D01*
G01*
X133643052Y-85757195D01*
G75*
G02*
X133822492Y-85840869I47883J-131557D01*
G01*
X133918258Y-86103983D01*
G75*
G02*
X133834584Y-86283423I-131557J-47883D01*
G01*
G37*
G36*
G01*
X133506244Y-85381319D02*
X133186748Y-85497605D01*
G75*
G02*
X133007308Y-85413931I-47883J131557D01*
G01*
X132911542Y-85150817D01*
G75*
G02*
X132995216Y-84971377I131557J47883D01*
G01*
X133314712Y-84855091D01*
G75*
G02*
X133494152Y-84938765I47883J-131557D01*
G01*
X133589918Y-85201879D01*
G75*
G02*
X133506244Y-85381319I-131557J-47883D01*
G01*
G37*
D10*
X128124900Y-112697400D03*
D11*
X128124900Y-110157400D03*
G36*
G01*
X136814900Y-88509900D02*
X136814900Y-88169900D01*
G75*
G02*
X136954900Y-88029900I140000J0D01*
G01*
X137234900Y-88029900D01*
G75*
G02*
X137374900Y-88169900I0J-140000D01*
G01*
X137374900Y-88509900D01*
G75*
G02*
X137234900Y-88649900I-140000J0D01*
G01*
X136954900Y-88649900D01*
G75*
G02*
X136814900Y-88509900I0J140000D01*
G01*
G37*
G36*
G01*
X137774900Y-88509900D02*
X137774900Y-88169900D01*
G75*
G02*
X137914900Y-88029900I140000J0D01*
G01*
X138194900Y-88029900D01*
G75*
G02*
X138334900Y-88169900I0J-140000D01*
G01*
X138334900Y-88509900D01*
G75*
G02*
X138194900Y-88649900I-140000J0D01*
G01*
X137914900Y-88649900D01*
G75*
G02*
X137774900Y-88509900I0J140000D01*
G01*
G37*
G36*
G01*
X138763100Y-120141600D02*
X138763100Y-119801600D01*
G75*
G02*
X138903100Y-119661600I140000J0D01*
G01*
X139183100Y-119661600D01*
G75*
G02*
X139323100Y-119801600I0J-140000D01*
G01*
X139323100Y-120141600D01*
G75*
G02*
X139183100Y-120281600I-140000J0D01*
G01*
X138903100Y-120281600D01*
G75*
G02*
X138763100Y-120141600I0J140000D01*
G01*
G37*
G36*
G01*
X139723100Y-120141600D02*
X139723100Y-119801600D01*
G75*
G02*
X139863100Y-119661600I140000J0D01*
G01*
X140143100Y-119661600D01*
G75*
G02*
X140283100Y-119801600I0J-140000D01*
G01*
X140283100Y-120141600D01*
G75*
G02*
X140143100Y-120281600I-140000J0D01*
G01*
X139863100Y-120281600D01*
G75*
G02*
X139723100Y-120141600I0J140000D01*
G01*
G37*
G36*
G01*
X148253100Y-126140600D02*
X147883100Y-126140600D01*
G75*
G02*
X147748100Y-126005600I0J135000D01*
G01*
X147748100Y-125735600D01*
G75*
G02*
X147883100Y-125600600I135000J0D01*
G01*
X148253100Y-125600600D01*
G75*
G02*
X148388100Y-125735600I0J-135000D01*
G01*
X148388100Y-126005600D01*
G75*
G02*
X148253100Y-126140600I-135000J0D01*
G01*
G37*
G36*
G01*
X148253100Y-125120600D02*
X147883100Y-125120600D01*
G75*
G02*
X147748100Y-124985600I0J135000D01*
G01*
X147748100Y-124715600D01*
G75*
G02*
X147883100Y-124580600I135000J0D01*
G01*
X148253100Y-124580600D01*
G75*
G02*
X148388100Y-124715600I0J-135000D01*
G01*
X148388100Y-124985600D01*
G75*
G02*
X148253100Y-125120600I-135000J0D01*
G01*
G37*
G36*
G01*
X157098100Y-89833600D02*
X157098100Y-90173600D01*
G75*
G02*
X156958100Y-90313600I-140000J0D01*
G01*
X156678100Y-90313600D01*
G75*
G02*
X156538100Y-90173600I0J140000D01*
G01*
X156538100Y-89833600D01*
G75*
G02*
X156678100Y-89693600I140000J0D01*
G01*
X156958100Y-89693600D01*
G75*
G02*
X157098100Y-89833600I0J-140000D01*
G01*
G37*
G36*
G01*
X156138100Y-89833600D02*
X156138100Y-90173600D01*
G75*
G02*
X155998100Y-90313600I-140000J0D01*
G01*
X155718100Y-90313600D01*
G75*
G02*
X155578100Y-90173600I0J140000D01*
G01*
X155578100Y-89833600D01*
G75*
G02*
X155718100Y-89693600I140000J0D01*
G01*
X155998100Y-89693600D01*
G75*
G02*
X156138100Y-89833600I0J-140000D01*
G01*
G37*
G36*
G01*
X161125700Y-127073400D02*
X161125700Y-126733400D01*
G75*
G02*
X161265700Y-126593400I140000J0D01*
G01*
X161545700Y-126593400D01*
G75*
G02*
X161685700Y-126733400I0J-140000D01*
G01*
X161685700Y-127073400D01*
G75*
G02*
X161545700Y-127213400I-140000J0D01*
G01*
X161265700Y-127213400D01*
G75*
G02*
X161125700Y-127073400I0J140000D01*
G01*
G37*
G36*
G01*
X162085700Y-127073400D02*
X162085700Y-126733400D01*
G75*
G02*
X162225700Y-126593400I140000J0D01*
G01*
X162505700Y-126593400D01*
G75*
G02*
X162645700Y-126733400I0J-140000D01*
G01*
X162645700Y-127073400D01*
G75*
G02*
X162505700Y-127213400I-140000J0D01*
G01*
X162225700Y-127213400D01*
G75*
G02*
X162085700Y-127073400I0J140000D01*
G01*
G37*
G36*
G01*
X137418650Y-114951900D02*
X137831150Y-114951900D01*
G75*
G02*
X137999900Y-115120650I0J-168750D01*
G01*
X137999900Y-115458150D01*
G75*
G02*
X137831150Y-115626900I-168750J0D01*
G01*
X137418650Y-115626900D01*
G75*
G02*
X137249900Y-115458150I0J168750D01*
G01*
X137249900Y-115120650D01*
G75*
G02*
X137418650Y-114951900I168750J0D01*
G01*
G37*
G36*
G01*
X136949400Y-115927400D02*
X137274400Y-115927400D01*
G75*
G02*
X137374400Y-116027400I0J-100000D01*
G01*
X137374400Y-116227400D01*
G75*
G02*
X137274400Y-116327400I-100000J0D01*
G01*
X136949400Y-116327400D01*
G75*
G02*
X136849400Y-116227400I0J100000D01*
G01*
X136849400Y-116027400D01*
G75*
G02*
X136949400Y-115927400I100000J0D01*
G01*
G37*
G36*
G01*
X137418650Y-116626900D02*
X137831150Y-116626900D01*
G75*
G02*
X137999900Y-116795650I0J-168750D01*
G01*
X137999900Y-117133150D01*
G75*
G02*
X137831150Y-117301900I-168750J0D01*
G01*
X137418650Y-117301900D01*
G75*
G02*
X137249900Y-117133150I0J168750D01*
G01*
X137249900Y-116795650D01*
G75*
G02*
X137418650Y-116626900I168750J0D01*
G01*
G37*
G36*
G01*
X137975400Y-115927400D02*
X138300400Y-115927400D01*
G75*
G02*
X138400400Y-116027400I0J-100000D01*
G01*
X138400400Y-116227400D01*
G75*
G02*
X138300400Y-116327400I-100000J0D01*
G01*
X137975400Y-116327400D01*
G75*
G02*
X137875400Y-116227400I0J100000D01*
G01*
X137875400Y-116027400D01*
G75*
G02*
X137975400Y-115927400I100000J0D01*
G01*
G37*
G36*
G01*
X158498100Y-87420100D02*
X158498100Y-87765100D01*
G75*
G02*
X158350600Y-87912600I-147500J0D01*
G01*
X158055600Y-87912600D01*
G75*
G02*
X157908100Y-87765100I0J147500D01*
G01*
X157908100Y-87420100D01*
G75*
G02*
X158055600Y-87272600I147500J0D01*
G01*
X158350600Y-87272600D01*
G75*
G02*
X158498100Y-87420100I0J-147500D01*
G01*
G37*
G36*
G01*
X157528100Y-87420100D02*
X157528100Y-87765100D01*
G75*
G02*
X157380600Y-87912600I-147500J0D01*
G01*
X157085600Y-87912600D01*
G75*
G02*
X156938100Y-87765100I0J147500D01*
G01*
X156938100Y-87420100D01*
G75*
G02*
X157085600Y-87272600I147500J0D01*
G01*
X157380600Y-87272600D01*
G75*
G02*
X157528100Y-87420100I0J-147500D01*
G01*
G37*
G36*
G01*
X154634900Y-86467400D02*
X154974900Y-86467400D01*
G75*
G02*
X155114900Y-86607400I0J-140000D01*
G01*
X155114900Y-86887400D01*
G75*
G02*
X154974900Y-87027400I-140000J0D01*
G01*
X154634900Y-87027400D01*
G75*
G02*
X154494900Y-86887400I0J140000D01*
G01*
X154494900Y-86607400D01*
G75*
G02*
X154634900Y-86467400I140000J0D01*
G01*
G37*
G36*
G01*
X154634900Y-87427400D02*
X154974900Y-87427400D01*
G75*
G02*
X155114900Y-87567400I0J-140000D01*
G01*
X155114900Y-87847400D01*
G75*
G02*
X154974900Y-87987400I-140000J0D01*
G01*
X154634900Y-87987400D01*
G75*
G02*
X154494900Y-87847400I0J140000D01*
G01*
X154494900Y-87567400D01*
G75*
G02*
X154634900Y-87427400I140000J0D01*
G01*
G37*
G36*
G01*
X127006450Y-98707400D02*
X127006450Y-98707400D01*
G75*
G02*
X127506450Y-98207400I500000J0D01*
G01*
X128106450Y-98207400D01*
G75*
G02*
X128606450Y-98707400I0J-500000D01*
G01*
X128606450Y-98707400D01*
G75*
G02*
X128106450Y-99207400I-500000J0D01*
G01*
X127506450Y-99207400D01*
G75*
G02*
X127006450Y-98707400I0J500000D01*
G01*
G37*
G36*
G01*
X127006450Y-107347400D02*
X127006450Y-107347400D01*
G75*
G02*
X127506450Y-106847400I500000J0D01*
G01*
X128106450Y-106847400D01*
G75*
G02*
X128606450Y-107347400I0J-500000D01*
G01*
X128606450Y-107347400D01*
G75*
G02*
X128106450Y-107847400I-500000J0D01*
G01*
X127506450Y-107847400D01*
G75*
G02*
X127006450Y-107347400I0J500000D01*
G01*
G37*
G36*
G01*
X130756450Y-98707400D02*
X130756450Y-98707400D01*
G75*
G02*
X131256450Y-98207400I500000J0D01*
G01*
X132356450Y-98207400D01*
G75*
G02*
X132856450Y-98707400I0J-500000D01*
G01*
X132856450Y-98707400D01*
G75*
G02*
X132356450Y-99207400I-500000J0D01*
G01*
X131256450Y-99207400D01*
G75*
G02*
X130756450Y-98707400I0J500000D01*
G01*
G37*
G36*
G01*
X130756450Y-107347400D02*
X130756450Y-107347400D01*
G75*
G02*
X131256450Y-106847400I500000J0D01*
G01*
X132356450Y-106847400D01*
G75*
G02*
X132856450Y-107347400I0J-500000D01*
G01*
X132856450Y-107347400D01*
G75*
G02*
X132356450Y-107847400I-500000J0D01*
G01*
X131256450Y-107847400D01*
G75*
G02*
X130756450Y-107347400I0J500000D01*
G01*
G37*
G36*
G01*
X131901390Y-99522600D02*
X132861510Y-99522600D01*
G75*
G02*
X132952950Y-99614040I0J-91440D01*
G01*
X132952950Y-100040760D01*
G75*
G02*
X132861510Y-100132200I-91440J0D01*
G01*
X131901390Y-100132200D01*
G75*
G02*
X131809950Y-100040760I0J91440D01*
G01*
X131809950Y-99614040D01*
G75*
G02*
X131901390Y-99522600I91440J0D01*
G01*
G37*
G36*
G01*
X131901390Y-100322600D02*
X132861510Y-100322600D01*
G75*
G02*
X132952950Y-100414040I0J-91440D01*
G01*
X132952950Y-100840760D01*
G75*
G02*
X132861510Y-100932200I-91440J0D01*
G01*
X131901390Y-100932200D01*
G75*
G02*
X131809950Y-100840760I0J91440D01*
G01*
X131809950Y-100414040D01*
G75*
G02*
X131901390Y-100322600I91440J0D01*
G01*
G37*
G36*
G01*
X131886150Y-101625000D02*
X132876750Y-101625000D01*
G75*
G02*
X132952950Y-101701200I0J-76200D01*
G01*
X132952950Y-101853600D01*
G75*
G02*
X132876750Y-101929800I-76200J0D01*
G01*
X131886150Y-101929800D01*
G75*
G02*
X131809950Y-101853600I0J76200D01*
G01*
X131809950Y-101701200D01*
G75*
G02*
X131886150Y-101625000I76200J0D01*
G01*
G37*
G36*
G01*
X131886150Y-102625000D02*
X132876750Y-102625000D01*
G75*
G02*
X132952950Y-102701200I0J-76200D01*
G01*
X132952950Y-102853600D01*
G75*
G02*
X132876750Y-102929800I-76200J0D01*
G01*
X131886150Y-102929800D01*
G75*
G02*
X131809950Y-102853600I0J76200D01*
G01*
X131809950Y-102701200D01*
G75*
G02*
X131886150Y-102625000I76200J0D01*
G01*
G37*
G36*
G01*
X131886150Y-103125000D02*
X132876750Y-103125000D01*
G75*
G02*
X132952950Y-103201200I0J-76200D01*
G01*
X132952950Y-103353600D01*
G75*
G02*
X132876750Y-103429800I-76200J0D01*
G01*
X131886150Y-103429800D01*
G75*
G02*
X131809950Y-103353600I0J76200D01*
G01*
X131809950Y-103201200D01*
G75*
G02*
X131886150Y-103125000I76200J0D01*
G01*
G37*
G36*
G01*
X131886150Y-104125000D02*
X132876750Y-104125000D01*
G75*
G02*
X132952950Y-104201200I0J-76200D01*
G01*
X132952950Y-104353600D01*
G75*
G02*
X132876750Y-104429800I-76200J0D01*
G01*
X131886150Y-104429800D01*
G75*
G02*
X131809950Y-104353600I0J76200D01*
G01*
X131809950Y-104201200D01*
G75*
G02*
X131886150Y-104125000I76200J0D01*
G01*
G37*
G36*
G01*
X131901390Y-105922600D02*
X132861510Y-105922600D01*
G75*
G02*
X132952950Y-106014040I0J-91440D01*
G01*
X132952950Y-106440760D01*
G75*
G02*
X132861510Y-106532200I-91440J0D01*
G01*
X131901390Y-106532200D01*
G75*
G02*
X131809950Y-106440760I0J91440D01*
G01*
X131809950Y-106014040D01*
G75*
G02*
X131901390Y-105922600I91440J0D01*
G01*
G37*
G36*
G01*
X131901390Y-105122600D02*
X132861510Y-105122600D01*
G75*
G02*
X132952950Y-105214040I0J-91440D01*
G01*
X132952950Y-105640760D01*
G75*
G02*
X132861510Y-105732200I-91440J0D01*
G01*
X131901390Y-105732200D01*
G75*
G02*
X131809950Y-105640760I0J91440D01*
G01*
X131809950Y-105214040D01*
G75*
G02*
X131901390Y-105122600I91440J0D01*
G01*
G37*
G36*
G01*
X131886150Y-104625059D02*
X132876750Y-104625059D01*
G75*
G02*
X132952950Y-104701259I0J-76200D01*
G01*
X132952950Y-104853659D01*
G75*
G02*
X132876750Y-104929859I-76200J0D01*
G01*
X131886150Y-104929859D01*
G75*
G02*
X131809950Y-104853659I0J76200D01*
G01*
X131809950Y-104701259D01*
G75*
G02*
X131886150Y-104625059I76200J0D01*
G01*
G37*
G36*
G01*
X131886150Y-103625059D02*
X132876750Y-103625059D01*
G75*
G02*
X132952950Y-103701259I0J-76200D01*
G01*
X132952950Y-103853659D01*
G75*
G02*
X132876750Y-103929859I-76200J0D01*
G01*
X131886150Y-103929859D01*
G75*
G02*
X131809950Y-103853659I0J76200D01*
G01*
X131809950Y-103701259D01*
G75*
G02*
X131886150Y-103625059I76200J0D01*
G01*
G37*
G36*
G01*
X131886150Y-102125060D02*
X132876750Y-102125060D01*
G75*
G02*
X132952950Y-102201260I0J-76200D01*
G01*
X132952950Y-102353660D01*
G75*
G02*
X132876750Y-102429860I-76200J0D01*
G01*
X131886150Y-102429860D01*
G75*
G02*
X131809950Y-102353660I0J76200D01*
G01*
X131809950Y-102201260D01*
G75*
G02*
X131886150Y-102125060I76200J0D01*
G01*
G37*
G36*
G01*
X131886150Y-101125060D02*
X132876750Y-101125060D01*
G75*
G02*
X132952950Y-101201260I0J-76200D01*
G01*
X132952950Y-101353660D01*
G75*
G02*
X132876750Y-101429860I-76200J0D01*
G01*
X131886150Y-101429860D01*
G75*
G02*
X131809950Y-101353660I0J76200D01*
G01*
X131809950Y-101201260D01*
G75*
G02*
X131886150Y-101125060I76200J0D01*
G01*
G37*
G36*
G01*
X135799900Y-113577400D02*
X135799900Y-114077400D01*
G75*
G02*
X135574900Y-114302400I-225000J0D01*
G01*
X135124900Y-114302400D01*
G75*
G02*
X134899900Y-114077400I0J225000D01*
G01*
X134899900Y-113577400D01*
G75*
G02*
X135124900Y-113352400I225000J0D01*
G01*
X135574900Y-113352400D01*
G75*
G02*
X135799900Y-113577400I0J-225000D01*
G01*
G37*
G36*
G01*
X134249900Y-113577400D02*
X134249900Y-114077400D01*
G75*
G02*
X134024900Y-114302400I-225000J0D01*
G01*
X133574900Y-114302400D01*
G75*
G02*
X133349900Y-114077400I0J225000D01*
G01*
X133349900Y-113577400D01*
G75*
G02*
X133574900Y-113352400I225000J0D01*
G01*
X134024900Y-113352400D01*
G75*
G02*
X134249900Y-113577400I0J-225000D01*
G01*
G37*
G36*
G01*
X136598100Y-121345100D02*
X136598100Y-121170100D01*
G75*
G02*
X136685600Y-121082600I87500J0D01*
G01*
X138135600Y-121082600D01*
G75*
G02*
X138223100Y-121170100I0J-87500D01*
G01*
X138223100Y-121345100D01*
G75*
G02*
X138135600Y-121432600I-87500J0D01*
G01*
X136685600Y-121432600D01*
G75*
G02*
X136598100Y-121345100I0J87500D01*
G01*
G37*
G36*
G01*
X136598100Y-121845100D02*
X136598100Y-121670100D01*
G75*
G02*
X136685600Y-121582600I87500J0D01*
G01*
X138135600Y-121582600D01*
G75*
G02*
X138223100Y-121670100I0J-87500D01*
G01*
X138223100Y-121845100D01*
G75*
G02*
X138135600Y-121932600I-87500J0D01*
G01*
X136685600Y-121932600D01*
G75*
G02*
X136598100Y-121845100I0J87500D01*
G01*
G37*
G36*
G01*
X136598100Y-122345100D02*
X136598100Y-122170100D01*
G75*
G02*
X136685600Y-122082600I87500J0D01*
G01*
X138135600Y-122082600D01*
G75*
G02*
X138223100Y-122170100I0J-87500D01*
G01*
X138223100Y-122345100D01*
G75*
G02*
X138135600Y-122432600I-87500J0D01*
G01*
X136685600Y-122432600D01*
G75*
G02*
X136598100Y-122345100I0J87500D01*
G01*
G37*
G36*
G01*
X136598100Y-122845100D02*
X136598100Y-122670100D01*
G75*
G02*
X136685600Y-122582600I87500J0D01*
G01*
X138135600Y-122582600D01*
G75*
G02*
X138223100Y-122670100I0J-87500D01*
G01*
X138223100Y-122845100D01*
G75*
G02*
X138135600Y-122932600I-87500J0D01*
G01*
X136685600Y-122932600D01*
G75*
G02*
X136598100Y-122845100I0J87500D01*
G01*
G37*
G36*
G01*
X136598100Y-123345100D02*
X136598100Y-123170100D01*
G75*
G02*
X136685600Y-123082600I87500J0D01*
G01*
X138135600Y-123082600D01*
G75*
G02*
X138223100Y-123170100I0J-87500D01*
G01*
X138223100Y-123345100D01*
G75*
G02*
X138135600Y-123432600I-87500J0D01*
G01*
X136685600Y-123432600D01*
G75*
G02*
X136598100Y-123345100I0J87500D01*
G01*
G37*
G36*
G01*
X140823100Y-123345100D02*
X140823100Y-123170100D01*
G75*
G02*
X140910600Y-123082600I87500J0D01*
G01*
X142360600Y-123082600D01*
G75*
G02*
X142448100Y-123170100I0J-87500D01*
G01*
X142448100Y-123345100D01*
G75*
G02*
X142360600Y-123432600I-87500J0D01*
G01*
X140910600Y-123432600D01*
G75*
G02*
X140823100Y-123345100I0J87500D01*
G01*
G37*
G36*
G01*
X140823100Y-122845100D02*
X140823100Y-122670100D01*
G75*
G02*
X140910600Y-122582600I87500J0D01*
G01*
X142360600Y-122582600D01*
G75*
G02*
X142448100Y-122670100I0J-87500D01*
G01*
X142448100Y-122845100D01*
G75*
G02*
X142360600Y-122932600I-87500J0D01*
G01*
X140910600Y-122932600D01*
G75*
G02*
X140823100Y-122845100I0J87500D01*
G01*
G37*
G36*
G01*
X140823100Y-122345100D02*
X140823100Y-122170100D01*
G75*
G02*
X140910600Y-122082600I87500J0D01*
G01*
X142360600Y-122082600D01*
G75*
G02*
X142448100Y-122170100I0J-87500D01*
G01*
X142448100Y-122345100D01*
G75*
G02*
X142360600Y-122432600I-87500J0D01*
G01*
X140910600Y-122432600D01*
G75*
G02*
X140823100Y-122345100I0J87500D01*
G01*
G37*
G36*
G01*
X140823100Y-121845100D02*
X140823100Y-121670100D01*
G75*
G02*
X140910600Y-121582600I87500J0D01*
G01*
X142360600Y-121582600D01*
G75*
G02*
X142448100Y-121670100I0J-87500D01*
G01*
X142448100Y-121845100D01*
G75*
G02*
X142360600Y-121932600I-87500J0D01*
G01*
X140910600Y-121932600D01*
G75*
G02*
X140823100Y-121845100I0J87500D01*
G01*
G37*
G36*
G01*
X140823100Y-121345100D02*
X140823100Y-121170100D01*
G75*
G02*
X140910600Y-121082600I87500J0D01*
G01*
X142360600Y-121082600D01*
G75*
G02*
X142448100Y-121170100I0J-87500D01*
G01*
X142448100Y-121345100D01*
G75*
G02*
X142360600Y-121432600I-87500J0D01*
G01*
X140910600Y-121432600D01*
G75*
G02*
X140823100Y-121345100I0J87500D01*
G01*
G37*
G36*
G01*
X132462400Y-110352400D02*
X131987400Y-110352400D01*
G75*
G02*
X131924900Y-110289900I0J62500D01*
G01*
X131924900Y-110164900D01*
G75*
G02*
X131987400Y-110102400I62500J0D01*
G01*
X132462400Y-110102400D01*
G75*
G02*
X132524900Y-110164900I0J-62500D01*
G01*
X132524900Y-110289900D01*
G75*
G02*
X132462400Y-110352400I-62500J0D01*
G01*
G37*
G36*
G01*
X132462400Y-110852400D02*
X131987400Y-110852400D01*
G75*
G02*
X131924900Y-110789900I0J62500D01*
G01*
X131924900Y-110664900D01*
G75*
G02*
X131987400Y-110602400I62500J0D01*
G01*
X132462400Y-110602400D01*
G75*
G02*
X132524900Y-110664900I0J-62500D01*
G01*
X132524900Y-110789900D01*
G75*
G02*
X132462400Y-110852400I-62500J0D01*
G01*
G37*
G36*
G01*
X132462400Y-111352400D02*
X131987400Y-111352400D01*
G75*
G02*
X131924900Y-111289900I0J62500D01*
G01*
X131924900Y-111164900D01*
G75*
G02*
X131987400Y-111102400I62500J0D01*
G01*
X132462400Y-111102400D01*
G75*
G02*
X132524900Y-111164900I0J-62500D01*
G01*
X132524900Y-111289900D01*
G75*
G02*
X132462400Y-111352400I-62500J0D01*
G01*
G37*
G36*
G01*
X133799900Y-111377400D02*
X132849900Y-111377400D01*
G75*
G02*
X132774900Y-111302400I0J75000D01*
G01*
X132774900Y-111152400D01*
G75*
G02*
X132849900Y-111077400I75000J0D01*
G01*
X133799900Y-111077400D01*
G75*
G02*
X133874900Y-111152400I0J-75000D01*
G01*
X133874900Y-111302400D01*
G75*
G02*
X133799900Y-111377400I-75000J0D01*
G01*
G37*
G36*
G01*
X133799900Y-110877400D02*
X132849900Y-110877400D01*
G75*
G02*
X132774900Y-110802400I0J75000D01*
G01*
X132774900Y-110652400D01*
G75*
G02*
X132849900Y-110577400I75000J0D01*
G01*
X133799900Y-110577400D01*
G75*
G02*
X133874900Y-110652400I0J-75000D01*
G01*
X133874900Y-110802400D01*
G75*
G02*
X133799900Y-110877400I-75000J0D01*
G01*
G37*
G36*
G01*
X133799900Y-110377400D02*
X132849900Y-110377400D01*
G75*
G02*
X132774900Y-110302400I0J75000D01*
G01*
X132774900Y-110152400D01*
G75*
G02*
X132849900Y-110077400I75000J0D01*
G01*
X133799900Y-110077400D01*
G75*
G02*
X133874900Y-110152400I0J-75000D01*
G01*
X133874900Y-110302400D01*
G75*
G02*
X133799900Y-110377400I-75000J0D01*
G01*
G37*
G36*
G01*
X130442874Y-118791955D02*
X130383834Y-119126790D01*
G75*
G02*
X130221650Y-119240352I-137873J24311D01*
G01*
X129945904Y-119191731D01*
G75*
G02*
X129832342Y-119029547I24311J137873D01*
G01*
X129891382Y-118694712D01*
G75*
G02*
X130053566Y-118581150I137873J-24311D01*
G01*
X130329312Y-118629771D01*
G75*
G02*
X130442874Y-118791955I-24311J-137873D01*
G01*
G37*
G36*
G01*
X129497458Y-118625253D02*
X129438418Y-118960088D01*
G75*
G02*
X129276234Y-119073650I-137873J24311D01*
G01*
X129000488Y-119025029D01*
G75*
G02*
X128886926Y-118862845I24311J137873D01*
G01*
X128945966Y-118528010D01*
G75*
G02*
X129108150Y-118414448I137873J-24311D01*
G01*
X129383896Y-118463069D01*
G75*
G02*
X129497458Y-118625253I-24311J-137873D01*
G01*
G37*
G36*
G01*
X173562300Y-122171800D02*
X173562300Y-122541800D01*
G75*
G02*
X173427300Y-122676800I-135000J0D01*
G01*
X173157300Y-122676800D01*
G75*
G02*
X173022300Y-122541800I0J135000D01*
G01*
X173022300Y-122171800D01*
G75*
G02*
X173157300Y-122036800I135000J0D01*
G01*
X173427300Y-122036800D01*
G75*
G02*
X173562300Y-122171800I0J-135000D01*
G01*
G37*
G36*
G01*
X172542300Y-122171800D02*
X172542300Y-122541800D01*
G75*
G02*
X172407300Y-122676800I-135000J0D01*
G01*
X172137300Y-122676800D01*
G75*
G02*
X172002300Y-122541800I0J135000D01*
G01*
X172002300Y-122171800D01*
G75*
G02*
X172137300Y-122036800I135000J0D01*
G01*
X172407300Y-122036800D01*
G75*
G02*
X172542300Y-122171800I0J-135000D01*
G01*
G37*
D10*
X128510100Y-126725600D03*
D11*
X131050100Y-126725600D03*
X133590100Y-126725600D03*
X136130100Y-126725600D03*
X138670100Y-126725600D03*
X141210100Y-126725600D03*
X143750100Y-126725600D03*
G36*
G01*
X153034900Y-88812400D02*
X153034900Y-88442400D01*
G75*
G02*
X153169900Y-88307400I135000J0D01*
G01*
X153439900Y-88307400D01*
G75*
G02*
X153574900Y-88442400I0J-135000D01*
G01*
X153574900Y-88812400D01*
G75*
G02*
X153439900Y-88947400I-135000J0D01*
G01*
X153169900Y-88947400D01*
G75*
G02*
X153034900Y-88812400I0J135000D01*
G01*
G37*
G36*
G01*
X154054900Y-88812400D02*
X154054900Y-88442400D01*
G75*
G02*
X154189900Y-88307400I135000J0D01*
G01*
X154459900Y-88307400D01*
G75*
G02*
X154594900Y-88442400I0J-135000D01*
G01*
X154594900Y-88812400D01*
G75*
G02*
X154459900Y-88947400I-135000J0D01*
G01*
X154189900Y-88947400D01*
G75*
G02*
X154054900Y-88812400I0J135000D01*
G01*
G37*
G36*
G01*
X136524900Y-110127400D02*
X138224900Y-110127400D01*
G75*
G02*
X138474900Y-110377400I0J-250000D01*
G01*
X138474900Y-111127400D01*
G75*
G02*
X138224900Y-111377400I-250000J0D01*
G01*
X136524900Y-111377400D01*
G75*
G02*
X136274900Y-111127400I0J250000D01*
G01*
X136274900Y-110377400D01*
G75*
G02*
X136524900Y-110127400I250000J0D01*
G01*
G37*
G36*
G01*
X136524900Y-112277400D02*
X138224900Y-112277400D01*
G75*
G02*
X138474900Y-112527400I0J-250000D01*
G01*
X138474900Y-113277400D01*
G75*
G02*
X138224900Y-113527400I-250000J0D01*
G01*
X136524900Y-113527400D01*
G75*
G02*
X136274900Y-113277400I0J250000D01*
G01*
X136274900Y-112527400D01*
G75*
G02*
X136524900Y-112277400I250000J0D01*
G01*
G37*
G36*
G01*
X126674900Y-90677400D02*
X126674900Y-90477400D01*
G75*
G02*
X126774900Y-90377400I100000J0D01*
G01*
X127074900Y-90377400D01*
G75*
G02*
X127174900Y-90477400I0J-100000D01*
G01*
X127174900Y-90677400D01*
G75*
G02*
X127074900Y-90777400I-100000J0D01*
G01*
X126774900Y-90777400D01*
G75*
G02*
X126674900Y-90677400I0J100000D01*
G01*
G37*
G36*
G01*
X126674900Y-91152400D02*
X126674900Y-91002400D01*
G75*
G02*
X126749900Y-90927400I75000J0D01*
G01*
X127099900Y-90927400D01*
G75*
G02*
X127174900Y-91002400I0J-75000D01*
G01*
X127174900Y-91152400D01*
G75*
G02*
X127099900Y-91227400I-75000J0D01*
G01*
X126749900Y-91227400D01*
G75*
G02*
X126674900Y-91152400I0J75000D01*
G01*
G37*
G36*
G01*
X126674900Y-91652400D02*
X126674900Y-91502400D01*
G75*
G02*
X126749900Y-91427400I75000J0D01*
G01*
X127099900Y-91427400D01*
G75*
G02*
X127174900Y-91502400I0J-75000D01*
G01*
X127174900Y-91652400D01*
G75*
G02*
X127099900Y-91727400I-75000J0D01*
G01*
X126749900Y-91727400D01*
G75*
G02*
X126674900Y-91652400I0J75000D01*
G01*
G37*
G36*
G01*
X126674900Y-92177400D02*
X126674900Y-91977400D01*
G75*
G02*
X126774900Y-91877400I100000J0D01*
G01*
X127074900Y-91877400D01*
G75*
G02*
X127174900Y-91977400I0J-100000D01*
G01*
X127174900Y-92177400D01*
G75*
G02*
X127074900Y-92277400I-100000J0D01*
G01*
X126774900Y-92277400D01*
G75*
G02*
X126674900Y-92177400I0J100000D01*
G01*
G37*
G36*
G01*
X127674900Y-92177400D02*
X127674900Y-91977400D01*
G75*
G02*
X127774900Y-91877400I100000J0D01*
G01*
X128074900Y-91877400D01*
G75*
G02*
X128174900Y-91977400I0J-100000D01*
G01*
X128174900Y-92177400D01*
G75*
G02*
X128074900Y-92277400I-100000J0D01*
G01*
X127774900Y-92277400D01*
G75*
G02*
X127674900Y-92177400I0J100000D01*
G01*
G37*
G36*
G01*
X127674900Y-91652400D02*
X127674900Y-91502400D01*
G75*
G02*
X127749900Y-91427400I75000J0D01*
G01*
X128099900Y-91427400D01*
G75*
G02*
X128174900Y-91502400I0J-75000D01*
G01*
X128174900Y-91652400D01*
G75*
G02*
X128099900Y-91727400I-75000J0D01*
G01*
X127749900Y-91727400D01*
G75*
G02*
X127674900Y-91652400I0J75000D01*
G01*
G37*
G36*
G01*
X127674900Y-91152400D02*
X127674900Y-91002400D01*
G75*
G02*
X127749900Y-90927400I75000J0D01*
G01*
X128099900Y-90927400D01*
G75*
G02*
X128174900Y-91002400I0J-75000D01*
G01*
X128174900Y-91152400D01*
G75*
G02*
X128099900Y-91227400I-75000J0D01*
G01*
X127749900Y-91227400D01*
G75*
G02*
X127674900Y-91152400I0J75000D01*
G01*
G37*
G36*
G01*
X127674900Y-90677400D02*
X127674900Y-90477400D01*
G75*
G02*
X127774900Y-90377400I100000J0D01*
G01*
X128074900Y-90377400D01*
G75*
G02*
X128174900Y-90477400I0J-100000D01*
G01*
X128174900Y-90677400D01*
G75*
G02*
X128074900Y-90777400I-100000J0D01*
G01*
X127774900Y-90777400D01*
G75*
G02*
X127674900Y-90677400I0J100000D01*
G01*
G37*
G36*
G01*
X148653100Y-90188600D02*
X148653100Y-89818600D01*
G75*
G02*
X148788100Y-89683600I135000J0D01*
G01*
X149058100Y-89683600D01*
G75*
G02*
X149193100Y-89818600I0J-135000D01*
G01*
X149193100Y-90188600D01*
G75*
G02*
X149058100Y-90323600I-135000J0D01*
G01*
X148788100Y-90323600D01*
G75*
G02*
X148653100Y-90188600I0J135000D01*
G01*
G37*
G36*
G01*
X149673100Y-90188600D02*
X149673100Y-89818600D01*
G75*
G02*
X149808100Y-89683600I135000J0D01*
G01*
X150078100Y-89683600D01*
G75*
G02*
X150213100Y-89818600I0J-135000D01*
G01*
X150213100Y-90188600D01*
G75*
G02*
X150078100Y-90323600I-135000J0D01*
G01*
X149808100Y-90323600D01*
G75*
G02*
X149673100Y-90188600I0J135000D01*
G01*
G37*
G36*
G01*
X134772509Y-98944593D02*
X134532093Y-99185009D01*
G75*
G02*
X134334103Y-99185009I-98995J98995D01*
G01*
X134136113Y-98987019D01*
G75*
G02*
X134136113Y-98789029I98995J98995D01*
G01*
X134376529Y-98548613D01*
G75*
G02*
X134574519Y-98548613I98995J-98995D01*
G01*
X134772509Y-98746603D01*
G75*
G02*
X134772509Y-98944593I-98995J-98995D01*
G01*
G37*
G36*
G01*
X134093687Y-98265771D02*
X133853271Y-98506187D01*
G75*
G02*
X133655281Y-98506187I-98995J98995D01*
G01*
X133457291Y-98308197D01*
G75*
G02*
X133457291Y-98110207I98995J98995D01*
G01*
X133697707Y-97869791D01*
G75*
G02*
X133895697Y-97869791I98995J-98995D01*
G01*
X134093687Y-98067781D01*
G75*
G02*
X134093687Y-98265771I-98995J-98995D01*
G01*
G37*
G36*
G01*
X168261900Y-88750600D02*
X167921900Y-88750600D01*
G75*
G02*
X167781900Y-88610600I0J140000D01*
G01*
X167781900Y-88330600D01*
G75*
G02*
X167921900Y-88190600I140000J0D01*
G01*
X168261900Y-88190600D01*
G75*
G02*
X168401900Y-88330600I0J-140000D01*
G01*
X168401900Y-88610600D01*
G75*
G02*
X168261900Y-88750600I-140000J0D01*
G01*
G37*
G36*
G01*
X168261900Y-87790600D02*
X167921900Y-87790600D01*
G75*
G02*
X167781900Y-87650600I0J140000D01*
G01*
X167781900Y-87370600D01*
G75*
G02*
X167921900Y-87230600I140000J0D01*
G01*
X168261900Y-87230600D01*
G75*
G02*
X168401900Y-87370600I0J-140000D01*
G01*
X168401900Y-87650600D01*
G75*
G02*
X168261900Y-87790600I-140000J0D01*
G01*
G37*
G36*
G01*
X144444900Y-85512400D02*
X144444900Y-85142400D01*
G75*
G02*
X144579900Y-85007400I135000J0D01*
G01*
X144849900Y-85007400D01*
G75*
G02*
X144984900Y-85142400I0J-135000D01*
G01*
X144984900Y-85512400D01*
G75*
G02*
X144849900Y-85647400I-135000J0D01*
G01*
X144579900Y-85647400D01*
G75*
G02*
X144444900Y-85512400I0J135000D01*
G01*
G37*
G36*
G01*
X145464900Y-85512400D02*
X145464900Y-85142400D01*
G75*
G02*
X145599900Y-85007400I135000J0D01*
G01*
X145869900Y-85007400D01*
G75*
G02*
X146004900Y-85142400I0J-135000D01*
G01*
X146004900Y-85512400D01*
G75*
G02*
X145869900Y-85647400I-135000J0D01*
G01*
X145599900Y-85647400D01*
G75*
G02*
X145464900Y-85512400I0J135000D01*
G01*
G37*
G36*
G01*
X144418100Y-87777600D02*
X144418100Y-87407600D01*
G75*
G02*
X144553100Y-87272600I135000J0D01*
G01*
X144823100Y-87272600D01*
G75*
G02*
X144958100Y-87407600I0J-135000D01*
G01*
X144958100Y-87777600D01*
G75*
G02*
X144823100Y-87912600I-135000J0D01*
G01*
X144553100Y-87912600D01*
G75*
G02*
X144418100Y-87777600I0J135000D01*
G01*
G37*
G36*
G01*
X145438100Y-87777600D02*
X145438100Y-87407600D01*
G75*
G02*
X145573100Y-87272600I135000J0D01*
G01*
X145843100Y-87272600D01*
G75*
G02*
X145978100Y-87407600I0J-135000D01*
G01*
X145978100Y-87777600D01*
G75*
G02*
X145843100Y-87912600I-135000J0D01*
G01*
X145573100Y-87912600D01*
G75*
G02*
X145438100Y-87777600I0J135000D01*
G01*
G37*
G36*
G01*
X154098100Y-87420100D02*
X154098100Y-87765100D01*
G75*
G02*
X153950600Y-87912600I-147500J0D01*
G01*
X153655600Y-87912600D01*
G75*
G02*
X153508100Y-87765100I0J147500D01*
G01*
X153508100Y-87420100D01*
G75*
G02*
X153655600Y-87272600I147500J0D01*
G01*
X153950600Y-87272600D01*
G75*
G02*
X154098100Y-87420100I0J-147500D01*
G01*
G37*
G36*
G01*
X153128100Y-87420100D02*
X153128100Y-87765100D01*
G75*
G02*
X152980600Y-87912600I-147500J0D01*
G01*
X152685600Y-87912600D01*
G75*
G02*
X152538100Y-87765100I0J147500D01*
G01*
X152538100Y-87420100D01*
G75*
G02*
X152685600Y-87272600I147500J0D01*
G01*
X152980600Y-87272600D01*
G75*
G02*
X153128100Y-87420100I0J-147500D01*
G01*
G37*
G36*
G01*
X162559100Y-123999600D02*
X162559100Y-124339600D01*
G75*
G02*
X162419100Y-124479600I-140000J0D01*
G01*
X162139100Y-124479600D01*
G75*
G02*
X161999100Y-124339600I0J140000D01*
G01*
X161999100Y-123999600D01*
G75*
G02*
X162139100Y-123859600I140000J0D01*
G01*
X162419100Y-123859600D01*
G75*
G02*
X162559100Y-123999600I0J-140000D01*
G01*
G37*
G36*
G01*
X161599100Y-123999600D02*
X161599100Y-124339600D01*
G75*
G02*
X161459100Y-124479600I-140000J0D01*
G01*
X161179100Y-124479600D01*
G75*
G02*
X161039100Y-124339600I0J140000D01*
G01*
X161039100Y-123999600D01*
G75*
G02*
X161179100Y-123859600I140000J0D01*
G01*
X161459100Y-123859600D01*
G75*
G02*
X161599100Y-123999600I0J-140000D01*
G01*
G37*
G36*
G01*
X134432707Y-95710009D02*
X134192291Y-95469593D01*
G75*
G02*
X134192291Y-95271603I98995J98995D01*
G01*
X134390281Y-95073613D01*
G75*
G02*
X134588271Y-95073613I98995J-98995D01*
G01*
X134828687Y-95314029D01*
G75*
G02*
X134828687Y-95512019I-98995J-98995D01*
G01*
X134630697Y-95710009D01*
G75*
G02*
X134432707Y-95710009I-98995J98995D01*
G01*
G37*
G36*
G01*
X135111529Y-95031187D02*
X134871113Y-94790771D01*
G75*
G02*
X134871113Y-94592781I98995J98995D01*
G01*
X135069103Y-94394791D01*
G75*
G02*
X135267093Y-94394791I98995J-98995D01*
G01*
X135507509Y-94635207D01*
G75*
G02*
X135507509Y-94833197I-98995J-98995D01*
G01*
X135309519Y-95031187D01*
G75*
G02*
X135111529Y-95031187I-98995J98995D01*
G01*
G37*
G36*
G01*
X158464900Y-86457400D02*
X158464900Y-86797400D01*
G75*
G02*
X158324900Y-86937400I-140000J0D01*
G01*
X158044900Y-86937400D01*
G75*
G02*
X157904900Y-86797400I0J140000D01*
G01*
X157904900Y-86457400D01*
G75*
G02*
X158044900Y-86317400I140000J0D01*
G01*
X158324900Y-86317400D01*
G75*
G02*
X158464900Y-86457400I0J-140000D01*
G01*
G37*
G36*
G01*
X157504900Y-86457400D02*
X157504900Y-86797400D01*
G75*
G02*
X157364900Y-86937400I-140000J0D01*
G01*
X157084900Y-86937400D01*
G75*
G02*
X156944900Y-86797400I0J140000D01*
G01*
X156944900Y-86457400D01*
G75*
G02*
X157084900Y-86317400I140000J0D01*
G01*
X157364900Y-86317400D01*
G75*
G02*
X157504900Y-86457400I0J-140000D01*
G01*
G37*
G36*
G01*
X134412400Y-87202400D02*
X134537400Y-87202400D01*
G75*
G02*
X134599900Y-87264900I0J-62500D01*
G01*
X134599900Y-88014900D01*
G75*
G02*
X134537400Y-88077400I-62500J0D01*
G01*
X134412400Y-88077400D01*
G75*
G02*
X134349900Y-88014900I0J62500D01*
G01*
X134349900Y-87264900D01*
G75*
G02*
X134412400Y-87202400I62500J0D01*
G01*
G37*
G36*
G01*
X133912400Y-87202400D02*
X134037400Y-87202400D01*
G75*
G02*
X134099900Y-87264900I0J-62500D01*
G01*
X134099900Y-88014900D01*
G75*
G02*
X134037400Y-88077400I-62500J0D01*
G01*
X133912400Y-88077400D01*
G75*
G02*
X133849900Y-88014900I0J62500D01*
G01*
X133849900Y-87264900D01*
G75*
G02*
X133912400Y-87202400I62500J0D01*
G01*
G37*
G36*
G01*
X133412400Y-87202400D02*
X133537400Y-87202400D01*
G75*
G02*
X133599900Y-87264900I0J-62500D01*
G01*
X133599900Y-88014900D01*
G75*
G02*
X133537400Y-88077400I-62500J0D01*
G01*
X133412400Y-88077400D01*
G75*
G02*
X133349900Y-88014900I0J62500D01*
G01*
X133349900Y-87264900D01*
G75*
G02*
X133412400Y-87202400I62500J0D01*
G01*
G37*
G36*
G01*
X132912400Y-87202400D02*
X133037400Y-87202400D01*
G75*
G02*
X133099900Y-87264900I0J-62500D01*
G01*
X133099900Y-88014900D01*
G75*
G02*
X133037400Y-88077400I-62500J0D01*
G01*
X132912400Y-88077400D01*
G75*
G02*
X132849900Y-88014900I0J62500D01*
G01*
X132849900Y-87264900D01*
G75*
G02*
X132912400Y-87202400I62500J0D01*
G01*
G37*
G36*
G01*
X132412400Y-87202400D02*
X132537400Y-87202400D01*
G75*
G02*
X132599900Y-87264900I0J-62500D01*
G01*
X132599900Y-88014900D01*
G75*
G02*
X132537400Y-88077400I-62500J0D01*
G01*
X132412400Y-88077400D01*
G75*
G02*
X132349900Y-88014900I0J62500D01*
G01*
X132349900Y-87264900D01*
G75*
G02*
X132412400Y-87202400I62500J0D01*
G01*
G37*
G36*
G01*
X131912400Y-87202400D02*
X132037400Y-87202400D01*
G75*
G02*
X132099900Y-87264900I0J-62500D01*
G01*
X132099900Y-88014900D01*
G75*
G02*
X132037400Y-88077400I-62500J0D01*
G01*
X131912400Y-88077400D01*
G75*
G02*
X131849900Y-88014900I0J62500D01*
G01*
X131849900Y-87264900D01*
G75*
G02*
X131912400Y-87202400I62500J0D01*
G01*
G37*
G36*
G01*
X131412400Y-87202400D02*
X131537400Y-87202400D01*
G75*
G02*
X131599900Y-87264900I0J-62500D01*
G01*
X131599900Y-88014900D01*
G75*
G02*
X131537400Y-88077400I-62500J0D01*
G01*
X131412400Y-88077400D01*
G75*
G02*
X131349900Y-88014900I0J62500D01*
G01*
X131349900Y-87264900D01*
G75*
G02*
X131412400Y-87202400I62500J0D01*
G01*
G37*
G36*
G01*
X130912400Y-87202400D02*
X131037400Y-87202400D01*
G75*
G02*
X131099900Y-87264900I0J-62500D01*
G01*
X131099900Y-88014900D01*
G75*
G02*
X131037400Y-88077400I-62500J0D01*
G01*
X130912400Y-88077400D01*
G75*
G02*
X130849900Y-88014900I0J62500D01*
G01*
X130849900Y-87264900D01*
G75*
G02*
X130912400Y-87202400I62500J0D01*
G01*
G37*
G36*
G01*
X129912400Y-88202400D02*
X130662400Y-88202400D01*
G75*
G02*
X130724900Y-88264900I0J-62500D01*
G01*
X130724900Y-88389900D01*
G75*
G02*
X130662400Y-88452400I-62500J0D01*
G01*
X129912400Y-88452400D01*
G75*
G02*
X129849900Y-88389900I0J62500D01*
G01*
X129849900Y-88264900D01*
G75*
G02*
X129912400Y-88202400I62500J0D01*
G01*
G37*
G36*
G01*
X129912400Y-88702400D02*
X130662400Y-88702400D01*
G75*
G02*
X130724900Y-88764900I0J-62500D01*
G01*
X130724900Y-88889900D01*
G75*
G02*
X130662400Y-88952400I-62500J0D01*
G01*
X129912400Y-88952400D01*
G75*
G02*
X129849900Y-88889900I0J62500D01*
G01*
X129849900Y-88764900D01*
G75*
G02*
X129912400Y-88702400I62500J0D01*
G01*
G37*
G36*
G01*
X129912400Y-89202400D02*
X130662400Y-89202400D01*
G75*
G02*
X130724900Y-89264900I0J-62500D01*
G01*
X130724900Y-89389900D01*
G75*
G02*
X130662400Y-89452400I-62500J0D01*
G01*
X129912400Y-89452400D01*
G75*
G02*
X129849900Y-89389900I0J62500D01*
G01*
X129849900Y-89264900D01*
G75*
G02*
X129912400Y-89202400I62500J0D01*
G01*
G37*
G36*
G01*
X129912400Y-89702400D02*
X130662400Y-89702400D01*
G75*
G02*
X130724900Y-89764900I0J-62500D01*
G01*
X130724900Y-89889900D01*
G75*
G02*
X130662400Y-89952400I-62500J0D01*
G01*
X129912400Y-89952400D01*
G75*
G02*
X129849900Y-89889900I0J62500D01*
G01*
X129849900Y-89764900D01*
G75*
G02*
X129912400Y-89702400I62500J0D01*
G01*
G37*
G36*
G01*
X129912400Y-90202400D02*
X130662400Y-90202400D01*
G75*
G02*
X130724900Y-90264900I0J-62500D01*
G01*
X130724900Y-90389900D01*
G75*
G02*
X130662400Y-90452400I-62500J0D01*
G01*
X129912400Y-90452400D01*
G75*
G02*
X129849900Y-90389900I0J62500D01*
G01*
X129849900Y-90264900D01*
G75*
G02*
X129912400Y-90202400I62500J0D01*
G01*
G37*
G36*
G01*
X129912400Y-90702400D02*
X130662400Y-90702400D01*
G75*
G02*
X130724900Y-90764900I0J-62500D01*
G01*
X130724900Y-90889900D01*
G75*
G02*
X130662400Y-90952400I-62500J0D01*
G01*
X129912400Y-90952400D01*
G75*
G02*
X129849900Y-90889900I0J62500D01*
G01*
X129849900Y-90764900D01*
G75*
G02*
X129912400Y-90702400I62500J0D01*
G01*
G37*
G36*
G01*
X129912400Y-91202400D02*
X130662400Y-91202400D01*
G75*
G02*
X130724900Y-91264900I0J-62500D01*
G01*
X130724900Y-91389900D01*
G75*
G02*
X130662400Y-91452400I-62500J0D01*
G01*
X129912400Y-91452400D01*
G75*
G02*
X129849900Y-91389900I0J62500D01*
G01*
X129849900Y-91264900D01*
G75*
G02*
X129912400Y-91202400I62500J0D01*
G01*
G37*
G36*
G01*
X129912400Y-91702400D02*
X130662400Y-91702400D01*
G75*
G02*
X130724900Y-91764900I0J-62500D01*
G01*
X130724900Y-91889900D01*
G75*
G02*
X130662400Y-91952400I-62500J0D01*
G01*
X129912400Y-91952400D01*
G75*
G02*
X129849900Y-91889900I0J62500D01*
G01*
X129849900Y-91764900D01*
G75*
G02*
X129912400Y-91702400I62500J0D01*
G01*
G37*
G36*
G01*
X130912400Y-92077400D02*
X131037400Y-92077400D01*
G75*
G02*
X131099900Y-92139900I0J-62500D01*
G01*
X131099900Y-92889900D01*
G75*
G02*
X131037400Y-92952400I-62500J0D01*
G01*
X130912400Y-92952400D01*
G75*
G02*
X130849900Y-92889900I0J62500D01*
G01*
X130849900Y-92139900D01*
G75*
G02*
X130912400Y-92077400I62500J0D01*
G01*
G37*
G36*
G01*
X131412400Y-92077400D02*
X131537400Y-92077400D01*
G75*
G02*
X131599900Y-92139900I0J-62500D01*
G01*
X131599900Y-92889900D01*
G75*
G02*
X131537400Y-92952400I-62500J0D01*
G01*
X131412400Y-92952400D01*
G75*
G02*
X131349900Y-92889900I0J62500D01*
G01*
X131349900Y-92139900D01*
G75*
G02*
X131412400Y-92077400I62500J0D01*
G01*
G37*
G36*
G01*
X131912400Y-92077400D02*
X132037400Y-92077400D01*
G75*
G02*
X132099900Y-92139900I0J-62500D01*
G01*
X132099900Y-92889900D01*
G75*
G02*
X132037400Y-92952400I-62500J0D01*
G01*
X131912400Y-92952400D01*
G75*
G02*
X131849900Y-92889900I0J62500D01*
G01*
X131849900Y-92139900D01*
G75*
G02*
X131912400Y-92077400I62500J0D01*
G01*
G37*
G36*
G01*
X132412400Y-92077400D02*
X132537400Y-92077400D01*
G75*
G02*
X132599900Y-92139900I0J-62500D01*
G01*
X132599900Y-92889900D01*
G75*
G02*
X132537400Y-92952400I-62500J0D01*
G01*
X132412400Y-92952400D01*
G75*
G02*
X132349900Y-92889900I0J62500D01*
G01*
X132349900Y-92139900D01*
G75*
G02*
X132412400Y-92077400I62500J0D01*
G01*
G37*
G36*
G01*
X132912400Y-92077400D02*
X133037400Y-92077400D01*
G75*
G02*
X133099900Y-92139900I0J-62500D01*
G01*
X133099900Y-92889900D01*
G75*
G02*
X133037400Y-92952400I-62500J0D01*
G01*
X132912400Y-92952400D01*
G75*
G02*
X132849900Y-92889900I0J62500D01*
G01*
X132849900Y-92139900D01*
G75*
G02*
X132912400Y-92077400I62500J0D01*
G01*
G37*
G36*
G01*
X133412400Y-92077400D02*
X133537400Y-92077400D01*
G75*
G02*
X133599900Y-92139900I0J-62500D01*
G01*
X133599900Y-92889900D01*
G75*
G02*
X133537400Y-92952400I-62500J0D01*
G01*
X133412400Y-92952400D01*
G75*
G02*
X133349900Y-92889900I0J62500D01*
G01*
X133349900Y-92139900D01*
G75*
G02*
X133412400Y-92077400I62500J0D01*
G01*
G37*
G36*
G01*
X133912400Y-92077400D02*
X134037400Y-92077400D01*
G75*
G02*
X134099900Y-92139900I0J-62500D01*
G01*
X134099900Y-92889900D01*
G75*
G02*
X134037400Y-92952400I-62500J0D01*
G01*
X133912400Y-92952400D01*
G75*
G02*
X133849900Y-92889900I0J62500D01*
G01*
X133849900Y-92139900D01*
G75*
G02*
X133912400Y-92077400I62500J0D01*
G01*
G37*
G36*
G01*
X134412400Y-92077400D02*
X134537400Y-92077400D01*
G75*
G02*
X134599900Y-92139900I0J-62500D01*
G01*
X134599900Y-92889900D01*
G75*
G02*
X134537400Y-92952400I-62500J0D01*
G01*
X134412400Y-92952400D01*
G75*
G02*
X134349900Y-92889900I0J62500D01*
G01*
X134349900Y-92139900D01*
G75*
G02*
X134412400Y-92077400I62500J0D01*
G01*
G37*
G36*
G01*
X134787400Y-91702400D02*
X135537400Y-91702400D01*
G75*
G02*
X135599900Y-91764900I0J-62500D01*
G01*
X135599900Y-91889900D01*
G75*
G02*
X135537400Y-91952400I-62500J0D01*
G01*
X134787400Y-91952400D01*
G75*
G02*
X134724900Y-91889900I0J62500D01*
G01*
X134724900Y-91764900D01*
G75*
G02*
X134787400Y-91702400I62500J0D01*
G01*
G37*
G36*
G01*
X134787400Y-91202400D02*
X135537400Y-91202400D01*
G75*
G02*
X135599900Y-91264900I0J-62500D01*
G01*
X135599900Y-91389900D01*
G75*
G02*
X135537400Y-91452400I-62500J0D01*
G01*
X134787400Y-91452400D01*
G75*
G02*
X134724900Y-91389900I0J62500D01*
G01*
X134724900Y-91264900D01*
G75*
G02*
X134787400Y-91202400I62500J0D01*
G01*
G37*
G36*
G01*
X134787400Y-90702400D02*
X135537400Y-90702400D01*
G75*
G02*
X135599900Y-90764900I0J-62500D01*
G01*
X135599900Y-90889900D01*
G75*
G02*
X135537400Y-90952400I-62500J0D01*
G01*
X134787400Y-90952400D01*
G75*
G02*
X134724900Y-90889900I0J62500D01*
G01*
X134724900Y-90764900D01*
G75*
G02*
X134787400Y-90702400I62500J0D01*
G01*
G37*
G36*
G01*
X134787400Y-90202400D02*
X135537400Y-90202400D01*
G75*
G02*
X135599900Y-90264900I0J-62500D01*
G01*
X135599900Y-90389900D01*
G75*
G02*
X135537400Y-90452400I-62500J0D01*
G01*
X134787400Y-90452400D01*
G75*
G02*
X134724900Y-90389900I0J62500D01*
G01*
X134724900Y-90264900D01*
G75*
G02*
X134787400Y-90202400I62500J0D01*
G01*
G37*
G36*
G01*
X134787400Y-89702400D02*
X135537400Y-89702400D01*
G75*
G02*
X135599900Y-89764900I0J-62500D01*
G01*
X135599900Y-89889900D01*
G75*
G02*
X135537400Y-89952400I-62500J0D01*
G01*
X134787400Y-89952400D01*
G75*
G02*
X134724900Y-89889900I0J62500D01*
G01*
X134724900Y-89764900D01*
G75*
G02*
X134787400Y-89702400I62500J0D01*
G01*
G37*
G36*
G01*
X134787400Y-89202400D02*
X135537400Y-89202400D01*
G75*
G02*
X135599900Y-89264900I0J-62500D01*
G01*
X135599900Y-89389900D01*
G75*
G02*
X135537400Y-89452400I-62500J0D01*
G01*
X134787400Y-89452400D01*
G75*
G02*
X134724900Y-89389900I0J62500D01*
G01*
X134724900Y-89264900D01*
G75*
G02*
X134787400Y-89202400I62500J0D01*
G01*
G37*
G36*
G01*
X134787400Y-88702400D02*
X135537400Y-88702400D01*
G75*
G02*
X135599900Y-88764900I0J-62500D01*
G01*
X135599900Y-88889900D01*
G75*
G02*
X135537400Y-88952400I-62500J0D01*
G01*
X134787400Y-88952400D01*
G75*
G02*
X134724900Y-88889900I0J62500D01*
G01*
X134724900Y-88764900D01*
G75*
G02*
X134787400Y-88702400I62500J0D01*
G01*
G37*
G36*
G01*
X134787400Y-88202400D02*
X135537400Y-88202400D01*
G75*
G02*
X135599900Y-88264900I0J-62500D01*
G01*
X135599900Y-88389900D01*
G75*
G02*
X135537400Y-88452400I-62500J0D01*
G01*
X134787400Y-88452400D01*
G75*
G02*
X134724900Y-88389900I0J62500D01*
G01*
X134724900Y-88264900D01*
G75*
G02*
X134787400Y-88202400I62500J0D01*
G01*
G37*
D12*
X132724900Y-90077400D03*
G36*
G01*
X154064900Y-86457400D02*
X154064900Y-86797400D01*
G75*
G02*
X153924900Y-86937400I-140000J0D01*
G01*
X153644900Y-86937400D01*
G75*
G02*
X153504900Y-86797400I0J140000D01*
G01*
X153504900Y-86457400D01*
G75*
G02*
X153644900Y-86317400I140000J0D01*
G01*
X153924900Y-86317400D01*
G75*
G02*
X154064900Y-86457400I0J-140000D01*
G01*
G37*
G36*
G01*
X153104900Y-86457400D02*
X153104900Y-86797400D01*
G75*
G02*
X152964900Y-86937400I-140000J0D01*
G01*
X152684900Y-86937400D01*
G75*
G02*
X152544900Y-86797400I0J140000D01*
G01*
X152544900Y-86457400D01*
G75*
G02*
X152684900Y-86317400I140000J0D01*
G01*
X152964900Y-86317400D01*
G75*
G02*
X153104900Y-86457400I0J-140000D01*
G01*
G37*
G36*
G01*
X136749900Y-87489900D02*
X136749900Y-86989900D01*
G75*
G02*
X136974900Y-86764900I225000J0D01*
G01*
X137424900Y-86764900D01*
G75*
G02*
X137649900Y-86989900I0J-225000D01*
G01*
X137649900Y-87489900D01*
G75*
G02*
X137424900Y-87714900I-225000J0D01*
G01*
X136974900Y-87714900D01*
G75*
G02*
X136749900Y-87489900I0J225000D01*
G01*
G37*
G36*
G01*
X138299900Y-87489900D02*
X138299900Y-86989900D01*
G75*
G02*
X138524900Y-86764900I225000J0D01*
G01*
X138974900Y-86764900D01*
G75*
G02*
X139199900Y-86989900I0J-225000D01*
G01*
X139199900Y-87489900D01*
G75*
G02*
X138974900Y-87714900I-225000J0D01*
G01*
X138524900Y-87714900D01*
G75*
G02*
X138299900Y-87489900I0J225000D01*
G01*
G37*
G36*
G01*
X149874900Y-86457400D02*
X149874900Y-86797400D01*
G75*
G02*
X149734900Y-86937400I-140000J0D01*
G01*
X149454900Y-86937400D01*
G75*
G02*
X149314900Y-86797400I0J140000D01*
G01*
X149314900Y-86457400D01*
G75*
G02*
X149454900Y-86317400I140000J0D01*
G01*
X149734900Y-86317400D01*
G75*
G02*
X149874900Y-86457400I0J-140000D01*
G01*
G37*
G36*
G01*
X148914900Y-86457400D02*
X148914900Y-86797400D01*
G75*
G02*
X148774900Y-86937400I-140000J0D01*
G01*
X148494900Y-86937400D01*
G75*
G02*
X148354900Y-86797400I0J140000D01*
G01*
X148354900Y-86457400D01*
G75*
G02*
X148494900Y-86317400I140000J0D01*
G01*
X148774900Y-86317400D01*
G75*
G02*
X148914900Y-86457400I0J-140000D01*
G01*
G37*
M02*
