M48
; DRILL file {KiCad 8.99.0-2608-ga0707285a1} date 2024-10-22T09:16:46-0400
; FORMAT={-:-/ absolute / metric / decimal}
; #@! TF.CreationDate,2024-10-22T09:16:46-04:00
; #@! TF.GenerationSoftware,Kicad,Pcbnew,8.99.0-2608-ga0707285a1
; #@! TF.FileFunction,Plated,1,4,PTH
FMAT,2
METRIC
; #@! TA.AperFunction,Plated,PTH,ViaDrill
T1C0.200
; #@! TA.AperFunction,Plated,PTH,ComponentDrill
T2C0.600
; #@! TA.AperFunction,Plated,PTH,ComponentDrill
T3C1.100
%
G90
G05
T1
X126.418Y-89.387
X126.916Y-86.955
X126.918Y-93.693
X126.922Y-90.041
X127.018Y-124.993
X127.154Y-121.307
X127.215Y-115.627
X127.355Y-122.49
X127.699Y-121.596
X127.754Y-95.294
X127.765Y-120.827
X127.815Y-115.627
X127.918Y-100.693
X127.918Y-102.893
X127.918Y-105.093
X127.939Y-89.785
X128.158Y-117.759
X128.254Y-121.602
X128.415Y-115.627
X128.518Y-88.477
X128.552Y-118.899
X128.618Y-91.077
X128.659Y-117.772
X128.783Y-118.296
X128.872Y-119.214
X128.985Y-121.853
X129.015Y-115.627
X129.115Y-87.727
X129.118Y-85.593
X129.138Y-117.95
X129.234Y-94.25
X129.318Y-91.827
X129.321Y-89.186
X129.415Y-88.527
X129.515Y-92.427
X130.318Y-123.293
X130.413Y-92.514
X130.475Y-82.54
X130.475Y-83.04
X130.475Y-83.54
X130.518Y-105.043
X130.575Y-82.04
X130.575Y-84.04
X130.768Y-99.393
X130.818Y-94.293
X130.818Y-94.993
X130.818Y-95.693
X130.818Y-96.393
X130.875Y-84.44
X131.204Y-101.039
X131.375Y-84.64
X131.415Y-119.927
X131.57Y-103.275
X131.574Y-102.278
X131.816Y-115.089
X131.875Y-84.84
X131.915Y-108.827
X131.915Y-109.427
X132.275Y-85.14
X132.318Y-86.841
X132.362Y-115.37
X132.515Y-108.827
X132.515Y-109.427
X132.565Y-114.677
X132.575Y-85.64
X132.614Y-96.619
X132.618Y-122.393
X132.725Y-90.077
X132.775Y-86.14
X132.818Y-86.831
X132.945Y-111.645
X133.0Y-115.326
X133.115Y-108.827
X133.115Y-109.427
X133.129Y-107.077
X133.171Y-99.2
X133.275Y-107.755
X133.369Y-112.76
X133.401Y-111.653
X133.411Y-99.815
X133.515Y-100.627
X133.518Y-101.193
X133.615Y-112.173
X133.675Y-113.117
X133.869Y-111.753
X133.932Y-107.755
X134.032Y-96.218
X134.075Y-85.04
X134.275Y-84.64
X134.275Y-85.54
X134.315Y-118.627
X134.315Y-119.127
X134.475Y-86.04
X134.537Y-107.723
X134.575Y-86.54
X134.775Y-84.54
X134.815Y-118.627
X134.815Y-119.127
X134.918Y-105.427
X134.923Y-106.565
X134.923Y-107.108
X135.165Y-87.856
X135.275Y-84.54
X135.451Y-105.428
X135.615Y-93.127
X135.618Y-103.793
X135.618Y-116.393
X135.618Y-117.193
X135.775Y-84.54
X135.946Y-88.826
X136.118Y-118.493
X136.275Y-84.54
X136.415Y-93.627
X136.475Y-87.64
X136.475Y-88.14
X136.513Y-116.266
X136.518Y-105.593
X136.572Y-97.173
X136.607Y-100.61
X136.618Y-119.993
X136.715Y-114.027
X136.715Y-114.527
X136.775Y-84.54
X136.816Y-99.002
X137.07Y-94.612
X137.115Y-117.527
X137.215Y-114.027
X137.215Y-114.527
X137.275Y-84.54
X137.615Y-117.727
X137.715Y-114.027
X137.715Y-114.527
X137.775Y-84.54
X137.78Y-108.998
X138.115Y-117.527
X138.215Y-114.027
X138.215Y-114.527
X138.257Y-119.969
X138.275Y-84.54
X138.518Y-98.493
X138.718Y-116.248
X138.718Y-102.293
X138.775Y-84.54
X138.792Y-88.169
X138.918Y-98.893
X139.275Y-84.54
X139.501Y-101.504
X139.501Y-104.104
X139.55Y-89.563
X139.587Y-87.211
X139.618Y-106.693
X139.775Y-81.84
X139.775Y-84.44
X139.818Y-113.493
X139.874Y-90.523
X139.975Y-82.34
X139.975Y-82.94
X139.975Y-83.44
X139.975Y-83.94
X140.309Y-121.612
X140.401Y-95.004
X140.401Y-108.504
X140.401Y-115.104
X140.41Y-97.521
X140.418Y-110.993
X140.628Y-119.947
X140.815Y-100.827
X141.522Y-93.705
X142.118Y-89.797
X142.125Y-87.927
X142.924Y-85.087
X143.025Y-93.722
X143.33Y-121.197
X143.618Y-90.293
X143.718Y-97.093
X143.718Y-104.893
X143.718Y-110.093
X143.718Y-116.593
X143.918Y-91.993
X144.218Y-89.493
X144.418Y-100.593
X144.618Y-96.393
X144.718Y-93.518
X144.838Y-94.227
X144.918Y-120.909
X145.328Y-90.333
X145.408Y-88.478
X145.512Y-124.709
X145.568Y-94.168
X145.579Y-120.909
X145.601Y-94.896
X145.711Y-128.133
X145.829Y-89.479
X146.22Y-88.429
X146.251Y-123.766
X146.304Y-94.202
X146.305Y-121.006
X146.348Y-87.605
X146.375Y-85.34
X146.418Y-93.493
X147.04Y-124.222
X147.096Y-88.182
X147.118Y-113.493
X147.206Y-108.168
X147.218Y-102.593
X147.241Y-94.194
X147.247Y-93.668
X147.318Y-97.393
X147.479Y-86.775
X147.51Y-93.187
X147.538Y-90.525
X147.804Y-93.668
X147.815Y-87.627
X147.835Y-94.194
X148.025Y-89.092
X148.318Y-118.393
X148.889Y-123.999
X149.394Y-93.225
X149.468Y-120.693
X149.543Y-103.35
X149.543Y-110.986
X149.543Y-116.304
X149.547Y-97.765
X150.118Y-93.553
X150.318Y-112.693
X150.327Y-101.699
X150.593Y-96.918
X150.621Y-113.657
X150.667Y-121.061
X150.718Y-114.693
X150.74Y-99.411
X150.82Y-100.658
X150.971Y-88.438
X151.203Y-90.203
X151.311Y-95.509
X151.418Y-120.693
X151.443Y-94.268
X151.542Y-125.031
X151.758Y-86.829
X152.005Y-87.627
X152.481Y-89.018
X152.701Y-125.204
X152.707Y-121.116
X153.093Y-97.918
X153.093Y-98.668
X153.093Y-99.418
X153.093Y-100.168
X153.093Y-100.918
X153.093Y-101.668
X153.093Y-102.668
X153.093Y-104.168
X153.093Y-105.168
X153.093Y-106.168
X153.093Y-107.168
X153.093Y-108.668
X153.093Y-109.668
X153.093Y-111.668
X153.093Y-112.418
X153.093Y-113.168
X153.093Y-113.918
X153.093Y-114.668
X153.093Y-115.668
X153.093Y-116.418
X153.093Y-117.168
X153.318Y-110.893
X153.377Y-125.964
X153.593Y-104.668
X153.593Y-105.668
X153.593Y-106.668
X153.593Y-109.168
X153.618Y-96.593
X153.645Y-125.174
X153.653Y-115.157
X153.946Y-123.89
X153.978Y-102.163
X153.986Y-95.168
X154.282Y-90.007
X154.674Y-121.079
X154.948Y-98.783
X155.069Y-88.457
X155.088Y-89.652
X155.118Y-103.393
X155.118Y-107.893
X155.218Y-118.293
X155.32Y-96.246
X155.346Y-126.05
X155.917Y-126.649
X155.949Y-121.088
X155.963Y-123.823
X156.278Y-86.81
X156.405Y-87.627
X156.982Y-89.131
X157.085Y-126.319
X157.268Y-120.693
X157.318Y-115.163
X157.508Y-105.163
X157.508Y-106.123
X157.582Y-90.007
X157.926Y-97.568
X158.318Y-110.893
X158.918Y-100.893
X159.224Y-98.377
X159.228Y-121.079
X159.398Y-113.483
X159.501Y-111.704
X159.618Y-88.493
X159.743Y-100.468
X159.843Y-106.168
X159.943Y-102.068
X160.184Y-105.168
X160.418Y-125.393
X160.517Y-90.497
X160.518Y-115.563
X160.543Y-112.468
X160.55Y-93.298
X160.692Y-104.17
X160.75Y-124.507
X160.918Y-127.893
X160.938Y-113.533
X161.047Y-103.256
X161.162Y-90.501
X161.176Y-121.07
X161.242Y-95.052
X161.276Y-112.535
X161.348Y-108.703
X161.388Y-118.863
X161.491Y-117.134
X161.618Y-88.593
X162.001Y-110.168
X162.01Y-108.704
X162.114Y-118.852
X162.201Y-115.604
X162.318Y-125.093
X163.618Y-86.793
X163.718Y-89.993
X163.745Y-121.052
X164.318Y-110.693
X164.497Y-99.785
X164.518Y-127.893
X164.79Y-117.16
X164.807Y-114.026
X164.807Y-115.092
X164.908Y-105.44
X165.074Y-121.061
X165.213Y-106.101
X165.518Y-106.71
X165.601Y-98.804
X166.001Y-110.704
X166.34Y-121.034
X166.418Y-123.793
X167.041Y-93.24
X167.042Y-121.036
X167.118Y-97.193
X167.871Y-117.243
X168.018Y-89.293
X168.218Y-95.193
X169.023Y-89.257
X169.429Y-118.445
X169.591Y-93.249
X170.118Y-85.793
X170.282Y-93.259
X170.624Y-89.998
X170.918Y-127.993
X171.294Y-112.637
X171.301Y-105.804
X171.449Y-106.837
X171.476Y-118.557
X171.494Y-99.114
X171.512Y-104.278
X171.563Y-122.357
X172.218Y-92.693
X172.418Y-89.393
X172.418Y-120.793
X172.918Y-127.993
X174.082Y-122.357
X174.118Y-124.093
X174.162Y-104.186
X174.782Y-111.335
X174.791Y-98.276
X174.791Y-117.682
X174.815Y-113.627
X174.825Y-100.577
X174.825Y-105.477
X174.845Y-107.72
X174.918Y-85.393
X175.018Y-94.693
X175.215Y-120.027
T3
X128.125Y-110.157
X128.125Y-112.697
X128.51Y-126.726
X131.05Y-126.726
X133.59Y-126.726
X136.13Y-126.726
X138.67Y-126.726
X141.21Y-126.726
X143.75Y-126.726
X147.83Y-83.292
X150.37Y-83.292
X152.91Y-83.292
X155.45Y-83.292
X157.99Y-83.292
X160.53Y-83.292
X163.07Y-83.292
X165.61Y-83.292
X168.15Y-83.292
X170.69Y-83.292
T2
X127.506Y-98.707G85X128.106Y-98.707
G05
X127.506Y-107.347G85X128.106Y-107.347
G05
X131.256Y-98.707G85X132.356Y-98.707
G05
X131.256Y-107.347G85X132.356Y-107.347
G05
M30
